<svg width="720" height="250" viewBox="0 0 720 250" fill="none" xmlns="http://www.w3.org/2000/svg">
<path d="M0 8C0 3.58172 3.58172 0 8 0H712C716.418 0 720 3.58172 720 8V250H0V8Z" fill="#E0E0E0"/>
<path d="M703.5 26.5H704V31.5H703.5V36.5H704V41.5H703.5V46.5H704V51.5H703.5V56.5H704V61.5H703.5V66.5H704V71.5H703.5V76.5H704V81.5H703.5V86.5H704V91.5H703.5V96.5H704V101.5H703.5V106.5H704V111.5H703.5V116.5H704V121.5H703.5V126.5H704V131.5H703.5V136.5H704V141.5H703.5V146.5H704V151.5H703.5V156.5H704V161.5H703.5V166.5H704V171.5H703.5V176.5H704V181.5H703.5V186.5H704V191.5H703.5V196.5H704V201.5H703.5V206.5H704V211.5H703.5V216.5H704V221.5H703.5V226.5H704V231.5H703.5V233.5H701.508V234H696.522V233.5H691.537V234H686.551V233.5H681.566V234H676.58V233.5H671.595V234H666.609V233.5H661.624V234H656.638V233.5H651.653V234H646.667V233.5H641.682V234H636.696V233.5H631.71V234H626.725V233.5H621.739V234H616.754V233.5H611.768V234H606.783V233.5H601.797V234H596.812V233.5H591.826V234H586.841V233.5H581.855V234H576.87V233.5H571.884V234H566.898V233.5H561.913V234H556.927V233.5H551.942V234H546.956V233.5H541.971V234H536.985V233.5H532V234H527.014V233.5H522.029V234H517.043V233.5H512.058V234H507.072V233.5H502.087V234H497.101V233.5H492.116V234H487.13V233.5H482.145V234H477.159V233.5H472.174V234H467.188V233.5H462.203V234H457.217V233.5H452.232V234H447.246V233.5H442.261V234H437.275V233.5H432.29V234H427.304V233.5H422.319V234H417.333V233.5H412.348V234H407.362V233.5H402.377V234H397.391V233.5H392.406V234H387.42V233.5H382.435V234H377.449V233.5H372.464V234H367.478V233.5H362.493V234H357.507V233.5H352.522V234H347.536V233.5H342.551V234H337.565V233.5H332.58V234H327.594V233.5H322.609V234H317.623V233.5H312.638V234H307.652V233.5H302.667V234H297.681V233.5H292.696V234H287.71V233.5H282.725V234H277.739V233.5H272.754V234H267.768V233.5H262.783V234H257.797V233.5H252.811V234H247.826V233.5H242.84V234H237.855V233.5H232.869V234H227.884V233.5H222.898V234H217.913V233.5H212.927V234H207.942V233.5H202.956V234H197.971V233.5H192.985V234H188V233.5H183.014V234H178.029V233.5H173.043V234H168.058V233.5H163.072V234H158.087V233.5H153.101V234H148.116V233.5H143.13V234H138.145V233.5H133.159V234H128.174V233.5H123.188V234H118.203V233.5H113.217V234H108.232V233.5H103.246V234H98.2609V233.5H93.2754V234H88.2899V233.5H83.3044V234H78.3188V233.5H73.3333V234H68.3478V233.5H63.3623V234H58.3768V233.5H53.3913V234H48.4058V233.5H43.4203V234H38.4348V233.5H33.4493V234H28.4638V233.5H23.4783V234H18.4928V233.5H16.5V231.5H16V226.5H16.5V221.5H16V216.5H16.5V211.5H16V206.5H16.5V201.5H16V196.5H16.5V191.5H16V186.5H16.5V181.5H16V176.5H16.5V171.5H16V166.5H16.5V161.5H16V156.5H16.5V151.5H16V146.5H16.5V141.5H16V136.5H16.5V131.5H16V126.5H16.5V121.5H16V116.5H16.5V111.5H16V106.5H16.5V101.5H16V96.5H16.5V91.5H16V86.5H16.5V81.5H16V76.5H16.5V71.5H16V66.5H16.5V61.5H16V56.5H16.5V51.5H16V46.5H16.5V41.5H16V36.5H16.5V31.5H16V26.5H16.5V24C16.5 22.9821 16.7025 22.0128 17.0689 21.1292L16.607 20.9377C17.418 18.9822 18.9822 17.418 20.9377 16.607L21.1292 17.0689C22.0128 16.7025 22.9821 16.5 24 16.5H26.5068V16H31.5217V16.5H36.5367V16H41.5516V16.5H46.5666V16H51.5815V16.5H56.5965V16H61.6115V16.5H66.6264V16H71.6414V16.5H76.6563V16H81.6712V16.5H86.6862V16H91.7012V16.5H96.7161V16H101.731V16.5H106.746V16H111.761V16.5H116.776V16H121.791V16.5H126.806V16H131.821V16.5H136.836V16H141.851V16.5H146.866V16H151.881V16.5H156.896V16H161.911V16.5H166.925V16H171.94V16.5H176.955V16H181.97V16.5H186.985V16H192V16.5H197.015V16H202.03V16.5H207.045V16H212.06V16.5H217.075V16H222.09V16.5H227.105V16H232.12V16.5H237.134V16H242.149V16.5H247.164V16H252.179V16.5H257.194V16H262.209V16.5H267.224V16H272.239V16.5H277.254V16H282.269V16.5H287.284V16H292.299V16.5H297.314V16H302.328V16.5H307.343V16H312.358V16.5H317.373V16H322.388V16.5H327.403V16H332.418V16.5H337.433V16H342.448V16.5H347.463V16H352.478V16.5H357.493V16H362.508V16.5H367.522V16H372.537V16.5H377.552V16H382.567V16.5H387.582V16H392.597V16.5H397.612V16H402.627V16.5H407.642V16H412.657V16.5H417.672V16H422.687V16.5H427.702V16H432.716V16.5H437.731V16H442.746V16.5H447.761V16H452.776V16.5H457.791V16H462.806V16.5H467.821V16H472.836V16.5H477.851V16H482.866V16.5H487.881V16H492.896V16.5H497.91V16H502.925V16.5H507.94V16H512.955V16.5H517.97V16H522.985V16.5H528V16H533.015V16.5H538.03V16H543.045V16.5H548.06V16H553.075V16.5H558.09V16H563.104V16.5H568.119V16H573.134V16.5H578.149V16H583.164V16.5H588.179V16H593.194V16.5H598.209V16H603.224V16.5H608.239V16H613.254V16.5H618.269V16H623.284V16.5H628.299V16H633.313V16.5H638.328V16H643.343V16.5H648.358V16H653.373V16.5H658.388V16H663.403V16.5H668.418V16H673.433V16.5H678.448V16H683.463V16.5H688.478V16H693.493V16.5H696C697.018 16.5 697.987 16.7025 698.871 17.0689L699.062 16.607C701.018 17.418 702.582 18.9822 703.393 20.9377L702.931 21.1292C703.297 22.0128 703.5 22.9821 703.5 24V26.5Z" stroke="#666666" stroke-dasharray="5 5"/>
<path d="M268.792 128.488C268.792 129.32 268.592 130.096 268.192 130.816C267.792 131.52 267.184 132.088 266.368 132.52C265.552 132.952 264.552 133.168 263.368 133.168C262.216 133.168 261.184 132.968 260.272 132.568C259.36 132.152 258.632 131.576 258.088 130.84C257.544 130.104 257.232 129.256 257.152 128.296H260.08C260.16 129.032 260.472 129.664 261.016 130.192C261.576 130.72 262.32 130.984 263.248 130.984C264.08 130.984 264.72 130.76 265.168 130.312C265.632 129.864 265.864 129.288 265.864 128.584C265.864 127.976 265.696 127.48 265.36 127.096C265.024 126.696 264.608 126.384 264.112 126.16C263.616 125.936 262.936 125.68 262.072 125.392C261.016 125.056 260.152 124.72 259.48 124.384C258.824 124.048 258.264 123.56 257.8 122.92C257.336 122.28 257.104 121.44 257.104 120.4C257.104 119.488 257.328 118.688 257.776 118C258.224 117.312 258.864 116.784 259.696 116.416C260.528 116.032 261.488 115.84 262.576 115.84C264.304 115.84 265.672 116.256 266.68 117.088C267.704 117.92 268.288 119.008 268.432 120.352H265.48C265.368 119.712 265.064 119.168 264.568 118.72C264.088 118.256 263.424 118.024 262.576 118.024C261.808 118.024 261.192 118.224 260.728 118.624C260.264 119.008 260.032 119.568 260.032 120.304C260.032 120.88 260.192 121.36 260.512 121.744C260.832 122.112 261.232 122.408 261.712 122.632C262.208 122.84 262.88 123.088 263.728 123.376C264.8 123.712 265.672 124.056 266.344 124.408C267.032 124.744 267.608 125.24 268.072 125.896C268.552 126.552 268.792 127.416 268.792 128.488ZM271.897 115.936C271.897 115.472 272.057 115.088 272.377 114.784C272.697 114.48 273.121 114.328 273.649 114.328C274.177 114.328 274.601 114.48 274.921 114.784C275.257 115.088 275.425 115.472 275.425 115.936C275.425 116.4 275.257 116.776 274.921 117.064C274.601 117.352 274.177 117.496 273.649 117.496C273.121 117.496 272.697 117.352 272.377 117.064C272.057 116.776 271.897 116.4 271.897 115.936ZM275.017 119.776V133H272.281V119.776H275.017ZM281.046 130.696H287.838V133H278.022V130.816L284.454 122.08H278.19V119.776H287.598V121.96L281.046 130.696ZM303.132 125.752C303.132 126.2 303.1 126.592 303.036 126.928H292.86C292.908 128.288 293.284 129.296 293.988 129.952C294.692 130.608 295.564 130.936 296.604 130.936C297.516 130.936 298.284 130.704 298.908 130.24C299.548 129.776 299.94 129.16 300.084 128.392H303.012C302.836 129.32 302.468 130.144 301.908 130.864C301.348 131.584 300.62 132.152 299.724 132.568C298.828 132.968 297.828 133.168 296.724 133.168C295.444 133.168 294.308 132.896 293.316 132.352C292.34 131.808 291.572 131.024 291.012 130C290.452 128.976 290.172 127.768 290.172 126.376C290.172 125 290.452 123.8 291.012 122.776C291.572 121.752 292.34 120.968 293.316 120.424C294.308 119.88 295.444 119.608 296.724 119.608C298.02 119.608 299.148 119.88 300.108 120.424C301.084 120.952 301.828 121.688 302.34 122.632C302.868 123.56 303.132 124.6 303.132 125.752ZM300.372 125.68C300.404 124.816 300.252 124.096 299.916 123.52C299.596 122.928 299.148 122.496 298.572 122.224C298.012 121.936 297.396 121.792 296.724 121.792C295.652 121.792 294.756 122.12 294.036 122.776C293.316 123.432 292.924 124.4 292.86 125.68H300.372ZM309.067 119.8V122.824H305.971V119.8H309.067ZM309.067 129.976V133H305.971V129.976H309.067ZM317.484 118.624V116.056H322.908V133H320.028V118.624H317.484ZM326.121 129.352V127.048L334.545 115.912H337.473V126.952H339.849V129.352H337.473V133H334.713V129.352H326.121ZM334.905 119.176L328.953 126.952H334.905V119.176ZM342.106 129.352V127.048L350.53 115.912H353.458V126.952H355.834V129.352H353.458V133H350.698V129.352H342.106ZM350.89 119.176L344.938 126.952H350.89V119.176ZM358.498 124.408C358.498 127.112 358.978 129.232 359.938 130.768C360.898 132.288 362.498 133.048 364.738 133.048C366.978 133.048 368.578 132.28 369.538 130.744C370.498 129.208 370.978 127.096 370.978 124.408C370.978 121.736 370.498 119.64 369.538 118.12C368.578 116.584 366.978 115.816 364.738 115.816C362.498 115.816 360.898 116.576 359.938 118.096C358.978 119.616 358.498 121.72 358.498 124.408ZM368.242 124.408C368.242 126.36 368.002 127.856 367.522 128.896C367.042 129.936 366.114 130.456 364.738 130.456C363.346 130.456 362.41 129.936 361.93 128.896C361.45 127.856 361.21 126.36 361.21 124.408C361.21 122.472 361.45 120.992 361.93 119.968C362.41 118.944 363.346 118.432 364.738 118.432C366.114 118.432 367.042 118.952 367.522 119.992C368.002 121.016 368.242 122.488 368.242 124.408ZM388.568 119.608C389.72 119.608 390.744 119.88 391.64 120.424C392.552 120.968 393.264 121.752 393.776 122.776C394.288 123.8 394.544 125 394.544 126.376C394.544 127.768 394.288 128.976 393.776 130C393.264 131.024 392.552 131.808 391.64 132.352C390.744 132.896 389.72 133.168 388.568 133.168C387.368 133.168 386.344 132.872 385.496 132.28C384.648 131.688 384.056 130.904 383.72 129.928V133H380.984V115.24H383.72V122.848C384.056 121.872 384.648 121.088 385.496 120.496C386.344 119.904 387.368 119.608 388.568 119.608ZM387.728 122.008C386.96 122.008 386.272 122.192 385.664 122.56C385.056 122.912 384.576 123.424 384.224 124.096C383.872 124.752 383.696 125.512 383.696 126.376C383.696 127.256 383.872 128.024 384.224 128.68C384.576 129.336 385.056 129.848 385.664 130.216C386.272 130.568 386.96 130.744 387.728 130.744C388.944 130.744 389.92 130.36 390.656 129.592C391.392 128.808 391.76 127.736 391.76 126.376C391.76 125.032 391.392 123.968 390.656 123.184C389.92 122.4 388.944 122.008 387.728 122.008ZM399.489 119.776L403.449 129.496L407.121 119.776H410.169L402.177 139.288H399.129L401.985 132.688L396.417 119.776H399.489ZM430.422 118.216H422.046V123.256C422.43 122.76 422.974 122.368 423.678 122.08C424.382 121.776 425.158 121.624 426.006 121.624C427.19 121.624 428.174 121.88 428.958 122.392C429.742 122.888 430.318 123.552 430.686 124.384C431.07 125.216 431.262 126.136 431.262 127.144C431.262 128.92 430.766 130.36 429.773 131.464C428.782 132.552 427.342 133.096 425.454 133.096C423.678 133.096 422.246 132.624 421.158 131.68C420.07 130.736 419.478 129.48 419.382 127.912H422.07C422.214 128.776 422.566 129.456 423.126 129.952C423.702 130.448 424.43 130.696 425.31 130.696C426.398 130.696 427.214 130.368 427.758 129.712C428.302 129.056 428.574 128.184 428.574 127.096C428.574 126.072 428.294 125.272 427.734 124.696C427.174 124.104 426.374 123.808 425.334 123.808C424.598 123.808 423.95 123.968 423.39 124.288C422.846 124.608 422.446 125.032 422.19 125.56H419.526V115.792H430.422V118.216ZM434.412 124.408C434.412 127.112 434.892 129.232 435.852 130.768C436.812 132.288 438.412 133.048 440.652 133.048C442.892 133.048 444.492 132.28 445.452 130.744C446.412 129.208 446.892 127.096 446.892 124.408C446.892 121.736 446.412 119.64 445.452 118.12C444.492 116.584 442.892 115.816 440.652 115.816C438.412 115.816 436.812 116.576 435.852 118.096C434.892 119.616 434.412 121.72 434.412 124.408ZM444.156 124.408C444.156 126.36 443.916 127.856 443.436 128.896C442.956 129.936 442.028 130.456 440.652 130.456C439.26 130.456 438.324 129.936 437.844 128.896C437.364 127.856 437.124 126.36 437.124 124.408C437.124 122.472 437.364 120.992 437.844 119.968C438.324 118.944 439.26 118.432 440.652 118.432C442.028 118.432 442.956 118.952 443.436 119.992C443.916 121.016 444.156 122.488 444.156 124.408ZM450.115 124.408C450.115 127.112 450.595 129.232 451.555 130.768C452.515 132.288 454.115 133.048 456.355 133.048C458.595 133.048 460.195 132.28 461.155 130.744C462.115 129.208 462.595 127.096 462.595 124.408C462.595 121.736 462.115 119.64 461.155 118.12C460.195 116.584 458.595 115.816 456.355 115.816C454.115 115.816 452.515 116.576 451.555 118.096C450.595 119.616 450.115 121.72 450.115 124.408ZM459.859 124.408C459.859 126.36 459.619 127.856 459.139 128.896C458.659 129.936 457.731 130.456 456.355 130.456C454.963 130.456 454.027 129.936 453.547 128.896C453.067 127.856 452.827 126.36 452.827 124.408C452.827 122.472 453.067 120.992 453.547 119.968C454.027 118.944 454.963 118.432 456.355 118.432C457.731 118.432 458.659 118.952 459.139 119.992C459.619 121.016 459.859 122.488 459.859 124.408Z" fill="#666666"/>
<path d="M200.008 70.528C200.008 72.24 199.664 73.736 198.976 75.016C198.288 76.28 197.272 77.264 195.928 77.968C194.6 78.656 193 79 191.128 79H185.752V62.08H191.128C193 62.08 194.6 62.424 195.928 63.112C197.272 63.784 198.288 64.76 198.976 66.04C199.664 67.304 200.008 68.8 200.008 70.528ZM190.96 77.032C193.168 77.032 194.856 76.464 196.024 75.328C197.192 74.192 197.776 72.592 197.776 70.528C197.776 68.464 197.192 66.864 196.024 65.728C194.872 64.576 193.184 64 190.96 64H187.936V77.032H190.96ZM205.889 68.488C206.321 67.576 206.953 66.872 207.785 66.376C208.617 65.864 209.609 65.608 210.761 65.608V67.984H210.089C208.857 67.984 207.849 68.304 207.065 68.944C206.281 69.568 205.889 70.608 205.889 72.064V79H203.705V65.824H205.889V68.488ZM219.066 65.656C220.346 65.656 221.426 65.976 222.306 66.616C223.202 67.256 223.826 68.112 224.178 69.184V65.824H226.362V79H224.178V75.64C223.826 76.712 223.202 77.568 222.306 78.208C221.426 78.848 220.346 79.168 219.066 79.168C217.898 79.168 216.858 78.896 215.946 78.352C215.034 77.808 214.314 77.032 213.786 76.024C213.274 75 213.018 73.8 213.018 72.424C213.018 71.048 213.274 69.848 213.786 68.824C214.314 67.8 215.034 67.016 215.946 66.472C216.858 65.928 217.898 65.656 219.066 65.656ZM219.69 67.6C218.346 67.6 217.266 68.032 216.45 68.896C215.65 69.744 215.25 70.92 215.25 72.424C215.25 73.928 215.65 75.112 216.45 75.976C217.266 76.824 218.346 77.248 219.69 77.248C220.554 77.248 221.322 77.048 221.994 76.648C222.682 76.248 223.218 75.688 223.602 74.968C223.986 74.232 224.178 73.384 224.178 72.424C224.178 71.464 223.986 70.616 223.602 69.88C223.218 69.144 222.682 68.584 221.994 68.2C221.322 67.8 220.554 67.6 219.69 67.6ZM235.988 65.656C237.268 65.656 238.348 65.976 239.228 66.616C240.124 67.256 240.748 68.112 241.1 69.184V65.824H243.284V79.216C243.284 80.432 243.028 81.512 242.516 82.456C242.004 83.4 241.284 84.136 240.356 84.664C239.428 85.192 238.348 85.456 237.116 85.456C235.34 85.456 233.892 85.024 232.772 84.16C231.652 83.312 230.94 82.16 230.636 80.704H232.796C233.052 81.584 233.532 82.272 234.236 82.768C234.956 83.28 235.876 83.536 236.996 83.536C238.18 83.536 239.156 83.152 239.924 82.384C240.708 81.632 241.1 80.576 241.1 79.216V75.64C240.748 76.712 240.124 77.568 239.228 78.208C238.348 78.848 237.268 79.168 235.988 79.168C234.82 79.168 233.78 78.896 232.868 78.352C231.956 77.808 231.236 77.032 230.708 76.024C230.196 75 229.94 73.8 229.94 72.424C229.94 71.048 230.196 69.848 230.708 68.824C231.236 67.8 231.956 67.016 232.868 66.472C233.78 65.928 234.82 65.656 235.988 65.656ZM236.612 67.6C235.268 67.6 234.188 68.032 233.372 68.896C232.572 69.744 232.172 70.92 232.172 72.424C232.172 73.928 232.572 75.112 233.372 75.976C234.188 76.824 235.268 77.248 236.612 77.248C237.476 77.248 238.244 77.048 238.916 76.648C239.604 76.248 240.14 75.688 240.524 74.968C240.908 74.232 241.1 73.384 241.1 72.424C241.1 71.464 240.908 70.616 240.524 69.88C240.14 69.144 239.604 68.584 238.916 68.2C238.244 67.8 237.476 67.6 236.612 67.6ZM260.166 65.656C261.43 65.656 262.558 65.928 263.55 66.472C264.558 67.016 265.342 67.8 265.902 68.824C266.478 69.848 266.766 71.048 266.766 72.424C266.766 73.8 266.478 75 265.902 76.024C265.342 77.032 264.558 77.808 263.55 78.352C262.558 78.896 261.43 79.168 260.166 79.168C258.902 79.168 257.766 78.896 256.758 78.352C255.766 77.808 254.982 77.032 254.406 76.024C253.83 75 253.542 73.8 253.542 72.424C253.542 71.048 253.83 69.848 254.406 68.824C254.982 67.8 255.766 67.016 256.758 66.472C257.766 65.928 258.902 65.656 260.166 65.656ZM260.166 67.576C259.382 67.576 258.654 67.752 257.982 68.104C257.326 68.456 256.79 69 256.374 69.736C255.974 70.456 255.774 71.352 255.774 72.424C255.774 73.48 255.974 74.376 256.374 75.112C256.79 75.832 257.326 76.368 257.982 76.72C258.654 77.072 259.382 77.248 260.166 77.248C260.95 77.248 261.67 77.072 262.326 76.72C262.998 76.368 263.534 75.832 263.934 75.112C264.35 74.376 264.557 73.48 264.557 72.424C264.557 71.352 264.35 70.456 263.934 69.736C263.534 69 262.998 68.456 262.326 68.104C261.67 67.752 260.95 67.576 260.166 67.576ZM272.545 68.488C272.977 67.576 273.609 66.872 274.441 66.376C275.273 65.864 276.265 65.608 277.417 65.608V67.984H276.745C275.513 67.984 274.505 68.304 273.721 68.944C272.937 69.568 272.545 70.608 272.545 72.064V79H270.361V65.824H272.545V68.488ZM292.402 65.656C293.682 65.656 294.762 65.976 295.642 66.616C296.538 67.256 297.162 68.112 297.514 69.184V61.24H299.698V79H297.514V75.64C297.162 76.712 296.538 77.568 295.642 78.208C294.762 78.848 293.682 79.168 292.402 79.168C291.234 79.168 290.194 78.896 289.282 78.352C288.37 77.808 287.65 77.032 287.122 76.024C286.61 75 286.354 73.8 286.354 72.424C286.354 71.048 286.61 69.848 287.122 68.824C287.65 67.8 288.37 67.016 289.282 66.472C290.194 65.928 291.234 65.656 292.402 65.656ZM293.026 67.6C291.682 67.6 290.602 68.032 289.786 68.896C288.986 69.744 288.586 70.92 288.586 72.424C288.586 73.928 288.986 75.112 289.786 75.976C290.602 76.824 291.682 77.248 293.026 77.248C293.89 77.248 294.658 77.048 295.33 76.648C296.018 76.248 296.554 75.688 296.938 74.968C297.322 74.232 297.514 73.384 297.514 72.424C297.514 71.464 297.322 70.616 296.938 69.88C296.554 69.144 296.018 68.584 295.33 68.2C294.658 67.8 293.89 67.6 293.026 67.6ZM306.108 68.488C306.54 67.576 307.172 66.872 308.004 66.376C308.836 65.864 309.828 65.608 310.98 65.608V67.984H310.308C309.076 67.984 308.068 68.304 307.284 68.944C306.5 69.568 306.108 70.608 306.108 72.064V79H303.924V65.824H306.108V68.488ZM319.861 65.656C321.125 65.656 322.253 65.928 323.245 66.472C324.253 67.016 325.037 67.8 325.597 68.824C326.173 69.848 326.461 71.048 326.461 72.424C326.461 73.8 326.173 75 325.597 76.024C325.037 77.032 324.253 77.808 323.245 78.352C322.253 78.896 321.125 79.168 319.861 79.168C318.597 79.168 317.461 78.896 316.453 78.352C315.461 77.808 314.677 77.032 314.101 76.024C313.525 75 313.237 73.8 313.237 72.424C313.237 71.048 313.525 69.848 314.101 68.824C314.677 67.8 315.461 67.016 316.453 66.472C317.461 65.928 318.597 65.656 319.861 65.656ZM319.861 67.576C319.077 67.576 318.349 67.752 317.677 68.104C317.021 68.456 316.485 69 316.069 69.736C315.669 70.456 315.469 71.352 315.469 72.424C315.469 73.48 315.669 74.376 316.069 75.112C316.485 75.832 317.021 76.368 317.677 76.72C318.349 77.072 319.077 77.248 319.861 77.248C320.645 77.248 321.365 77.072 322.021 76.72C322.693 76.368 323.229 75.832 323.629 75.112C324.045 74.376 324.253 73.48 324.253 72.424C324.253 71.352 324.045 70.456 323.629 69.736C323.229 69 322.693 68.456 322.021 68.104C321.365 67.752 320.645 67.576 319.861 67.576ZM337.329 65.656C338.497 65.656 339.537 65.928 340.449 66.472C341.361 67.016 342.073 67.8 342.585 68.824C343.113 69.848 343.377 71.048 343.377 72.424C343.377 73.8 343.113 75 342.585 76.024C342.073 77.032 341.361 77.808 340.449 78.352C339.537 78.896 338.497 79.168 337.329 79.168C336.049 79.168 334.961 78.848 334.065 78.208C333.185 77.552 332.577 76.696 332.241 75.64V85.24H330.057V65.824H332.241V69.184C332.577 68.128 333.185 67.28 334.065 66.64C334.961 65.984 336.049 65.656 337.329 65.656ZM336.705 67.6C335.857 67.6 335.089 67.8 334.401 68.2C333.713 68.584 333.177 69.144 332.793 69.88C332.409 70.616 332.217 71.464 332.217 72.424C332.217 73.384 332.409 74.232 332.793 74.968C333.177 75.688 333.713 76.248 334.401 76.648C335.089 77.048 335.857 77.248 336.705 77.248C338.065 77.248 339.145 76.824 339.945 75.976C340.761 75.112 341.169 73.928 341.169 72.424C341.169 70.92 340.761 69.744 339.945 68.896C339.145 68.032 338.065 67.6 336.705 67.6ZM359.058 65.656C360.338 65.656 361.418 65.976 362.298 66.616C363.194 67.256 363.818 68.112 364.17 69.184V65.824H366.354V79H364.17V75.64C363.818 76.712 363.194 77.568 362.298 78.208C361.418 78.848 360.338 79.168 359.058 79.168C357.89 79.168 356.85 78.896 355.938 78.352C355.026 77.808 354.306 77.032 353.778 76.024C353.266 75 353.01 73.8 353.01 72.424C353.01 71.048 353.266 69.848 353.778 68.824C354.306 67.8 355.026 67.016 355.938 66.472C356.85 65.928 357.89 65.656 359.058 65.656ZM359.682 67.6C358.338 67.6 357.258 68.032 356.442 68.896C355.642 69.744 355.242 70.92 355.242 72.424C355.242 73.928 355.642 75.112 356.442 75.976C357.258 76.824 358.338 77.248 359.682 77.248C360.546 77.248 361.314 77.048 361.986 76.648C362.674 76.248 363.21 75.688 363.594 74.968C363.978 74.232 364.17 73.384 364.17 72.424C364.17 71.464 363.978 70.616 363.594 69.88C363.21 69.144 362.674 68.584 361.986 68.2C361.314 67.8 360.546 67.6 359.682 67.6ZM377.516 65.608C379.052 65.608 380.292 66.104 381.236 67.096C382.18 68.072 382.652 69.488 382.652 71.344V79H380.468V71.536C380.468 70.224 380.132 69.216 379.46 68.512C378.788 67.808 377.876 67.456 376.724 67.456C375.524 67.456 374.564 67.848 373.844 68.632C373.124 69.4 372.764 70.528 372.764 72.016V79H370.58V65.824H372.764V68.944C373.1 67.872 373.692 67.048 374.54 66.472C375.404 65.896 376.396 65.608 377.516 65.608ZM393.048 61.96C393.048 61.56 393.184 61.24 393.456 61C393.728 60.744 394.088 60.616 394.536 60.616C394.984 60.616 395.344 60.744 395.616 61C395.888 61.24 396.024 61.56 396.024 61.96C396.024 62.36 395.888 62.688 395.616 62.944C395.344 63.184 394.984 63.304 394.536 63.304C394.088 63.304 393.728 63.184 393.456 62.944C393.184 62.688 393.048 62.36 393.048 61.96ZM395.616 65.824V79H393.432V65.824H395.616ZM416.077 65.608C417.613 65.608 418.845 66.104 419.773 67.096C420.717 68.072 421.189 69.488 421.189 71.344V79H419.005V71.536C419.005 70.24 418.685 69.248 418.045 68.56C417.421 67.872 416.557 67.528 415.453 67.528C414.301 67.528 413.373 67.912 412.669 68.68C411.981 69.432 411.637 70.544 411.637 72.016V79H409.453V71.536C409.453 70.24 409.133 69.248 408.493 68.56C407.853 67.872 406.989 67.528 405.901 67.528C404.733 67.528 403.797 67.912 403.093 68.68C402.405 69.432 402.061 70.544 402.061 72.016V79H399.877V65.824H402.061V68.824C402.381 67.784 402.949 66.992 403.765 66.448C404.597 65.888 405.549 65.608 406.621 65.608C407.741 65.608 408.709 65.896 409.525 66.472C410.357 67.032 410.949 67.864 411.301 68.968C411.669 67.896 412.285 67.072 413.149 66.496C414.013 65.904 414.989 65.608 416.077 65.608ZM430.73 65.656C432.01 65.656 433.09 65.976 433.97 66.616C434.866 67.256 435.49 68.112 435.842 69.184V65.824H438.026V79H435.842V75.64C435.49 76.712 434.866 77.568 433.97 78.208C433.09 78.848 432.01 79.168 430.73 79.168C429.562 79.168 428.522 78.896 427.61 78.352C426.698 77.808 425.978 77.032 425.45 76.024C424.938 75 424.682 73.8 424.682 72.424C424.682 71.048 424.938 69.848 425.45 68.824C425.978 67.8 426.698 67.016 427.61 66.472C428.522 65.928 429.562 65.656 430.73 65.656ZM431.354 67.6C430.01 67.6 428.93 68.032 428.114 68.896C427.314 69.744 426.914 70.92 426.914 72.424C426.914 73.928 427.314 75.112 428.114 75.976C428.93 76.824 430.01 77.248 431.354 77.248C432.218 77.248 432.986 77.048 433.658 76.648C434.346 76.248 434.882 75.688 435.266 74.968C435.65 74.232 435.842 73.384 435.842 72.424C435.842 71.464 435.65 70.616 435.266 69.88C434.882 69.144 434.346 68.584 433.658 68.2C432.986 67.8 432.218 67.6 431.354 67.6ZM447.652 65.656C448.932 65.656 450.012 65.976 450.892 66.616C451.788 67.256 452.412 68.112 452.764 69.184V65.824H454.948V79.216C454.948 80.432 454.692 81.512 454.18 82.456C453.668 83.4 452.948 84.136 452.02 84.664C451.092 85.192 450.012 85.456 448.78 85.456C447.004 85.456 445.556 85.024 444.436 84.16C443.316 83.312 442.604 82.16 442.3 80.704H444.46C444.716 81.584 445.196 82.272 445.9 82.768C446.62 83.28 447.54 83.536 448.66 83.536C449.844 83.536 450.82 83.152 451.588 82.384C452.372 81.632 452.764 80.576 452.764 79.216V75.64C452.412 76.712 451.788 77.568 450.892 78.208C450.012 78.848 448.932 79.168 447.652 79.168C446.484 79.168 445.444 78.896 444.532 78.352C443.62 77.808 442.9 77.032 442.372 76.024C441.86 75 441.604 73.8 441.604 72.424C441.604 71.048 441.86 69.848 442.372 68.824C442.9 67.8 443.62 67.016 444.532 66.472C445.444 65.928 446.484 65.656 447.652 65.656ZM448.276 67.6C446.932 67.6 445.852 68.032 445.036 68.896C444.236 69.744 443.836 70.92 443.836 72.424C443.836 73.928 444.236 75.112 445.036 75.976C445.852 76.824 446.932 77.248 448.276 77.248C449.14 77.248 449.908 77.048 450.58 76.648C451.268 76.248 451.804 75.688 452.188 74.968C452.572 74.232 452.764 73.384 452.764 72.424C452.764 71.464 452.572 70.616 452.188 69.88C451.804 69.144 451.268 68.584 450.58 68.2C449.908 67.8 449.14 67.6 448.276 67.6ZM471.294 71.68C471.294 72.144 471.262 72.544 471.198 72.88H460.662C460.71 74.384 461.134 75.512 461.934 76.264C462.75 77.016 463.742 77.392 464.91 77.392C465.966 77.392 466.846 77.128 467.55 76.6C468.27 76.056 468.71 75.336 468.87 74.44H471.198C471.038 75.352 470.678 76.168 470.118 76.888C469.574 77.608 468.862 78.168 467.982 78.568C467.102 78.968 466.11 79.168 465.006 79.168C463.742 79.168 462.622 78.896 461.646 78.352C460.67 77.808 459.902 77.032 459.342 76.024C458.798 75 458.526 73.8 458.526 72.424C458.526 71.048 458.798 69.848 459.342 68.824C459.902 67.8 460.67 67.016 461.646 66.472C462.622 65.928 463.742 65.656 465.006 65.656C466.286 65.656 467.398 65.928 468.342 66.472C469.302 67.016 470.03 67.744 470.526 68.656C471.038 69.568 471.294 70.576 471.294 71.68ZM469.086 71.824C469.134 70.848 468.974 70.032 468.606 69.376C468.238 68.72 467.734 68.232 467.094 67.912C466.454 67.592 465.758 67.432 465.006 67.432C463.806 67.432 462.798 67.808 461.982 68.56C461.166 69.296 460.726 70.384 460.662 71.824H469.086ZM488.516 65.608C490.052 65.608 491.292 66.104 492.236 67.096C493.18 68.072 493.652 69.488 493.652 71.344V79H491.468V71.536C491.468 70.224 491.132 69.216 490.46 68.512C489.788 67.808 488.876 67.456 487.724 67.456C486.524 67.456 485.564 67.848 484.844 68.632C484.124 69.4 483.764 70.528 483.764 72.016V79H481.58V61.24H483.764V68.944C484.1 67.872 484.692 67.048 485.54 66.472C486.404 65.896 487.396 65.608 488.516 65.608ZM509.872 71.68C509.872 72.144 509.84 72.544 509.776 72.88H499.24C499.288 74.384 499.712 75.512 500.512 76.264C501.328 77.016 502.32 77.392 503.488 77.392C504.544 77.392 505.424 77.128 506.128 76.6C506.848 76.056 507.288 75.336 507.448 74.44H509.776C509.616 75.352 509.256 76.168 508.696 76.888C508.152 77.608 507.44 78.168 506.56 78.568C505.68 78.968 504.688 79.168 503.584 79.168C502.32 79.168 501.2 78.896 500.224 78.352C499.248 77.808 498.48 77.032 497.92 76.024C497.376 75 497.104 73.8 497.104 72.424C497.104 71.048 497.376 69.848 497.92 68.824C498.48 67.8 499.248 67.016 500.224 66.472C501.2 65.928 502.32 65.656 503.584 65.656C504.864 65.656 505.976 65.928 506.92 66.472C507.88 67.016 508.608 67.744 509.104 68.656C509.616 69.568 509.872 70.576 509.872 71.68ZM507.664 71.824C507.712 70.848 507.552 70.032 507.184 69.376C506.816 68.72 506.312 68.232 505.672 67.912C505.032 67.592 504.336 67.432 503.584 67.432C502.384 67.432 501.376 67.808 500.56 68.56C499.744 69.296 499.304 70.384 499.24 71.824H507.664ZM515.663 68.488C516.095 67.576 516.727 66.872 517.559 66.376C518.391 65.864 519.383 65.608 520.535 65.608V67.984H519.863C518.631 67.984 517.623 68.304 516.839 68.944C516.055 69.568 515.663 70.608 515.663 72.064V79H513.479V65.824H515.663V68.488ZM535.56 71.68C535.56 72.144 535.528 72.544 535.464 72.88H524.928C524.976 74.384 525.4 75.512 526.2 76.264C527.016 77.016 528.008 77.392 529.176 77.392C530.232 77.392 531.112 77.128 531.816 76.6C532.536 76.056 532.976 75.336 533.136 74.44H535.464C535.304 75.352 534.944 76.168 534.384 76.888C533.84 77.608 533.128 78.168 532.248 78.568C531.368 78.968 530.376 79.168 529.272 79.168C528.008 79.168 526.888 78.896 525.912 78.352C524.936 77.808 524.168 77.032 523.608 76.024C523.064 75 522.792 73.8 522.792 72.424C522.792 71.048 523.064 69.848 523.608 68.824C524.168 67.8 524.936 67.016 525.912 66.472C526.888 65.928 528.008 65.656 529.272 65.656C530.552 65.656 531.664 65.928 532.608 66.472C533.568 67.016 534.296 67.744 534.792 68.656C535.304 69.568 535.56 70.576 535.56 71.68ZM533.352 71.824C533.4 70.848 533.24 70.032 532.872 69.376C532.504 68.72 532 68.232 531.36 67.912C530.72 67.592 530.024 67.432 529.272 67.432C528.072 67.432 527.064 67.808 526.248 68.56C525.432 69.296 524.992 70.384 524.928 71.824H533.352Z" fill="#666666"/>
<path d="M197.976 201.216V210H196.52V207.936C196.296 208.651 195.896 209.2 195.32 209.584C194.755 209.957 194.093 210.144 193.336 210.144C192.323 210.144 191.501 209.819 190.872 209.168C190.243 208.507 189.928 207.563 189.928 206.336V201.216H191.384V206.192C191.384 207.067 191.608 207.744 192.056 208.224C192.504 208.693 193.112 208.928 193.88 208.928C194.68 208.928 195.32 208.672 195.8 208.16C196.28 207.637 196.52 206.88 196.52 205.888V201.216H197.976ZM203.811 201.104C204.803 201.104 205.597 201.365 206.195 201.888C206.803 202.4 207.171 203.093 207.299 203.968H205.907C205.843 203.445 205.624 203.019 205.251 202.688C204.888 202.347 204.397 202.176 203.779 202.176C203.256 202.176 202.845 202.304 202.547 202.56C202.259 202.805 202.115 203.141 202.115 203.568C202.115 203.888 202.211 204.149 202.403 204.352C202.605 204.544 202.851 204.693 203.139 204.8C203.437 204.896 203.843 205.003 204.355 205.12C205.005 205.269 205.528 205.424 205.923 205.584C206.328 205.733 206.669 205.979 206.947 206.32C207.235 206.661 207.379 207.12 207.379 207.696C207.379 208.411 207.107 208.992 206.563 209.44C206.029 209.888 205.315 210.112 204.419 210.112C203.373 210.112 202.52 209.861 201.859 209.36C201.197 208.859 200.808 208.16 200.691 207.264H202.099C202.152 207.797 202.381 208.229 202.787 208.56C203.203 208.891 203.747 209.056 204.419 209.056C204.92 209.056 205.309 208.928 205.587 208.672C205.875 208.416 206.019 208.08 206.019 207.664C206.019 207.323 205.917 207.051 205.715 206.848C205.512 206.645 205.261 206.491 204.963 206.384C204.664 206.277 204.253 206.165 203.731 206.048C203.08 205.899 202.557 205.749 202.163 205.6C201.779 205.451 201.448 205.216 201.171 204.896C200.904 204.565 200.771 204.123 200.771 203.568C200.771 202.832 201.043 202.24 201.587 201.792C202.131 201.333 202.872 201.104 203.811 201.104ZM218.154 205.12C218.154 205.429 218.133 205.696 218.09 205.92H211.066C211.098 206.923 211.381 207.675 211.914 208.176C212.458 208.677 213.12 208.928 213.898 208.928C214.602 208.928 215.189 208.752 215.658 208.4C216.138 208.037 216.432 207.557 216.538 206.96H218.09C217.984 207.568 217.744 208.112 217.37 208.592C217.008 209.072 216.533 209.445 215.946 209.712C215.36 209.979 214.698 210.112 213.962 210.112C213.12 210.112 212.373 209.931 211.722 209.568C211.072 209.205 210.56 208.688 210.186 208.016C209.824 207.333 209.642 206.533 209.642 205.616C209.642 204.699 209.824 203.899 210.186 203.216C210.56 202.533 211.072 202.011 211.722 201.648C212.373 201.285 213.12 201.104 213.962 201.104C214.816 201.104 215.557 201.285 216.186 201.648C216.826 202.011 217.312 202.496 217.642 203.104C217.984 203.712 218.154 204.384 218.154 205.12ZM216.682 205.216C216.714 204.565 216.608 204.021 216.362 203.584C216.117 203.147 215.781 202.821 215.354 202.608C214.928 202.395 214.464 202.288 213.962 202.288C213.162 202.288 212.49 202.539 211.946 203.04C211.402 203.531 211.109 204.256 211.066 205.216H216.682ZM229.112 201.104C229.965 201.104 230.685 201.317 231.272 201.744C231.869 202.171 232.285 202.741 232.52 203.456V201.216H233.976V210H232.52V207.76C232.285 208.475 231.869 209.045 231.272 209.472C230.685 209.899 229.965 210.112 229.112 210.112C228.333 210.112 227.64 209.931 227.032 209.568C226.424 209.205 225.944 208.688 225.592 208.016C225.25 207.333 225.08 206.533 225.08 205.616C225.08 204.699 225.25 203.899 225.592 203.216C225.944 202.533 226.424 202.011 227.032 201.648C227.64 201.285 228.333 201.104 229.112 201.104ZM229.528 202.4C228.632 202.4 227.912 202.688 227.368 203.264C226.834 203.829 226.568 204.613 226.568 205.616C226.568 206.619 226.834 207.408 227.368 207.984C227.912 208.549 228.632 208.832 229.528 208.832C230.104 208.832 230.616 208.699 231.064 208.432C231.522 208.165 231.88 207.792 232.136 207.312C232.392 206.821 232.52 206.256 232.52 205.616C232.52 204.976 232.392 204.411 232.136 203.92C231.88 203.429 231.522 203.056 231.064 202.8C230.616 202.533 230.104 202.4 229.528 202.4ZM246.37 201.072C247.394 201.072 248.221 201.403 248.85 202.064C249.479 202.715 249.794 203.659 249.794 204.896V210H248.338V205.024C248.338 204.149 248.114 203.477 247.666 203.008C247.218 202.539 246.61 202.304 245.842 202.304C245.042 202.304 244.402 202.565 243.922 203.088C243.442 203.6 243.202 204.352 243.202 205.344V210H241.746V198.16H243.202V203.296C243.426 202.581 243.821 202.032 244.386 201.648C244.962 201.264 245.623 201.072 246.37 201.072ZM252.521 198.64C252.521 198.373 252.612 198.16 252.793 198C252.975 197.829 253.215 197.744 253.513 197.744C253.812 197.744 254.052 197.829 254.233 198C254.415 198.16 254.505 198.373 254.505 198.64C254.505 198.907 254.415 199.125 254.233 199.296C254.052 199.456 253.812 199.536 253.513 199.536C253.215 199.536 252.975 199.456 252.793 199.296C252.612 199.125 252.521 198.907 252.521 198.64ZM254.233 201.216V210H252.777V201.216H254.233ZM260.924 201.104C261.778 201.104 262.498 201.317 263.084 201.744C263.682 202.171 264.098 202.741 264.332 203.456V201.216H265.788V210.144C265.788 210.955 265.618 211.675 265.276 212.304C264.935 212.933 264.455 213.424 263.836 213.776C263.218 214.128 262.498 214.304 261.676 214.304C260.492 214.304 259.527 214.016 258.78 213.44C258.034 212.875 257.559 212.107 257.356 211.136H258.796C258.967 211.723 259.287 212.181 259.756 212.512C260.236 212.853 260.85 213.024 261.596 213.024C262.386 213.024 263.036 212.768 263.548 212.256C264.071 211.755 264.332 211.051 264.332 210.144V207.76C264.098 208.475 263.682 209.045 263.084 209.472C262.498 209.899 261.778 210.112 260.924 210.112C260.146 210.112 259.452 209.931 258.844 209.568C258.236 209.205 257.756 208.688 257.404 208.016C257.063 207.333 256.892 206.533 256.892 205.616C256.892 204.699 257.063 203.899 257.404 203.216C257.756 202.533 258.236 202.011 258.844 201.648C259.452 201.285 260.146 201.104 260.924 201.104ZM261.34 202.4C260.444 202.4 259.724 202.688 259.18 203.264C258.647 203.829 258.38 204.613 258.38 205.616C258.38 206.619 258.647 207.408 259.18 207.984C259.724 208.549 260.444 208.832 261.34 208.832C261.916 208.832 262.428 208.699 262.876 208.432C263.335 208.165 263.692 207.792 263.948 207.312C264.204 206.821 264.332 206.256 264.332 205.616C264.332 204.976 264.204 204.411 263.948 203.92C263.692 203.429 263.335 203.056 262.876 202.8C262.428 202.533 261.916 202.4 261.34 202.4ZM273.48 201.072C274.504 201.072 275.33 201.403 275.96 202.064C276.589 202.715 276.904 203.659 276.904 204.896V210H275.448V205.024C275.448 204.149 275.224 203.477 274.776 203.008C274.328 202.539 273.72 202.304 272.952 202.304C272.152 202.304 271.512 202.565 271.032 203.088C270.552 203.6 270.312 204.352 270.312 205.344V210H268.856V198.16H270.312V203.296C270.536 202.581 270.93 202.032 271.496 201.648C272.072 201.264 272.733 201.072 273.48 201.072ZM286.046 202.992C286.334 202.384 286.755 201.915 287.31 201.584C287.865 201.243 288.526 201.072 289.294 201.072V202.656H288.846C288.025 202.656 287.353 202.869 286.83 203.296C286.307 203.712 286.046 204.405 286.046 205.376V210H284.59V201.216H286.046V202.992ZM299.561 205.12C299.561 205.429 299.539 205.696 299.497 205.92H292.473C292.505 206.923 292.787 207.675 293.321 208.176C293.865 208.677 294.526 208.928 295.305 208.928C296.009 208.928 296.595 208.752 297.065 208.4C297.545 208.037 297.838 207.557 297.945 206.96H299.497C299.39 207.568 299.15 208.112 298.777 208.592C298.414 209.072 297.939 209.445 297.353 209.712C296.766 209.979 296.105 210.112 295.369 210.112C294.526 210.112 293.779 209.931 293.129 209.568C292.478 209.205 291.966 208.688 291.593 208.016C291.23 207.333 291.049 206.533 291.049 205.616C291.049 204.699 291.23 203.899 291.593 203.216C291.966 202.533 292.478 202.011 293.129 201.648C293.779 201.285 294.526 201.104 295.369 201.104C296.222 201.104 296.963 201.285 297.593 201.648C298.233 202.011 298.718 202.496 299.049 203.104C299.39 203.712 299.561 204.384 299.561 205.12ZM298.089 205.216C298.121 204.565 298.014 204.021 297.769 203.584C297.523 203.147 297.187 202.821 296.761 202.608C296.334 202.395 295.87 202.288 295.369 202.288C294.569 202.288 293.897 202.539 293.353 203.04C292.809 203.531 292.515 204.256 292.473 205.216H298.089ZM304.967 201.104C305.959 201.104 306.754 201.365 307.351 201.888C307.959 202.4 308.327 203.093 308.455 203.968H307.063C306.999 203.445 306.78 203.019 306.407 202.688C306.044 202.347 305.554 202.176 304.935 202.176C304.412 202.176 304.002 202.304 303.703 202.56C303.415 202.805 303.271 203.141 303.271 203.568C303.271 203.888 303.367 204.149 303.559 204.352C303.762 204.544 304.007 204.693 304.295 204.8C304.594 204.896 304.999 205.003 305.511 205.12C306.162 205.269 306.684 205.424 307.079 205.584C307.484 205.733 307.826 205.979 308.103 206.32C308.391 206.661 308.535 207.12 308.535 207.696C308.535 208.411 308.263 208.992 307.719 209.44C307.186 209.888 306.471 210.112 305.575 210.112C304.53 210.112 303.676 209.861 303.015 209.36C302.354 208.859 301.964 208.16 301.847 207.264H303.255C303.308 207.797 303.538 208.229 303.943 208.56C304.359 208.891 304.903 209.056 305.575 209.056C306.076 209.056 306.466 208.928 306.743 208.672C307.031 208.416 307.175 208.08 307.175 207.664C307.175 207.323 307.074 207.051 306.871 206.848C306.668 206.645 306.418 206.491 306.119 206.384C305.82 206.277 305.41 206.165 304.887 206.048C304.236 205.899 303.714 205.749 303.319 205.6C302.935 205.451 302.604 205.216 302.327 204.896C302.06 204.565 301.927 204.123 301.927 203.568C301.927 202.832 302.199 202.24 302.743 201.792C303.287 201.333 304.028 201.104 304.967 201.104ZM315.215 201.104C316.057 201.104 316.809 201.285 317.471 201.648C318.143 202.011 318.665 202.533 319.039 203.216C319.423 203.899 319.615 204.699 319.615 205.616C319.615 206.533 319.423 207.333 319.039 208.016C318.665 208.688 318.143 209.205 317.471 209.568C316.809 209.931 316.057 210.112 315.215 210.112C314.372 210.112 313.615 209.931 312.943 209.568C312.281 209.205 311.759 208.688 311.375 208.016C310.991 207.333 310.799 206.533 310.799 205.616C310.799 204.699 310.991 203.899 311.375 203.216C311.759 202.533 312.281 202.011 312.943 201.648C313.615 201.285 314.372 201.104 315.215 201.104ZM315.215 202.384C314.692 202.384 314.207 202.501 313.759 202.736C313.321 202.971 312.964 203.333 312.687 203.824C312.42 204.304 312.287 204.901 312.287 205.616C312.287 206.32 312.42 206.917 312.687 207.408C312.964 207.888 313.321 208.245 313.759 208.48C314.207 208.715 314.692 208.832 315.215 208.832C315.737 208.832 316.217 208.715 316.655 208.48C317.103 208.245 317.46 207.888 317.727 207.408C318.004 206.917 318.142 206.32 318.142 205.616C318.142 204.901 318.004 204.304 317.727 203.824C317.46 203.333 317.103 202.971 316.655 202.736C316.217 202.501 315.737 202.384 315.215 202.384ZM323.718 198.16V210H322.262V198.16H323.718ZM334.617 201.216V210H333.161V207.936C332.937 208.651 332.537 209.2 331.961 209.584C331.395 209.957 330.734 210.144 329.977 210.144C328.963 210.144 328.142 209.819 327.513 209.168C326.883 208.507 326.569 207.563 326.569 206.336V201.216H328.025V206.192C328.025 207.067 328.249 207.744 328.697 208.224C329.145 208.693 329.753 208.928 330.521 208.928C331.321 208.928 331.961 208.672 332.441 208.16C332.921 207.637 333.161 206.88 333.161 205.888V201.216H334.617ZM341.891 208.72V210H340.803C339.907 210 339.235 209.787 338.787 209.36C338.35 208.933 338.131 208.219 338.131 207.216V202.48H336.819V201.216H338.131V199.024H339.603V201.216H341.875V202.48H339.603V207.248C339.603 207.813 339.705 208.203 339.907 208.416C340.121 208.619 340.483 208.72 340.995 208.72H341.891ZM344.162 198.64C344.162 198.373 344.253 198.16 344.434 198C344.615 197.829 344.855 197.744 345.154 197.744C345.453 197.744 345.693 197.829 345.874 198C346.055 198.16 346.146 198.373 346.146 198.64C346.146 198.907 346.055 199.125 345.874 199.296C345.693 199.456 345.453 199.536 345.154 199.536C344.855 199.536 344.615 199.456 344.434 199.296C344.253 199.125 344.162 198.907 344.162 198.64ZM345.874 201.216V210H344.418V201.216H345.874ZM352.949 201.104C353.792 201.104 354.544 201.285 355.205 201.648C355.877 202.011 356.4 202.533 356.773 203.216C357.157 203.899 357.349 204.699 357.349 205.616C357.349 206.533 357.157 207.333 356.773 208.016C356.4 208.688 355.877 209.205 355.205 209.568C354.544 209.931 353.792 210.112 352.949 210.112C352.106 210.112 351.349 209.931 350.677 209.568C350.016 209.205 349.493 208.688 349.109 208.016C348.725 207.333 348.533 206.533 348.533 205.616C348.533 204.699 348.725 203.899 349.109 203.216C349.493 202.533 350.016 202.011 350.677 201.648C351.349 201.285 352.106 201.104 352.949 201.104ZM352.949 202.384C352.426 202.384 351.941 202.501 351.493 202.736C351.056 202.971 350.698 203.333 350.421 203.824C350.154 204.304 350.021 204.901 350.021 205.616C350.021 206.32 350.154 206.917 350.421 207.408C350.698 207.888 351.056 208.245 351.493 208.48C351.941 208.715 352.426 208.832 352.949 208.832C353.472 208.832 353.952 208.715 354.389 208.48C354.837 208.245 355.194 207.888 355.461 207.408C355.738 206.917 355.877 206.32 355.877 205.616C355.877 204.901 355.738 204.304 355.461 203.824C355.194 203.333 354.837 202.971 354.389 202.736C353.952 202.501 353.472 202.384 352.949 202.384ZM364.62 201.072C365.644 201.072 366.471 201.403 367.1 202.064C367.729 202.715 368.044 203.659 368.044 204.896V210H366.588V205.024C366.588 204.149 366.364 203.477 365.916 203.008C365.468 202.539 364.86 202.304 364.092 202.304C363.292 202.304 362.652 202.565 362.172 203.088C361.692 203.6 361.452 204.352 361.452 205.344V210H359.996V201.216H361.452V203.296C361.676 202.581 362.071 202.032 362.636 201.648C363.212 201.264 363.873 201.072 364.62 201.072ZM375.475 198.64C375.475 198.373 375.565 198.16 375.747 198C375.928 197.829 376.168 197.744 376.467 197.744C376.765 197.744 377.005 197.829 377.187 198C377.368 198.16 377.459 198.373 377.459 198.64C377.459 198.907 377.368 199.125 377.187 199.296C377.005 199.456 376.765 199.536 376.467 199.536C376.168 199.536 375.928 199.456 375.747 199.296C375.565 199.125 375.475 198.907 375.475 198.64ZM377.187 201.216V210H375.731V201.216H377.187ZM391.077 201.072C392.101 201.072 392.923 201.403 393.541 202.064C394.171 202.715 394.485 203.659 394.485 204.896V210H393.029V205.024C393.029 204.16 392.816 203.499 392.389 203.04C391.973 202.581 391.397 202.352 390.661 202.352C389.893 202.352 389.275 202.608 388.805 203.12C388.347 203.621 388.117 204.363 388.117 205.344V210H386.661V205.024C386.661 204.16 386.448 203.499 386.021 203.04C385.595 202.581 385.019 202.352 384.293 202.352C383.515 202.352 382.891 202.608 382.421 203.12C381.963 203.621 381.733 204.363 381.733 205.344V210H380.277V201.216H381.733V203.216C381.947 202.523 382.325 201.995 382.869 201.632C383.424 201.259 384.059 201.072 384.773 201.072C385.52 201.072 386.165 201.264 386.709 201.648C387.264 202.021 387.659 202.576 387.893 203.312C388.139 202.597 388.549 202.048 389.125 201.664C389.701 201.269 390.352 201.072 391.077 201.072ZM401.096 201.104C401.949 201.104 402.669 201.317 403.256 201.744C403.853 202.171 404.269 202.741 404.504 203.456V201.216H405.96V210H404.504V207.76C404.269 208.475 403.853 209.045 403.256 209.472C402.669 209.899 401.949 210.112 401.096 210.112C400.317 210.112 399.624 209.931 399.016 209.568C398.408 209.205 397.928 208.688 397.576 208.016C397.235 207.333 397.064 206.533 397.064 205.616C397.064 204.699 397.235 203.899 397.576 203.216C397.928 202.533 398.408 202.011 399.016 201.648C399.624 201.285 400.317 201.104 401.096 201.104ZM401.512 202.4C400.616 202.4 399.896 202.688 399.352 203.264C398.819 203.829 398.552 204.613 398.552 205.616C398.552 206.619 398.819 207.408 399.352 207.984C399.896 208.549 400.616 208.832 401.512 208.832C402.088 208.832 402.6 208.699 403.048 208.432C403.507 208.165 403.864 207.792 404.12 207.312C404.376 206.821 404.504 206.256 404.504 205.616C404.504 204.976 404.376 204.411 404.12 203.92C403.864 203.429 403.507 203.056 403.048 202.8C402.6 202.533 402.088 202.4 401.512 202.4ZM412.627 201.104C413.481 201.104 414.201 201.317 414.787 201.744C415.385 202.171 415.801 202.741 416.035 203.456V201.216H417.491V210.144C417.491 210.955 417.321 211.675 416.979 212.304C416.638 212.933 416.158 213.424 415.539 213.776C414.921 214.128 414.201 214.304 413.379 214.304C412.195 214.304 411.23 214.016 410.483 213.44C409.737 212.875 409.262 212.107 409.059 211.136H410.499C410.67 211.723 410.99 212.181 411.459 212.512C411.939 212.853 412.553 213.024 413.299 213.024C414.089 213.024 414.739 212.768 415.251 212.256C415.774 211.755 416.035 211.051 416.035 210.144V207.76C415.801 208.475 415.385 209.045 414.787 209.472C414.201 209.899 413.481 210.112 412.627 210.112C411.849 210.112 411.155 209.931 410.547 209.568C409.939 209.205 409.459 208.688 409.107 208.016C408.766 207.333 408.595 206.533 408.595 205.616C408.595 204.699 408.766 203.899 409.107 203.216C409.459 202.533 409.939 202.011 410.547 201.648C411.155 201.285 411.849 201.104 412.627 201.104ZM413.043 202.4C412.147 202.4 411.427 202.688 410.883 203.264C410.35 203.829 410.083 204.613 410.083 205.616C410.083 206.619 410.35 207.408 410.883 207.984C411.427 208.549 412.147 208.832 413.043 208.832C413.619 208.832 414.131 208.699 414.579 208.432C415.038 208.165 415.395 207.792 415.651 207.312C415.907 206.821 416.035 206.256 416.035 205.616C416.035 204.976 415.907 204.411 415.651 203.92C415.395 203.429 415.038 203.056 414.579 202.8C414.131 202.533 413.619 202.4 413.043 202.4ZM428.639 205.12C428.639 205.429 428.617 205.696 428.575 205.92H421.551C421.583 206.923 421.865 207.675 422.399 208.176C422.943 208.677 423.604 208.928 424.383 208.928C425.087 208.928 425.673 208.752 426.143 208.4C426.623 208.037 426.916 207.557 427.023 206.96H428.575C428.468 207.568 428.228 208.112 427.855 208.592C427.492 209.072 427.017 209.445 426.431 209.712C425.844 209.979 425.183 210.112 424.447 210.112C423.604 210.112 422.857 209.931 422.207 209.568C421.556 209.205 421.044 208.688 420.671 208.016C420.308 207.333 420.127 206.533 420.127 205.616C420.127 204.699 420.308 203.899 420.671 203.216C421.044 202.533 421.556 202.011 422.207 201.648C422.857 201.285 423.604 201.104 424.447 201.104C425.3 201.104 426.041 201.285 426.671 201.648C427.311 202.011 427.796 202.496 428.127 203.104C428.468 203.712 428.639 204.384 428.639 205.12ZM427.167 205.216C427.199 204.565 427.092 204.021 426.847 203.584C426.601 203.147 426.265 202.821 425.839 202.608C425.412 202.395 424.948 202.288 424.447 202.288C423.647 202.288 422.975 202.539 422.431 203.04C421.887 203.531 421.593 204.256 421.551 205.216H427.167ZM437.068 208.288V210H435.308V208.288H437.068ZM440.312 199.536C440.014 199.536 439.769 199.456 439.577 199.296C439.395 199.125 439.305 198.907 439.305 198.64C439.305 198.373 439.395 198.16 439.577 198C439.769 197.829 440.014 197.744 440.312 197.744C440.601 197.744 440.835 197.829 441.017 198C441.198 198.16 441.289 198.373 441.289 198.64C441.289 198.907 441.198 199.125 441.017 199.296C440.835 199.456 440.601 199.536 440.312 199.536ZM437.864 212.88H438.473C438.857 212.88 439.134 212.795 439.305 212.624C439.486 212.453 439.577 212.16 439.577 211.744V201.216H441.049V211.792C441.049 213.371 440.249 214.16 438.649 214.16H437.864V212.88ZM448.969 201.104C449.748 201.104 450.441 201.285 451.049 201.648C451.657 202.011 452.132 202.533 452.473 203.216C452.825 203.899 453.001 204.699 453.001 205.616C453.001 206.533 452.825 207.333 452.473 208.016C452.132 208.688 451.657 209.205 451.049 209.568C450.441 209.931 449.748 210.112 448.969 210.112C448.116 210.112 447.39 209.899 446.793 209.472C446.206 209.035 445.801 208.464 445.577 207.76V214.16H444.121V201.216H445.577V203.456C445.801 202.752 446.206 202.187 446.793 201.76C447.39 201.323 448.116 201.104 448.969 201.104ZM448.553 202.4C447.988 202.4 447.476 202.533 447.017 202.8C446.558 203.056 446.201 203.429 445.945 203.92C445.689 204.411 445.561 204.976 445.561 205.616C445.561 206.256 445.689 206.821 445.945 207.312C446.201 207.792 446.558 208.165 447.017 208.432C447.476 208.699 447.988 208.832 448.553 208.832C449.46 208.832 450.18 208.549 450.713 207.984C451.257 207.408 451.529 206.619 451.529 205.616C451.529 204.613 451.257 203.829 450.713 203.264C450.18 202.688 449.46 202.4 448.553 202.4ZM459.252 201.104C460.106 201.104 460.826 201.317 461.412 201.744C462.01 202.171 462.426 202.741 462.66 203.456V201.216H464.116V210.144C464.116 210.955 463.946 211.675 463.604 212.304C463.263 212.933 462.783 213.424 462.164 213.776C461.546 214.128 460.826 214.304 460.004 214.304C458.82 214.304 457.855 214.016 457.108 213.44C456.362 212.875 455.887 212.107 455.684 211.136H457.124C457.295 211.723 457.615 212.181 458.084 212.512C458.564 212.853 459.178 213.024 459.924 213.024C460.714 213.024 461.364 212.768 461.876 212.256C462.399 211.755 462.66 211.051 462.66 210.144V207.76C462.426 208.475 462.01 209.045 461.412 209.472C460.826 209.899 460.106 210.112 459.252 210.112C458.474 210.112 457.78 209.931 457.172 209.568C456.564 209.205 456.084 208.688 455.732 208.016C455.391 207.333 455.22 206.533 455.22 205.616C455.22 204.699 455.391 203.899 455.732 203.216C456.084 202.533 456.564 202.011 457.172 201.648C457.78 201.285 458.474 201.104 459.252 201.104ZM459.668 202.4C458.772 202.4 458.052 202.688 457.508 203.264C456.975 203.829 456.708 204.613 456.708 205.616C456.708 206.619 456.975 207.408 457.508 207.984C458.052 208.549 458.772 208.832 459.668 208.832C460.244 208.832 460.756 208.699 461.204 208.432C461.663 208.165 462.02 207.792 462.276 207.312C462.532 206.821 462.66 206.256 462.66 205.616C462.66 204.976 462.532 204.411 462.276 203.92C462.02 203.429 461.663 203.056 461.204 202.8C460.756 202.533 460.244 202.4 459.668 202.4ZM475.871 201.104C476.713 201.104 477.465 201.285 478.127 201.648C478.799 202.011 479.321 202.533 479.695 203.216C480.079 203.899 480.271 204.699 480.271 205.616C480.271 206.533 480.079 207.333 479.695 208.016C479.321 208.688 478.799 209.205 478.127 209.568C477.465 209.931 476.713 210.112 475.871 210.112C475.028 210.112 474.271 209.931 473.599 209.568C472.937 209.205 472.415 208.688 472.031 208.016C471.647 207.333 471.455 206.533 471.455 205.616C471.455 204.699 471.647 203.899 472.031 203.216C472.415 202.533 472.937 202.011 473.599 201.648C474.271 201.285 475.028 201.104 475.871 201.104ZM475.871 202.384C475.348 202.384 474.863 202.501 474.415 202.736C473.977 202.971 473.62 203.333 473.343 203.824C473.076 204.304 472.943 204.901 472.943 205.616C472.943 206.32 473.076 206.917 473.343 207.408C473.62 207.888 473.977 208.245 474.415 208.48C474.863 208.715 475.348 208.832 475.871 208.832C476.393 208.832 476.873 208.715 477.311 208.48C477.759 208.245 478.116 207.888 478.383 207.408C478.66 206.917 478.799 206.32 478.799 205.616C478.799 204.901 478.66 204.304 478.383 203.824C478.116 203.333 477.759 202.971 477.311 202.736C476.873 202.501 476.393 202.384 475.871 202.384ZM484.374 202.992C484.662 202.384 485.083 201.915 485.638 201.584C486.193 201.243 486.854 201.072 487.622 201.072V202.656H487.174C486.353 202.656 485.681 202.869 485.158 203.296C484.635 203.712 484.374 204.405 484.374 205.376V210H482.918V201.216H484.374V202.992ZM495.584 208.288V210H493.824V208.288H495.584ZM502.844 201.104C503.623 201.104 504.316 201.285 504.924 201.648C505.532 202.011 506.007 202.533 506.348 203.216C506.7 203.899 506.876 204.699 506.876 205.616C506.876 206.533 506.7 207.333 506.348 208.016C506.007 208.688 505.532 209.205 504.924 209.568C504.316 209.931 503.623 210.112 502.844 210.112C501.991 210.112 501.265 209.899 500.668 209.472C500.081 209.035 499.676 208.464 499.452 207.76V214.16H497.996V201.216H499.452V203.456C499.676 202.752 500.081 202.187 500.668 201.76C501.265 201.323 501.991 201.104 502.844 201.104ZM502.428 202.4C501.863 202.4 501.351 202.533 500.892 202.8C500.433 203.056 500.076 203.429 499.82 203.92C499.564 204.411 499.436 204.976 499.436 205.616C499.436 206.256 499.564 206.821 499.82 207.312C500.076 207.792 500.433 208.165 500.892 208.432C501.351 208.699 501.863 208.832 502.428 208.832C503.335 208.832 504.055 208.549 504.588 207.984C505.132 207.408 505.404 206.619 505.404 205.616C505.404 204.613 505.132 203.829 504.588 203.264C504.055 202.688 503.335 202.4 502.428 202.4ZM514.151 201.072C515.175 201.072 516.002 201.403 516.631 202.064C517.261 202.715 517.575 203.659 517.575 204.896V210H516.119V205.024C516.119 204.149 515.895 203.477 515.447 203.008C514.999 202.539 514.391 202.304 513.623 202.304C512.823 202.304 512.183 202.565 511.703 203.088C511.223 203.6 510.983 204.352 510.983 205.344V210H509.527V201.216H510.983V203.296C511.207 202.581 511.602 202.032 512.167 201.648C512.743 201.264 513.405 201.072 514.151 201.072ZM524.159 201.104C525.012 201.104 525.732 201.317 526.319 201.744C526.916 202.171 527.332 202.741 527.567 203.456V201.216H529.023V210.144C529.023 210.955 528.852 211.675 528.511 212.304C528.169 212.933 527.689 213.424 527.071 213.776C526.452 214.128 525.732 214.304 524.911 214.304C523.727 214.304 522.761 214.016 522.015 213.44C521.268 212.875 520.793 212.107 520.591 211.136H522.031C522.201 211.723 522.521 212.181 522.991 212.512C523.471 212.853 524.084 213.024 524.831 213.024C525.62 213.024 526.271 212.768 526.783 212.256C527.305 211.755 527.567 211.051 527.567 210.144V207.76C527.332 208.475 526.916 209.045 526.319 209.472C525.732 209.899 525.012 210.112 524.159 210.112C523.38 210.112 522.687 209.931 522.079 209.568C521.471 209.205 520.991 208.688 520.639 208.016C520.297 207.333 520.127 206.533 520.127 205.616C520.127 204.699 520.297 203.899 520.639 203.216C520.991 202.533 521.471 202.011 522.079 201.648C522.687 201.285 523.38 201.104 524.159 201.104ZM524.575 202.4C523.679 202.4 522.959 202.688 522.415 203.264C521.881 203.829 521.615 204.613 521.615 205.616C521.615 206.619 521.881 207.408 522.415 207.984C522.959 208.549 523.679 208.832 524.575 208.832C525.151 208.832 525.663 208.699 526.111 208.432C526.569 208.165 526.927 207.792 527.183 207.312C527.439 206.821 527.567 206.256 527.567 205.616C527.567 204.976 527.439 204.411 527.183 203.92C526.927 203.429 526.569 203.056 526.111 202.8C525.663 202.533 525.151 202.4 524.575 202.4Z" fill="#666666"/>
</svg>
