<svg width="734" height="388" viewBox="0 0 734 388" fill="none" xmlns="http://www.w3.org/2000/svg">
<path d="M0 8C0 3.58172 3.58172 0 8 0H726C730.418 0 734 3.58172 734 8V388H0V8Z" fill="#E0E0E0"/>
<path d="M717.5 26.4854H718V31.4569H717.5V36.4283H718V41.3998H717.5V46.3712H718V51.3426H717.5V56.314H718V61.2855H717.5V66.2569H718V71.2284H717.5V76.1998H718V81.1712H717.5V86.1427H718V91.1141H717.5V96.0855H718V101.057H717.5V106.028H718V111H717.5V115.971H718V120.943H717.5V125.914H718V130.886H717.5V135.857H718V140.828H717.5V145.8H718V150.771H717.5V155.743H718V160.714H717.5V165.686H718V170.657H717.5V175.628H718V180.6H717.5V185.571H718V190.543H717.5V195.514H718V200.486H717.5V205.457H718V210.429H717.5V215.4H718V220.371H717.5V225.343H718V230.314H717.5V235.286H718V240.257H717.5V245.229H718V250.2H717.5V255.171H718V260.143H717.5V265.114H718V270.086H717.5V275.057H718V280.029H717.5V285H718V289.971H717.5V294.943H718V299.914H717.5V304.886H718V309.857H717.5V314.829H718V319.8H717.5V324.771H718V329.743H717.5V334.714H718V339.686H717.5V344.657H718V349.629H717.5V354.6H718V359.571H717.5V364.543H718V369.514H717.5V371.5H715.492V372H710.478V371.5H705.464V372H700.45V371.5H695.435V372H690.421V371.5H685.407V372H680.392V371.5H675.378V372H670.364V371.5H665.35V372H660.335V371.5H655.321V372H650.307V371.5H645.292V372H640.278V371.5H635.264V372H630.25V371.5H625.235V372H620.221V371.5H615.207V372H610.193V371.5H605.178V372H600.164V371.5H595.15V372H590.135V371.5H585.121V372H580.107V371.5H575.093V372H570.078V371.5H565.064V372H560.05V371.5H555.035V372H550.021V371.5H545.007V372H539.993V371.5H534.978V372H529.964V371.5H524.95V372H519.935V371.5H514.921V372H509.907V371.5H504.893V372H499.878V371.5H494.864V372H489.85V371.5H484.835V372H479.821V371.5H474.807V372H469.793V371.5H464.778V372H459.764V371.5H454.75V372H449.735V371.5H444.721V372H439.707V371.5H434.693V372H429.678V371.5H424.664V372H419.65V371.5H414.635V372H409.621V371.5H404.607V372H399.593V371.5H394.578V372H389.564V371.5H384.55V372H379.536V371.5H374.521V372H369.507V371.5H364.493V372H359.478V371.5H354.464V372H349.45V371.5H344.436V372H339.421V371.5H334.407V372H329.393V371.5H324.378V372H319.364V371.5H314.35V372H309.336V371.5H304.321V372H299.307V371.5H294.293V372H289.278V371.5H284.264V372H279.25V371.5H274.236V372H269.221V371.5H264.207V372H259.193V371.5H254.178V372H249.164V371.5H244.15V372H239.136V371.5H234.121V372H229.107V371.5H224.093V372H219.078V371.5H214.064V372H209.05V371.5H204.036V372H199.021V371.5H194.007V372H188.993V371.5H183.979V372H178.964V371.5H173.95V372H168.936V371.5H163.921V372H158.907V371.5H153.893V372H148.879V371.5H143.864V372H138.85V371.5H133.836V372H128.821V371.5H123.807V372H118.793V371.5H113.779V372H108.764V371.5H103.75V372H98.7357V371.5H93.7214V372H88.7071V371.5H83.6929V372H78.6786V371.5H73.6643V372H68.65V371.5H63.6357V372H58.6214V371.5H53.6071V372H48.5929V371.5H43.5786V372H38.5643V371.5H33.55V372H28.5357V371.5H23.5214V372H18.5071V371.5H16.5V369.515H16V364.543H16.5V359.572H16V354.6H16.5V349.629H16V344.657H16.5V339.686H16V334.715H16.5V329.743H16V324.772H16.5V319.8H16V314.829H16.5V309.857H16V304.886H16.5V299.914H16V294.943H16.5V289.972H16V285H16.5V280.029H16V275.057H16.5V270.086H16V265.114H16.5V260.143H16V255.172H16.5V250.2H16V245.229H16.5V240.257H16V235.286H16.5V230.314H16V225.343H16.5V220.372H16V215.4H16.5V210.429H16V205.457H16.5V200.486H16V195.514H16.5V190.543H16V185.571H16.5V180.6H16V175.629H16.5V170.657H16V165.686H16.5V160.714H16V155.743H16.5V150.771H16V145.8H16.5V140.829H16V135.857H16.5V130.886H16V125.914H16.5V120.943H16V115.971H16.5V111H16V106.029H16.5V101.057H16V96.0857H16.5V91.1143H16V86.1429H16.5V81.1714H16V76.2H16.5V71.2286H16V66.2571H16.5V61.2857H16V56.3143H16.5V51.3429H16V46.3714H16.5V41.4H16V36.4286H16.5V31.4571H16V26.4857H16.5V24C16.5 22.9821 16.7025 22.0128 17.0689 21.1292L16.607 20.9377C17.418 18.9822 18.9822 17.418 20.9377 16.607L21.1292 17.0689C22.0128 16.7025 22.9821 16.5 24 16.5H26.4862V16H31.4571V16.5H36.4281V16H41.3992V16.5H46.3702V16H51.3412V16.5H56.3122V16H61.2832V16.5H66.2542V16H71.2252V16.5H76.1962V16H81.1672V16.5H86.1382V16H91.1093V16.5H96.0803V16H101.051V16.5H106.022V16H110.993V16.5H115.964V16H120.935V16.5H125.906V16H130.877V16.5H135.848V16H140.819V16.5H145.79V16H150.761V16.5H155.732V16H160.703V16.5H165.674V16H170.645V16.5H175.616V16H180.587V16.5H185.558V16H190.529V16.5H195.5V16H200.471V16.5H205.442V16H210.413V16.5H215.385V16H220.356V16.5H225.326V16H230.298V16.5H235.269V16H240.24V16.5H245.211V16H250.182V16.5H255.153V16H260.124V16.5H265.095V16H270.066V16.5H275.037V16H280.008V16.5H284.979V16H289.95V16.5H294.921V16H299.892V16.5H304.863V16H309.834V16.5H314.805V16H319.776V16.5H324.747V16H329.718V16.5H334.689V16H339.66V16.5H344.631V16H349.602V16.5H354.573V16H359.544V16.5H364.515V16H369.486V16.5H374.457V16H379.428V16.5H384.399V16H389.37V16.5H394.341V16H399.312V16.5H404.283V16H409.254V16.5H414.225V16H419.196V16.5H424.167V16H429.138V16.5H434.109V16H439.08V16.5H444.051V16H449.022V16.5H453.993V16H458.964V16.5H463.935V16H468.906V16.5H473.877V16H478.848V16.5H483.819V16H488.79V16.5H493.761V16H498.732V16.5H503.703V16H508.674V16.5H513.645V16H518.616V16.5H523.587V16H528.558V16.5H533.529V16H538.5V16.5H543.471V16H548.442V16.5H553.413V16H558.384V16.5H563.355V16H568.326V16.5H573.297V16H578.268V16.5H583.239V16H588.21V16.5H593.181V16H598.152V16.5H603.123V16H608.094V16.5H613.065V16H618.036V16.5H623.007V16H627.978V16.5H632.949V16H637.92V16.5H642.891V16H647.862V16.5H652.833V16H657.804V16.5H662.775V16H667.746V16.5H672.717V16H677.688V16.5H682.659V16H687.63V16.5H692.601V16H697.572V16.5H702.543V16H707.514V16.5H710C711.018 16.5 711.987 16.7025 712.871 17.0689L713.062 16.6071C715.018 17.418 716.582 18.9822 717.393 20.9377L716.931 21.1292C717.297 22.0128 717.5 22.9821 717.5 24V26.4854Z" stroke="#666666" stroke-dasharray="5 5"/>
<path d="M282.124 254.488C282.124 255.32 281.924 256.096 281.524 256.816C281.124 257.52 280.516 258.088 279.7 258.52C278.884 258.952 277.884 259.168 276.7 259.168C275.548 259.168 274.516 258.968 273.604 258.568C272.692 258.152 271.964 257.576 271.42 256.84C270.876 256.104 270.564 255.256 270.484 254.296H273.412C273.492 255.032 273.804 255.664 274.348 256.192C274.908 256.72 275.652 256.984 276.58 256.984C277.412 256.984 278.052 256.76 278.5 256.312C278.964 255.864 279.196 255.288 279.196 254.584C279.196 253.976 279.028 253.48 278.692 253.096C278.356 252.696 277.94 252.384 277.444 252.16C276.948 251.936 276.268 251.68 275.404 251.392C274.348 251.056 273.484 250.72 272.812 250.384C272.156 250.048 271.596 249.56 271.132 248.92C270.668 248.28 270.436 247.44 270.436 246.4C270.436 245.488 270.66 244.688 271.108 244C271.556 243.312 272.196 242.784 273.028 242.416C273.86 242.032 274.82 241.84 275.908 241.84C277.636 241.84 279.004 242.256 280.012 243.088C281.036 243.92 281.62 245.008 281.764 246.352H278.812C278.7 245.712 278.396 245.168 277.9 244.72C277.42 244.256 276.756 244.024 275.908 244.024C275.14 244.024 274.524 244.224 274.06 244.624C273.596 245.008 273.364 245.568 273.364 246.304C273.364 246.88 273.524 247.36 273.844 247.744C274.164 248.112 274.564 248.408 275.044 248.632C275.54 248.84 276.212 249.088 277.06 249.376C278.132 249.712 279.004 250.056 279.676 250.408C280.364 250.744 280.94 251.24 281.404 251.896C281.884 252.552 282.124 253.416 282.124 254.488ZM285.229 241.936C285.229 241.472 285.389 241.088 285.709 240.784C286.029 240.48 286.453 240.328 286.981 240.328C287.509 240.328 287.933 240.48 288.253 240.784C288.589 241.088 288.757 241.472 288.757 241.936C288.757 242.4 288.589 242.776 288.253 243.064C287.933 243.352 287.509 243.496 286.981 243.496C286.453 243.496 286.029 243.352 285.709 243.064C285.389 242.776 285.229 242.4 285.229 241.936ZM288.349 245.776V259H285.613V245.776H288.349ZM294.378 256.696H301.17V259H291.354V256.816L297.786 248.08H291.522V245.776H300.93V247.96L294.378 256.696ZM316.464 251.752C316.464 252.2 316.432 252.592 316.368 252.928H306.192C306.24 254.288 306.616 255.296 307.32 255.952C308.024 256.608 308.896 256.936 309.936 256.936C310.848 256.936 311.616 256.704 312.24 256.24C312.88 255.776 313.272 255.16 313.416 254.392H316.344C316.168 255.32 315.8 256.144 315.24 256.864C314.68 257.584 313.952 258.152 313.056 258.568C312.16 258.968 311.16 259.168 310.056 259.168C308.776 259.168 307.64 258.896 306.648 258.352C305.672 257.808 304.904 257.024 304.344 256C303.784 254.976 303.504 253.768 303.504 252.376C303.504 251 303.784 249.8 304.344 248.776C304.904 247.752 305.672 246.968 306.648 246.424C307.64 245.88 308.776 245.608 310.056 245.608C311.352 245.608 312.48 245.88 313.44 246.424C314.416 246.952 315.16 247.688 315.672 248.632C316.2 249.56 316.464 250.6 316.464 251.752ZM313.704 251.68C313.736 250.816 313.584 250.096 313.248 249.52C312.928 248.928 312.48 248.496 311.904 248.224C311.344 247.936 310.728 247.792 310.056 247.792C308.984 247.792 308.088 248.12 307.368 248.776C306.648 249.432 306.256 250.4 306.192 251.68H313.704ZM322.399 245.8V248.824H319.303V245.8H322.399ZM322.399 255.976V259H319.303V255.976H322.399ZM342.048 244.024L335.736 259H332.856L339.264 244.336H330.864V241.96H342.048V244.024ZM350.618 241.528C351.738 241.528 352.698 241.728 353.498 242.128C354.298 242.512 354.898 243.048 355.298 243.736C355.714 244.424 355.922 245.192 355.922 246.04C355.922 247.112 355.618 248.008 355.01 248.728C354.418 249.432 353.578 249.856 352.49 250V250.12C353.658 250.456 354.57 250.96 355.226 251.632C355.898 252.288 356.234 253.2 356.234 254.368C356.234 255.792 355.762 256.952 354.818 257.848C353.874 258.728 352.522 259.168 350.762 259.168C348.954 259.168 347.498 258.712 346.394 257.8C345.29 256.872 344.658 255.504 344.498 253.696H347.21C347.306 254.656 347.65 255.424 348.242 256C348.834 256.56 349.634 256.84 350.642 256.84C351.586 256.84 352.306 256.592 352.802 256.096C353.314 255.6 353.57 254.96 353.57 254.176C353.57 253.232 353.202 252.512 352.466 252.016C351.746 251.52 350.698 251.272 349.322 251.272H348.674V249.016H349.322C351.93 249.048 353.234 248.16 353.234 246.352C353.234 245.568 352.994 244.952 352.514 244.504C352.034 244.056 351.378 243.832 350.546 243.832C349.714 243.832 349.018 244.088 348.458 244.6C347.898 245.096 347.562 245.824 347.45 246.784H344.762C344.874 245.12 345.434 243.832 346.442 242.92C347.45 241.992 348.842 241.528 350.618 241.528ZM359.258 255.352V253.048L367.682 241.912H370.61V252.952H372.986V255.352H370.61V259H367.85V255.352H359.258ZM368.042 245.176L362.09 252.952H368.042V245.176ZM390.017 245.608C391.169 245.608 392.193 245.88 393.089 246.424C394.001 246.968 394.713 247.752 395.225 248.776C395.737 249.8 395.993 251 395.993 252.376C395.993 253.768 395.737 254.976 395.225 256C394.713 257.024 394.001 257.808 393.089 258.352C392.193 258.896 391.169 259.168 390.017 259.168C388.817 259.168 387.793 258.872 386.945 258.28C386.097 257.688 385.505 256.904 385.169 255.928V259H382.433V241.24H385.169V248.848C385.505 247.872 386.097 247.088 386.945 246.496C387.793 245.904 388.817 245.608 390.017 245.608ZM389.177 248.008C388.409 248.008 387.721 248.192 387.113 248.56C386.505 248.912 386.025 249.424 385.673 250.096C385.321 250.752 385.145 251.512 385.145 252.376C385.145 253.256 385.321 254.024 385.673 254.68C386.025 255.336 386.505 255.848 387.113 256.216C387.721 256.568 388.409 256.744 389.177 256.744C390.393 256.744 391.369 256.36 392.105 255.592C392.841 254.808 393.209 253.736 393.209 252.376C393.209 251.032 392.841 249.968 392.105 249.184C391.369 248.4 390.393 248.008 389.177 248.008ZM400.939 245.776L404.899 255.496L408.571 245.776H411.619L403.627 265.288H400.579L403.435 258.688L397.867 245.776H400.939ZM426.087 241.528C427.207 241.528 428.167 241.728 428.967 242.128C429.767 242.512 430.367 243.048 430.767 243.736C431.183 244.424 431.391 245.192 431.391 246.04C431.391 247.112 431.087 248.008 430.479 248.728C429.887 249.432 429.047 249.856 427.959 250V250.12C429.127 250.456 430.039 250.96 430.695 251.632C431.367 252.288 431.703 253.2 431.703 254.368C431.703 255.792 431.231 256.952 430.287 257.848C429.343 258.728 427.991 259.168 426.231 259.168C424.423 259.168 422.967 258.712 421.863 257.8C420.759 256.872 420.127 255.504 419.967 253.696H422.679C422.775 254.656 423.119 255.424 423.711 256C424.303 256.56 425.103 256.84 426.111 256.84C427.055 256.84 427.775 256.592 428.271 256.096C428.783 255.6 429.039 254.96 429.039 254.176C429.039 253.232 428.671 252.512 427.935 252.016C427.215 251.52 426.167 251.272 424.791 251.272H424.143V249.016H424.791C427.399 249.048 428.703 248.16 428.703 246.352C428.703 245.568 428.463 244.952 427.983 244.504C427.503 244.056 426.847 243.832 426.015 243.832C425.183 243.832 424.487 244.088 423.927 244.6C423.367 245.096 423.031 245.824 422.919 246.784H420.231C420.343 245.12 420.903 243.832 421.911 242.92C422.919 241.992 424.311 241.528 426.087 241.528ZM435.567 245.992C435.567 245.16 435.791 244.4 436.239 243.712C436.687 243.024 437.351 242.472 438.231 242.056C439.127 241.64 440.199 241.432 441.447 241.432C442.695 241.432 443.759 241.64 444.639 242.056C445.535 242.472 446.207 243.024 446.655 243.712C447.119 244.4 447.351 245.16 447.351 245.992C447.351 246.92 447.103 247.72 446.607 248.392C446.127 249.064 445.407 249.552 444.447 249.856C445.519 250.192 446.343 250.736 446.919 251.488C447.495 252.224 447.783 253.128 447.783 254.2C447.783 255.848 447.199 257.136 446.031 258.064C444.863 258.976 443.335 259.432 441.447 259.432C439.559 259.432 438.031 258.976 436.863 258.064C435.711 257.136 435.135 255.848 435.135 254.2C435.135 253.128 435.423 252.224 435.999 251.488C436.575 250.736 437.399 250.192 438.471 249.856C437.511 249.552 436.783 249.064 436.287 248.392C435.807 247.72 435.567 246.92 435.567 245.992ZM438.279 246.424C438.279 247.288 438.559 247.96 439.119 248.44C439.695 248.904 440.471 249.136 441.447 249.136C442.423 249.136 443.199 248.904 443.775 248.44C444.351 247.96 444.639 247.288 444.639 246.424C444.639 245.56 444.343 244.888 443.751 244.408C443.175 243.928 442.407 243.688 441.447 243.688C440.487 243.688 439.719 243.928 439.143 244.408C438.567 244.888 438.279 245.56 438.279 246.424ZM437.799 254.056C437.799 255.032 438.127 255.8 438.783 256.36C439.439 256.904 440.327 257.176 441.447 257.176C442.567 257.176 443.455 256.904 444.111 256.36C444.767 255.8 445.095 255.032 445.095 254.056C445.095 253.064 444.751 252.32 444.063 251.824C443.391 251.312 442.519 251.056 441.447 251.056C440.391 251.056 439.519 251.312 438.831 251.824C438.143 252.336 437.799 253.08 437.799 254.056ZM451.457 245.992C451.457 245.16 451.681 244.4 452.129 243.712C452.577 243.024 453.241 242.472 454.121 242.056C455.017 241.64 456.089 241.432 457.337 241.432C458.585 241.432 459.649 241.64 460.529 242.056C461.425 242.472 462.097 243.024 462.545 243.712C463.009 244.4 463.241 245.16 463.241 245.992C463.241 246.92 462.993 247.72 462.497 248.392C462.017 249.064 461.297 249.552 460.337 249.856C461.409 250.192 462.233 250.736 462.809 251.488C463.385 252.224 463.673 253.128 463.673 254.2C463.673 255.848 463.089 257.136 461.921 258.064C460.753 258.976 459.225 259.432 457.337 259.432C455.449 259.432 453.921 258.976 452.753 258.064C451.601 257.136 451.025 255.848 451.025 254.2C451.025 253.128 451.313 252.224 451.889 251.488C452.465 250.736 453.289 250.192 454.361 249.856C453.401 249.552 452.673 249.064 452.177 248.392C451.697 247.72 451.457 246.92 451.457 245.992ZM454.169 246.424C454.169 247.288 454.449 247.96 455.009 248.44C455.585 248.904 456.361 249.136 457.337 249.136C458.313 249.136 459.089 248.904 459.665 248.44C460.241 247.96 460.529 247.288 460.529 246.424C460.529 245.56 460.233 244.888 459.641 244.408C459.065 243.928 458.297 243.688 457.337 243.688C456.377 243.688 455.609 243.928 455.033 244.408C454.457 244.888 454.169 245.56 454.169 246.424ZM453.689 254.056C453.689 255.032 454.017 255.8 454.673 256.36C455.329 256.904 456.217 257.176 457.337 257.176C458.457 257.176 459.345 256.904 460.001 256.36C460.657 255.8 460.985 255.032 460.985 254.056C460.985 253.064 460.641 252.32 459.953 251.824C459.281 251.312 458.409 251.056 457.337 251.056C456.281 251.056 455.409 251.312 454.721 251.824C454.033 252.336 453.689 253.08 453.689 254.056Z" fill="#666666"/>
<path d="M216.716 76.264V81.4H222.956V83.512H216.716V88.768H223.676V91H213.98V74.056H223.676V76.264H216.716ZM234.474 77.56C236.01 77.56 237.242 78.056 238.17 79.048C239.098 80.04 239.562 81.456 239.562 83.296V91H236.826V83.584C236.826 82.4 236.522 81.488 235.914 80.848C235.306 80.192 234.474 79.864 233.418 79.864C232.33 79.864 231.458 80.216 230.802 80.92C230.146 81.608 229.818 82.624 229.818 83.968V91H227.082V77.776H229.818V80.68C230.17 79.688 230.762 78.92 231.594 78.376C232.426 77.832 233.386 77.56 234.474 77.56ZM246.247 73.24V91H243.511V73.24H246.247ZM255.612 77.608C256.812 77.608 257.836 77.904 258.684 78.496C259.532 79.088 260.132 79.872 260.484 80.848V77.776H263.22V91H260.484V87.928C260.132 88.904 259.532 89.688 258.684 90.28C257.836 90.872 256.812 91.168 255.612 91.168C254.46 91.168 253.428 90.896 252.516 90.352C251.62 89.808 250.916 89.024 250.404 88C249.892 86.976 249.636 85.768 249.636 84.376C249.636 83 249.892 81.8 250.404 80.776C250.916 79.752 251.62 78.968 252.516 78.424C253.428 77.88 254.46 77.608 255.612 77.608ZM256.452 80.008C255.236 80.008 254.26 80.4 253.524 81.184C252.804 81.952 252.444 83.016 252.444 84.376C252.444 85.736 252.804 86.808 253.524 87.592C254.26 88.36 255.236 88.744 256.452 88.744C257.22 88.744 257.908 88.568 258.516 88.216C259.124 87.848 259.604 87.336 259.956 86.68C260.308 86.024 260.484 85.256 260.484 84.376C260.484 83.512 260.308 82.752 259.956 82.096C259.604 81.424 259.124 80.912 258.516 80.56C257.908 80.192 257.22 80.008 256.452 80.008ZM269.99 80.368C270.438 79.504 271.078 78.824 271.91 78.328C272.742 77.816 273.702 77.56 274.79 77.56V80.536H273.974C272.774 80.536 271.806 80.832 271.07 81.424C270.35 82 269.99 82.96 269.99 84.304V91H267.254V77.776H269.99V80.368ZM282.894 77.608C284.094 77.608 285.118 77.904 285.966 78.496C286.814 79.088 287.414 79.872 287.766 80.848V77.776H290.502V91.144C290.502 92.376 290.246 93.464 289.734 94.408C289.238 95.368 288.518 96.12 287.574 96.664C286.63 97.208 285.51 97.48 284.214 97.48C282.358 97.48 280.854 97.04 279.702 96.16C278.566 95.28 277.854 94.088 277.566 92.584H280.278C280.502 93.368 280.934 93.976 281.574 94.408C282.214 94.856 283.03 95.08 284.022 95.08C285.11 95.08 286.006 94.744 286.71 94.072C287.414 93.4 287.766 92.424 287.766 91.144V87.928C287.414 88.904 286.814 89.688 285.966 90.28C285.118 90.872 284.094 91.168 282.894 91.168C281.742 91.168 280.71 90.896 279.798 90.352C278.902 89.808 278.198 89.024 277.686 88C277.174 86.976 276.918 85.768 276.918 84.376C276.918 83 277.174 81.8 277.686 80.776C278.198 79.752 278.902 78.968 279.798 78.424C280.71 77.88 281.742 77.608 282.894 77.608ZM283.734 80.008C282.518 80.008 281.542 80.4 280.806 81.184C280.086 81.952 279.726 83.016 279.726 84.376C279.726 85.736 280.086 86.808 280.806 87.592C281.542 88.36 282.518 88.744 283.734 88.744C284.502 88.744 285.19 88.568 285.798 88.216C286.406 87.848 286.886 87.336 287.238 86.68C287.59 86.024 287.766 85.256 287.766 84.376C287.766 83.512 287.59 82.752 287.238 82.096C286.886 81.424 286.406 80.912 285.798 80.56C285.19 80.192 284.502 80.008 283.734 80.008ZM306.823 83.752C306.823 84.2 306.791 84.592 306.727 84.928H296.551C296.599 86.288 296.975 87.296 297.679 87.952C298.383 88.608 299.255 88.936 300.295 88.936C301.207 88.936 301.975 88.704 302.599 88.24C303.239 87.776 303.631 87.16 303.775 86.392H306.703C306.527 87.32 306.159 88.144 305.599 88.864C305.039 89.584 304.311 90.152 303.415 90.568C302.519 90.968 301.519 91.168 300.415 91.168C299.135 91.168 297.999 90.896 297.007 90.352C296.031 89.808 295.263 89.024 294.703 88C294.143 86.976 293.863 85.768 293.863 84.376C293.863 83 294.143 81.8 294.703 80.776C295.263 79.752 296.031 78.968 297.007 78.424C297.999 77.88 299.135 77.608 300.415 77.608C301.711 77.608 302.839 77.88 303.799 78.424C304.775 78.952 305.519 79.688 306.031 80.632C306.559 81.56 306.823 82.6 306.823 83.752ZM304.063 83.68C304.095 82.816 303.943 82.096 303.607 81.52C303.287 80.928 302.839 80.496 302.263 80.224C301.703 79.936 301.087 79.792 300.415 79.792C299.343 79.792 298.447 80.12 297.727 80.776C297.007 81.432 296.615 82.4 296.551 83.68H304.063ZM315.519 77.608C316.719 77.608 317.743 77.904 318.591 78.496C319.439 79.088 320.031 79.872 320.367 80.848V73.24H323.127V91H320.367V87.928C320.031 88.904 319.439 89.688 318.591 90.28C317.743 90.872 316.719 91.168 315.519 91.168C314.367 91.168 313.335 90.896 312.423 90.352C311.527 89.808 310.823 89.024 310.311 88C309.799 86.976 309.543 85.768 309.543 84.376C309.543 83 309.799 81.8 310.311 80.776C310.823 79.752 311.527 78.968 312.423 78.424C313.335 77.88 314.367 77.608 315.519 77.608ZM316.359 80.008C315.143 80.008 314.167 80.4 313.431 81.184C312.711 81.952 312.351 83.016 312.351 84.376C312.351 85.736 312.711 86.808 313.431 87.592C314.167 88.36 315.143 88.744 316.359 88.744C317.127 88.744 317.815 88.568 318.423 88.216C319.031 87.848 319.511 87.336 319.863 86.68C320.215 86.024 320.391 85.256 320.391 84.376C320.391 83.512 320.215 82.752 319.863 82.096C319.511 81.424 319.031 80.912 318.423 80.56C317.815 80.192 317.127 80.008 316.359 80.008ZM341.119 77.608C342.271 77.608 343.295 77.88 344.191 78.424C345.103 78.968 345.815 79.752 346.327 80.776C346.839 81.8 347.095 83 347.095 84.376C347.095 85.768 346.839 86.976 346.327 88C345.815 89.024 345.103 89.808 344.191 90.352C343.295 90.896 342.271 91.168 341.119 91.168C339.919 91.168 338.895 90.872 338.047 90.28C337.199 89.688 336.607 88.904 336.271 87.928V97.288H333.535V77.776H336.271V80.848C336.607 79.872 337.199 79.088 338.047 78.496C338.895 77.904 339.919 77.608 341.119 77.608ZM340.279 80.008C339.511 80.008 338.823 80.192 338.215 80.56C337.607 80.912 337.127 81.424 336.775 82.096C336.423 82.752 336.247 83.512 336.247 84.376C336.247 85.256 336.423 86.024 336.775 86.68C337.127 87.336 337.607 87.848 338.215 88.216C338.823 88.568 339.511 88.744 340.279 88.744C341.495 88.744 342.471 88.36 343.207 87.592C343.943 86.808 344.311 85.736 344.311 84.376C344.311 83.032 343.943 81.968 343.207 81.184C342.471 80.4 341.495 80.008 340.279 80.008ZM353.216 80.368C353.664 79.504 354.304 78.824 355.136 78.328C355.968 77.816 356.928 77.56 358.016 77.56V80.536H357.2C356 80.536 355.032 80.832 354.296 81.424C353.576 82 353.216 82.96 353.216 84.304V91H350.48V77.776H353.216V80.368ZM366.864 77.608C368.144 77.608 369.296 77.88 370.32 78.424C371.344 78.968 372.144 79.752 372.72 80.776C373.296 81.8 373.584 83 373.584 84.376C373.584 85.768 373.296 86.976 372.72 88C372.144 89.024 371.344 89.808 370.32 90.352C369.296 90.896 368.144 91.168 366.864 91.168C365.584 91.168 364.432 90.896 363.408 90.352C362.4 89.808 361.6 89.024 361.008 88C360.432 86.96 360.144 85.752 360.144 84.376C360.144 83 360.432 81.8 361.008 80.776C361.6 79.752 362.4 78.968 363.408 78.424C364.432 77.88 365.584 77.608 366.864 77.608ZM366.864 79.984C366.16 79.984 365.512 80.144 364.92 80.464C364.328 80.784 363.848 81.28 363.48 81.952C363.128 82.608 362.952 83.416 362.952 84.376C362.952 85.352 363.128 86.168 363.48 86.824C363.848 87.48 364.328 87.968 364.92 88.288C365.512 88.608 366.16 88.768 366.864 88.768C367.568 88.768 368.216 88.608 368.808 88.288C369.4 87.968 369.872 87.48 370.224 86.824C370.592 86.168 370.776 85.352 370.776 84.376C370.776 83.416 370.592 82.608 370.224 81.952C369.872 81.28 369.4 80.784 368.808 80.464C368.216 80.144 367.568 79.984 366.864 79.984ZM382.269 77.608C383.469 77.608 384.493 77.904 385.341 78.496C386.189 79.088 386.781 79.872 387.117 80.848V73.24H389.877V91H387.117V87.928C386.781 88.904 386.189 89.688 385.341 90.28C384.493 90.872 383.469 91.168 382.269 91.168C381.117 91.168 380.085 90.896 379.173 90.352C378.277 89.808 377.573 89.024 377.061 88C376.549 86.976 376.293 85.768 376.293 84.376C376.293 83 376.549 81.8 377.061 80.776C377.573 79.752 378.277 78.968 379.173 78.424C380.085 77.88 381.117 77.608 382.269 77.608ZM383.109 80.008C381.893 80.008 380.917 80.4 380.181 81.184C379.461 81.952 379.101 83.016 379.101 84.376C379.101 85.736 379.461 86.808 380.181 87.592C380.917 88.36 381.893 88.744 383.109 88.744C383.877 88.744 384.565 88.568 385.173 88.216C385.781 87.848 386.261 87.336 386.613 86.68C386.965 86.024 387.141 85.256 387.141 84.376C387.141 83.512 386.965 82.752 386.613 82.096C386.261 81.424 385.781 80.912 385.173 80.56C384.565 80.192 383.877 80.008 383.109 80.008ZM406.102 77.776V91H403.342V88.12C403.006 89.096 402.422 89.856 401.59 90.4C400.758 90.928 399.79 91.192 398.686 91.192C397.15 91.192 395.918 90.696 394.99 89.704C394.062 88.712 393.598 87.296 393.598 85.456V77.776H396.334V85.168C396.334 86.368 396.638 87.296 397.246 87.952C397.854 88.592 398.686 88.912 399.742 88.912C400.83 88.912 401.702 88.56 402.358 87.856C403.014 87.152 403.342 86.128 403.342 84.784V77.776H406.102ZM416.009 77.608C417.721 77.608 419.137 78.064 420.257 78.976C421.377 79.872 422.073 81.096 422.345 82.648H419.441C419.281 81.816 418.889 81.168 418.265 80.704C417.657 80.224 416.889 79.984 415.961 79.984C414.905 79.984 414.025 80.36 413.321 81.112C412.617 81.848 412.265 82.936 412.265 84.376C412.265 85.816 412.617 86.912 413.321 87.664C414.025 88.416 414.905 88.792 415.961 88.792C416.889 88.792 417.657 88.552 418.265 88.072C418.889 87.592 419.281 86.936 419.441 86.104H422.345C422.073 87.656 421.377 88.888 420.257 89.8C419.137 90.712 417.721 91.168 416.009 91.168C414.729 91.168 413.593 90.896 412.601 90.352C411.625 89.808 410.857 89.024 410.297 88C409.737 86.976 409.457 85.768 409.457 84.376C409.457 83 409.737 81.8 410.297 80.776C410.857 79.752 411.625 78.968 412.601 78.424C413.593 77.88 414.729 77.608 416.009 77.608ZM432.386 88.624V91H430.706C429.298 91 428.226 90.664 427.49 89.992C426.77 89.304 426.41 88.168 426.41 86.584V80.104H424.514V77.776H426.41V74.488H429.17V77.776H432.362V80.104H429.17V86.632C429.17 87.384 429.306 87.904 429.578 88.192C429.866 88.48 430.362 88.624 431.066 88.624H432.386ZM441.69 73.936C441.69 73.472 441.85 73.088 442.17 72.784C442.49 72.48 442.914 72.328 443.442 72.328C443.97 72.328 444.394 72.48 444.714 72.784C445.05 73.088 445.218 73.472 445.218 73.936C445.218 74.4 445.05 74.776 444.714 75.064C444.394 75.352 443.97 75.496 443.442 75.496C442.914 75.496 442.49 75.352 442.17 75.064C441.85 74.776 441.69 74.4 441.69 73.936ZM444.81 77.776V91H442.074V77.776H444.81ZM465.407 77.56C466.975 77.56 468.223 78.056 469.151 79.048C470.095 80.04 470.567 81.456 470.567 83.296V91H467.831V83.584C467.831 82.432 467.543 81.544 466.967 80.92C466.391 80.28 465.599 79.96 464.591 79.96C463.519 79.96 462.663 80.304 462.023 80.992C461.399 81.664 461.087 82.656 461.087 83.968V91H458.351V83.584C458.351 82.432 458.063 81.544 457.487 80.92C456.911 80.28 456.119 79.96 455.111 79.96C454.039 79.96 453.183 80.304 452.543 80.992C451.919 81.664 451.607 82.656 451.607 83.968V91H448.871V77.776H451.607V80.536C451.943 79.576 452.503 78.84 453.287 78.328C454.071 77.816 454.991 77.56 456.047 77.56C457.151 77.56 458.103 77.832 458.903 78.376C459.719 78.92 460.311 79.704 460.679 80.728C461.063 79.736 461.679 78.96 462.527 78.4C463.375 77.84 464.335 77.56 465.407 77.56ZM479.815 77.608C481.015 77.608 482.039 77.904 482.887 78.496C483.735 79.088 484.335 79.872 484.687 80.848V77.776H487.423V91H484.687V87.928C484.335 88.904 483.735 89.688 482.887 90.28C482.039 90.872 481.015 91.168 479.815 91.168C478.663 91.168 477.631 90.896 476.719 90.352C475.823 89.808 475.119 89.024 474.607 88C474.095 86.976 473.839 85.768 473.839 84.376C473.839 83 474.095 81.8 474.607 80.776C475.119 79.752 475.823 78.968 476.719 78.424C477.631 77.88 478.663 77.608 479.815 77.608ZM480.655 80.008C479.439 80.008 478.463 80.4 477.727 81.184C477.007 81.952 476.647 83.016 476.647 84.376C476.647 85.736 477.007 86.808 477.727 87.592C478.463 88.36 479.439 88.744 480.655 88.744C481.423 88.744 482.111 88.568 482.719 88.216C483.327 87.848 483.807 87.336 484.159 86.68C484.511 86.024 484.687 85.256 484.687 84.376C484.687 83.512 484.511 82.752 484.159 82.096C483.807 81.424 483.327 80.912 482.719 80.56C482.111 80.192 481.423 80.008 480.655 80.008ZM496.761 77.608C497.961 77.608 498.985 77.904 499.833 78.496C500.681 79.088 501.281 79.872 501.633 80.848V77.776H504.369V91.144C504.369 92.376 504.113 93.464 503.601 94.408C503.105 95.368 502.385 96.12 501.441 96.664C500.497 97.208 499.377 97.48 498.081 97.48C496.225 97.48 494.721 97.04 493.569 96.16C492.433 95.28 491.721 94.088 491.433 92.584H494.145C494.369 93.368 494.801 93.976 495.441 94.408C496.081 94.856 496.897 95.08 497.889 95.08C498.977 95.08 499.873 94.744 500.577 94.072C501.281 93.4 501.633 92.424 501.633 91.144V87.928C501.281 88.904 500.681 89.688 499.833 90.28C498.985 90.872 497.961 91.168 496.761 91.168C495.609 91.168 494.577 90.896 493.665 90.352C492.769 89.808 492.065 89.024 491.553 88C491.041 86.976 490.785 85.768 490.785 84.376C490.785 83 491.041 81.8 491.553 80.776C492.065 79.752 492.769 78.968 493.665 78.424C494.577 77.88 495.609 77.608 496.761 77.608ZM497.601 80.008C496.385 80.008 495.409 80.4 494.673 81.184C493.953 81.952 493.593 83.016 493.593 84.376C493.593 85.736 493.953 86.808 494.673 87.592C495.409 88.36 496.385 88.744 497.601 88.744C498.369 88.744 499.057 88.568 499.665 88.216C500.273 87.848 500.753 87.336 501.105 86.68C501.457 86.024 501.633 85.256 501.633 84.376C501.633 83.512 501.457 82.752 501.105 82.096C500.753 81.424 500.273 80.912 499.665 80.56C499.057 80.192 498.369 80.008 497.601 80.008ZM520.69 83.752C520.69 84.2 520.658 84.592 520.594 84.928H510.418C510.466 86.288 510.842 87.296 511.546 87.952C512.25 88.608 513.122 88.936 514.162 88.936C515.074 88.936 515.842 88.704 516.466 88.24C517.106 87.776 517.498 87.16 517.642 86.392H520.57C520.394 87.32 520.026 88.144 519.466 88.864C518.906 89.584 518.178 90.152 517.282 90.568C516.386 90.968 515.386 91.168 514.282 91.168C513.002 91.168 511.866 90.896 510.874 90.352C509.898 89.808 509.13 89.024 508.57 88C508.01 86.976 507.73 85.768 507.73 84.376C507.73 83 508.01 81.8 508.57 80.776C509.13 79.752 509.898 78.968 510.874 78.424C511.866 77.88 513.002 77.608 514.282 77.608C515.578 77.608 516.706 77.88 517.666 78.424C518.642 78.952 519.386 79.688 519.898 80.632C520.426 81.56 520.69 82.6 520.69 83.752ZM517.93 83.68C517.962 82.816 517.81 82.096 517.474 81.52C517.154 80.928 516.706 80.496 516.13 80.224C515.57 79.936 514.954 79.792 514.282 79.792C513.21 79.792 512.314 80.12 511.594 80.776C510.874 81.432 510.482 82.4 510.418 83.68H517.93Z" fill="#404040"/>
<path d="M95.1216 291.72L92.2576 303H90.4816L87.8736 293.784L85.2656 303H83.4896L80.6096 291.72H82.2256L84.3856 301.304L87.0576 291.72H88.6736L91.3456 301.272L93.5216 291.72H95.1216ZM105.068 298.12C105.068 298.429 105.046 298.696 105.004 298.92H97.9797C98.0117 299.923 98.2944 300.675 98.8277 301.176C99.3717 301.677 100.033 301.928 100.812 301.928C101.516 301.928 102.102 301.752 102.572 301.4C103.052 301.037 103.345 300.557 103.452 299.96H105.004C104.897 300.568 104.657 301.112 104.284 301.592C103.921 302.072 103.446 302.445 102.86 302.712C102.273 302.979 101.612 303.112 100.876 303.112C100.033 303.112 99.2864 302.931 98.6357 302.568C97.985 302.205 97.473 301.688 97.0997 301.016C96.737 300.333 96.5557 299.533 96.5557 298.616C96.5557 297.699 96.737 296.899 97.0997 296.216C97.473 295.533 97.985 295.011 98.6357 294.648C99.2864 294.285 100.033 294.104 100.876 294.104C101.729 294.104 102.47 294.285 103.1 294.648C103.74 295.011 104.225 295.496 104.556 296.104C104.897 296.712 105.068 297.384 105.068 298.12ZM103.596 298.216C103.628 297.565 103.521 297.021 103.276 296.584C103.03 296.147 102.694 295.821 102.268 295.608C101.841 295.395 101.377 295.288 100.876 295.288C100.076 295.288 99.4037 295.539 98.8597 296.04C98.3157 296.531 98.0224 297.256 97.9797 298.216H103.596ZM114.845 294.104C115.699 294.104 116.419 294.317 117.005 294.744C117.603 295.171 118.019 295.741 118.253 296.456V294.216H119.709V303H118.253V300.76C118.019 301.475 117.603 302.045 117.005 302.472C116.419 302.899 115.699 303.112 114.845 303.112C114.067 303.112 113.373 302.931 112.765 302.568C112.157 302.205 111.677 301.688 111.325 301.016C110.984 300.333 110.813 299.533 110.813 298.616C110.813 297.699 110.984 296.899 111.325 296.216C111.677 295.533 112.157 295.011 112.765 294.648C113.373 294.285 114.067 294.104 114.845 294.104ZM115.261 295.4C114.365 295.4 113.645 295.688 113.101 296.264C112.568 296.829 112.301 297.613 112.301 298.616C112.301 299.619 112.568 300.408 113.101 300.984C113.645 301.549 114.365 301.832 115.261 301.832C115.837 301.832 116.349 301.699 116.797 301.432C117.256 301.165 117.613 300.792 117.869 300.312C118.125 299.821 118.253 299.256 118.253 298.616C118.253 297.976 118.125 297.411 117.869 296.92C117.613 296.429 117.256 296.056 116.797 295.8C116.349 295.533 115.837 295.4 115.261 295.4ZM125.786 294.104C126.64 294.104 127.36 294.317 127.946 294.744C128.544 295.171 128.96 295.741 129.194 296.456V291.16H130.65V303H129.194V300.76C128.96 301.475 128.544 302.045 127.946 302.472C127.36 302.899 126.64 303.112 125.786 303.112C125.008 303.112 124.314 302.931 123.706 302.568C123.098 302.205 122.618 301.688 122.266 301.016C121.925 300.333 121.754 299.533 121.754 298.616C121.754 297.699 121.925 296.899 122.266 296.216C122.618 295.533 123.098 295.011 123.706 294.648C124.314 294.285 125.008 294.104 125.786 294.104ZM126.202 295.4C125.306 295.4 124.586 295.688 124.042 296.264C123.509 296.829 123.242 297.613 123.242 298.616C123.242 299.619 123.509 300.408 124.042 300.984C124.586 301.549 125.306 301.832 126.202 301.832C126.778 301.832 127.29 301.699 127.738 301.432C128.197 301.165 128.554 300.792 128.81 300.312C129.066 299.821 129.194 299.256 129.194 298.616C129.194 297.976 129.066 297.411 128.81 296.92C128.554 296.429 128.197 296.056 127.738 295.8C127.29 295.533 126.778 295.4 126.202 295.4ZM136.536 301.448L139.256 294.216H140.824L137.384 303H135.656L132.216 294.216H133.784L136.536 301.448ZM142.157 291.64C142.157 291.373 142.247 291.16 142.429 291C142.61 290.829 142.85 290.744 143.149 290.744C143.447 290.744 143.687 290.829 143.869 291C144.05 291.16 144.141 291.373 144.141 291.64C144.141 291.907 144.05 292.125 143.869 292.296C143.687 292.456 143.447 292.536 143.149 292.536C142.85 292.536 142.61 292.456 142.429 292.296C142.247 292.125 142.157 291.907 142.157 291.64ZM143.869 294.216V303H142.413V294.216H143.869ZM150.258 294.104C151.378 294.104 152.306 294.403 153.042 295C153.778 295.597 154.231 296.397 154.402 297.4H152.866C152.759 296.771 152.466 296.28 151.986 295.928C151.516 295.565 150.93 295.384 150.226 295.384C149.714 295.384 149.244 295.501 148.818 295.736C148.402 295.971 148.066 296.333 147.81 296.824C147.554 297.304 147.426 297.901 147.426 298.616C147.426 299.331 147.554 299.933 147.81 300.424C148.066 300.904 148.402 301.261 148.818 301.496C149.244 301.731 149.714 301.848 150.226 301.848C150.93 301.848 151.516 301.667 151.986 301.304C152.466 300.941 152.759 300.445 152.866 299.816H154.402C154.231 300.829 153.778 301.635 153.042 302.232C152.306 302.819 151.378 303.112 150.258 303.112C149.415 303.112 148.668 302.931 148.018 302.568C147.367 302.205 146.855 301.688 146.482 301.016C146.119 300.333 145.938 299.533 145.938 298.616C145.938 297.699 146.119 296.899 146.482 296.216C146.855 295.533 147.367 295.011 148.018 294.648C148.668 294.285 149.415 294.104 150.258 294.104ZM164.547 298.12C164.547 298.429 164.526 298.696 164.483 298.92H157.459C157.491 299.923 157.774 300.675 158.307 301.176C158.851 301.677 159.512 301.928 160.291 301.928C160.995 301.928 161.582 301.752 162.051 301.4C162.531 301.037 162.824 300.557 162.931 299.96H164.483C164.376 300.568 164.136 301.112 163.763 301.592C163.4 302.072 162.926 302.445 162.339 302.712C161.752 302.979 161.091 303.112 160.355 303.112C159.512 303.112 158.766 302.931 158.115 302.568C157.464 302.205 156.952 301.688 156.579 301.016C156.216 300.333 156.035 299.533 156.035 298.616C156.035 297.699 156.216 296.899 156.579 296.216C156.952 295.533 157.464 295.011 158.115 294.648C158.766 294.285 159.512 294.104 160.355 294.104C161.208 294.104 161.95 294.285 162.579 294.648C163.219 295.011 163.704 295.496 164.035 296.104C164.376 296.712 164.547 297.384 164.547 298.12ZM163.075 298.216C163.107 297.565 163 297.021 162.755 296.584C162.51 296.147 162.174 295.821 161.747 295.608C161.32 295.395 160.856 295.288 160.355 295.288C159.555 295.288 158.883 295.539 158.339 296.04C157.795 296.531 157.502 297.256 157.459 298.216H163.075ZM171.333 294.216L174.181 301.128L176.821 294.216H178.437L173.221 307.16H171.573L173.397 302.856L169.701 294.216H171.333ZM183.915 294.104C184.758 294.104 185.51 294.285 186.171 294.648C186.843 295.011 187.366 295.533 187.739 296.216C188.123 296.899 188.315 297.699 188.315 298.616C188.315 299.533 188.123 300.333 187.739 301.016C187.366 301.688 186.843 302.205 186.171 302.568C185.51 302.931 184.758 303.112 183.915 303.112C183.073 303.112 182.315 302.931 181.643 302.568C180.982 302.205 180.459 301.688 180.075 301.016C179.691 300.333 179.499 299.533 179.499 298.616C179.499 297.699 179.691 296.899 180.075 296.216C180.459 295.533 180.982 295.011 181.643 294.648C182.315 294.285 183.073 294.104 183.915 294.104ZM183.915 295.384C183.393 295.384 182.907 295.501 182.459 295.736C182.022 295.971 181.665 296.333 181.387 296.824C181.121 297.304 180.987 297.901 180.987 298.616C180.987 299.32 181.121 299.917 181.387 300.408C181.665 300.888 182.022 301.245 182.459 301.48C182.907 301.715 183.393 301.832 183.915 301.832C184.438 301.832 184.918 301.715 185.355 301.48C185.803 301.245 186.161 300.888 186.427 300.408C186.705 299.917 186.843 299.32 186.843 298.616C186.843 297.901 186.705 297.304 186.427 296.824C186.161 296.333 185.803 295.971 185.355 295.736C184.918 295.501 184.438 295.384 183.915 295.384ZM198.181 294.216V303H196.725V300.936C196.501 301.651 196.101 302.2 195.525 302.584C194.959 302.957 194.298 303.144 193.541 303.144C192.527 303.144 191.706 302.819 191.077 302.168C190.447 301.507 190.133 300.563 190.133 299.336V294.216H191.589V299.192C191.589 300.067 191.813 300.744 192.261 301.224C192.709 301.693 193.317 301.928 194.085 301.928C194.885 301.928 195.525 301.672 196.005 301.16C196.485 300.637 196.725 299.88 196.725 298.888V294.216H198.181ZM212.594 294.216V303H211.138V300.936C210.914 301.651 210.514 302.2 209.938 302.584C209.373 302.957 208.712 303.144 207.954 303.144C206.941 303.144 206.12 302.819 205.49 302.168C204.861 301.507 204.546 300.563 204.546 299.336V294.216H206.002V299.192C206.002 300.067 206.226 300.744 206.674 301.224C207.122 301.693 207.73 301.928 208.498 301.928C209.298 301.928 209.938 301.672 210.418 301.16C210.898 300.637 211.138 299.88 211.138 298.888V294.216H212.594ZM217.839 294.104C218.831 294.104 219.626 294.365 220.223 294.888C220.831 295.4 221.199 296.093 221.327 296.968H219.935C219.871 296.445 219.652 296.019 219.279 295.688C218.916 295.347 218.426 295.176 217.807 295.176C217.284 295.176 216.874 295.304 216.575 295.56C216.287 295.805 216.143 296.141 216.143 296.568C216.143 296.888 216.239 297.149 216.431 297.352C216.634 297.544 216.879 297.693 217.167 297.8C217.466 297.896 217.871 298.003 218.383 298.12C219.034 298.269 219.556 298.424 219.951 298.584C220.356 298.733 220.698 298.979 220.975 299.32C221.263 299.661 221.407 300.12 221.407 300.696C221.407 301.411 221.135 301.992 220.591 302.44C220.058 302.888 219.343 303.112 218.447 303.112C217.402 303.112 216.548 302.861 215.887 302.36C215.226 301.859 214.836 301.16 214.719 300.264H216.127C216.18 300.797 216.41 301.229 216.815 301.56C217.231 301.891 217.775 302.056 218.447 302.056C218.948 302.056 219.338 301.928 219.615 301.672C219.903 301.416 220.047 301.08 220.047 300.664C220.047 300.323 219.946 300.051 219.743 299.848C219.54 299.645 219.29 299.491 218.991 299.384C218.692 299.277 218.282 299.165 217.759 299.048C217.108 298.899 216.586 298.749 216.191 298.6C215.807 298.451 215.476 298.216 215.199 297.896C214.932 297.565 214.799 297.123 214.799 296.568C214.799 295.832 215.071 295.24 215.615 294.792C216.159 294.333 216.9 294.104 217.839 294.104ZM231.593 298.12C231.593 298.429 231.571 298.696 231.529 298.92H224.505C224.537 299.923 224.819 300.675 225.353 301.176C225.897 301.677 226.558 301.928 227.337 301.928C228.041 301.928 228.627 301.752 229.097 301.4C229.577 301.037 229.87 300.557 229.977 299.96H231.529C231.422 300.568 231.182 301.112 230.809 301.592C230.446 302.072 229.971 302.445 229.385 302.712C228.798 302.979 228.137 303.112 227.401 303.112C226.558 303.112 225.811 302.931 225.161 302.568C224.51 302.205 223.998 301.688 223.625 301.016C223.262 300.333 223.081 299.533 223.081 298.616C223.081 297.699 223.262 296.899 223.625 296.216C223.998 295.533 224.51 295.011 225.161 294.648C225.811 294.285 226.558 294.104 227.401 294.104C228.254 294.104 228.995 294.285 229.625 294.648C230.265 295.011 230.75 295.496 231.081 296.104C231.422 296.712 231.593 297.384 231.593 298.12ZM230.121 298.216C230.153 297.565 230.046 297.021 229.801 296.584C229.555 296.147 229.219 295.821 228.793 295.608C228.366 295.395 227.902 295.288 227.401 295.288C226.601 295.288 225.929 295.539 225.385 296.04C224.841 296.531 224.547 297.256 224.505 298.216H230.121ZM241.37 294.104C242.224 294.104 242.944 294.317 243.53 294.744C244.128 295.171 244.544 295.741 244.778 296.456V294.216H246.234V303H244.778V300.76C244.544 301.475 244.128 302.045 243.53 302.472C242.944 302.899 242.224 303.112 241.37 303.112C240.592 303.112 239.898 302.931 239.29 302.568C238.682 302.205 238.202 301.688 237.85 301.016C237.509 300.333 237.338 299.533 237.338 298.616C237.338 297.699 237.509 296.899 237.85 296.216C238.202 295.533 238.682 295.011 239.29 294.648C239.898 294.285 240.592 294.104 241.37 294.104ZM241.786 295.4C240.89 295.4 240.17 295.688 239.626 296.264C239.093 296.829 238.826 297.613 238.826 298.616C238.826 299.619 239.093 300.408 239.626 300.984C240.17 301.549 240.89 301.832 241.786 301.832C242.362 301.832 242.874 301.699 243.322 301.432C243.781 301.165 244.138 300.792 244.394 300.312C244.65 299.821 244.778 299.256 244.778 298.616C244.778 297.976 244.65 297.411 244.394 296.92C244.138 296.429 243.781 296.056 243.322 295.8C242.874 295.533 242.362 295.4 241.786 295.4ZM254.281 291.16V303H252.825V291.16H254.281ZM260.381 294.104C261.235 294.104 261.955 294.317 262.541 294.744C263.139 295.171 263.555 295.741 263.789 296.456V294.216H265.245V303H263.789V300.76C263.555 301.475 263.139 302.045 262.541 302.472C261.955 302.899 261.235 303.112 260.381 303.112C259.603 303.112 258.909 302.931 258.301 302.568C257.693 302.205 257.213 301.688 256.861 301.016C256.52 300.333 256.349 299.533 256.349 298.616C256.349 297.699 256.52 296.899 256.861 296.216C257.213 295.533 257.693 295.011 258.301 294.648C258.909 294.285 259.603 294.104 260.381 294.104ZM260.797 295.4C259.901 295.4 259.181 295.688 258.637 296.264C258.104 296.829 257.837 297.613 257.837 298.616C257.837 299.619 258.104 300.408 258.637 300.984C259.181 301.549 259.901 301.832 260.797 301.832C261.373 301.832 261.885 301.699 262.333 301.432C262.792 301.165 263.149 300.792 263.405 300.312C263.661 299.821 263.789 299.256 263.789 298.616C263.789 297.976 263.661 297.411 263.405 296.92C263.149 296.429 262.792 296.056 262.333 295.8C261.885 295.533 261.373 295.4 260.797 295.4ZM272.347 294.072C273.371 294.072 274.197 294.403 274.827 295.064C275.456 295.715 275.771 296.659 275.771 297.896V303H274.315V298.024C274.315 297.149 274.091 296.477 273.643 296.008C273.195 295.539 272.587 295.304 271.819 295.304C271.019 295.304 270.379 295.565 269.899 296.088C269.419 296.6 269.179 297.352 269.179 298.344V303H267.723V294.216H269.179V296.296C269.403 295.581 269.797 295.032 270.363 294.648C270.939 294.264 271.6 294.072 272.347 294.072ZM280.916 294.104C281.908 294.104 282.703 294.365 283.3 294.888C283.908 295.4 284.276 296.093 284.404 296.968H283.012C282.948 296.445 282.729 296.019 282.356 295.688C281.993 295.347 281.503 295.176 280.884 295.176C280.361 295.176 279.951 295.304 279.652 295.56C279.364 295.805 279.22 296.141 279.22 296.568C279.22 296.888 279.316 297.149 279.508 297.352C279.711 297.544 279.956 297.693 280.244 297.8C280.543 297.896 280.948 298.003 281.46 298.12C282.111 298.269 282.633 298.424 283.028 298.584C283.433 298.733 283.775 298.979 284.052 299.32C284.34 299.661 284.484 300.12 284.484 300.696C284.484 301.411 284.212 301.992 283.668 302.44C283.135 302.888 282.42 303.112 281.524 303.112C280.479 303.112 279.625 302.861 278.964 302.36C278.303 301.859 277.913 301.16 277.796 300.264H279.204C279.257 300.797 279.487 301.229 279.892 301.56C280.308 301.891 280.852 302.056 281.524 302.056C282.025 302.056 282.415 301.928 282.692 301.672C282.98 301.416 283.124 301.08 283.124 300.664C283.124 300.323 283.023 300.051 282.82 299.848C282.617 299.645 282.367 299.491 282.068 299.384C281.769 299.277 281.359 299.165 280.836 299.048C280.185 298.899 279.663 298.749 279.268 298.6C278.884 298.451 278.553 298.216 278.276 297.896C278.009 297.565 277.876 297.123 277.876 296.568C277.876 295.832 278.148 295.24 278.692 294.792C279.236 294.333 279.977 294.104 280.916 294.104ZM290.478 294.104C291.598 294.104 292.526 294.403 293.262 295C293.998 295.597 294.451 296.397 294.622 297.4H293.086C292.979 296.771 292.686 296.28 292.206 295.928C291.736 295.565 291.15 295.384 290.446 295.384C289.934 295.384 289.464 295.501 289.038 295.736C288.622 295.971 288.286 296.333 288.03 296.824C287.774 297.304 287.646 297.901 287.646 298.616C287.646 299.331 287.774 299.933 288.03 300.424C288.286 300.904 288.622 301.261 289.038 301.496C289.464 301.731 289.934 301.848 290.446 301.848C291.15 301.848 291.736 301.667 292.206 301.304C292.686 300.941 292.979 300.445 293.086 299.816H294.622C294.451 300.829 293.998 301.635 293.262 302.232C292.526 302.819 291.598 303.112 290.478 303.112C289.635 303.112 288.888 302.931 288.238 302.568C287.587 302.205 287.075 301.688 286.702 301.016C286.339 300.333 286.158 299.533 286.158 298.616C286.158 297.699 286.339 296.899 286.702 296.216C287.075 295.533 287.587 295.011 288.238 294.648C288.888 294.285 289.635 294.104 290.478 294.104ZM300.287 294.104C301.14 294.104 301.86 294.317 302.447 294.744C303.044 295.171 303.46 295.741 303.695 296.456V294.216H305.151V303H303.695V300.76C303.46 301.475 303.044 302.045 302.447 302.472C301.86 302.899 301.14 303.112 300.287 303.112C299.508 303.112 298.815 302.931 298.207 302.568C297.599 302.205 297.119 301.688 296.767 301.016C296.426 300.333 296.255 299.533 296.255 298.616C296.255 297.699 296.426 296.899 296.767 296.216C297.119 295.533 297.599 295.011 298.207 294.648C298.815 294.285 299.508 294.104 300.287 294.104ZM300.703 295.4C299.807 295.4 299.087 295.688 298.543 296.264C298.01 296.829 297.743 297.613 297.743 298.616C297.743 299.619 298.01 300.408 298.543 300.984C299.087 301.549 299.807 301.832 300.703 301.832C301.279 301.832 301.791 301.699 302.239 301.432C302.698 301.165 303.055 300.792 303.311 300.312C303.567 299.821 303.695 299.256 303.695 298.616C303.695 297.976 303.567 297.411 303.311 296.92C303.055 296.429 302.698 296.056 302.239 295.8C301.791 295.533 301.279 295.4 300.703 295.4ZM312.476 294.104C313.255 294.104 313.948 294.285 314.556 294.648C315.164 295.011 315.639 295.533 315.98 296.216C316.332 296.899 316.508 297.699 316.508 298.616C316.508 299.533 316.332 300.333 315.98 301.016C315.639 301.688 315.164 302.205 314.556 302.568C313.948 302.931 313.255 303.112 312.476 303.112C311.623 303.112 310.898 302.899 310.3 302.472C309.714 302.035 309.308 301.464 309.084 300.76V307.16H307.628V294.216H309.084V296.456C309.308 295.752 309.714 295.187 310.3 294.76C310.898 294.323 311.623 294.104 312.476 294.104ZM312.06 295.4C311.495 295.4 310.983 295.533 310.524 295.8C310.066 296.056 309.708 296.429 309.452 296.92C309.196 297.411 309.068 297.976 309.068 298.616C309.068 299.256 309.196 299.821 309.452 300.312C309.708 300.792 310.066 301.165 310.524 301.432C310.983 301.699 311.495 301.832 312.06 301.832C312.967 301.832 313.687 301.549 314.22 300.984C314.764 300.408 315.036 299.619 315.036 298.616C315.036 297.613 314.764 296.829 314.22 296.264C313.687 295.688 312.967 295.4 312.06 295.4ZM326.65 298.12C326.65 298.429 326.628 298.696 326.586 298.92H319.562C319.594 299.923 319.876 300.675 320.41 301.176C320.954 301.677 321.615 301.928 322.394 301.928C323.098 301.928 323.684 301.752 324.154 301.4C324.634 301.037 324.927 300.557 325.034 299.96H326.586C326.479 300.568 326.239 301.112 325.866 301.592C325.503 302.072 325.028 302.445 324.442 302.712C323.855 302.979 323.194 303.112 322.458 303.112C321.615 303.112 320.868 302.931 320.218 302.568C319.567 302.205 319.055 301.688 318.682 301.016C318.319 300.333 318.138 299.533 318.138 298.616C318.138 297.699 318.319 296.899 318.682 296.216C319.055 295.533 319.567 295.011 320.218 294.648C320.868 294.285 321.615 294.104 322.458 294.104C323.311 294.104 324.052 294.285 324.682 294.648C325.322 295.011 325.807 295.496 326.138 296.104C326.479 296.712 326.65 297.384 326.65 298.12ZM325.178 298.216C325.21 297.565 325.103 297.021 324.858 296.584C324.612 296.147 324.276 295.821 323.85 295.608C323.423 295.395 322.959 295.288 322.458 295.288C321.658 295.288 320.986 295.539 320.442 296.04C319.898 296.531 319.604 297.256 319.562 298.216H325.178ZM332.571 291.64C332.571 291.373 332.662 291.16 332.843 291C333.024 290.829 333.264 290.744 333.563 290.744C333.862 290.744 334.102 290.829 334.283 291C334.464 291.16 334.555 291.373 334.555 291.64C334.555 291.907 334.464 292.125 334.283 292.296C334.102 292.456 333.862 292.536 333.563 292.536C333.264 292.536 333.024 292.456 332.843 292.296C332.662 292.125 332.571 291.907 332.571 291.64ZM334.283 294.216V303H332.827V294.216H334.283ZM347.584 294.072C348.608 294.072 349.429 294.403 350.048 295.064C350.677 295.715 350.992 296.659 350.992 297.896V303H349.536V298.024C349.536 297.16 349.323 296.499 348.896 296.04C348.48 295.581 347.904 295.352 347.168 295.352C346.4 295.352 345.781 295.608 345.312 296.12C344.853 296.621 344.624 297.363 344.624 298.344V303H343.168V298.024C343.168 297.16 342.955 296.499 342.528 296.04C342.101 295.581 341.525 295.352 340.8 295.352C340.021 295.352 339.397 295.608 338.928 296.12C338.469 296.621 338.24 297.363 338.24 298.344V303H336.784V294.216H338.24V296.216C338.453 295.523 338.832 294.995 339.376 294.632C339.931 294.259 340.565 294.072 341.28 294.072C342.027 294.072 342.672 294.264 343.216 294.648C343.771 295.021 344.165 295.576 344.4 296.312C344.645 295.597 345.056 295.048 345.632 294.664C346.208 294.269 346.859 294.072 347.584 294.072ZM357.013 294.104C357.866 294.104 358.586 294.317 359.173 294.744C359.77 295.171 360.186 295.741 360.421 296.456V294.216H361.877V303H360.421V300.76C360.186 301.475 359.77 302.045 359.173 302.472C358.586 302.899 357.866 303.112 357.013 303.112C356.234 303.112 355.541 302.931 354.933 302.568C354.325 302.205 353.845 301.688 353.493 301.016C353.151 300.333 352.981 299.533 352.981 298.616C352.981 297.699 353.151 296.899 353.493 296.216C353.845 295.533 354.325 295.011 354.933 294.648C355.541 294.285 356.234 294.104 357.013 294.104ZM357.429 295.4C356.533 295.4 355.813 295.688 355.269 296.264C354.735 296.829 354.469 297.613 354.469 298.616C354.469 299.619 354.735 300.408 355.269 300.984C355.813 301.549 356.533 301.832 357.429 301.832C358.005 301.832 358.517 301.699 358.965 301.432C359.423 301.165 359.781 300.792 360.037 300.312C360.293 299.821 360.421 299.256 360.421 298.616C360.421 297.976 360.293 297.411 360.037 296.92C359.781 296.429 359.423 296.056 358.965 295.8C358.517 295.533 358.005 295.4 357.429 295.4ZM367.954 294.104C368.807 294.104 369.527 294.317 370.114 294.744C370.711 295.171 371.127 295.741 371.362 296.456V294.216H372.818V303.144C372.818 303.955 372.647 304.675 372.306 305.304C371.965 305.933 371.485 306.424 370.866 306.776C370.247 307.128 369.527 307.304 368.706 307.304C367.522 307.304 366.557 307.016 365.81 306.44C365.063 305.875 364.589 305.107 364.386 304.136H365.826C365.997 304.723 366.317 305.181 366.786 305.512C367.266 305.853 367.879 306.024 368.626 306.024C369.415 306.024 370.066 305.768 370.578 305.256C371.101 304.755 371.362 304.051 371.362 303.144V300.76C371.127 301.475 370.711 302.045 370.114 302.472C369.527 302.899 368.807 303.112 367.954 303.112C367.175 303.112 366.482 302.931 365.874 302.568C365.266 302.205 364.786 301.688 364.434 301.016C364.093 300.333 363.922 299.533 363.922 298.616C363.922 297.699 364.093 296.899 364.434 296.216C364.786 295.533 365.266 295.011 365.874 294.648C366.482 294.285 367.175 294.104 367.954 294.104ZM368.37 295.4C367.474 295.4 366.754 295.688 366.21 296.264C365.677 296.829 365.41 297.613 365.41 298.616C365.41 299.619 365.677 300.408 366.21 300.984C366.754 301.549 367.474 301.832 368.37 301.832C368.946 301.832 369.458 301.699 369.906 301.432C370.365 301.165 370.722 300.792 370.978 300.312C371.234 299.821 371.362 299.256 371.362 298.616C371.362 297.976 371.234 297.411 370.978 296.92C370.722 296.429 370.365 296.056 369.906 295.8C369.458 295.533 368.946 295.4 368.37 295.4ZM383.375 298.12C383.375 298.429 383.354 298.696 383.311 298.92H376.287C376.319 299.923 376.602 300.675 377.135 301.176C377.679 301.677 378.341 301.928 379.119 301.928C379.823 301.928 380.41 301.752 380.879 301.4C381.359 301.037 381.653 300.557 381.759 299.96H383.311C383.205 300.568 382.965 301.112 382.591 301.592C382.229 302.072 381.754 302.445 381.167 302.712C380.581 302.979 379.919 303.112 379.183 303.112C378.341 303.112 377.594 302.931 376.943 302.568C376.293 302.205 375.781 301.688 375.407 301.016C375.045 300.333 374.863 299.533 374.863 298.616C374.863 297.699 375.045 296.899 375.407 296.216C375.781 295.533 376.293 295.011 376.943 294.648C377.594 294.285 378.341 294.104 379.183 294.104C380.037 294.104 380.778 294.285 381.407 294.648C382.047 295.011 382.533 295.496 382.863 296.104C383.205 296.712 383.375 297.384 383.375 298.12ZM381.903 298.216C381.935 297.565 381.829 297.021 381.583 296.584C381.338 296.147 381.002 295.821 380.575 295.608C380.149 295.395 379.685 295.288 379.183 295.288C378.383 295.288 377.711 295.539 377.167 296.04C376.623 296.531 376.33 297.256 376.287 298.216H381.903ZM401.617 294.216L399.089 303H397.521L395.105 295.848L392.673 303H391.089L388.593 294.216H390.065L391.937 301.608L394.369 294.216H395.889L398.337 301.592L400.225 294.216H401.617ZM402.879 291.64C402.879 291.373 402.969 291.16 403.151 291C403.332 290.829 403.572 290.744 403.871 290.744C404.169 290.744 404.409 290.829 404.591 291C404.772 291.16 404.863 291.373 404.863 291.64C404.863 291.907 404.772 292.125 404.591 292.296C404.409 292.456 404.169 292.536 403.871 292.536C403.572 292.536 403.332 292.456 403.151 292.296C402.969 292.125 402.879 291.907 402.879 291.64ZM404.591 294.216V303H403.135V294.216H404.591ZM411.283 301.72V303H410.195C409.299 303 408.627 302.787 408.179 302.36C407.742 301.933 407.523 301.219 407.523 300.216V295.48H406.211V294.216H407.523V292.024H408.995V294.216H411.267V295.48H408.995V300.248C408.995 300.813 409.097 301.203 409.299 301.416C409.513 301.619 409.875 301.72 410.387 301.72H411.283ZM417.844 294.072C418.868 294.072 419.695 294.403 420.324 295.064C420.954 295.715 421.268 296.659 421.268 297.896V303H419.812V298.024C419.812 297.149 419.588 296.477 419.14 296.008C418.692 295.539 418.084 295.304 417.316 295.304C416.516 295.304 415.876 295.565 415.396 296.088C414.916 296.6 414.676 297.352 414.676 298.344V303H413.22V291.16H414.676V296.296C414.9 295.581 415.295 295.032 415.86 294.648C416.436 294.264 417.098 294.072 417.844 294.072ZM431.967 301.72V303H430.879C429.983 303 429.311 302.787 428.863 302.36C428.425 301.933 428.207 301.219 428.207 300.216V295.48H426.895V294.216H428.207V292.024H429.679V294.216H431.951V295.48H429.679V300.248C429.679 300.813 429.78 301.203 429.983 301.416C430.196 301.619 430.559 301.72 431.071 301.72H431.967ZM438.527 294.072C439.551 294.072 440.378 294.403 441.007 295.064C441.637 295.715 441.951 296.659 441.951 297.896V303H440.495V298.024C440.495 297.149 440.271 296.477 439.823 296.008C439.375 295.539 438.767 295.304 437.999 295.304C437.199 295.304 436.559 295.565 436.079 296.088C435.599 296.6 435.359 297.352 435.359 298.344V303H433.903V291.16H435.359V296.296C435.583 295.581 435.978 295.032 436.543 294.648C437.119 294.264 437.781 294.072 438.527 294.072ZM452.425 298.12C452.425 298.429 452.403 298.696 452.361 298.92H445.337C445.369 299.923 445.651 300.675 446.185 301.176C446.729 301.677 447.39 301.928 448.169 301.928C448.873 301.928 449.459 301.752 449.929 301.4C450.409 301.037 450.702 300.557 450.809 299.96H452.361C452.254 300.568 452.014 301.112 451.641 301.592C451.278 302.072 450.803 302.445 450.217 302.712C449.63 302.979 448.969 303.112 448.233 303.112C447.39 303.112 446.643 302.931 445.993 302.568C445.342 302.205 444.83 301.688 444.457 301.016C444.094 300.333 443.913 299.533 443.913 298.616C443.913 297.699 444.094 296.899 444.457 296.216C444.83 295.533 445.342 295.011 445.993 294.648C446.643 294.285 447.39 294.104 448.233 294.104C449.086 294.104 449.827 294.285 450.457 294.648C451.097 295.011 451.582 295.496 451.913 296.104C452.254 296.712 452.425 297.384 452.425 298.12ZM450.953 298.216C450.985 297.565 450.878 297.021 450.633 296.584C450.387 296.147 450.051 295.821 449.625 295.608C449.198 295.395 448.734 295.288 448.233 295.288C447.433 295.288 446.761 295.539 446.217 296.04C445.673 296.531 445.379 297.256 445.337 298.216H450.953ZM460.058 291.16V303H458.602V291.16H460.058ZM470.639 298.12C470.639 298.429 470.618 298.696 470.575 298.92H463.551C463.583 299.923 463.866 300.675 464.399 301.176C464.943 301.677 465.604 301.928 466.383 301.928C467.087 301.928 467.674 301.752 468.143 301.4C468.623 301.037 468.916 300.557 469.023 299.96H470.575C470.468 300.568 470.228 301.112 469.855 301.592C469.492 302.072 469.018 302.445 468.431 302.712C467.844 302.979 467.183 303.112 466.447 303.112C465.604 303.112 464.858 302.931 464.207 302.568C463.556 302.205 463.044 301.688 462.671 301.016C462.308 300.333 462.127 299.533 462.127 298.616C462.127 297.699 462.308 296.899 462.671 296.216C463.044 295.533 463.556 295.011 464.207 294.648C464.858 294.285 465.604 294.104 466.447 294.104C467.3 294.104 468.042 294.285 468.671 294.648C469.311 295.011 469.796 295.496 470.127 296.104C470.468 296.712 470.639 297.384 470.639 298.12ZM469.167 298.216C469.199 297.565 469.092 297.021 468.847 296.584C468.602 296.147 468.266 295.821 467.839 295.608C467.412 295.395 466.948 295.288 466.447 295.288C465.647 295.288 464.975 295.539 464.431 296.04C463.887 296.531 463.594 297.256 463.551 298.216H469.167ZM477.327 294.072C478.351 294.072 479.178 294.403 479.807 295.064C480.437 295.715 480.751 296.659 480.751 297.896V303H479.295V298.024C479.295 297.149 479.071 296.477 478.623 296.008C478.175 295.539 477.567 295.304 476.799 295.304C475.999 295.304 475.359 295.565 474.879 296.088C474.399 296.6 474.159 297.352 474.159 298.344V303H472.703V294.216H474.159V296.296C474.383 295.581 474.778 295.032 475.343 294.648C475.919 294.264 476.581 294.072 477.327 294.072ZM486.745 294.104C487.598 294.104 488.318 294.317 488.905 294.744C489.502 295.171 489.918 295.741 490.153 296.456V294.216H491.609V303.144C491.609 303.955 491.438 304.675 491.097 305.304C490.755 305.933 490.275 306.424 489.657 306.776C489.038 307.128 488.318 307.304 487.497 307.304C486.313 307.304 485.347 307.016 484.601 306.44C483.854 305.875 483.379 305.107 483.177 304.136H484.617C484.787 304.723 485.107 305.181 485.577 305.512C486.057 305.853 486.67 306.024 487.417 306.024C488.206 306.024 488.857 305.768 489.369 305.256C489.891 304.755 490.153 304.051 490.153 303.144V300.76C489.918 301.475 489.502 302.045 488.905 302.472C488.318 302.899 487.598 303.112 486.745 303.112C485.966 303.112 485.273 302.931 484.665 302.568C484.057 302.205 483.577 301.688 483.225 301.016C482.883 300.333 482.713 299.533 482.713 298.616C482.713 297.699 482.883 296.899 483.225 296.216C483.577 295.533 484.057 295.011 484.665 294.648C485.273 294.285 485.966 294.104 486.745 294.104ZM487.161 295.4C486.265 295.4 485.545 295.688 485.001 296.264C484.467 296.829 484.201 297.613 484.201 298.616C484.201 299.619 484.467 300.408 485.001 300.984C485.545 301.549 486.265 301.832 487.161 301.832C487.737 301.832 488.249 301.699 488.697 301.432C489.155 301.165 489.513 300.792 489.769 300.312C490.025 299.821 490.153 299.256 490.153 298.616C490.153 297.976 490.025 297.411 489.769 296.92C489.513 296.429 489.155 296.056 488.697 295.8C488.249 295.533 487.737 295.4 487.161 295.4ZM498.278 301.72V303H497.19C496.294 303 495.622 302.787 495.174 302.36C494.736 301.933 494.518 301.219 494.518 300.216V295.48H493.206V294.216H494.518V292.024H495.99V294.216H498.262V295.48H495.99V300.248C495.99 300.813 496.091 301.203 496.294 301.416C496.507 301.619 496.87 301.72 497.382 301.72H498.278ZM504.839 294.072C505.863 294.072 506.689 294.403 507.319 295.064C507.948 295.715 508.263 296.659 508.263 297.896V303H506.807V298.024C506.807 297.149 506.583 296.477 506.135 296.008C505.687 295.539 505.079 295.304 504.311 295.304C503.511 295.304 502.871 295.565 502.391 296.088C501.911 296.6 501.671 297.352 501.671 298.344V303H500.215V291.16H501.671V296.296C501.895 295.581 502.289 295.032 502.855 294.648C503.431 294.264 504.092 294.072 504.839 294.072ZM518.385 291.416C519.11 291.416 519.734 291.544 520.257 291.8C520.78 292.056 521.174 292.408 521.441 292.856C521.708 293.304 521.841 293.811 521.841 294.376C521.841 295.08 521.633 295.672 521.217 296.152C520.812 296.632 520.214 296.92 519.425 297.016V297.112C520.246 297.325 520.886 297.656 521.345 298.104C521.814 298.552 522.049 299.171 522.049 299.96C522.049 300.888 521.74 301.645 521.121 302.232C520.502 302.819 519.612 303.112 518.449 303.112C517.286 303.112 516.342 302.813 515.617 302.216C514.902 301.608 514.481 300.723 514.353 299.56H515.793C515.889 300.264 516.156 300.824 516.593 301.24C517.041 301.656 517.644 301.864 518.401 301.864C519.116 301.864 519.665 301.683 520.049 301.32C520.433 300.947 520.625 300.467 520.625 299.88C520.625 299.176 520.348 298.643 519.793 298.28C519.249 297.907 518.47 297.72 517.457 297.72H517.073V296.504H517.457C519.42 296.504 520.401 295.848 520.401 294.536C520.401 293.96 520.22 293.501 519.857 293.16C519.494 292.819 518.993 292.648 518.353 292.648C517.713 292.648 517.174 292.835 516.737 293.208C516.3 293.571 516.044 294.109 515.969 294.824H514.545C514.62 293.757 514.988 292.925 515.649 292.328C516.321 291.72 517.233 291.416 518.385 291.416ZM530.639 303L527.807 298.536L525.231 303H523.551L526.991 297.256L523.487 291.72H525.231L527.999 296.104L530.591 291.72H532.271L528.815 297.368L532.367 303H530.639ZM542.108 294.104C542.951 294.104 543.703 294.285 544.364 294.648C545.036 295.011 545.559 295.533 545.932 296.216C546.316 296.899 546.508 297.699 546.508 298.616C546.508 299.533 546.316 300.333 545.932 301.016C545.559 301.688 545.036 302.205 544.364 302.568C543.703 302.931 542.951 303.112 542.108 303.112C541.265 303.112 540.508 302.931 539.836 302.568C539.175 302.205 538.652 301.688 538.268 301.016C537.884 300.333 537.692 299.533 537.692 298.616C537.692 297.699 537.884 296.899 538.268 296.216C538.652 295.533 539.175 295.011 539.836 294.648C540.508 294.285 541.265 294.104 542.108 294.104ZM542.108 295.384C541.585 295.384 541.1 295.501 540.652 295.736C540.215 295.971 539.857 296.333 539.58 296.824C539.313 297.304 539.18 297.901 539.18 298.616C539.18 299.32 539.313 299.917 539.58 300.408C539.857 300.888 540.215 301.245 540.652 301.48C541.1 301.715 541.585 301.832 542.108 301.832C542.631 301.832 543.111 301.715 543.548 301.48C543.996 301.245 544.353 300.888 544.62 300.408C544.897 299.917 545.036 299.32 545.036 298.616C545.036 297.901 544.897 297.304 544.62 296.824C544.353 296.333 543.996 295.971 543.548 295.736C543.111 295.501 542.631 295.384 542.108 295.384ZM550.021 295.992C550.309 295.384 550.731 294.915 551.285 294.584C551.84 294.243 552.501 294.072 553.269 294.072V295.656H552.821C552 295.656 551.328 295.869 550.805 296.296C550.283 296.712 550.021 297.405 550.021 298.376V303H548.565V294.216H550.021V295.992ZM558.483 301.88C560.296 300.664 561.747 299.459 562.835 298.264C563.923 297.059 564.467 295.939 564.467 294.904C564.467 294.264 564.302 293.752 563.971 293.368C563.651 292.973 563.128 292.776 562.403 292.776C561.656 292.776 561.091 293.016 560.707 293.496C560.323 293.965 560.11 294.616 560.067 295.448H558.627C558.702 294.189 559.091 293.224 559.795 292.552C560.499 291.869 561.406 291.528 562.515 291.528C563.571 291.528 564.408 291.811 565.027 292.376C565.646 292.941 565.955 293.741 565.955 294.776C565.955 295.629 565.678 296.499 565.123 297.384C564.579 298.259 563.891 299.075 563.059 299.832C562.238 300.579 561.39 301.213 560.515 301.736H566.243V302.936H558.483V301.88ZM573.273 303L570.985 299.64L568.921 303H567.305L570.185 298.472L567.289 294.216H568.953L571.177 297.48L573.209 294.216H574.825L571.961 298.632L574.937 303H573.273ZM580.312 291.64C580.312 291.373 580.403 291.16 580.584 291C580.766 290.829 581.006 290.744 581.304 290.744C581.603 290.744 581.843 290.829 582.024 291C582.206 291.16 582.296 291.373 582.296 291.64C582.296 291.907 582.206 292.125 582.024 292.296C581.843 292.456 581.603 292.536 581.304 292.536C581.006 292.536 580.766 292.456 580.584 292.296C580.403 292.125 580.312 291.907 580.312 291.64ZM582.024 294.216V303H580.568V294.216H582.024ZM588.717 301.72V303H587.629C586.733 303 586.061 302.787 585.613 302.36C585.176 301.933 584.957 301.219 584.957 300.216V295.48H583.645V294.216H584.957V292.024H586.429V294.216H588.701V295.48H586.429V300.248C586.429 300.813 586.531 301.203 586.733 301.416C586.947 301.619 587.309 301.72 587.821 301.72H588.717ZM593.406 294.104C594.398 294.104 595.193 294.365 595.79 294.888C596.398 295.4 596.766 296.093 596.894 296.968H595.502C595.438 296.445 595.219 296.019 594.846 295.688C594.483 295.347 593.993 295.176 593.374 295.176C592.851 295.176 592.441 295.304 592.142 295.56C591.854 295.805 591.71 296.141 591.71 296.568C591.71 296.888 591.806 297.149 591.998 297.352C592.201 297.544 592.446 297.693 592.734 297.8C593.033 297.896 593.438 298.003 593.95 298.12C594.601 298.269 595.123 298.424 595.518 298.584C595.923 298.733 596.265 298.979 596.542 299.32C596.83 299.661 596.974 300.12 596.974 300.696C596.974 301.411 596.702 301.992 596.158 302.44C595.625 302.888 594.91 303.112 594.014 303.112C592.969 303.112 592.115 302.861 591.454 302.36C590.793 301.859 590.403 301.16 590.286 300.264H591.694C591.747 300.797 591.977 301.229 592.382 301.56C592.798 301.891 593.342 302.056 594.014 302.056C594.515 302.056 594.905 301.928 595.182 301.672C595.47 301.416 595.614 301.08 595.614 300.664C595.614 300.323 595.513 300.051 595.31 299.848C595.107 299.645 594.857 299.491 594.558 299.384C594.259 299.277 593.849 299.165 593.326 299.048C592.675 298.899 592.153 298.749 591.758 298.6C591.374 298.451 591.043 298.216 590.766 297.896C590.499 297.565 590.366 297.123 590.366 296.568C590.366 295.832 590.638 295.24 591.182 294.792C591.726 294.333 592.467 294.104 593.406 294.104ZM607.817 294.072C608.841 294.072 609.667 294.403 610.297 295.064C610.926 295.715 611.241 296.659 611.241 297.896V303H609.785V298.024C609.785 297.149 609.561 296.477 609.113 296.008C608.665 295.539 608.057 295.304 607.289 295.304C606.489 295.304 605.849 295.565 605.369 296.088C604.889 296.6 604.649 297.352 604.649 298.344V303H603.193V291.16H604.649V296.296C604.873 295.581 605.267 295.032 605.833 294.648C606.409 294.264 607.07 294.072 607.817 294.072ZM621.714 298.12C621.714 298.429 621.693 298.696 621.65 298.92H614.626C614.658 299.923 614.941 300.675 615.474 301.176C616.018 301.677 616.679 301.928 617.458 301.928C618.162 301.928 618.749 301.752 619.218 301.4C619.698 301.037 619.991 300.557 620.098 299.96H621.65C621.543 300.568 621.303 301.112 620.93 301.592C620.567 302.072 620.093 302.445 619.506 302.712C618.919 302.979 618.258 303.112 617.522 303.112C616.679 303.112 615.933 302.931 615.282 302.568C614.631 302.205 614.119 301.688 613.746 301.016C613.383 300.333 613.202 299.533 613.202 298.616C613.202 297.699 613.383 296.899 613.746 296.216C614.119 295.533 614.631 295.011 615.282 294.648C615.933 294.285 616.679 294.104 617.522 294.104C618.375 294.104 619.117 294.285 619.746 294.648C620.386 295.011 620.871 295.496 621.202 296.104C621.543 296.712 621.714 297.384 621.714 298.12ZM620.242 298.216C620.274 297.565 620.167 297.021 619.922 296.584C619.677 296.147 619.341 295.821 618.914 295.608C618.487 295.395 618.023 295.288 617.522 295.288C616.722 295.288 616.05 295.539 615.506 296.04C614.962 296.531 614.669 297.256 614.626 298.216H620.242ZM623.522 291.64C623.522 291.373 623.613 291.16 623.794 291C623.976 290.829 624.216 290.744 624.514 290.744C624.813 290.744 625.053 290.829 625.234 291C625.416 291.16 625.506 291.373 625.506 291.64C625.506 291.907 625.416 292.125 625.234 292.296C625.053 292.456 624.813 292.536 624.514 292.536C624.216 292.536 623.976 292.456 623.794 292.296C623.613 292.125 623.522 291.907 623.522 291.64ZM625.234 294.216V303H623.778V294.216H625.234ZM631.335 294.104C632.188 294.104 632.908 294.317 633.495 294.744C634.092 295.171 634.508 295.741 634.743 296.456V294.216H636.199V303.144C636.199 303.955 636.028 304.675 635.687 305.304C635.346 305.933 634.866 306.424 634.247 306.776C633.628 307.128 632.908 307.304 632.087 307.304C630.903 307.304 629.938 307.016 629.191 306.44C628.444 305.875 627.97 305.107 627.767 304.136H629.207C629.378 304.723 629.698 305.181 630.167 305.512C630.647 305.853 631.26 306.024 632.007 306.024C632.796 306.024 633.447 305.768 633.959 305.256C634.482 304.755 634.743 304.051 634.743 303.144V300.76C634.508 301.475 634.092 302.045 633.495 302.472C632.908 302.899 632.188 303.112 631.335 303.112C630.556 303.112 629.863 302.931 629.255 302.568C628.647 302.205 628.167 301.688 627.815 301.016C627.474 300.333 627.303 299.533 627.303 298.616C627.303 297.699 627.474 296.899 627.815 296.216C628.167 295.533 628.647 295.011 629.255 294.648C629.863 294.285 630.556 294.104 631.335 294.104ZM631.751 295.4C630.855 295.4 630.135 295.688 629.591 296.264C629.058 296.829 628.791 297.613 628.791 298.616C628.791 299.619 629.058 300.408 629.591 300.984C630.135 301.549 630.855 301.832 631.751 301.832C632.327 301.832 632.839 301.699 633.287 301.432C633.746 301.165 634.103 300.792 634.359 300.312C634.615 299.821 634.743 299.256 634.743 298.616C634.743 297.976 634.615 297.411 634.359 296.92C634.103 296.429 633.746 296.056 633.287 295.8C632.839 295.533 632.327 295.4 631.751 295.4ZM643.3 294.072C644.324 294.072 645.151 294.403 645.78 295.064C646.41 295.715 646.724 296.659 646.724 297.896V303H645.268V298.024C645.268 297.149 645.044 296.477 644.596 296.008C644.148 295.539 643.54 295.304 642.772 295.304C641.972 295.304 641.332 295.565 640.852 296.088C640.372 296.6 640.132 297.352 640.132 298.344V303H638.676V291.16H640.132V296.296C640.356 295.581 640.751 295.032 641.316 294.648C641.892 294.264 642.554 294.072 643.3 294.072ZM653.31 301.72V303H652.222C651.326 303 650.654 302.787 650.206 302.36C649.768 301.933 649.55 301.219 649.55 300.216V295.48H648.238V294.216H649.55V292.024H651.022V294.216H653.294V295.48H651.022V300.248C651.022 300.813 651.123 301.203 651.326 301.416C651.539 301.619 651.902 301.72 652.414 301.72H653.31ZM244.933 316.104C245.711 316.104 246.405 316.285 247.013 316.648C247.621 317.011 248.095 317.533 248.437 318.216C248.789 318.899 248.965 319.699 248.965 320.616C248.965 321.533 248.789 322.333 248.437 323.016C248.095 323.688 247.621 324.205 247.013 324.568C246.405 324.931 245.711 325.112 244.933 325.112C244.079 325.112 243.354 324.899 242.757 324.472C242.17 324.035 241.765 323.464 241.541 322.76V329.16H240.085V316.216H241.541V318.456C241.765 317.752 242.17 317.187 242.757 316.76C243.354 316.323 244.079 316.104 244.933 316.104ZM244.517 317.4C243.951 317.4 243.439 317.533 242.981 317.8C242.522 318.056 242.165 318.429 241.909 318.92C241.653 319.411 241.525 319.976 241.525 320.616C241.525 321.256 241.653 321.821 241.909 322.312C242.165 322.792 242.522 323.165 242.981 323.432C243.439 323.699 243.951 323.832 244.517 323.832C245.423 323.832 246.143 323.549 246.677 322.984C247.221 322.408 247.493 321.619 247.493 320.616C247.493 319.613 247.221 318.829 246.677 318.264C246.143 317.688 245.423 317.4 244.517 317.4ZM252.482 317.992C252.77 317.384 253.191 316.915 253.746 316.584C254.3 316.243 254.962 316.072 255.73 316.072V317.656H255.282C254.46 317.656 253.788 317.869 253.266 318.296C252.743 318.712 252.482 319.405 252.482 320.376V325H251.026V316.216H252.482V317.992ZM265.406 320.12C265.406 320.429 265.385 320.696 265.342 320.92H258.318C258.35 321.923 258.633 322.675 259.166 323.176C259.71 323.677 260.372 323.928 261.15 323.928C261.854 323.928 262.441 323.752 262.91 323.4C263.39 323.037 263.684 322.557 263.79 321.96H265.342C265.236 322.568 264.996 323.112 264.622 323.592C264.26 324.072 263.785 324.445 263.198 324.712C262.612 324.979 261.95 325.112 261.214 325.112C260.372 325.112 259.625 324.931 258.974 324.568C258.324 324.205 257.812 323.688 257.438 323.016C257.076 322.333 256.894 321.533 256.894 320.616C256.894 319.699 257.076 318.899 257.438 318.216C257.812 317.533 258.324 317.011 258.974 316.648C259.625 316.285 260.372 316.104 261.214 316.104C262.068 316.104 262.809 316.285 263.438 316.648C264.078 317.011 264.564 317.496 264.894 318.104C265.236 318.712 265.406 319.384 265.406 320.12ZM263.934 320.216C263.966 319.565 263.86 319.021 263.614 318.584C263.369 318.147 263.033 317.821 262.606 317.608C262.18 317.395 261.716 317.288 261.214 317.288C260.414 317.288 259.742 317.539 259.198 318.04C258.654 318.531 258.361 319.256 258.318 320.216H263.934ZM271.359 314.136C270.58 314.125 270.036 314.259 269.727 314.536C269.428 314.813 269.279 315.293 269.279 315.976V316.216H271.359V317.496H269.279V325H267.823V317.496H266.559V316.216H267.823V315.864C267.823 313.763 269.001 312.76 271.359 312.856V314.136ZM281.18 320.12C281.18 320.429 281.158 320.696 281.116 320.92H274.092C274.124 321.923 274.406 322.675 274.94 323.176C275.484 323.677 276.145 323.928 276.924 323.928C277.628 323.928 278.214 323.752 278.684 323.4C279.164 323.037 279.457 322.557 279.564 321.96H281.116C281.009 322.568 280.769 323.112 280.396 323.592C280.033 324.072 279.558 324.445 278.972 324.712C278.385 324.979 277.724 325.112 276.988 325.112C276.145 325.112 275.398 324.931 274.748 324.568C274.097 324.205 273.585 323.688 273.212 323.016C272.849 322.333 272.668 321.533 272.668 320.616C272.668 319.699 272.849 318.899 273.212 318.216C273.585 317.533 274.097 317.011 274.748 316.648C275.398 316.285 276.145 316.104 276.988 316.104C277.841 316.104 278.582 316.285 279.212 316.648C279.852 317.011 280.337 317.496 280.668 318.104C281.009 318.712 281.18 319.384 281.18 320.12ZM279.708 320.216C279.74 319.565 279.633 319.021 279.388 318.584C279.142 318.147 278.806 317.821 278.38 317.608C277.953 317.395 277.489 317.288 276.988 317.288C276.188 317.288 275.516 317.539 274.972 318.04C274.428 318.531 274.134 319.256 274.092 320.216H279.708ZM284.7 317.992C284.988 317.384 285.409 316.915 285.964 316.584C286.519 316.243 287.18 316.072 287.948 316.072V317.656H287.5C286.679 317.656 286.007 317.869 285.484 318.296C284.961 318.712 284.7 319.405 284.7 320.376V325H283.244V316.216H284.7V317.992ZM293.145 316.104C293.998 316.104 294.718 316.317 295.305 316.744C295.902 317.171 296.318 317.741 296.553 318.456V316.216H298.009V325H296.553V322.76C296.318 323.475 295.902 324.045 295.305 324.472C294.718 324.899 293.998 325.112 293.145 325.112C292.366 325.112 291.673 324.931 291.065 324.568C290.457 324.205 289.977 323.688 289.625 323.016C289.283 322.333 289.113 321.533 289.113 320.616C289.113 319.699 289.283 318.899 289.625 318.216C289.977 317.533 290.457 317.011 291.065 316.648C291.673 316.285 292.366 316.104 293.145 316.104ZM293.561 317.4C292.665 317.4 291.945 317.688 291.401 318.264C290.867 318.829 290.601 319.613 290.601 320.616C290.601 321.619 290.867 322.408 291.401 322.984C291.945 323.549 292.665 323.832 293.561 323.832C294.137 323.832 294.649 323.699 295.097 323.432C295.555 323.165 295.913 322.792 296.169 322.312C296.425 321.821 296.553 321.256 296.553 320.616C296.553 319.976 296.425 319.411 296.169 318.92C295.913 318.429 295.555 318.056 295.097 317.8C294.649 317.533 294.137 317.4 293.561 317.4ZM305.334 316.104C306.112 316.104 306.806 316.285 307.414 316.648C308.022 317.011 308.496 317.533 308.838 318.216C309.19 318.899 309.366 319.699 309.366 320.616C309.366 321.533 309.19 322.333 308.838 323.016C308.496 323.688 308.022 324.205 307.414 324.568C306.806 324.931 306.112 325.112 305.334 325.112C304.48 325.112 303.755 324.899 303.158 324.472C302.571 324.035 302.166 323.464 301.942 322.76V325H300.486V313.16H301.942V318.456C302.166 317.752 302.571 317.187 303.158 316.76C303.755 316.323 304.48 316.104 305.334 316.104ZM304.918 317.4C304.352 317.4 303.84 317.533 303.382 317.8C302.923 318.056 302.566 318.429 302.31 318.92C302.054 319.411 301.926 319.976 301.926 320.616C301.926 321.256 302.054 321.821 302.31 322.312C302.566 322.792 302.923 323.165 303.382 323.432C303.84 323.699 304.352 323.832 304.918 323.832C305.824 323.832 306.544 323.549 307.078 322.984C307.622 322.408 307.894 321.619 307.894 320.616C307.894 319.613 307.622 318.829 307.078 318.264C306.544 317.688 305.824 317.4 304.918 317.4ZM312.883 313.16V325H311.427V313.16H312.883ZM315.992 316.216L318.84 323.128L321.48 316.216H323.096L317.88 329.16H316.232L318.056 324.856L314.36 316.216H315.992ZM328.448 313.64C328.448 313.373 328.539 313.16 328.72 313C328.901 312.829 329.141 312.744 329.44 312.744C329.739 312.744 329.979 312.829 330.16 313C330.341 313.16 330.432 313.373 330.432 313.64C330.432 313.907 330.341 314.125 330.16 314.296C329.979 314.456 329.739 314.536 329.44 314.536C329.141 314.536 328.901 314.456 328.72 314.296C328.539 314.125 328.448 313.907 328.448 313.64ZM330.16 316.216V325H328.704V316.216H330.16ZM337.285 316.072C338.309 316.072 339.135 316.403 339.765 317.064C340.394 317.715 340.709 318.659 340.709 319.896V325H339.253V320.024C339.253 319.149 339.029 318.477 338.581 318.008C338.133 317.539 337.525 317.304 336.757 317.304C335.957 317.304 335.317 317.565 334.837 318.088C334.357 318.6 334.117 319.352 334.117 320.344V325H332.661V316.216H334.117V318.296C334.341 317.581 334.735 317.032 335.301 316.648C335.877 316.264 336.538 316.072 337.285 316.072ZM348.287 323.288V325H346.527V323.288H348.287ZM350.942 314.536C350.643 314.536 350.398 314.456 350.206 314.296C350.024 314.125 349.934 313.907 349.934 313.64C349.934 313.373 350.024 313.16 350.206 313C350.398 312.829 350.643 312.744 350.942 312.744C351.23 312.744 351.464 312.829 351.646 313C351.827 313.16 351.918 313.373 351.918 313.64C351.918 313.907 351.827 314.125 351.646 314.296C351.464 314.456 351.23 314.536 350.942 314.536ZM348.494 327.88H349.102C349.486 327.88 349.763 327.795 349.934 327.624C350.115 327.453 350.206 327.16 350.206 326.744V316.216H351.678V326.792C351.678 328.371 350.878 329.16 349.278 329.16H348.494V327.88ZM359.008 316.104C359.787 316.104 360.48 316.285 361.088 316.648C361.696 317.011 362.171 317.533 362.512 318.216C362.864 318.899 363.04 319.699 363.04 320.616C363.04 321.533 362.864 322.333 362.512 323.016C362.171 323.688 361.696 324.205 361.088 324.568C360.48 324.931 359.787 325.112 359.008 325.112C358.155 325.112 357.43 324.899 356.832 324.472C356.246 324.035 355.84 323.464 355.616 322.76V329.16H354.16V316.216H355.616V318.456C355.84 317.752 356.246 317.187 356.832 316.76C357.43 316.323 358.155 316.104 359.008 316.104ZM358.592 317.4C358.027 317.4 357.515 317.533 357.056 317.8C356.598 318.056 356.24 318.429 355.984 318.92C355.728 319.411 355.6 319.976 355.6 320.616C355.6 321.256 355.728 321.821 355.984 322.312C356.24 322.792 356.598 323.165 357.056 323.432C357.515 323.699 358.027 323.832 358.592 323.832C359.499 323.832 360.219 323.549 360.752 322.984C361.296 322.408 361.568 321.619 361.568 320.616C361.568 319.613 361.296 318.829 360.752 318.264C360.219 317.688 359.499 317.4 358.592 317.4ZM368.701 316.104C369.555 316.104 370.275 316.317 370.861 316.744C371.459 317.171 371.875 317.741 372.109 318.456V316.216H373.565V325.144C373.565 325.955 373.395 326.675 373.053 327.304C372.712 327.933 372.232 328.424 371.613 328.776C370.995 329.128 370.275 329.304 369.453 329.304C368.269 329.304 367.304 329.016 366.557 328.44C365.811 327.875 365.336 327.107 365.133 326.136H366.573C366.744 326.723 367.064 327.181 367.533 327.512C368.013 327.853 368.627 328.024 369.373 328.024C370.163 328.024 370.813 327.768 371.325 327.256C371.848 326.755 372.109 326.051 372.109 325.144V322.76C371.875 323.475 371.459 324.045 370.861 324.472C370.275 324.899 369.555 325.112 368.701 325.112C367.923 325.112 367.229 324.931 366.621 324.568C366.013 324.205 365.533 323.688 365.181 323.016C364.84 322.333 364.669 321.533 364.669 320.616C364.669 319.699 364.84 318.899 365.181 318.216C365.533 317.533 366.013 317.011 366.621 316.648C367.229 316.285 367.923 316.104 368.701 316.104ZM369.117 317.4C368.221 317.4 367.501 317.688 366.957 318.264C366.424 318.829 366.157 319.613 366.157 320.616C366.157 321.619 366.424 322.408 366.957 322.984C367.501 323.549 368.221 323.832 369.117 323.832C369.693 323.832 370.205 323.699 370.653 323.432C371.112 323.165 371.469 322.792 371.725 322.312C371.981 321.821 372.109 321.256 372.109 320.616C372.109 319.976 371.981 319.411 371.725 318.92C371.469 318.429 371.112 318.056 370.653 317.8C370.205 317.533 369.693 317.4 369.117 317.4ZM384.14 316.104C384.982 316.104 385.734 316.285 386.396 316.648C387.068 317.011 387.59 317.533 387.964 318.216C388.348 318.899 388.54 319.699 388.54 320.616C388.54 321.533 388.348 322.333 387.964 323.016C387.59 323.688 387.068 324.205 386.396 324.568C385.734 324.931 384.982 325.112 384.14 325.112C383.297 325.112 382.54 324.931 381.868 324.568C381.206 324.205 380.684 323.688 380.3 323.016C379.916 322.333 379.724 321.533 379.724 320.616C379.724 319.699 379.916 318.899 380.3 318.216C380.684 317.533 381.206 317.011 381.868 316.648C382.54 316.285 383.297 316.104 384.14 316.104ZM384.14 317.384C383.617 317.384 383.132 317.501 382.684 317.736C382.246 317.971 381.889 318.333 381.612 318.824C381.345 319.304 381.212 319.901 381.212 320.616C381.212 321.32 381.345 321.917 381.612 322.408C381.889 322.888 382.246 323.245 382.684 323.48C383.132 323.715 383.617 323.832 384.14 323.832C384.662 323.832 385.142 323.715 385.58 323.48C386.028 323.245 386.385 322.888 386.652 322.408C386.929 321.917 387.068 321.32 387.068 320.616C387.068 319.901 386.929 319.304 386.652 318.824C386.385 318.333 386.028 317.971 385.58 317.736C385.142 317.501 384.662 317.384 384.14 317.384ZM392.053 317.992C392.341 317.384 392.762 316.915 393.317 316.584C393.872 316.243 394.533 316.072 395.301 316.072V317.656H394.853C394.032 317.656 393.36 317.869 392.837 318.296C392.314 318.712 392.053 319.405 392.053 320.376V325H390.597V316.216H392.053V317.992ZM402.083 323.288V325H400.323V323.288H402.083ZM408.753 316.104C409.532 316.104 410.225 316.285 410.833 316.648C411.441 317.011 411.916 317.533 412.257 318.216C412.609 318.899 412.785 319.699 412.785 320.616C412.785 321.533 412.609 322.333 412.257 323.016C411.916 323.688 411.441 324.205 410.833 324.568C410.225 324.931 409.532 325.112 408.753 325.112C407.9 325.112 407.175 324.899 406.577 324.472C405.991 324.035 405.585 323.464 405.361 322.76V329.16H403.905V316.216H405.361V318.456C405.585 317.752 405.991 317.187 406.577 316.76C407.175 316.323 407.9 316.104 408.753 316.104ZM408.337 317.4C407.772 317.4 407.26 317.533 406.801 317.8C406.343 318.056 405.985 318.429 405.729 318.92C405.473 319.411 405.345 319.976 405.345 320.616C405.345 321.256 405.473 321.821 405.729 322.312C405.985 322.792 406.343 323.165 406.801 323.432C407.26 323.699 407.772 323.832 408.337 323.832C409.244 323.832 409.964 323.549 410.497 322.984C411.041 322.408 411.313 321.619 411.313 320.616C411.313 319.613 411.041 318.829 410.497 318.264C409.964 317.688 409.244 317.4 408.337 317.4ZM419.47 316.072C420.494 316.072 421.321 316.403 421.95 317.064C422.58 317.715 422.894 318.659 422.894 319.896V325H421.438V320.024C421.438 319.149 421.214 318.477 420.766 318.008C420.318 317.539 419.71 317.304 418.942 317.304C418.142 317.304 417.502 317.565 417.022 318.088C416.542 318.6 416.302 319.352 416.302 320.344V325H414.846V316.216H416.302V318.296C416.526 317.581 416.921 317.032 417.486 316.648C418.062 316.264 418.724 316.072 419.47 316.072ZM428.888 316.104C429.741 316.104 430.461 316.317 431.048 316.744C431.645 317.171 432.061 317.741 432.296 318.456V316.216H433.752V325.144C433.752 325.955 433.581 326.675 433.24 327.304C432.898 327.933 432.418 328.424 431.8 328.776C431.181 329.128 430.461 329.304 429.64 329.304C428.456 329.304 427.49 329.016 426.744 328.44C425.997 327.875 425.522 327.107 425.32 326.136H426.76C426.93 326.723 427.25 327.181 427.72 327.512C428.2 327.853 428.813 328.024 429.56 328.024C430.349 328.024 431 327.768 431.512 327.256C432.034 326.755 432.296 326.051 432.296 325.144V322.76C432.061 323.475 431.645 324.045 431.048 324.472C430.461 324.899 429.741 325.112 428.888 325.112C428.109 325.112 427.416 324.931 426.808 324.568C426.2 324.205 425.72 323.688 425.368 323.016C425.026 322.333 424.856 321.533 424.856 320.616C424.856 319.699 425.026 318.899 425.368 318.216C425.72 317.533 426.2 317.011 426.808 316.648C427.416 316.285 428.109 316.104 428.888 316.104ZM429.304 317.4C428.408 317.4 427.688 317.688 427.144 318.264C426.61 318.829 426.344 319.613 426.344 320.616C426.344 321.619 426.61 322.408 427.144 322.984C427.688 323.549 428.408 323.832 429.304 323.832C429.88 323.832 430.392 323.699 430.84 323.432C431.298 323.165 431.656 322.792 431.912 322.312C432.168 321.821 432.296 321.256 432.296 320.616C432.296 319.976 432.168 319.411 431.912 318.92C431.656 318.429 431.298 318.056 430.84 317.8C430.392 317.533 429.88 317.4 429.304 317.4ZM444.23 314.136C443.451 314.125 442.907 314.259 442.598 314.536C442.299 314.813 442.15 315.293 442.15 315.976V316.216H444.23V317.496H442.15V325H440.694V317.496H439.43V316.216H440.694V315.864C440.694 313.763 441.873 312.76 444.23 312.856V314.136ZM449.955 316.104C450.797 316.104 451.549 316.285 452.211 316.648C452.883 317.011 453.405 317.533 453.779 318.216C454.163 318.899 454.355 319.699 454.355 320.616C454.355 321.533 454.163 322.333 453.779 323.016C453.405 323.688 452.883 324.205 452.211 324.568C451.549 324.931 450.797 325.112 449.955 325.112C449.112 325.112 448.355 324.931 447.683 324.568C447.021 324.205 446.499 323.688 446.115 323.016C445.731 322.333 445.539 321.533 445.539 320.616C445.539 319.699 445.731 318.899 446.115 318.216C446.499 317.533 447.021 317.011 447.683 316.648C448.355 316.285 449.112 316.104 449.955 316.104ZM449.955 317.384C449.432 317.384 448.947 317.501 448.499 317.736C448.061 317.971 447.704 318.333 447.427 318.824C447.16 319.304 447.027 319.901 447.027 320.616C447.027 321.32 447.16 321.917 447.427 322.408C447.704 322.888 448.061 323.245 448.499 323.48C448.947 323.715 449.432 323.832 449.955 323.832C450.477 323.832 450.957 323.715 451.395 323.48C451.843 323.245 452.2 322.888 452.467 322.408C452.744 321.917 452.883 321.32 452.883 320.616C452.883 319.901 452.744 319.304 452.467 318.824C452.2 318.333 451.843 317.971 451.395 317.736C450.957 317.501 450.477 317.384 449.955 317.384ZM457.868 317.992C458.156 317.384 458.577 316.915 459.132 316.584C459.687 316.243 460.348 316.072 461.116 316.072V317.656H460.668C459.847 317.656 459.175 317.869 458.652 318.296C458.129 318.712 457.868 319.405 457.868 320.376V325H456.412V316.216H457.868V317.992ZM473.513 316.072C474.537 316.072 475.358 316.403 475.977 317.064C476.606 317.715 476.921 318.659 476.921 319.896V325H475.465V320.024C475.465 319.16 475.251 318.499 474.825 318.04C474.409 317.581 473.833 317.352 473.097 317.352C472.329 317.352 471.71 317.608 471.241 318.12C470.782 318.621 470.553 319.363 470.553 320.344V325H469.097V320.024C469.097 319.16 468.883 318.499 468.457 318.04C468.03 317.581 467.454 317.352 466.729 317.352C465.95 317.352 465.326 317.608 464.857 318.12C464.398 318.621 464.169 319.363 464.169 320.344V325H462.713V316.216H464.169V318.216C464.382 317.523 464.761 316.995 465.305 316.632C465.859 316.259 466.494 316.072 467.209 316.072C467.955 316.072 468.601 316.264 469.145 316.648C469.699 317.021 470.094 317.576 470.329 318.312C470.574 317.597 470.985 317.048 471.561 316.664C472.137 316.269 472.787 316.072 473.513 316.072ZM482.941 316.104C483.795 316.104 484.515 316.317 485.101 316.744C485.699 317.171 486.115 317.741 486.349 318.456V316.216H487.805V325H486.349V322.76C486.115 323.475 485.699 324.045 485.101 324.472C484.515 324.899 483.795 325.112 482.941 325.112C482.163 325.112 481.469 324.931 480.861 324.568C480.253 324.205 479.773 323.688 479.421 323.016C479.08 322.333 478.909 321.533 478.909 320.616C478.909 319.699 479.08 318.899 479.421 318.216C479.773 317.533 480.253 317.011 480.861 316.648C481.469 316.285 482.163 316.104 482.941 316.104ZM483.357 317.4C482.461 317.4 481.741 317.688 481.197 318.264C480.664 318.829 480.397 319.613 480.397 320.616C480.397 321.619 480.664 322.408 481.197 322.984C481.741 323.549 482.461 323.832 483.357 323.832C483.933 323.832 484.445 323.699 484.893 323.432C485.352 323.165 485.709 322.792 485.965 322.312C486.221 321.821 486.349 321.256 486.349 320.616C486.349 319.976 486.221 319.411 485.965 318.92C485.709 318.429 485.352 318.056 484.893 317.8C484.445 317.533 483.933 317.4 483.357 317.4ZM494.475 323.72V325H493.387C492.491 325 491.819 324.787 491.371 324.36C490.933 323.933 490.715 323.219 490.715 322.216V317.48H489.403V316.216H490.715V314.024H492.187V316.216H494.459V317.48H492.187V322.248C492.187 322.813 492.288 323.203 492.491 323.416C492.704 323.619 493.067 323.72 493.579 323.72H494.475Z" fill="#666666"/>
</svg>
