<svg width="65" height="65" viewBox="0 0 65 65" fill="none" xmlns="http://www.w3.org/2000/svg">
<circle cx="32.7324" cy="32.375" r="32" fill="#12CAD6"/>
<path d="M37.3043 14.375H28.1614V17.4226H37.3043V14.375ZM31.209 34.1845H34.2566V25.0417H31.209V34.1845ZM43.4452 24.1121L45.609 21.9483C44.9538 21.1712 44.2376 20.4398 43.4605 19.7998L41.2967 21.9636C38.9347 20.074 35.9633 18.9464 32.7328 18.9464C25.1595 18.9464 19.0186 25.0874 19.0186 32.6607C19.0186 40.234 25.1443 46.375 32.7328 46.375C40.3214 46.375 46.4471 40.234 46.4471 32.6607C46.4471 29.4302 45.3195 26.4588 43.4452 24.1121ZM32.7328 43.3274C26.8357 43.3274 22.0662 38.5579 22.0662 32.6607C22.0662 26.7636 26.8357 21.994 32.7328 21.994C38.63 21.994 43.3995 26.7636 43.3995 32.6607C43.3995 38.5579 38.63 43.3274 32.7328 43.3274Z" fill="#012828"/>
</svg>
