<svg width="16" height="17" viewBox="0 0 16 17" fill="none" xmlns="http://www.w3.org/2000/svg">
<path d="M8.25894 6.28664H9.78275V4.00093H12.0685V2.47712H9.78275V0.191406H8.25894V2.47712H5.97323V4.00093H8.25894V6.28664ZM5.21132 13.1438C4.37323 13.1438 3.69513 13.8295 3.69513 14.6676C3.69513 15.5057 4.37323 16.1914 5.21132 16.1914C6.04942 16.1914 6.73513 15.5057 6.73513 14.6676C6.73513 13.8295 6.04942 13.1438 5.21132 13.1438ZM12.8304 13.1438C11.9923 13.1438 11.3142 13.8295 11.3142 14.6676C11.3142 15.5057 11.9923 16.1914 12.8304 16.1914C13.6685 16.1914 14.3542 15.5057 14.3542 14.6676C14.3542 13.8295 13.6685 13.1438 12.8304 13.1438ZM5.34085 10.6676L5.3637 10.5762L6.04942 9.33426H11.7256C12.297 9.33426 12.7999 9.02188 13.0589 8.5495L15.9999 3.20855L14.6742 2.47712H14.6666L13.8285 4.00093L11.7256 7.81045H6.37704L6.27799 7.60474L4.57132 4.00093L3.84751 2.47712L3.13132 0.953311H0.639893V2.47712H2.1637L4.90656 8.25998L3.87799 10.1266C3.75608 10.34 3.68751 10.5914 3.68751 10.8581C3.68751 11.6962 4.37323 12.3819 5.21132 12.3819H14.3542V10.8581H5.53132C5.43227 10.8581 5.34085 10.7743 5.34085 10.6676Z" fill="#FA1616"/>
</svg>
