<svg width="49" height="49" viewBox="0 0 49 49" fill="none" xmlns="http://www.w3.org/2000/svg">
<path d="M0.763672 0.290039H48.7404V26.2019L46.3657 29.9142L48.7404 33.2181V48.29H0.763672V23.8631L2.24787 22.1555L0.763672 20.5221V0.290039Z" fill="#016FD0"/>
<path d="M10.0769 33.7381V26.2021H18.0522L18.9079 27.3182L19.7919 26.2021H48.7403V33.2184C48.7403 33.2184 47.9833 33.7306 47.1077 33.7381H31.0783L30.1136 32.5502V33.7381H26.9523V31.7103C26.9523 31.7103 26.5204 31.9933 25.5868 31.9933H24.5108V33.7381H19.7242L18.8698 32.5982L18.0022 33.7381H10.0769Z" fill="white"/>
<path d="M0.763672 20.522L2.56214 16.3271H5.6724L6.69305 18.677V16.3271H10.5594L11.167 18.0255L11.756 16.3271H29.1119V17.181C29.1119 17.181 30.0243 16.3271 31.5237 16.3271L37.1551 16.3468L38.1581 18.6659V16.3271H41.3936L42.2842 17.6593V16.3271H45.5494V23.8631H42.2842L41.4308 22.5267V23.8631H36.677L36.1989 22.6752H34.921L34.4507 23.8631H31.2269C29.9367 23.8631 29.1119 23.0267 29.1119 23.0267V23.8631H24.2511L23.2864 22.6752V23.8631H5.21163L4.73391 22.6752H3.46001L2.98566 23.8631H0.763672V20.522Z" fill="white"/>
<path d="M3.19869 17.2559L0.772949 22.8986H2.35223L2.79981 21.7686H5.4018L5.84706 22.8986H7.46112L5.0377 17.2559H3.19869ZM4.09616 18.5691L4.88928 20.5436H3.30073L4.09616 18.5691Z" fill="#016FD0"/>
<path d="M7.62793 22.8976V17.2549L9.87218 17.2632L11.1775 20.9013L12.4516 17.2549H14.6779V22.8976H13.2679V18.7398L11.7733 22.8976H10.5367L9.03792 18.7398V22.8976H7.62793Z" fill="#016FD0"/>
<path d="M15.6428 22.8976V17.2549H20.2438V18.5171H17.0677V19.4823H20.1696V20.6702H17.0677V21.6725H20.2438V22.8976H15.6428Z" fill="#016FD0"/>
<path d="M21.0601 17.2559V22.8986H22.47V20.8939H23.0637L24.7543 22.8986H26.4774L24.6221 20.8197C25.3835 20.7554 26.169 20.1016 26.169 19.0865C26.169 17.8991 25.2374 17.2559 24.1977 17.2559H21.0601ZM22.47 18.518H24.0818C24.4684 18.518 24.7497 18.8206 24.7497 19.112C24.7497 19.4869 24.3853 19.706 24.1027 19.706H22.47V18.518Z" fill="#016FD0"/>
<path d="M28.1843 22.8976H26.7446V17.2549H28.1843V22.8976Z" fill="#016FD0"/>
<path d="M31.5981 22.8976H31.2873C29.7837 22.8976 28.8708 21.7124 28.8708 20.0994C28.8708 18.4466 29.7735 17.2549 31.6723 17.2549H33.2307V18.5913H31.6153C30.8445 18.5913 30.2994 19.1931 30.2994 20.1134C30.2994 21.2061 30.9227 21.6651 31.8207 21.6651H32.1917L31.5981 22.8976Z" fill="#016FD0"/>
<path d="M34.666 17.2559L32.2402 22.8986H33.8195L34.2671 21.7686H36.8691L37.3143 22.8986H38.9284L36.505 17.2559H34.666ZM35.5634 18.5691L36.3566 20.5436H34.768L35.5634 18.5691Z" fill="#016FD0"/>
<path d="M39.093 22.8976V17.2549H40.8857L43.1746 20.8001V17.2549H44.5846V22.8976H42.8499L40.503 19.2595V22.8976H39.093Z" fill="#016FD0"/>
<path d="M11.0415 32.7726V27.1299H15.6425V28.3921H12.4663V29.3573H15.5683V30.5452H12.4663V31.5475H15.6425V32.7726H11.0415Z" fill="#016FD0"/>
<path d="M33.5867 32.7726V27.1299H38.1877V28.3921H35.0115V29.3573H38.0986V30.5452H35.0115V31.5475H38.1877V32.7726H33.5867Z" fill="#016FD0"/>
<path d="M15.8212 32.7726L18.0614 29.986L15.7678 27.1299H17.5442L18.9102 28.8955L20.2807 27.1299H21.9875L19.7241 29.9512L21.9685 32.7726H20.1924L18.8661 31.0347L17.5721 32.7726H15.8212Z" fill="#016FD0"/>
<path d="M22.1362 27.1299V32.7726H23.5833V30.9907H25.0675C26.3234 30.9907 27.2753 30.3241 27.2753 29.0278C27.2753 27.9539 26.5287 27.1299 25.2507 27.1299H22.1362ZM23.5833 28.406H25.1464C25.5521 28.406 25.8421 28.6548 25.8421 29.0556C25.8421 29.4322 25.5536 29.7053 25.1417 29.7053H23.5833V28.406Z" fill="#016FD0"/>
<path d="M27.8875 27.1299V32.7726H29.2974V30.7679H29.8911L31.5817 32.7726H33.3048L31.4495 30.6937C32.2109 30.6294 32.9963 29.9756 32.9963 28.9605C32.9963 27.7731 32.0648 27.1299 31.0251 27.1299H27.8875ZM29.2974 28.3921H30.9092C31.2958 28.3921 31.5771 28.6946 31.5771 28.986C31.5771 29.3609 31.2127 29.58 30.9301 29.58H29.2974V28.3921Z" fill="#016FD0"/>
<path d="M38.8409 32.7726V31.5475H41.6627C42.0803 31.5475 42.2611 31.3218 42.2611 31.0742C42.2611 30.837 42.0808 30.5972 41.6627 30.5972H40.3876C39.2792 30.5972 38.6619 29.9215 38.6619 28.9071C38.6619 28.0024 39.2272 27.1299 40.8743 27.1299H43.62L43.0263 28.3995H40.6516C40.1977 28.3995 40.0579 28.6378 40.0579 28.8654C40.0579 29.0993 40.2306 29.3573 40.5774 29.3573H41.9132C43.1488 29.3573 43.685 30.0585 43.685 30.9767C43.685 31.964 43.0875 32.7726 41.8459 32.7726H38.8409Z" fill="#016FD0"/>
<path d="M44.0157 32.7726V31.5475H46.8375C47.2551 31.5475 47.4359 31.3218 47.4359 31.0742C47.4359 30.837 47.2556 30.5972 46.8375 30.5972H45.5624C44.454 30.5972 43.8367 29.9215 43.8367 28.9071C43.8367 28.0024 44.402 27.1299 46.0491 27.1299H48.7948L48.2011 28.3995H45.8264C45.3725 28.3995 45.2327 28.6378 45.2327 28.8654C45.2327 29.0993 45.4054 29.3573 45.7522 29.3573H47.088C48.3236 29.3573 48.8598 30.0585 48.8598 30.9767C48.8598 31.964 48.2623 32.7726 47.0207 32.7726H44.0157Z" fill="#016FD0"/>
</svg>
