<svg width="64" height="64" viewBox="0 0 64 64" fill="none" xmlns="http://www.w3.org/2000/svg">
<circle cx="32.0001" cy="32" r="32" fill="#65F9FB"/>
<path d="M25.6001 41.6C23.8401 41.6 22.4161 43.04 22.4161 44.8C22.4161 46.56 23.8401 48 25.6001 48C27.3601 48 28.8001 46.56 28.8001 44.8C28.8001 43.04 27.3601 41.6 25.6001 41.6ZM16.0001 16V19.2H19.2001L24.9601 31.344L22.8001 35.264C22.5441 35.712 22.4001 36.24 22.4001 36.8C22.4001 38.56 23.8401 40 25.6001 40H44.8001V36.8H26.2721C26.0481 36.8 25.8721 36.624 25.8721 36.4L25.9201 36.208L27.3601 33.6H39.2801C40.4801 33.6 41.5361 32.944 42.0801 31.952L47.8081 21.568C47.9361 21.344 48.0001 21.072 48.0001 20.8C48.0001 19.92 47.2801 19.2 46.4001 19.2H22.7361L21.2321 16H16.0001ZM41.6001 41.6C39.8401 41.6 38.4161 43.04 38.4161 44.8C38.4161 46.56 39.8401 48 41.6001 48C43.3601 48 44.8001 46.56 44.8001 44.8C44.8001 43.04 43.3601 41.6 41.6001 41.6Z" fill="#024F51"/>
</svg>
