<svg width="60" height="46" viewBox="0 0 60 46" fill="none" xmlns="http://www.w3.org/2000/svg">
<path d="M11.117 13.299V12.5469H9.117V13.299C7.98842 13.4577 6.97435 13.8776 6.24572 14.4879C5.51709 15.0982 5.11846 15.8616 5.117 16.6495V18.017H15.117V16.6495C15.1156 15.8616 14.7169 15.0982 13.9883 14.4879C13.2597 13.8776 12.2456 13.4577 11.117 13.299ZM7.117 16.6495C7.117 16.1054 7.43307 15.5837 7.99568 15.199C8.55829 14.8143 9.32135 14.5982 10.117 14.5982C10.9127 14.5982 11.6757 14.8143 12.2383 15.199C12.8009 15.5837 13.117 16.1054 13.117 16.6495H7.117Z" fill="#FCFFFF"/>
<path d="M50 30C49.825 30 49.655 30.017 49.482 30.026L45.174 25H47C47.2652 25 47.5196 24.8946 47.7071 24.7071C47.8946 24.5196 48 24.2652 48 24V18C48 17.7348 47.8946 17.4804 47.7071 17.2929C47.5196 17.1054 47.2652 17 47 17C46.2168 16.9988 45.4508 17.2292 44.7983 17.6623C44.1458 18.0954 43.636 18.7118 43.333 19.434L42.768 19.775C42.688 19.563 42.616 19.347 42.532 19.137L41.932 17.628L41.078 17.97L36.6 16.479L39.825 11.965C39.882 11.9824 39.9407 11.9941 40 12H44C45.0609 12 46.0783 11.5786 46.8284 10.8284C47.5786 10.0783 48 9.06087 48 8V6H50V4H48V1C48 0.734784 47.8946 0.480429 47.7071 0.292892C47.5196 0.105356 47.2652 0 47 0H40C39.7348 0 39.4804 0.105356 39.2929 0.292892C39.1054 0.480429 39 0.734784 39 1V9H33C32.7692 9.00004 32.5456 9.07989 32.367 9.226L21.367 18.226C21.2523 18.3198 21.1599 18.4379 21.0964 18.5717C21.033 18.7056 21 18.8519 21 19V25.6C20.326 25.7433 19.6593 25.9123 19 26.107V6C19 5.73478 18.8946 5.48043 18.7071 5.29289C18.5196 5.10536 18.2652 5 18 5H2C1.73478 5 1.48043 5.10536 1.29289 5.29289C1.10536 5.48043 1 5.73478 1 6V24H0V26H17V26.79C14.4478 27.7637 12.0624 29.128 9.929 30.834C8.96686 31.4725 8.10938 32.2561 7.387 33.157C5.83411 35.099 4.99186 37.5135 5 40C5 40.2652 5.10536 40.5196 5.29289 40.7071C5.48043 40.8946 5.73478 41 6 41H10.09C10.325 42.3975 11.0477 43.6665 12.1296 44.5817C13.2116 45.4969 14.5829 45.999 16 45.999C17.4171 45.999 18.7884 45.4969 19.8704 44.5817C20.9523 43.6665 21.675 42.3975 21.91 41H44.09C44.325 42.3975 45.0477 43.6665 46.1296 44.5817C47.2116 45.4969 48.5829 45.999 50 45.999C51.4171 45.999 52.7884 45.4969 53.8704 44.5817C54.9523 43.6665 55.675 42.3975 55.91 41H59C59.2652 41 59.5196 40.8946 59.7071 40.7071C59.8946 40.5196 60 40.2652 60 40C59.9971 37.3487 58.9426 34.8069 57.0679 32.9321C55.1931 31.0574 52.6513 30.0029 50 30ZM3 24V7H17V24H3ZM40.461 37H35.443L40.749 22.852L41.727 22.917C42.1212 24.2186 42.4421 25.5414 42.688 26.879L42.726 27.089C43.0927 29.1066 43.0836 31.1747 42.699 33.189C41.6784 34.2767 40.9137 35.5788 40.461 37ZM44.818 27.657L47.179 30.412C46.3933 30.645 45.6396 30.9745 44.935 31.393C45.021 30.1469 44.9818 28.8953 44.818 27.657ZM44.666 20.966C44.876 20.8401 45.032 20.641 45.104 20.407C45.2524 19.9296 45.5732 19.5246 46.004 19.271V23H43.837C43.715 22.565 43.579 22.134 43.437 21.7L44.666 20.966ZM46 8C46 8.53043 45.7893 9.03914 45.4142 9.41421C45.0391 9.78929 44.5304 10 44 10H41V6H46V8ZM46 2V4H41V2H46ZM33.357 11H38.057L34.186 16.419C34.0951 16.5465 34.0354 16.6936 34.0117 16.8484C33.988 17.0032 34.001 17.1614 34.0496 17.3103C34.0983 17.4591 34.1812 17.5945 34.2917 17.7054C34.4023 17.8164 34.5373 17.8998 34.686 17.949L40.686 19.949L40.694 19.925C40.817 20.236 40.928 20.553 41.043 20.867L29.858 20.122L33.816 14.581L32.188 13.419L27.485 20H23V19.474L33.357 11ZM23 25V22H27.97L38.664 22.713L33.332 36.932C32.9421 36.8835 32.5593 36.7885 32.192 36.649L35.94 26.342C35.995 26.1909 36.0127 26.0288 35.9917 25.8694C35.9707 25.71 35.9116 25.558 35.8194 25.4263C35.7271 25.2946 35.6045 25.1871 35.4618 25.1129C35.3192 25.0387 35.1608 25 35 25H23ZM33.556 27.045L30.468 35.536C29.7946 34.8662 29.3268 34.0177 29.1199 33.0907C28.913 32.1637 28.9755 31.1969 29.3001 30.3043C29.6248 29.4116 30.1979 28.6305 30.952 28.053C31.7061 27.4755 32.6096 27.1258 33.556 27.045ZM16 44C15.1158 43.9967 14.2576 43.7005 13.5596 43.1577C12.8615 42.6149 12.363 41.8561 12.142 41H19.858C19.637 41.8561 19.1385 42.6149 18.4404 43.1577C17.7424 43.7005 16.8842 43.9967 16 44ZM12.142 39C12.3603 38.1424 12.8581 37.382 13.5567 36.8389C14.2554 36.2958 15.1151 36.0009 16 36.0009C16.8849 36.0009 17.7446 36.2958 18.4433 36.8389C19.1419 37.382 19.6397 38.1424 19.858 39H12.142ZM21.91 39C21.675 37.6025 20.9523 36.3335 19.8704 35.4183C18.7884 34.5031 17.4171 34.001 16 34.001C14.5829 34.001 13.2116 34.5031 12.1296 35.4183C11.0477 36.3335 10.325 37.6025 10.09 39H7.054C7.23608 37.3305 7.8872 35.7468 8.932 34.432C9.60333 33.7349 10.3181 33.0809 11.072 32.474C12.5336 31.508 14.248 30.9952 16 31C18.2131 31.0027 20.3479 31.8195 21.9975 33.2949C23.6471 34.7702 24.6963 36.8009 24.945 39H21.91ZM26.951 39C26.951 38.967 26.951 38.933 26.944 38.9C26.932 38.778 26.908 38.66 26.891 38.539C26.86 38.301 26.83 38.063 26.783 37.83C26.755 37.689 26.714 37.553 26.683 37.414C26.633 37.207 26.583 36.999 26.524 36.797C26.48 36.652 26.424 36.512 26.375 36.37C26.308 36.18 26.244 35.989 26.167 35.804C26.108 35.661 26.039 35.524 25.974 35.384C25.892 35.207 25.812 35.03 25.72 34.858C25.647 34.72 25.565 34.587 25.486 34.452C25.386 34.288 25.294 34.123 25.186 33.965C25.099 33.833 25.005 33.706 24.912 33.578C24.802 33.426 24.692 33.278 24.575 33.127C24.475 33.003 24.375 32.885 24.266 32.766C24.143 32.625 24.019 32.486 23.89 32.352C23.779 32.238 23.663 32.128 23.547 32.019C23.412 31.891 23.276 31.765 23.135 31.644C23.013 31.544 22.888 31.444 22.762 31.344C22.616 31.23 22.469 31.118 22.318 31.012C22.186 30.919 22.051 30.83 21.918 30.743C21.762 30.643 21.605 30.543 21.444 30.455C21.303 30.374 21.16 30.297 21.015 30.222C20.85 30.137 20.684 30.057 20.515 29.98C20.3657 29.9133 20.2153 29.8493 20.064 29.788C19.89 29.718 19.714 29.655 19.536 29.594C19.38 29.541 19.224 29.494 19.065 29.444C18.883 29.391 18.699 29.344 18.514 29.302C18.352 29.264 18.19 29.227 18.026 29.196C17.837 29.161 17.646 29.134 17.454 29.109C17.287 29.087 17.12 29.065 16.954 29.05C16.891 29.045 16.83 29.032 16.766 29.028C19.838 27.6941 23.1509 27.0039 26.5 27H29.11C28.1143 27.9715 27.4309 29.2178 27.1472 30.5797C26.8635 31.9415 26.9924 33.3571 27.5174 34.6453C28.0423 35.9336 28.9395 37.036 30.0943 37.8117C31.2491 38.5874 32.6089 39.0011 34 39H26.951ZM50 44C49.1158 43.9967 48.2576 43.7005 47.5596 43.1577C46.8615 42.6149 46.363 41.8561 46.142 41H53.858C53.637 41.8561 53.1385 42.6149 52.4404 43.1577C51.7424 43.7005 50.8842 43.9967 50 44ZM46.142 39C46.3603 38.1424 46.8581 37.382 47.5567 36.8389C48.2554 36.2958 49.1151 36.0009 50 36.0009C50.8849 36.0009 51.7446 36.2958 52.4433 36.8389C53.1419 37.382 53.6397 38.1424 53.858 39H46.142ZM55.91 39C55.675 37.6025 54.9523 36.3335 53.8704 35.4183C52.7884 34.5031 51.4171 34.001 50 34.001C48.5829 34.001 47.2116 34.5031 46.1296 35.4183C45.0477 36.3335 44.325 37.6025 44.09 39H42.069C42.3174 37.0711 43.2598 35.2988 44.7202 34.0144C46.1805 32.73 48.0587 32.0216 50.0035 32.0216C51.9483 32.0216 53.8265 32.73 55.2868 34.0144C56.7472 35.2988 57.6896 37.0711 57.938 39H55.91Z" fill="#FCFFFF"/>
</svg>
