<svg width="78" height="49" viewBox="0 0 78 49" fill="none" xmlns="http://www.w3.org/2000/svg">
<path fill-rule="evenodd" clip-rule="evenodd" d="M28.7244 43.1654H49.6005V5.48242H28.7244V43.1654Z" fill="#FF5F00"/>
<path fill-rule="evenodd" clip-rule="evenodd" d="M30.0499 24.3238C30.0499 16.6788 33.6134 9.87001 39.1625 5.48234C35.1039 2.27297 29.9836 0.358398 24.418 0.358398C11.2421 0.358398 0.561523 11.0883 0.561523 24.3238C0.561523 37.5594 11.2421 48.2892 24.418 48.2892C29.9836 48.2892 35.1039 46.3747 39.1625 43.1653C33.6134 38.777 30.0499 31.9688 30.0499 24.3238Z" fill="#EB001B"/>
<path fill-rule="evenodd" clip-rule="evenodd" d="M77.0186 39.1744V38.2444H76.7767L76.4991 38.8841L76.2207 38.2444H75.9788V39.1744H76.1491V38.4727L76.4102 39.0779H76.5872L76.8483 38.4714V39.1744H77.0186ZM75.4871 39.1744V38.4028H75.7972V38.2457H75.0086V38.4028H75.3181V39.1744H75.4871ZM77.7635 24.3238C77.7635 37.5594 67.0823 48.2892 53.9071 48.2892C48.3415 48.2892 43.2205 46.3747 39.1626 43.1653C44.7117 38.7776 48.2752 31.9688 48.2752 24.3238C48.2752 16.6795 44.7117 9.87067 39.1626 5.48234C43.2205 2.27297 48.3415 0.358398 53.9071 0.358398C67.0823 0.358398 77.7635 11.0883 77.7635 24.3238Z" fill="#F79E1B"/>
</svg>
