<svg width="138" height="139" viewBox="0 0 138 139" fill="none" xmlns="http://www.w3.org/2000/svg">
<circle cx="69" cy="69.3003" r="69" fill="#288DFA"/>
<mask id="mask0" mask-type="alpha" maskUnits="userSpaceOnUse" x="0" y="0" width="138" height="139">
<circle cx="69" cy="69.3003" r="69" fill="#288DFA"/>
</mask>
<g mask="url(#mask0)">
<path d="M75.8578 103.624H62.1372V128.84H75.8578V103.624Z" fill="#FFDACD"/>
<path d="M61.0658 117.696H76.9267C77.5774 117.696 78.2217 117.824 78.8229 118.073C79.4241 118.322 79.9703 118.687 80.4304 119.147C80.8905 119.607 81.2555 120.153 81.5045 120.754C81.7535 121.356 81.8817 122 81.8817 122.651V141.901H56.1108V122.651C56.1108 121.336 56.6329 120.076 57.5621 119.147C58.4914 118.218 59.7517 117.696 61.0658 117.696Z" fill="#262424"/>
<path d="M75.8597 115.075H62.1464C61.782 115.075 61.4866 115.37 61.4866 115.735V118.379C61.4866 118.744 61.782 119.039 62.1464 119.039H75.8597C76.2241 119.039 76.5196 118.744 76.5196 118.379V115.735C76.5196 115.37 76.2241 115.075 75.8597 115.075Z" fill="#262424"/>
<path d="M105.809 84.9438C107.058 80.831 107.691 76.5561 107.689 72.258C107.689 49.521 90.3305 31.0232 68.996 31.0232C47.6615 31.0232 30.3032 49.5283 30.3032 72.258C30.3003 76.5564 30.9346 80.8314 32.1854 84.9438H105.809Z" fill="#F16625"/>
<path d="M42.4624 84.5114C43.1978 79.9811 40.1214 75.7124 35.591 74.977C31.0607 74.2416 26.792 77.318 26.0566 81.8484C25.3212 86.3787 28.3977 90.6474 32.928 91.3828C37.4583 92.1182 41.727 89.0417 42.4624 84.5114Z" fill="#FFDACD"/>
<path d="M111.942 84.5129C112.677 79.9825 109.601 75.7138 105.071 74.9784C100.54 74.2431 96.2715 77.3195 95.5361 81.8498C94.8007 86.3802 97.8772 90.6489 102.407 91.3843C106.938 92.1196 111.207 89.0432 111.942 84.5129Z" fill="#FFDACD"/>
<path d="M68.9961 109.537C88.1817 109.537 103.735 92.8463 103.735 72.2569C103.735 51.6674 88.1817 34.9763 68.9961 34.9763C49.8105 34.9763 34.2576 51.6674 34.2576 72.2569C34.2576 92.8463 49.8105 109.537 68.9961 109.537Z" fill="#FFDACD"/>
<path d="M45.5212 78.7323C45.5212 79.0659 45.0342 79.3361 44.4231 79.3361C43.8119 79.3361 43.325 79.0659 43.325 78.7323C43.325 78.3987 43.8119 78.1309 44.4231 78.1309C45.0342 78.1309 45.5212 78.4011 45.5212 78.7323Z" fill="#F9B0A1"/>
<path d="M48.9568 78.7323C48.9568 79.0659 48.4698 79.3361 47.8586 79.3361C47.2475 79.3361 46.7605 79.0659 46.7605 78.7323C46.7605 78.3987 47.2475 78.1309 47.8586 78.1309C48.4698 78.1309 48.9568 78.4011 48.9568 78.7323Z" fill="#F9B0A1"/>
<path d="M47.3669 80.3182C47.3669 80.6518 46.88 80.9221 46.2688 80.9221C45.6576 80.9221 45.1731 80.6518 45.1731 80.3182C45.1731 79.9846 45.6601 79.7144 46.2688 79.7144C46.8775 79.7144 47.3669 79.9822 47.3669 80.3182Z" fill="#F9B0A1"/>
<path d="M50.8365 80.3182C50.8365 80.6518 50.3494 80.9221 49.7382 80.9221C49.1269 80.9221 48.6423 80.6518 48.6423 80.3182C48.6423 79.9846 49.1294 79.7144 49.7382 79.7144C50.347 79.7144 50.8365 79.9822 50.8365 80.3182Z" fill="#F9B0A1"/>
<path d="M52.3904 78.7323C52.3904 79.0659 51.9034 79.3361 51.2947 79.3361C50.6859 79.3361 50.1965 79.0659 50.1965 78.7323C50.1965 78.3987 50.6835 78.1309 51.2947 78.1309C51.9058 78.1309 52.3904 78.4011 52.3904 78.7323Z" fill="#F9B0A1"/>
<path d="M87.7959 78.7323C87.7959 79.0659 87.3089 79.3361 86.6977 79.3361C86.0866 79.3361 85.6021 79.0659 85.6021 78.7323C85.6021 78.3987 86.089 78.1309 86.6977 78.1309C87.3065 78.1309 87.7959 78.4011 87.7959 78.7323Z" fill="#F9B0A1"/>
<path d="M91.2268 78.7323C91.2268 79.0659 90.7398 79.3361 90.1287 79.3361C89.5175 79.3361 89.033 79.0659 89.033 78.7323C89.033 78.3987 89.5199 78.1309 90.1287 78.1309C90.7374 78.1309 91.2268 78.4011 91.2268 78.7323Z" fill="#F9B0A1"/>
<path d="M89.6411 80.3182C89.6411 80.6518 89.1541 80.9221 88.5454 80.9221C87.9367 80.9221 87.4473 80.6518 87.4473 80.3182C87.4473 79.9846 87.9342 79.7144 88.5454 79.7144C89.1566 79.7144 89.6411 79.9822 89.6411 80.3182Z" fill="#F9B0A1"/>
<path d="M93.1113 80.3182C93.1113 80.6518 92.6243 80.9221 92.0132 80.9221C91.402 80.9221 90.9175 80.6518 90.9175 80.3182C90.9175 79.9846 91.4045 79.7144 92.0132 79.7144C92.6219 79.7144 93.1113 79.9822 93.1113 80.3182Z" fill="#F9B0A1"/>
<path d="M94.667 78.7323C94.667 79.0659 94.18 79.3361 93.5688 79.3361C92.9577 79.3361 92.4707 79.0659 92.4707 78.7323C92.4707 78.3987 92.9577 78.1309 93.5688 78.1309C94.18 78.1309 94.667 78.4011 94.667 78.7323Z" fill="#F9B0A1"/>
<path d="M69.213 84.1577C64.8821 84.1577 60.4888 82.8851 56.033 80.3398C55.8388 80.1957 55.7042 79.9855 55.6546 79.7488C55.605 79.5121 55.6438 79.2655 55.7638 79.0556C55.8838 78.8456 56.0765 78.6869 56.3056 78.6095C56.5347 78.5321 56.7842 78.5413 57.0069 78.6354C65.3488 83.4102 73.1794 83.4151 80.9467 78.6525C81.0574 78.5796 81.1816 78.5297 81.312 78.5057C81.4423 78.4818 81.5762 78.4843 81.7056 78.5132C81.8349 78.542 81.9572 78.5966 82.065 78.6736C82.1729 78.7506 82.2641 78.8486 82.3334 78.9616C82.4026 79.0746 82.4484 79.2004 82.4681 79.3315C82.4877 79.4625 82.4808 79.5962 82.4478 79.7246C82.4147 79.8529 82.3562 79.9733 82.2757 80.0786C82.1952 80.1839 82.0943 80.2719 81.9791 80.3374C77.8349 82.8794 73.5544 84.1577 69.213 84.1577Z" fill="#AC5B0F"/>
<path d="M68.9963 28.8426C62.5535 28.2607 64.5282 21.0266 66.4883 16.3906C62.2839 16.755 58.2765 18.3352 54.9549 20.9383C51.6332 23.5415 49.141 27.0551 47.7822 31.0505C46.4235 35.0459 46.2569 39.3504 47.3028 43.4389C48.3488 47.5274 50.562 51.2231 53.6725 54.0752C56.783 56.9272 60.6564 58.8123 64.82 59.5006C68.9837 60.1888 73.2576 59.6504 77.1205 57.951C80.9834 56.2516 84.2681 53.4647 86.5741 49.9302C88.88 46.3958 90.1075 42.2667 90.1067 38.0465C90.1092 36.8972 80.8639 29.9164 68.9963 28.8426Z" fill="#F16625"/>
<path d="M55.9205 70.8863C55.9201 71.4757 55.745 72.0518 55.4174 72.5417C55.0897 73.0317 54.6243 73.4136 54.0798 73.6393C53.5353 73.865 52.9362 73.9243 52.358 73.8097C51.7798 73.6951 51.2486 73.4118 50.8313 72.9955C50.414 72.5793 50.1294 72.0487 50.0134 71.4708C49.8974 70.8929 49.9552 70.2936 50.1796 69.7486C50.4039 69.2035 50.7847 68.7372 51.2739 68.4084C51.763 68.0796 52.3387 67.9031 52.9281 67.9011C53.3207 67.9002 53.7097 67.9767 54.0727 68.1263C54.4357 68.2759 54.7657 68.4956 55.0436 68.7729C55.3216 69.0502 55.5421 69.3796 55.6926 69.7422C55.8431 70.1049 55.9206 70.4937 55.9205 70.8863Z" fill="#AC5B0F"/>
<path d="M87.4914 70.8863C87.4909 71.4761 87.3155 72.0526 86.9875 72.5427C86.6594 73.0329 86.1934 73.4149 85.6484 73.6402C85.1033 73.8656 84.5037 73.9243 83.9252 73.809C83.3468 73.6936 82.8155 73.4094 82.3986 72.9921C81.9817 72.5749 81.6979 72.0434 81.583 71.4649C81.4681 70.8863 81.5273 70.2867 81.7532 69.7419C81.979 69.197 82.3613 68.7313 82.8518 68.4036C83.3422 68.076 83.9188 67.9011 84.5086 67.9011C85.2999 67.9018 86.0586 68.2166 86.6179 68.7763C87.1772 69.3361 87.4914 70.095 87.4914 70.8863Z" fill="#AC5B0F"/>
<path d="M62.6388 127.339H56.1108V154.617H62.6388V127.339Z" fill="#FFDACD"/>
<path d="M75.3534 154.617H81.8813V127.339H75.3534V154.617Z" fill="#FFDACD"/>
</g>
</svg>
