<svg width="424" height="201" viewBox="0 0 424 201" fill="none" xmlns="http://www.w3.org/2000/svg">
    <mask id="mask0" mask-type="alpha" maskUnits="userSpaceOnUse" x="0" y="0" width="424" height="201">
        <path
            d="M0.631836 8.06641C0.631836 3.64813 4.21356 0.0664062 8.63184 0.0664062H423.322V200.066H8.63183C4.21355 200.066 0.631836 196.485 0.631836 192.066V8.06641Z"
            fill="#404040" />
    </mask>
    <g mask="url(#mask0)">
        <rect x="0.631836" y="0.0664062" width="446.232" height="200" rx="8" fill="url(#paint0_linear)" />
        <g style="mix-blend-mode:screen" opacity="0.5">
            <path d="M206.295 99.331L555.15 28.2145L562.28 93.6737L206.295 99.331Z" fill="white" fill-opacity="0.2" />
            <path d="M217.202 99.331L-131.652 28.2145L-138.782 93.6737L217.202 99.331Z" fill="white"
                fill-opacity="0.2" />
            <path d="M208.578 99.3679L527.139 -59.6155L550.968 1.76783L208.578 99.3679Z" fill="white"
                fill-opacity="0.2" />
            <path d="M214.919 99.3679L-103.642 -59.6155L-127.471 1.76783L214.919 99.3679Z" fill="white"
                fill-opacity="0.2" />
            <path d="M211.824 97.098L478.383 -138.918L517.287 -85.7936L211.824 97.098Z" fill="white"
                fill-opacity="0.2" />
            <path d="M209.319 99.2506L405.71 -197.714L457.038 -156.469L209.319 99.2506Z" fill="white"
                fill-opacity="0.2" />
            <path d="M211.324 100.234L324.163 -237.441L384.418 -210.886L211.324 100.234Z" fill="white"
                fill-opacity="0.2" />
            <path d="M213.32 99.4559L234.917 -255.918L299.991 -245.863L213.32 99.4559Z" fill="white"
                fill-opacity="0.2" />
            <path d="M212.821 107.826L141.704 -241.029L207.163 -248.159L212.821 107.826Z" fill="white"
                fill-opacity="0.2" />
            <path d="M214.019 104.335L55.0354 -214.226L116.419 -238.055L214.019 104.335Z" fill="white"
                fill-opacity="0.2" />
            <path d="M215.243 104.998L-20.7734 -161.561L32.3509 -200.465L215.243 104.998Z" fill="white"
                fill-opacity="0.2" />
            <path d="M212.499 99.2794L-84.4652 -97.1112L-43.2203 -148.44L212.499 99.2794Z" fill="white"
                fill-opacity="0.2" />
            <path d="M219.375 97.0252L-101.143 252.027L-124.206 190.352L219.375 97.0252Z" fill="white"
                fill-opacity="0.2" />
            <path d="M205.021 100.597L-142.186 179.366L-150.753 114.079L205.021 100.597Z" fill="white"
                fill-opacity="0.2" />
            <path d="M222.552 100.599L569.759 179.368L578.326 114.081L222.552 100.599Z" fill="white"
                fill-opacity="0.2" />
            <path d="M213.033 96.9461L529.588 259.886L554.18 198.805L213.033 96.9461Z" fill="white"
                fill-opacity="0.2" />
            <path d="M216.099 99.2546L-53.3796 331.931L-91.619 278.326L216.099 99.2546Z" fill="white"
                fill-opacity="0.2" />
            <path d="M218.631 97.133L18.5558 391.627L-32.2546 349.746L218.631 97.133Z" fill="white"
                fill-opacity="0.2" />
            <path d="M216.639 96.1234L99.6012 432.366L39.6825 405.063L216.639 96.1234Z" fill="white"
                fill-opacity="0.2" />
            <path d="M214.633 96.8788L188.61 451.956L123.666 441.091L214.633 96.8788Z" fill="white"
                fill-opacity="0.2" />
            <path d="M215.237 88.5149L282.001 438.229L216.458 444.542L215.237 88.5149Z" fill="white"
                fill-opacity="0.2" />
            <path d="M213.995 91.9893L368.997 412.507L307.321 435.569L213.995 91.9893Z" fill="white"
                fill-opacity="0.2" />
            <path d="M212.78 91.3119L445.456 360.791L391.851 399.03L212.78 91.3119Z" fill="white" fill-opacity="0.2" />
            <path d="M215.451 97.0645L509.946 297.14L468.064 347.95L215.451 97.0645Z" fill="white" fill-opacity="0.2" />
        </g>
        <g filter="url(#filter0_d)">
            <path
                d="M260.924 140.25C260.924 147.429 255.05 153.303 247.871 153.303H176.081C168.902 153.303 163.028 147.429 163.028 140.25V84.7755C163.028 77.5964 168.902 71.7227 176.081 71.7227H247.871C255.05 71.7227 260.924 77.5964 260.924 84.7755V140.25Z"
                fill="#FDD888" />
            <path
                d="M270.715 74.9894C270.715 82.1684 264.841 88.0422 257.662 88.0422H166.292C159.113 88.0422 153.239 82.1684 153.239 74.9894C153.239 67.8103 159.113 61.9365 166.292 61.9365H257.662C264.841 61.9365 270.715 67.8103 270.715 74.9894Z"
                fill="#FDD888" />
            <path d="M163.028 88.04H260.924V94.5665H163.028V88.04Z" fill="#FCAB40" />
            <path
                d="M215.241 48.8799H208.714C206.118 48.8799 203.628 49.9113 201.792 51.7472C199.956 53.5831 198.925 56.0731 198.925 58.6695V153.303H225.03V58.6695C225.03 56.0731 223.999 53.5831 222.163 51.7472C220.327 49.9113 217.837 48.8799 215.241 48.8799Z"
                fill="#FF450D" />
            <path
                d="M205.448 61.9327C209.037 61.9327 209.569 60.2489 206.626 58.1898L184.691 42.8332C184.018 42.3431 183.248 42.0022 182.433 41.8331C181.617 41.6639 180.776 41.6705 179.963 41.8524C179.151 42.0343 178.386 42.3873 177.721 42.8878C177.056 43.3884 176.505 44.025 176.105 44.7552L169.526 56.2678C167.745 59.3842 169.226 61.9327 172.816 61.9327H205.448ZM218.501 61.9327C214.911 61.9327 214.379 60.2489 217.323 58.1898L239.261 42.8332C239.934 42.3436 240.704 42.0031 241.519 41.8343C242.334 41.6655 243.176 41.6722 243.988 41.8541C244.801 42.0359 245.565 42.3887 246.23 42.8889C246.895 43.3892 247.447 44.0254 247.847 44.7552L254.425 56.2645C256.204 59.3842 254.722 61.9327 251.133 61.9327H218.501Z"
                fill="#FF450D" />
        </g>
    </g>
    <defs>
        <filter id="filter0_d" x="138.239" y="28.7109" width="147.476" height="141.592" filterUnits="userSpaceOnUse"
            color-interpolation-filters="sRGB">
            <feFlood flood-opacity="0" result="BackgroundImageFix" />
            <feColorMatrix in="SourceAlpha" type="matrix" values="0 0 0 0 0 0 0 0 0 0 0 0 0 0 0 0 0 0 127 0" />
            <feOffset dy="2" />
            <feGaussianBlur stdDeviation="7.5" />
            <feColorMatrix type="matrix" values="0 0 0 0 1 0 0 0 0 0.270588 0 0 0 0 0.0509804 0 0 0 0.2 0" />
            <feBlend mode="normal" in2="BackgroundImageFix" result="effect1_dropShadow" />
            <feBlend mode="normal" in="SourceGraphic" in2="effect1_dropShadow" result="shape" />
        </filter>
        <linearGradient id="paint0_linear" x1="0.631836" y1="0.0664063" x2="149.921" y2="333.155"
            gradientUnits="userSpaceOnUse">
            <stop stop-color="#FFE985" />
            <stop offset="1" stop-color="#FA742B" />
        </linearGradient>
    </defs>
</svg>