<svg width="57" height="56" viewBox="0 0 57 56" fill="none" xmlns="http://www.w3.org/2000/svg">
<path d="M56.4478 28C56.4478 43.4638 43.9115 56 28.4478 56C12.984 56 0.447754 43.4638 0.447754 28C0.447754 12.5362 12.984 0 28.4478 0C43.9115 0 56.4478 12.5362 56.4478 28Z" fill="#FFCC4D"/>
<path d="M28.448 32.6662C22.8122 32.6662 19.0727 32.0097 14.448 31.1106C13.3918 30.9068 11.3369 31.1106 11.3369 34.2217C11.3369 40.4439 18.4847 48.2217 28.448 48.2217C38.4098 48.2217 45.5591 40.4439 45.5591 34.2217C45.5591 31.1106 43.5042 30.9053 42.448 31.1106C37.8234 32.0097 34.0838 32.6662 28.448 32.6662Z" fill="#664500"/>
<path d="M14.4478 34.2227C14.4478 34.2227 19.1144 35.7782 28.4478 35.7782C37.7811 35.7782 42.4478 34.2227 42.4478 34.2227C42.4478 34.2227 39.3366 40.4449 28.4478 40.4449C17.5589 40.4449 14.4478 34.2227 14.4478 34.2227Z" fill="white"/>
<path d="M24.8416 6.86422L17.7763 8.11022L14.1363 1.49445C13.735 0.764891 12.9105 0.374446 12.0954 0.517557C11.2756 0.662224 10.6378 1.31245 10.5103 2.13378L9.3514 9.59578L2.28607 10.8418C1.45385 10.988 0.811402 11.6584 0.697847 12.4969C0.584291 13.3353 1.02607 14.1504 1.7914 14.5144L8.12251 17.5198L6.95896 25.0051C6.82985 25.8389 7.25296 26.6602 8.00585 27.0413C8.28429 27.1813 8.58296 27.2482 8.88007 27.2482C9.38874 27.2482 9.89118 27.0491 10.2661 26.6696L15.7292 21.1302L22.7572 24.4669C23.5194 24.8278 24.4278 24.6582 25.0065 24.0438C25.5852 23.4293 25.7003 22.5131 25.2943 21.7742L21.6418 15.1351L26.5652 10.1449C27.1594 9.54289 27.2947 8.62511 26.9027 7.87534C26.5076 7.12556 25.6692 6.71956 24.8416 6.86422ZM32.0532 6.86422L39.1185 8.11022L42.7585 1.49445C43.1599 0.764891 43.9843 0.374446 44.7994 0.517557C45.6176 0.662224 46.2554 1.31245 46.383 2.13378L47.5418 9.59578L54.6072 10.8418C55.441 10.988 56.0834 11.6569 56.1954 12.4953C56.3074 13.3338 55.8672 14.1489 55.1018 14.5129L48.7707 17.5182L49.9343 25.0036C50.0634 25.8373 49.6403 26.6587 48.8874 27.0398C48.609 27.1798 48.3103 27.2467 48.0132 27.2467C47.5045 27.2467 47.0021 27.0476 46.6272 26.668L41.1641 21.1287L34.1361 24.4653C33.3738 24.8262 32.4654 24.6567 31.8867 24.0422C31.3081 23.4278 31.193 22.5116 31.599 21.7727L35.2514 15.1351L30.3281 10.1449C29.7338 9.54289 29.5985 8.62511 29.9905 7.87534C30.3872 7.12556 31.2256 6.71956 32.0532 6.86422Z" fill="#E95F28"/>
</svg>
