<svg width="79" height="34" viewBox="0 0 79 34" fill="none" xmlns="http://www.w3.org/2000/svg">
<path fill-rule="evenodd" clip-rule="evenodd" d="M78.0225 17.6861C78.0225 12.1634 75.3544 7.80566 70.2549 7.80566C65.1338 7.80566 62.0354 12.1634 62.0354 17.643C62.0354 24.1364 65.6933 27.4156 70.9434 27.4156C73.5039 27.4156 75.4405 26.8331 76.9036 26.0133V21.6987C75.4405 22.4322 73.7621 22.8852 71.632 22.8852C69.5448 22.8852 67.6944 22.1517 67.4577 19.6061H77.9795C77.9795 19.3257 78.0225 18.2039 78.0225 17.6861ZM67.3931 15.6367C67.3931 13.1989 68.8778 12.185 70.2334 12.185C71.5459 12.185 72.9445 13.1989 72.9445 15.6367H67.3931Z" fill="#32325D"/>
<path fill-rule="evenodd" clip-rule="evenodd" d="M53.7298 7.80566C51.6211 7.80566 50.2656 8.79802 49.5125 9.48836L49.2328 8.15083H44.499V33.305L49.8783 32.1616L49.8998 26.0564C50.6744 26.6173 51.8148 27.4155 53.7083 27.4155C57.5598 27.4155 61.0671 24.309 61.0671 17.4704C61.0456 11.2142 57.4953 7.80566 53.7298 7.80566ZM52.4388 22.6695C51.1693 22.6695 50.4162 22.2164 49.8998 21.6555L49.8783 13.652C50.4377 13.0263 51.2123 12.5949 52.4388 12.5949C54.3968 12.5949 55.7524 14.7953 55.7524 17.6214C55.7524 20.5122 54.4183 22.6695 52.4388 22.6695Z" fill="#32325D"/>
<path fill-rule="evenodd" clip-rule="evenodd" d="M37.0972 6.53353L42.4979 5.36858V0.989258L37.0972 2.13263V6.53353Z" fill="#32325D"/>
<path d="M42.4979 8.17285H37.0972V27.0493H42.4979V8.17285Z" fill="#32325D"/>
<path fill-rule="evenodd" clip-rule="evenodd" d="M31.3093 9.76959L30.965 8.17319H26.3174V27.0496H31.6966V14.2568C32.9661 12.5957 35.1178 12.8977 35.7848 13.135V8.17319C35.0963 7.91431 32.5788 7.4397 31.3093 9.76959Z" fill="#32325D"/>
<path fill-rule="evenodd" clip-rule="evenodd" d="M20.5507 3.49121L15.3006 4.61301L15.2791 21.893C15.2791 25.0858 17.6674 27.4373 20.8519 27.4373C22.6163 27.4373 23.9073 27.1137 24.6174 26.7254V22.346C23.9289 22.6265 20.5292 23.6188 20.5292 20.426V12.7676H24.6174V8.17256H20.5292L20.5507 3.49121Z" fill="#32325D"/>
<path fill-rule="evenodd" clip-rule="evenodd" d="M6.00531 13.652C6.00531 12.8106 6.69385 12.487 7.83425 12.487C9.46954 12.487 11.5352 12.9832 13.1705 13.8677V8.79802C11.3845 8.08611 9.62016 7.80566 7.83425 7.80566C3.46631 7.80566 0.561523 10.0924 0.561523 13.9108C0.561523 19.865 8.73796 18.9158 8.73796 21.483C8.73796 22.4753 7.87729 22.7989 6.67234 22.7989C4.88643 22.7989 2.60563 22.0654 0.79821 21.0731V26.2075C2.79929 27.0704 4.82188 27.4371 6.67234 27.4371C11.1479 27.4371 14.2248 25.2151 14.2248 21.3535C14.2033 14.9248 6.00531 16.0681 6.00531 13.652Z" fill="#32325D"/>
</svg>
