<svg width="76" height="25" viewBox="0 0 76 25" fill="none" xmlns="http://www.w3.org/2000/svg">
<path d="M32.7027 24.5491H26.5935L30.4147 0.962891H36.5236L32.7027 24.5491Z" fill="#00579F"/>
<path d="M54.849 1.53834C53.644 1.0611 51.7328 0.53418 49.3695 0.53418C43.3364 0.53418 39.088 3.74575 39.0619 8.33733C39.0118 11.725 42.1037 13.6066 44.4162 14.7361C46.7797 15.8904 47.5832 16.6437 47.5832 17.6726C47.5591 19.2527 45.6733 19.981 43.9144 19.981C41.4753 19.981 40.1684 19.6055 38.1823 18.7264L37.3778 18.3496L36.5229 23.6441C37.9558 24.2958 40.5957 24.8741 43.3364 24.8994C49.7467 24.8994 53.9199 21.7375 53.9694 16.8445C53.9938 14.1595 52.3611 12.1022 48.8413 10.421C46.7046 9.34182 45.396 8.61413 45.396 7.50992C45.4211 6.5061 46.5028 5.47793 48.9148 5.47793C50.9009 5.42757 52.3601 5.90414 53.4656 6.38104L54.0182 6.63149L54.849 1.53834Z" fill="#00579F"/>
<path d="M62.9688 16.1933C63.472 14.8383 65.4079 9.59411 65.4079 9.59411C65.3825 9.64447 65.91 8.2141 66.2117 7.336L66.6387 9.36833C66.6387 9.36833 67.7956 15.0141 68.0468 16.1933C67.092 16.1933 64.1755 16.1933 62.9688 16.1933ZM70.5099 0.962891H65.7844C64.3272 0.962891 63.2201 1.3891 62.5913 2.91985L53.5168 24.5487H59.9271C59.9271 24.5487 60.9824 21.6377 61.2093 21.0107C61.9125 21.0107 68.1483 21.0107 69.053 21.0107C69.2284 21.8388 69.782 24.5487 69.782 24.5487H75.4385L70.5099 0.962891Z" fill="#00579F"/>
<path d="M21.4909 0.962891L15.5079 17.0464L14.8541 13.7845C13.748 10.0207 10.279 5.93132 6.40771 3.89799L11.8879 24.5241H18.3482L27.9509 0.962891H21.4909Z" fill="#00579F"/>
<path d="M9.95219 0.962891H0.123017L0.0224609 1.43946C7.68983 3.39675 12.7678 8.11472 14.8541 13.7855L12.7173 2.94553C12.3656 1.43912 11.2845 1.01258 9.95219 0.962891Z" fill="#FAA61A"/>
</svg>
