<svg width="232" height="116" viewBox="0 0 232 116" fill="none" xmlns="http://www.w3.org/2000/svg">
    <g filter="url(#filter0_dd)">
    <path d="M16.4796 34.2821C16.4796 25.3213 16.4796 20.8409 18.2235 17.4183C19.7575 14.4077 22.2052 11.96 25.2158 10.426C28.6384 8.68213 33.1188 8.68213 42.0796 8.68213H73.2893C82.2501 8.68213 86.7306 8.68213 90.1531 10.426C93.1637 11.96 95.6114 14.4077 97.1454 17.4183C98.8893 20.8409 98.8893 25.3213 98.8893 34.2821V65.4918C98.8893 74.4526 98.8893 78.9331 97.1454 82.3557C95.6114 85.3662 93.1637 87.8139 90.1531 89.3479C86.7306 91.0918 82.2501 91.0918 73.2893 91.0918H42.0796C33.1188 91.0918 28.6384 91.0918 25.2158 89.3479C22.2052 87.8139 19.7575 85.3662 18.2235 82.3557C16.4796 78.9331 16.4796 74.4526 16.4796 65.4918V34.2821Z" fill="#F335C0"/>
    </g>
    <path d="M159.942 72.9885H158.958V71.0685H159.942V72.9885ZM162.078 79.6125C162.03 79.5885 161.982 79.5405 161.958 79.5165C161.91 79.5885 161.862 79.5885 161.646 79.5885H161.214C161.046 79.5885 161.022 79.5645 161.022 79.2525V75.3645H162.078V79.6125ZM156.51 86.2365V84.6045H162.078V86.2365H156.51ZM157.566 75.3645V77.2365C157.566 78.3165 157.446 79.6365 156.51 80.6685V75.3645H157.566ZM161.862 80.9805H162.078V82.6365H156.51V80.7405C156.822 80.9325 157.302 81.3885 157.518 81.6285C158.622 80.3805 158.886 78.6045 158.886 77.2605V75.3645H159.702V79.2525C159.702 80.6685 160.014 80.9805 161.046 80.9805H161.862ZM153.87 71.0685H157.11V72.9885H154.326V89.9565H156.51V88.4445H162.078V89.6445H164.358V72.9885H161.838V71.0685H164.79V68.5485H153.894L153.87 71.0685ZM169.686 87.1005C168.75 87.1005 168.606 86.9805 168.606 85.9725V78.7485H172.47V80.2365H175.23V68.7645H165.678V71.5245H172.47V76.0365H165.774V85.9965C165.774 88.9485 166.614 89.7645 169.278 89.7645H172.614C175.086 89.7645 175.854 88.5405 176.142 84.4845C175.398 84.3165 174.198 83.8125 173.574 83.3565C173.43 86.5245 173.286 87.1005 172.374 87.1005H169.686ZM200.436 79.3005V76.7325H193.932V74.4285H199.644V71.9085H196.644C197.34 70.9965 198.156 69.7965 198.924 68.5725L195.996 67.6845C195.54 68.8365 194.7 70.4205 194.004 71.4765L195.228 71.9085H189.876L191.148 71.3565C190.836 70.3005 189.948 68.8125 189.06 67.7085L186.636 68.7165C187.356 69.7005 188.028 70.9485 188.412 71.9085H186.012V74.4285H191.076V76.7325H185.196V79.3005H190.764C190.236 81.0285 188.844 82.8285 185.196 84.1725C185.844 84.6525 186.732 85.6365 187.092 86.2365C190.212 84.8685 191.964 83.1405 192.924 81.3405C194.148 83.6925 195.996 85.3485 198.708 86.2845C199.092 85.5405 199.908 84.4365 200.508 83.8845C197.652 83.1405 195.732 81.5565 194.676 79.3005H200.436ZM184.836 71.8605C184.02 70.7325 182.268 69.2445 180.828 68.2365L178.716 69.9645C180.132 71.0205 181.836 72.6045 182.58 73.7565L184.836 71.8605ZM184.236 76.9965H178.692V79.6125H181.452V84.6765C180.396 85.4925 179.196 86.2845 178.164 86.8845L179.556 89.8605C180.876 88.8525 181.932 87.9165 182.988 86.9805C184.548 88.8525 186.516 89.5245 189.468 89.6445C192.324 89.7645 197.148 89.7165 200.028 89.5725C200.172 88.7565 200.604 87.3645 200.916 86.6925C197.724 86.9325 192.324 87.0045 189.516 86.8845C187.02 86.7885 185.22 86.1405 184.236 84.5325V76.9965Z" fill="#404040"/>
    <path d="M125.373 32.067C125.373 39.1496 126.802 44.7603 129.661 48.899C132.52 53.0376 137.085 55.107 143.357 55.107C149.586 55.107 154.13 53.0376 156.989 48.899C159.89 44.7603 161.341 39.1496 161.341 32.067C161.341 25.027 159.89 19.459 156.989 15.363C154.13 11.2243 149.586 9.15496 143.357 9.15496C137.085 9.15496 132.52 11.2243 129.661 15.363C126.802 19.459 125.373 25.027 125.373 32.067ZM150.461 32.067C150.461 36.1203 149.97 39.2563 148.989 41.475C148.05 43.651 146.173 44.739 143.357 44.739C140.498 44.739 138.578 43.651 137.597 41.475C136.616 39.2563 136.125 36.1203 136.125 32.067C136.125 28.0563 136.616 24.963 137.597 22.787C138.578 20.611 140.498 19.523 143.357 19.523C146.173 19.523 148.05 20.611 148.989 22.787C149.97 24.9203 150.461 28.0136 150.461 32.067ZM184.201 7.93896C187.358 7.93896 190.067 8.49362 192.329 9.60296C194.59 10.6696 196.297 12.163 197.449 14.083C198.643 15.9603 199.241 18.0936 199.241 20.483C199.241 23.427 198.473 25.795 196.937 27.587C195.443 29.379 193.566 30.5096 191.305 30.979V31.299C197.15 33.1763 200.073 36.8243 200.073 42.243C200.073 44.8456 199.475 47.171 198.281 49.219C197.086 51.2243 195.337 52.803 193.033 53.955C190.771 55.0643 188.041 55.619 184.841 55.619C179.635 55.619 175.497 54.339 172.425 51.779C169.395 49.219 167.753 45.315 167.497 40.067H178.185C178.27 42.0723 178.825 43.651 179.849 44.803C180.873 45.955 182.366 46.531 184.329 46.531C185.907 46.531 187.145 46.0616 188.041 45.123C188.979 44.1843 189.449 42.9683 189.449 41.475C189.449 37.763 186.761 35.907 181.385 35.907H179.337V27.011H181.321C186.142 27.0963 188.553 25.3683 188.553 21.827C188.553 20.291 188.126 19.1176 187.273 18.307C186.462 17.4536 185.353 17.027 183.945 17.027C182.409 17.027 181.193 17.5603 180.297 18.627C179.401 19.651 178.889 21.0376 178.761 22.787H168.073C168.286 18.0083 169.779 14.339 172.553 11.779C175.326 9.21896 179.209 7.93896 184.201 7.93896Z" fill="#141414"/>
    <path d="M38.6844 37.3876V36.2876H36.6844V37.3876C35.5559 37.6197 34.5418 38.2338 33.8132 39.1263C33.0845 40.0189 32.6859 41.1354 32.6844 42.2876V44.2876H42.6844V42.2876C42.683 41.1354 42.2844 40.0189 41.5557 39.1263C40.8271 38.2338 39.813 37.6197 38.6844 37.3876ZM34.6844 42.2876C34.6844 41.4919 35.0005 40.7289 35.5631 40.1663C36.1257 39.6037 36.8888 39.2876 37.6844 39.2876C38.4801 39.2876 39.2432 39.6037 39.8058 40.1663C40.3684 40.7289 40.6844 41.4919 40.6844 42.2876H34.6844Z" fill="#FCFFFF"/>
    <path d="M77.6844 55.2876C77.5094 55.2876 77.3394 55.3046 77.1664 55.3136L72.8584 50.2876H74.6844C74.9497 50.2876 75.204 50.1822 75.3916 49.9947C75.5791 49.8072 75.6844 49.5528 75.6844 49.2876V43.2876C75.6844 43.0224 75.5791 42.768 75.3916 42.5805C75.204 42.393 74.9497 42.2876 74.6844 42.2876C73.9013 42.2864 73.1353 42.5168 72.4828 42.9499C71.8303 43.383 71.3204 43.9994 71.0174 44.7216L70.4524 45.0626C70.3724 44.8506 70.3004 44.6346 70.2164 44.4246L69.6164 42.9156L68.7624 43.2576L64.2844 41.7666L67.5094 37.2526C67.5665 37.27 67.6251 37.2817 67.6844 37.2876H71.6844C72.7453 37.2876 73.7627 36.8662 74.5129 36.116C75.263 35.3659 75.6844 34.3485 75.6844 33.2876V31.2876H77.6844V29.2876H75.6844V26.2876C75.6844 26.0224 75.5791 25.768 75.3916 25.5805C75.204 25.393 74.9497 25.2876 74.6844 25.2876H67.6844C67.4192 25.2876 67.1649 25.393 66.9773 25.5805C66.7898 25.768 66.6844 26.0224 66.6844 26.2876V34.2876H60.6844C60.4537 34.2876 60.2301 34.3675 60.0514 34.5136L49.0514 43.5136C48.9368 43.6074 48.8443 43.7255 48.7809 43.8593C48.7174 43.9932 48.6845 44.1395 48.6844 44.2876V50.8876C48.0104 51.0309 47.3438 51.1999 46.6844 51.3946V31.2876C46.6844 31.0224 46.5791 30.768 46.3916 30.5805C46.204 30.393 45.9497 30.2876 45.6844 30.2876H29.6844C29.4192 30.2876 29.1649 30.393 28.9773 30.5805C28.7898 30.768 28.6844 31.0224 28.6844 31.2876V49.2876H27.6844V51.2876H44.6844V52.0776C42.1322 53.0513 39.7468 54.4156 37.6134 56.1216C36.6513 56.7601 35.7938 57.5437 35.0714 58.4446C33.5186 60.3866 32.6763 62.8011 32.6844 65.2876C32.6844 65.5528 32.7898 65.8072 32.9773 65.9947C33.1649 66.1822 33.4192 66.2876 33.6844 66.2876H37.7744C38.0095 67.6851 38.7321 68.9541 39.8141 69.8693C40.8961 70.7845 42.2673 71.2866 43.6844 71.2866C45.1016 71.2866 46.4728 70.7845 47.5548 69.8693C48.6368 68.9541 49.3594 67.6851 49.5944 66.2876H71.7744C72.0095 67.6851 72.7321 68.9541 73.8141 69.8693C74.8961 70.7845 76.2673 71.2866 77.6844 71.2866C79.1016 71.2866 80.4728 70.7845 81.5548 69.8693C82.6368 68.9541 83.3594 67.6851 83.5944 66.2876H86.6844C86.9497 66.2876 87.204 66.1822 87.3916 65.9947C87.5791 65.8072 87.6844 65.5528 87.6844 65.2876C87.6815 62.6363 86.627 60.0945 84.7523 58.2197C82.8776 56.345 80.3357 55.2905 77.6844 55.2876ZM30.6844 49.2876V32.2876H44.6844V49.2876H30.6844ZM68.1454 62.2876H63.1274L68.4334 48.1396L69.4114 48.2046C69.8057 49.5062 70.1265 50.829 70.3724 52.1666L70.4104 52.3766C70.7772 54.3942 70.768 56.4623 70.3834 58.4766C69.3628 59.5643 68.5982 60.8664 68.1454 62.2876ZM72.5024 52.9446L74.8634 55.6996C74.0778 55.9326 73.324 56.2621 72.6194 56.6806C72.7054 55.4345 72.6662 54.1829 72.5024 52.9446ZM72.3504 46.2536C72.5604 46.1277 72.7164 45.9286 72.7884 45.6946C72.9368 45.2172 73.2577 44.8122 73.6884 44.5586V48.2876H71.5215C71.3994 47.8526 71.2634 47.4216 71.1214 46.9876L72.3504 46.2536ZM73.6844 33.2876C73.6844 33.818 73.4737 34.3267 73.0987 34.7018C72.7236 35.0769 72.2149 35.2876 71.6844 35.2876H68.6844V31.2876H73.6844V33.2876ZM73.6844 27.2876V29.2876H68.6844V27.2876H73.6844ZM61.0414 36.2876H65.7414L61.8704 41.7066C61.7795 41.8341 61.7198 41.9812 61.6961 42.136C61.6724 42.2908 61.6854 42.449 61.7341 42.5979C61.7827 42.7467 61.8657 42.8821 61.9762 42.993C62.0867 43.104 62.2218 43.1874 62.3704 43.2366L68.3704 45.2366L68.3784 45.2126C68.5014 45.5236 68.6124 45.8406 68.7274 46.1546L57.5424 45.4096L61.5005 39.8686L59.8724 38.7066L55.1694 45.2876H50.6844V44.7616L61.0414 36.2876ZM50.6844 50.2876V47.2876H55.6544L66.3484 48.0006L61.0164 62.2196C60.6265 62.1711 60.2438 62.0761 59.8764 61.9366L63.6244 51.6296C63.6794 51.4785 63.6972 51.3164 63.6762 51.157C63.6552 50.9976 63.5961 50.8456 63.5038 50.7139C63.4116 50.5822 63.2889 50.4747 63.1463 50.4005C63.0037 50.3263 62.8452 50.2875 62.6844 50.2876H50.6844ZM61.2404 52.3326L58.1524 60.8236C57.479 60.1538 57.0113 59.3053 56.8044 58.3783C56.5974 57.4513 56.66 56.4845 56.9846 55.5919C57.3092 54.6992 57.8824 53.9181 58.6365 53.3406C59.3905 52.7631 60.2941 52.4133 61.2404 52.3326ZM43.6844 69.2876C42.8002 69.2843 41.942 68.9881 41.244 68.4453C40.546 67.9025 40.0475 67.1437 39.8264 66.2876H47.5424C47.3214 67.1437 46.8229 67.9025 46.1249 68.4453C45.4269 68.9881 44.5687 69.2843 43.6844 69.2876ZM39.8264 64.2876C40.0447 63.43 40.5425 62.6696 41.2412 62.1265C41.9398 61.5834 42.7995 61.2885 43.6844 61.2885C44.5694 61.2885 45.4291 61.5834 46.1277 62.1265C46.8264 62.6696 47.3242 63.43 47.5424 64.2876H39.8264ZM49.5944 64.2876C49.3594 62.8901 48.6368 61.6211 47.5548 60.7059C46.4728 59.7907 45.1016 59.2886 43.6844 59.2886C42.2673 59.2886 40.8961 59.7907 39.8141 60.7059C38.7321 61.6211 38.0095 62.8901 37.7744 64.2876H34.7384C34.9205 62.6181 35.5716 61.0344 36.6164 59.7196C37.2878 59.0225 38.0025 58.3685 38.7564 57.7616C40.2181 56.7956 41.9325 56.2828 43.6844 56.2876C45.8976 56.2903 48.0323 57.1071 49.6819 58.5825C51.3316 60.0578 52.3807 62.0885 52.6294 64.2876H49.5944ZM54.6354 64.2876C54.6354 64.2546 54.6354 64.2206 54.6284 64.1876C54.6164 64.0656 54.5924 63.9476 54.5754 63.8266C54.5444 63.5886 54.5145 63.3506 54.4674 63.1176C54.4394 62.9766 54.3984 62.8406 54.3674 62.7016C54.3174 62.4946 54.2674 62.2866 54.2084 62.0846C54.1644 61.9396 54.1084 61.7996 54.0594 61.6576C53.9924 61.4676 53.9284 61.2766 53.8514 61.0916C53.7924 60.9486 53.7234 60.8116 53.6584 60.6716C53.5764 60.4946 53.4964 60.3176 53.4044 60.1456C53.3314 60.0076 53.2494 59.8746 53.1704 59.7396C53.0704 59.5756 52.9784 59.4106 52.8704 59.2526C52.7834 59.1206 52.6894 58.9936 52.5964 58.8656C52.4864 58.7136 52.3764 58.5656 52.2594 58.4146C52.1594 58.2906 52.0594 58.1726 51.9504 58.0536C51.8274 57.9126 51.7034 57.7736 51.5744 57.6396C51.4634 57.5256 51.3474 57.4156 51.2314 57.3066C51.0964 57.1786 50.9604 57.0526 50.8194 56.9316C50.6974 56.8316 50.5724 56.7316 50.4464 56.6316C50.3004 56.5176 50.1534 56.4056 50.0024 56.2996C49.8704 56.2066 49.7354 56.1176 49.6024 56.0306C49.4464 55.9306 49.2894 55.8306 49.1284 55.7426C48.9874 55.6616 48.8444 55.5846 48.6994 55.5096C48.5344 55.4246 48.3684 55.3446 48.1994 55.2676C48.0501 55.2009 47.8998 55.1369 47.7484 55.0756C47.5744 55.0056 47.3984 54.9426 47.2204 54.8816C47.0644 54.8286 46.9084 54.7816 46.7494 54.7316C46.5674 54.6786 46.3834 54.6316 46.1984 54.5896C46.0364 54.5516 45.8744 54.5146 45.7104 54.4836C45.5214 54.4486 45.3304 54.4216 45.1384 54.3966C44.9714 54.3746 44.8044 54.3526 44.6384 54.3376C44.5754 54.3326 44.5144 54.3196 44.4504 54.3156C47.5225 52.9817 50.8353 52.2915 54.1844 52.2876H56.7944C55.7988 53.2591 55.1154 54.5054 54.8317 55.8673C54.548 57.2291 54.6769 58.6447 55.2018 59.9329C55.7268 61.2212 56.624 62.3236 57.7787 63.0993C58.9335 63.875 60.2933 64.2887 61.6844 64.2876H54.6354ZM77.6844 69.2876C76.8002 69.2843 75.942 68.9881 75.244 68.4453C74.546 67.9025 74.0475 67.1437 73.8264 66.2876H81.5424C81.3214 67.1437 80.8229 67.9025 80.1249 68.4453C79.4269 68.9881 78.5687 69.2843 77.6844 69.2876ZM73.8264 64.2876C74.0447 63.43 74.5425 62.6696 75.2412 62.1265C75.9398 61.5834 76.7995 61.2885 77.6844 61.2885C78.5694 61.2885 79.4291 61.5834 80.1277 62.1265C80.8264 62.6696 81.3242 63.43 81.5424 64.2876H73.8264ZM83.5944 64.2876C83.3594 62.8901 82.6368 61.6211 81.5548 60.7059C80.4728 59.7907 79.1016 59.2886 77.6844 59.2886C76.2673 59.2886 74.8961 59.7907 73.8141 60.7059C72.7321 61.6211 72.0095 62.8901 71.7744 64.2876H69.7534C70.0018 62.3587 70.9443 60.5864 72.4046 59.302C73.865 58.0176 75.7432 57.3092 77.688 57.3092C79.6327 57.3092 81.5109 58.0176 82.9713 59.302C84.4316 60.5864 85.3741 62.3587 85.6224 64.2876H83.5944Z" fill="#FCFFFF"/>
    <defs>
    <filter id="filter0_dd" x="0.479614" y="0.682129" width="114.41" height="114.41" filterUnits="userSpaceOnUse" color-interpolation-filters="sRGB">
    <feFlood flood-opacity="0" result="BackgroundImageFix"/>
    <feColorMatrix in="SourceAlpha" type="matrix" values="0 0 0 0 0 0 0 0 0 0 0 0 0 0 0 0 0 0 127 0"/>
    <feOffset dy="8"/>
    <feGaussianBlur stdDeviation="8"/>
    <feColorMatrix type="matrix" values="0 0 0 0 0.0666667 0 0 0 0 0.0666667 0 0 0 0 0.0666667 0 0 0 0.04 0"/>
    <feBlend mode="normal" in2="BackgroundImageFix" result="effect1_dropShadow"/>
    <feColorMatrix in="SourceAlpha" type="matrix" values="0 0 0 0 0 0 0 0 0 0 0 0 0 0 0 0 0 0 127 0"/>
    <feOffset/>
    <feGaussianBlur stdDeviation="0.5"/>
    <feColorMatrix type="matrix" values="0 0 0 0 0 0 0 0 0 0 0 0 0 0 0 0 0 0 0.2 0"/>
    <feBlend mode="normal" in2="effect1_dropShadow" result="effect2_dropShadow"/>
    <feBlend mode="normal" in="SourceGraphic" in2="effect2_dropShadow" result="shape"/>
    </filter>
    </defs>
    </svg>
