<svg width="225" height="116" viewBox="0 0 225 116" fill="none" xmlns="http://www.w3.org/2000/svg">
    <g filter="url(#filter0_dd)">
    <path d="M16.4796 34.2821C16.4796 25.3213 16.4796 20.8409 18.2235 17.4183C19.7575 14.4077 22.2052 11.96 25.2158 10.426C28.6384 8.68213 33.1188 8.68213 42.0796 8.68213H73.2893C82.2501 8.68213 86.7306 8.68213 90.1531 10.426C93.1637 11.96 95.6114 14.4077 97.1454 17.4183C98.8893 20.8409 98.8893 25.3213 98.8893 34.2821V65.4918C98.8893 74.4526 98.8893 78.9331 97.1454 82.3557C95.6114 85.3662 93.1637 87.8139 90.1531 89.3479C86.7306 91.0918 82.2501 91.0918 73.2893 91.0918H42.0796C33.1188 91.0918 28.6384 91.0918 25.2158 89.3479C22.2052 87.8139 19.7575 85.3662 18.2235 82.3557C16.4796 78.9331 16.4796 74.4526 16.4796 65.4918V34.2821Z" fill="#288DFA"/>
    </g>
    <path d="M156.858 70.5325C155.994 69.9085 154.362 69.1165 153.114 68.6845L151.65 70.6285C152.874 71.1325 154.53 72.0205 155.298 72.6925L156.858 70.5325ZM160.698 79.5565H163.506V80.6605H160.698V79.5565ZM163.506 74.5165H160.698V73.4125H163.506V74.5165ZM163.506 77.5885H160.698V76.4845H163.506V77.5885ZM172.098 84.4045H162.498V82.9165H171.714V80.6605H166.218V79.5565H170.322V77.5885H166.218V76.4845H170.298V74.5165H166.218V73.4125H171.138V71.1805H166.698C167.106 70.5805 167.514 69.9085 167.922 69.2125L164.802 68.7085C164.562 69.4525 164.178 70.3405 163.77 71.1805H161.442C161.802 70.6045 162.114 70.0045 162.402 69.4045L159.642 68.5885C158.634 70.7965 156.906 72.9805 155.034 74.4445L155.106 74.3485C154.242 73.7485 152.562 73.0285 151.362 72.5965L149.898 74.5165C151.146 75.0205 152.802 75.8605 153.594 76.4605L154.842 74.7325C155.466 75.2365 156.474 76.1485 156.954 76.6525C157.266 76.3885 157.602 76.0765 157.914 75.7645V82.9165H159.594V84.4045H150.306V86.9725H159.594V91.1005H162.498V86.9725H172.098V84.4045ZM155.37 76.4365C153.738 78.2845 151.842 80.2045 150.522 81.3085L152.514 83.4445C154.026 81.8125 155.538 80.0365 156.906 78.3325L155.37 76.4365ZM181.512 70.5805V73.0285H184.896V74.6365H187.536V73.0285H191.088V74.6365H193.776V73.0285H196.992V70.5805H193.776V68.8285H191.088V70.5805H187.536V68.8285H184.896V70.5805H181.512ZM191.856 85.5325V84.2125H194.136V85.5325H191.856ZM187.44 85.5325V84.2125H189.6V85.5325H187.44ZM189.6 80.9965V82.3645H187.44V80.9965H189.6ZM194.136 80.9965V82.3645H191.856V80.9965H194.136ZM196.56 78.9325H185.064V91.0525H187.44V87.4045H189.6V91.0045H191.856V87.4045H194.136V88.6525C194.136 88.8925 194.088 88.9405 193.872 88.9405C193.632 88.9645 193.032 88.9645 192.36 88.9405C192.648 89.5645 192.936 90.4525 192.984 91.1005C194.232 91.1245 195.096 91.0765 195.744 90.7165C196.416 90.3325 196.56 89.7565 196.56 88.6765V78.9325ZM197.112 75.2845H181.632V80.5165C181.632 83.1565 181.488 86.7805 179.808 89.3485V74.1565C180.504 72.6205 181.128 71.0365 181.632 69.5005L178.992 68.7085C177.936 72.2365 176.16 75.7405 174.24 77.9725C174.696 78.7165 175.392 80.3725 175.608 81.0445C176.112 80.4685 176.616 79.7965 177.096 79.0765V91.0765H179.808V89.4445C180.36 89.7805 181.416 90.6925 181.824 91.1725C183.864 88.2685 184.224 83.6845 184.224 80.5645V77.7325H197.112V75.2845Z" fill="#404040"/>
    <path d="M130.224 31.9999C130.224 45.8239 134.896 55.8079 148.208 55.8079C161.52 55.8079 166.192 45.8239 166.192 31.9999C166.192 18.3039 161.52 8.31993 148.208 8.31993C134.896 8.31993 130.224 18.3039 130.224 31.9999ZM155.44 31.9999C155.44 39.4239 154.672 45.5679 148.208 45.5679C141.744 45.5679 140.976 39.4239 140.976 31.9999C140.976 24.8319 141.744 18.5599 148.208 18.5599C154.672 18.5599 155.44 24.8319 155.44 31.9999ZM172.59 55.3599H204.718V46.4639H187.438C194.862 40.7679 204.014 32.5759 204.014 22.3359C204.014 14.4639 199.278 8.25594 188.654 8.25594C180.142 8.25594 172.782 13.1199 172.462 24.4479H183.022C183.022 20.0319 184.942 17.4719 188.206 17.4719C191.534 17.4719 193.07 19.6479 193.07 23.0399C193.07 30.9119 182.51 39.0399 172.59 47.2319V55.3599Z" fill="#141414"/>
    <path d="M78.6821 43.9651L76.9323 44.6184C77.3632 45.7764 77.6881 46.9712 77.9029 48.188L79.7404 47.8632C79.5063 46.5345 79.152 45.2298 78.6821 43.9651Z" fill="#FCFFFF"/>
    <path d="M68.397 32.0917L67.503 33.7296C70.8622 35.5657 73.6443 38.3003 75.5381 41.6275L77.16 40.7036C75.0944 37.0757 72.0603 34.0939 68.397 32.0917Z" fill="#FCFFFF"/>
    <path d="M41.6086 36.1718L42.9488 37.4783C43.9027 36.4944 44.9518 35.6076 46.0807 34.8307L45.0243 33.2928C43.7934 34.1373 42.6493 35.1017 41.6086 36.1718Z" fill="#FCFFFF"/>
    <path d="M35.6258 47.8624L37.4633 48.1853C37.8491 45.9972 38.5902 43.887 39.6573 41.9382L38.0186 41.0442C36.8544 43.1712 36.0461 45.4743 35.6258 47.8624Z" fill="#FCFFFF"/>
    <path d="M32.4873 56.4228H46.4857V76.9539C46.4857 77.2014 46.5841 77.4387 46.7591 77.6138C46.9341 77.7888 47.1715 77.8871 47.419 77.8871H56.7512C56.947 77.8869 57.1378 77.8252 57.2966 77.7107C57.4554 77.5961 57.5741 77.4345 57.6359 77.2488L60.3563 69.0905L74.8325 56.4228H82.8816C83.5432 56.4246 84.1838 56.1914 84.6894 55.7648C85.1951 55.3383 85.5328 54.746 85.6425 54.0937C85.7522 53.4413 85.6267 52.7712 85.2884 52.2027C84.9501 51.6342 84.421 51.2043 83.7953 50.9896C83.6023 44.6458 81.1099 38.5884 76.7822 33.9459C72.4546 29.3034 66.587 26.3924 60.2723 25.7551C60.4479 25.3298 60.5159 24.8677 60.4704 24.4099C60.4249 23.952 60.2673 23.5124 60.0114 23.13C59.7555 22.7475 59.4094 22.4341 59.0035 22.2173C58.5976 22.0005 58.1446 21.8871 57.6845 21.8871C57.2243 21.8871 56.7713 22.0005 56.3654 22.2173C55.9596 22.4341 55.6134 22.7475 55.3575 23.13C55.1017 23.5124 54.944 23.952 54.8985 24.4099C54.853 24.8677 54.921 25.3298 55.0966 25.7551C48.782 26.3924 42.9143 29.3034 38.5867 33.9459C34.2591 38.5884 31.7666 44.6458 31.5737 50.9896C30.948 51.2043 30.4188 51.6342 30.0805 52.2027C29.7422 52.7712 29.6167 53.4413 29.7264 54.0937C29.8361 54.746 30.1739 55.3383 30.6795 55.7648C31.1851 56.1914 31.8258 56.4246 32.4873 56.4228ZM58.9369 67.853C58.8114 67.9616 58.7178 68.1022 58.6662 68.2599L56.0784 76.0206H48.3522V56.4228C48.8472 56.4228 49.3219 56.6195 49.672 56.9695C50.022 57.3195 50.2186 57.7943 50.2186 58.2893V64.8219C50.2186 64.9557 50.2474 65.0879 50.3029 65.2095C50.3585 65.3312 50.4395 65.4395 50.5406 65.5272C50.6416 65.6148 50.7604 65.6796 50.8887 65.7174C51.017 65.7551 51.152 65.7648 51.2844 65.7458L57.817 64.8126C57.9595 64.7898 58.0948 64.7338 58.2117 64.6492V64.6558L70.1085 56.4228H71.9993L58.9369 67.853ZM57.1395 63.0236L57.0872 63.031L59.2896 56.4228H61.5406L57.1395 63.0236ZM63.7831 56.4228H66.8301L61.1738 60.3424L63.7831 56.4228ZM55.022 63.3287L52.0851 63.7459V58.2893C52.0812 57.6321 51.9021 56.9878 51.5662 56.4228H57.3233L55.022 63.3287ZM56.7512 24.6931C56.7512 24.5085 56.806 24.3281 56.9085 24.1746C57.0111 24.0211 57.1568 23.9015 57.3273 23.8309C57.4979 23.7603 57.6855 23.7418 57.8665 23.7778C58.0476 23.8138 58.2138 23.9027 58.3444 24.0332C58.4749 24.1637 58.5638 24.33 58.5998 24.511C58.6358 24.692 58.6173 24.8797 58.5467 25.0502C58.476 25.2207 58.3564 25.3665 58.2029 25.469C58.0495 25.5716 57.869 25.6263 57.6845 25.6263C57.437 25.6263 57.1996 25.528 57.0246 25.353C56.8496 25.178 56.7512 24.9406 56.7512 24.6931ZM57.6845 27.4928C63.9558 27.5003 69.9813 29.9328 74.5004 34.2812C79.0194 38.6296 81.6818 44.557 81.9307 50.8235H33.4383C33.6871 44.557 36.3496 38.6296 40.8686 34.2812C45.3876 29.9328 51.4131 27.5003 57.6845 27.4928ZM32.4873 52.6899H82.8816C83.1291 52.6899 83.3665 52.7882 83.5415 52.9633C83.7165 53.1383 83.8149 53.3756 83.8149 53.6232C83.8149 53.8707 83.7165 54.108 83.5415 54.283C83.3665 54.4581 83.1291 54.5564 82.8816 54.5564H32.4873C32.2398 54.5564 32.0024 54.4581 31.8274 54.283C31.6524 54.108 31.5541 53.8707 31.5541 53.6232C31.5541 53.3756 31.6524 53.1383 31.8274 52.9633C32.0024 52.7882 32.2398 52.6899 32.4873 52.6899Z" fill="#FCFFFF"/>
    <defs>
    <filter id="filter0_dd" x="0.479614" y="0.682129" width="114.41" height="114.41" filterUnits="userSpaceOnUse" color-interpolation-filters="sRGB">
    <feFlood flood-opacity="0" result="BackgroundImageFix"/>
    <feColorMatrix in="SourceAlpha" type="matrix" values="0 0 0 0 0 0 0 0 0 0 0 0 0 0 0 0 0 0 127 0"/>
    <feOffset dy="8"/>
    <feGaussianBlur stdDeviation="8"/>
    <feColorMatrix type="matrix" values="0 0 0 0 0.0666667 0 0 0 0 0.0666667 0 0 0 0 0.0666667 0 0 0 0.04 0"/>
    <feBlend mode="normal" in2="BackgroundImageFix" result="effect1_dropShadow"/>
    <feColorMatrix in="SourceAlpha" type="matrix" values="0 0 0 0 0 0 0 0 0 0 0 0 0 0 0 0 0 0 127 0"/>
    <feOffset/>
    <feGaussianBlur stdDeviation="0.5"/>
    <feColorMatrix type="matrix" values="0 0 0 0 0 0 0 0 0 0 0 0 0 0 0 0 0 0 0.2 0"/>
    <feBlend mode="normal" in2="effect1_dropShadow" result="effect2_dropShadow"/>
    <feBlend mode="normal" in="SourceGraphic" in2="effect2_dropShadow" result="shape"/>
    </filter>
    </defs>
    </svg>
