<svg width="232" height="116" viewBox="0 0 232 116" fill="none" xmlns="http://www.w3.org/2000/svg">
    <g filter="url(#filter0_dd)">
    <path d="M16.4796 34.2821C16.4796 25.3213 16.4796 20.8409 18.2235 17.4183C19.7575 14.4077 22.2052 11.96 25.2158 10.426C28.6384 8.68213 33.1188 8.68213 42.0796 8.68213H73.2893C82.2501 8.68213 86.7306 8.68213 90.1531 10.426C93.1637 11.96 95.6114 14.4077 97.1454 17.4183C98.8893 20.8409 98.8893 25.3213 98.8893 34.2821V65.4918C98.8893 74.4526 98.8893 78.9331 97.1454 82.3557C95.6114 85.3662 93.1637 87.8139 90.1531 89.3479C86.7306 91.0918 82.2501 91.0918 73.2893 91.0918H42.0796C33.1188 91.0918 28.6384 91.0918 25.2158 89.3479C22.2052 87.8139 19.7575 85.3662 18.2235 82.3557C16.4796 78.9331 16.4796 74.4526 16.4796 65.4918V34.2821Z" fill="#F335C0"/>
    </g>
    <path d="M141.352 79.5165C141.352 81.1965 141 82.6765 140.296 83.9565C139.592 85.2365 138.568 86.2365 137.224 86.9565C135.896 87.6605 134.312 88.0125 132.472 88.0125H126.448V71.0685H132.472C134.312 71.0685 135.896 71.4205 137.224 72.1245C138.568 72.8125 139.592 73.7965 140.296 75.0765C141 76.3405 141.352 77.8205 141.352 79.5165ZM132.184 84.9885C134.008 84.9885 135.416 84.5085 136.408 83.5485C137.416 82.5885 137.92 81.2445 137.92 79.5165C137.92 77.7725 137.416 76.4205 136.408 75.4605C135.416 74.5005 134.008 74.0205 132.184 74.0205H129.832V84.9885H132.184ZM157.139 80.8605C157.139 81.1965 157.099 81.5805 157.019 82.0125H147.275C147.323 83.1965 147.643 84.0685 148.235 84.6285C148.827 85.1885 149.563 85.4685 150.443 85.4685C151.227 85.4685 151.875 85.2765 152.387 84.8925C152.915 84.5085 153.251 83.9885 153.395 83.3325H156.971C156.795 84.2605 156.419 85.0925 155.843 85.8285C155.267 86.5645 154.523 87.1405 153.611 87.5565C152.715 87.9725 151.715 88.1805 150.611 88.1805C149.315 88.1805 148.163 87.9085 147.155 87.3645C146.147 86.8045 145.363 86.0125 144.803 84.9885C144.243 83.9645 143.963 82.7565 143.963 81.3645C143.963 79.9725 144.243 78.7645 144.803 77.7405C145.363 76.7005 146.147 75.9085 147.155 75.3645C148.163 74.8205 149.315 74.5485 150.611 74.5485C151.923 74.5485 153.067 74.8205 154.043 75.3645C155.035 75.9085 155.795 76.6605 156.323 77.6205C156.867 78.5645 157.139 79.6445 157.139 80.8605ZM153.731 80.5245C153.779 79.4365 153.491 78.6125 152.867 78.0525C152.259 77.4925 151.507 77.2125 150.611 77.2125C149.699 77.2125 148.931 77.4925 148.307 78.0525C147.683 78.6125 147.339 79.4365 147.275 80.5245H153.731ZM163.676 70.2525V88.0125H160.292V70.2525H163.676ZM167.103 70.9005C167.103 70.3565 167.295 69.9165 167.679 69.5805C168.063 69.2285 168.567 69.0525 169.191 69.0525C169.815 69.0525 170.319 69.2285 170.703 69.5805C171.087 69.9165 171.279 70.3565 171.279 70.9005C171.279 71.4285 171.087 71.8685 170.703 72.2205C170.319 72.5565 169.815 72.7245 169.191 72.7245C168.567 72.7245 168.063 72.5565 167.679 72.2205C167.295 71.8685 167.103 71.4285 167.103 70.9005ZM170.871 74.7165V88.0125H167.487V74.7165H170.871ZM180.466 84.6285L183.826 74.7165H187.426L182.506 88.0125H178.378L173.458 74.7165H177.082L180.466 84.6285ZM202.561 80.8605C202.561 81.1965 202.521 81.5805 202.441 82.0125H192.697C192.745 83.1965 193.065 84.0685 193.657 84.6285C194.249 85.1885 194.985 85.4685 195.865 85.4685C196.649 85.4685 197.297 85.2765 197.809 84.8925C198.337 84.5085 198.673 83.9885 198.817 83.3325H202.393C202.217 84.2605 201.841 85.0925 201.265 85.8285C200.689 86.5645 199.945 87.1405 199.033 87.5565C198.137 87.9725 197.137 88.1805 196.033 88.1805C194.737 88.1805 193.585 87.9085 192.577 87.3645C191.569 86.8045 190.785 86.0125 190.225 84.9885C189.665 83.9645 189.385 82.7565 189.385 81.3645C189.385 79.9725 189.665 78.7645 190.225 77.7405C190.785 76.7005 191.569 75.9085 192.577 75.3645C193.585 74.8205 194.737 74.5485 196.033 74.5485C197.345 74.5485 198.489 74.8205 199.465 75.3645C200.457 75.9085 201.217 76.6605 201.745 77.6205C202.289 78.5645 202.561 79.6445 202.561 80.8605ZM199.153 80.5245C199.201 79.4365 198.913 78.6125 198.289 78.0525C197.681 77.4925 196.929 77.2125 196.033 77.2125C195.121 77.2125 194.353 77.4925 193.729 78.0525C193.105 78.6125 192.761 79.4365 192.697 80.5245H199.153ZM209.098 77.2605C209.594 76.4125 210.25 75.7485 211.066 75.2685C211.882 74.7725 212.794 74.5245 213.802 74.5245V78.1485H212.818C210.338 78.1485 209.098 79.3005 209.098 81.6045V88.0125H205.714V74.7165H209.098V77.2605ZM218.705 74.7165L222.329 83.7405L225.689 74.7165H229.409L221.273 94.3485H217.529L220.529 87.6285L214.937 74.7165H218.705Z" fill="#404040"/>
    <path d="M125.373 32.067C125.373 39.1496 126.802 44.7603 129.661 48.899C132.52 53.0376 137.085 55.107 143.357 55.107C149.586 55.107 154.13 53.0376 156.989 48.899C159.89 44.7603 161.341 39.1496 161.341 32.067C161.341 25.027 159.89 19.459 156.989 15.363C154.13 11.2243 149.586 9.15496 143.357 9.15496C137.085 9.15496 132.52 11.2243 129.661 15.363C126.802 19.459 125.373 25.027 125.373 32.067ZM150.461 32.067C150.461 36.1203 149.97 39.2563 148.989 41.475C148.05 43.651 146.173 44.739 143.357 44.739C140.498 44.739 138.578 43.651 137.597 41.475C136.616 39.2563 136.125 36.1203 136.125 32.067C136.125 28.0563 136.616 24.963 137.597 22.787C138.578 20.611 140.498 19.523 143.357 19.523C146.173 19.523 148.05 20.611 148.989 22.787C149.97 24.9203 150.461 28.0136 150.461 32.067ZM184.201 7.93896C187.358 7.93896 190.067 8.49362 192.329 9.60296C194.59 10.6696 196.297 12.163 197.449 14.083C198.643 15.9603 199.241 18.0936 199.241 20.483C199.241 23.427 198.473 25.795 196.937 27.587C195.443 29.379 193.566 30.5096 191.305 30.979V31.299C197.15 33.1763 200.073 36.8243 200.073 42.243C200.073 44.8456 199.475 47.171 198.281 49.219C197.086 51.2243 195.337 52.803 193.033 53.955C190.771 55.0643 188.041 55.619 184.841 55.619C179.635 55.619 175.497 54.339 172.425 51.779C169.395 49.219 167.753 45.315 167.497 40.067H178.185C178.27 42.0723 178.825 43.651 179.849 44.803C180.873 45.955 182.366 46.531 184.329 46.531C185.907 46.531 187.145 46.0616 188.041 45.123C188.979 44.1843 189.449 42.9683 189.449 41.475C189.449 37.763 186.761 35.907 181.385 35.907H179.337V27.011H181.321C186.142 27.0963 188.553 25.3683 188.553 21.827C188.553 20.291 188.126 19.1176 187.273 18.307C186.462 17.4536 185.353 17.027 183.945 17.027C182.409 17.027 181.193 17.5603 180.297 18.627C179.401 19.651 178.889 21.0376 178.761 22.787H168.073C168.286 18.0083 169.779 14.339 172.553 11.779C175.326 9.21896 179.209 7.93896 184.201 7.93896Z" fill="#141414"/>
    <path d="M38.6844 37.3876V36.2876H36.6844V37.3876C35.5559 37.6197 34.5418 38.2338 33.8132 39.1263C33.0845 40.0189 32.6859 41.1354 32.6844 42.2876V44.2876H42.6844V42.2876C42.683 41.1354 42.2844 40.0189 41.5557 39.1263C40.8271 38.2338 39.813 37.6197 38.6844 37.3876ZM34.6844 42.2876C34.6844 41.4919 35.0005 40.7289 35.5631 40.1663C36.1257 39.6037 36.8888 39.2876 37.6844 39.2876C38.4801 39.2876 39.2432 39.6037 39.8058 40.1663C40.3684 40.7289 40.6844 41.4919 40.6844 42.2876H34.6844Z" fill="#FCFFFF"/>
    <path d="M77.6844 55.2876C77.5094 55.2876 77.3394 55.3046 77.1664 55.3136L72.8584 50.2876H74.6844C74.9497 50.2876 75.204 50.1822 75.3916 49.9947C75.5791 49.8072 75.6844 49.5528 75.6844 49.2876V43.2876C75.6844 43.0224 75.5791 42.768 75.3916 42.5805C75.204 42.393 74.9497 42.2876 74.6844 42.2876C73.9013 42.2864 73.1353 42.5168 72.4828 42.9499C71.8303 43.383 71.3204 43.9994 71.0174 44.7216L70.4524 45.0626C70.3724 44.8506 70.3004 44.6346 70.2164 44.4246L69.6164 42.9156L68.7624 43.2576L64.2844 41.7666L67.5094 37.2526C67.5665 37.27 67.6251 37.2817 67.6844 37.2876H71.6844C72.7453 37.2876 73.7627 36.8662 74.5129 36.116C75.263 35.3659 75.6844 34.3485 75.6844 33.2876V31.2876H77.6844V29.2876H75.6844V26.2876C75.6844 26.0224 75.5791 25.768 75.3916 25.5805C75.204 25.393 74.9497 25.2876 74.6844 25.2876H67.6844C67.4192 25.2876 67.1649 25.393 66.9773 25.5805C66.7898 25.768 66.6844 26.0224 66.6844 26.2876V34.2876H60.6844C60.4537 34.2876 60.2301 34.3675 60.0514 34.5136L49.0514 43.5136C48.9368 43.6074 48.8443 43.7255 48.7809 43.8593C48.7174 43.9932 48.6845 44.1395 48.6844 44.2876V50.8876C48.0104 51.0309 47.3438 51.1999 46.6844 51.3946V31.2876C46.6844 31.0224 46.5791 30.768 46.3916 30.5805C46.204 30.393 45.9497 30.2876 45.6844 30.2876H29.6844C29.4192 30.2876 29.1649 30.393 28.9773 30.5805C28.7898 30.768 28.6844 31.0224 28.6844 31.2876V49.2876H27.6844V51.2876H44.6844V52.0776C42.1322 53.0513 39.7468 54.4156 37.6134 56.1216C36.6513 56.7601 35.7938 57.5437 35.0714 58.4446C33.5186 60.3866 32.6763 62.8011 32.6844 65.2876C32.6844 65.5528 32.7898 65.8072 32.9773 65.9947C33.1649 66.1822 33.4192 66.2876 33.6844 66.2876H37.7744C38.0095 67.6851 38.7321 68.9541 39.8141 69.8693C40.8961 70.7845 42.2673 71.2866 43.6844 71.2866C45.1016 71.2866 46.4728 70.7845 47.5548 69.8693C48.6368 68.9541 49.3594 67.6851 49.5944 66.2876H71.7744C72.0095 67.6851 72.7321 68.9541 73.8141 69.8693C74.8961 70.7845 76.2673 71.2866 77.6844 71.2866C79.1016 71.2866 80.4728 70.7845 81.5548 69.8693C82.6368 68.9541 83.3594 67.6851 83.5944 66.2876H86.6844C86.9497 66.2876 87.204 66.1822 87.3916 65.9947C87.5791 65.8072 87.6844 65.5528 87.6844 65.2876C87.6815 62.6363 86.627 60.0945 84.7523 58.2197C82.8776 56.345 80.3357 55.2905 77.6844 55.2876ZM30.6844 49.2876V32.2876H44.6844V49.2876H30.6844ZM68.1454 62.2876H63.1274L68.4334 48.1396L69.4114 48.2046C69.8057 49.5062 70.1265 50.829 70.3724 52.1666L70.4104 52.3766C70.7772 54.3942 70.768 56.4623 70.3834 58.4766C69.3628 59.5643 68.5982 60.8664 68.1454 62.2876ZM72.5024 52.9446L74.8634 55.6996C74.0778 55.9326 73.324 56.2621 72.6194 56.6806C72.7054 55.4345 72.6662 54.1829 72.5024 52.9446ZM72.3504 46.2536C72.5604 46.1277 72.7164 45.9286 72.7884 45.6946C72.9368 45.2172 73.2577 44.8122 73.6884 44.5586V48.2876H71.5215C71.3994 47.8526 71.2634 47.4216 71.1214 46.9876L72.3504 46.2536ZM73.6844 33.2876C73.6844 33.818 73.4737 34.3267 73.0987 34.7018C72.7236 35.0769 72.2149 35.2876 71.6844 35.2876H68.6844V31.2876H73.6844V33.2876ZM73.6844 27.2876V29.2876H68.6844V27.2876H73.6844ZM61.0414 36.2876H65.7414L61.8704 41.7066C61.7795 41.8341 61.7198 41.9812 61.6961 42.136C61.6724 42.2908 61.6854 42.449 61.7341 42.5979C61.7827 42.7467 61.8657 42.8821 61.9762 42.993C62.0867 43.104 62.2218 43.1874 62.3704 43.2366L68.3704 45.2366L68.3784 45.2126C68.5014 45.5236 68.6124 45.8406 68.7274 46.1546L57.5424 45.4096L61.5005 39.8686L59.8724 38.7066L55.1694 45.2876H50.6844V44.7616L61.0414 36.2876ZM50.6844 50.2876V47.2876H55.6544L66.3484 48.0006L61.0164 62.2196C60.6265 62.1711 60.2438 62.0761 59.8764 61.9366L63.6244 51.6296C63.6794 51.4785 63.6972 51.3164 63.6762 51.157C63.6552 50.9976 63.5961 50.8456 63.5038 50.7139C63.4116 50.5822 63.2889 50.4747 63.1463 50.4005C63.0037 50.3263 62.8452 50.2875 62.6844 50.2876H50.6844ZM61.2404 52.3326L58.1524 60.8236C57.479 60.1538 57.0113 59.3053 56.8044 58.3783C56.5974 57.4513 56.66 56.4845 56.9846 55.5919C57.3092 54.6992 57.8824 53.9181 58.6365 53.3406C59.3905 52.7631 60.2941 52.4133 61.2404 52.3326ZM43.6844 69.2876C42.8002 69.2843 41.942 68.9881 41.244 68.4453C40.546 67.9025 40.0475 67.1437 39.8264 66.2876H47.5424C47.3214 67.1437 46.8229 67.9025 46.1249 68.4453C45.4269 68.9881 44.5687 69.2843 43.6844 69.2876ZM39.8264 64.2876C40.0447 63.43 40.5425 62.6696 41.2412 62.1265C41.9398 61.5834 42.7995 61.2885 43.6844 61.2885C44.5694 61.2885 45.4291 61.5834 46.1277 62.1265C46.8264 62.6696 47.3242 63.43 47.5424 64.2876H39.8264ZM49.5944 64.2876C49.3594 62.8901 48.6368 61.6211 47.5548 60.7059C46.4728 59.7907 45.1016 59.2886 43.6844 59.2886C42.2673 59.2886 40.8961 59.7907 39.8141 60.7059C38.7321 61.6211 38.0095 62.8901 37.7744 64.2876H34.7384C34.9205 62.6181 35.5716 61.0344 36.6164 59.7196C37.2878 59.0225 38.0025 58.3685 38.7564 57.7616C40.2181 56.7956 41.9325 56.2828 43.6844 56.2876C45.8976 56.2903 48.0323 57.1071 49.6819 58.5825C51.3316 60.0578 52.3807 62.0885 52.6294 64.2876H49.5944ZM54.6354 64.2876C54.6354 64.2546 54.6354 64.2206 54.6284 64.1876C54.6164 64.0656 54.5924 63.9476 54.5754 63.8266C54.5444 63.5886 54.5145 63.3506 54.4674 63.1176C54.4394 62.9766 54.3984 62.8406 54.3674 62.7016C54.3174 62.4946 54.2674 62.2866 54.2084 62.0846C54.1644 61.9396 54.1084 61.7996 54.0594 61.6576C53.9924 61.4676 53.9284 61.2766 53.8514 61.0916C53.7924 60.9486 53.7234 60.8116 53.6584 60.6716C53.5764 60.4946 53.4964 60.3176 53.4044 60.1456C53.3314 60.0076 53.2494 59.8746 53.1704 59.7396C53.0704 59.5756 52.9784 59.4106 52.8704 59.2526C52.7834 59.1206 52.6894 58.9936 52.5964 58.8656C52.4864 58.7136 52.3764 58.5656 52.2594 58.4146C52.1594 58.2906 52.0594 58.1726 51.9504 58.0536C51.8274 57.9126 51.7034 57.7736 51.5744 57.6396C51.4634 57.5256 51.3474 57.4156 51.2314 57.3066C51.0964 57.1786 50.9604 57.0526 50.8194 56.9316C50.6974 56.8316 50.5724 56.7316 50.4464 56.6316C50.3004 56.5176 50.1534 56.4056 50.0024 56.2996C49.8704 56.2066 49.7354 56.1176 49.6024 56.0306C49.4464 55.9306 49.2894 55.8306 49.1284 55.7426C48.9874 55.6616 48.8444 55.5846 48.6994 55.5096C48.5344 55.4246 48.3684 55.3446 48.1994 55.2676C48.0501 55.2009 47.8998 55.1369 47.7484 55.0756C47.5744 55.0056 47.3984 54.9426 47.2204 54.8816C47.0644 54.8286 46.9084 54.7816 46.7494 54.7316C46.5674 54.6786 46.3834 54.6316 46.1984 54.5896C46.0364 54.5516 45.8744 54.5146 45.7104 54.4836C45.5214 54.4486 45.3304 54.4216 45.1384 54.3966C44.9714 54.3746 44.8044 54.3526 44.6384 54.3376C44.5754 54.3326 44.5144 54.3196 44.4504 54.3156C47.5225 52.9817 50.8353 52.2915 54.1844 52.2876H56.7944C55.7988 53.2591 55.1154 54.5054 54.8317 55.8673C54.548 57.2291 54.6769 58.6447 55.2018 59.9329C55.7268 61.2212 56.624 62.3236 57.7787 63.0993C58.9335 63.875 60.2933 64.2887 61.6844 64.2876H54.6354ZM77.6844 69.2876C76.8002 69.2843 75.942 68.9881 75.244 68.4453C74.546 67.9025 74.0475 67.1437 73.8264 66.2876H81.5424C81.3214 67.1437 80.8229 67.9025 80.1249 68.4453C79.4269 68.9881 78.5687 69.2843 77.6844 69.2876ZM73.8264 64.2876C74.0447 63.43 74.5425 62.6696 75.2412 62.1265C75.9398 61.5834 76.7995 61.2885 77.6844 61.2885C78.5694 61.2885 79.4291 61.5834 80.1277 62.1265C80.8264 62.6696 81.3242 63.43 81.5424 64.2876H73.8264ZM83.5944 64.2876C83.3594 62.8901 82.6368 61.6211 81.5548 60.7059C80.4728 59.7907 79.1016 59.2886 77.6844 59.2886C76.2673 59.2886 74.8961 59.7907 73.8141 60.7059C72.7321 61.6211 72.0095 62.8901 71.7744 64.2876H69.7534C70.0018 62.3587 70.9443 60.5864 72.4046 59.302C73.865 58.0176 75.7432 57.3092 77.688 57.3092C79.6327 57.3092 81.5109 58.0176 82.9713 59.302C84.4316 60.5864 85.3741 62.3587 85.6224 64.2876H83.5944Z" fill="#FCFFFF"/>
    <defs>
    <filter id="filter0_dd" x="0.479614" y="0.682129" width="114.41" height="114.41" filterUnits="userSpaceOnUse" color-interpolation-filters="sRGB">
    <feFlood flood-opacity="0" result="BackgroundImageFix"/>
    <feColorMatrix in="SourceAlpha" type="matrix" values="0 0 0 0 0 0 0 0 0 0 0 0 0 0 0 0 0 0 127 0"/>
    <feOffset dy="8"/>
    <feGaussianBlur stdDeviation="8"/>
    <feColorMatrix type="matrix" values="0 0 0 0 0.0666667 0 0 0 0 0.0666667 0 0 0 0 0.0666667 0 0 0 0.04 0"/>
    <feBlend mode="normal" in2="BackgroundImageFix" result="effect1_dropShadow"/>
    <feColorMatrix in="SourceAlpha" type="matrix" values="0 0 0 0 0 0 0 0 0 0 0 0 0 0 0 0 0 0 127 0"/>
    <feOffset/>
    <feGaussianBlur stdDeviation="0.5"/>
    <feColorMatrix type="matrix" values="0 0 0 0 0 0 0 0 0 0 0 0 0 0 0 0 0 0 0.2 0"/>
    <feBlend mode="normal" in2="effect1_dropShadow" result="effect2_dropShadow"/>
    <feBlend mode="normal" in="SourceGraphic" in2="effect2_dropShadow" result="shape"/>
    </filter>
    </defs>
    </svg>
