<svg width="198" height="116" viewBox="0 0 198 116" fill="none" xmlns="http://www.w3.org/2000/svg">
    <g filter="url(#filter0_dd)">
    <path d="M16.4796 34.2821C16.4796 25.3213 16.4796 20.8409 18.2235 17.4183C19.7575 14.4077 22.2052 11.96 25.2158 10.426C28.6384 8.68213 33.1188 8.68213 42.0796 8.68213H73.2893C82.2501 8.68213 86.7306 8.68213 90.1531 10.426C93.1637 11.96 95.6114 14.4077 97.1454 17.4183C98.8893 20.8409 98.8893 25.3213 98.8893 34.2821V65.4918C98.8893 74.4526 98.8893 78.9331 97.1454 82.3557C95.6114 85.3662 93.1637 87.8139 90.1531 89.3479C86.7306 91.0918 82.2501 91.0918 73.2893 91.0918H42.0796C33.1188 91.0918 28.6384 91.0918 25.2158 89.3479C22.2052 87.8139 19.7575 85.3662 18.2235 82.3557C16.4796 78.9331 16.4796 74.4526 16.4796 65.4918V34.2821Z" fill="#8816FA"/>
    </g>
    <path d="M131.318 69.4273C132.902 69.4273 134.334 69.7953 135.614 70.5313C136.91 71.2673 137.926 72.2993 138.662 73.6273C139.414 74.9393 139.79 76.4273 139.79 78.0913C139.79 79.7553 139.414 81.2513 138.662 82.5793C137.926 83.9073 136.91 84.9393 135.614 85.6753C134.334 86.4113 132.902 86.7793 131.318 86.7793C129.734 86.7793 128.294 86.4113 126.998 85.6753C125.718 84.9393 124.702 83.9073 123.95 82.5793C123.214 81.2513 122.846 79.7553 122.846 78.0913C122.846 76.4273 123.214 74.9393 123.95 73.6273C124.702 72.2993 125.718 71.2673 126.998 70.5313C128.294 69.7953 129.734 69.4273 131.318 69.4273ZM131.318 72.5473C130.326 72.5473 129.454 72.7713 128.702 73.2193C127.95 73.6673 127.358 74.3153 126.926 75.1633C126.51 75.9953 126.302 76.9713 126.302 78.0913C126.302 79.2113 126.51 80.1953 126.926 81.0433C127.358 81.8753 127.95 82.5153 128.702 82.9633C129.454 83.4113 130.326 83.6353 131.318 83.6353C132.31 83.6353 133.182 83.4113 133.934 82.9633C134.686 82.5153 135.27 81.8753 135.686 81.0433C136.118 80.1953 136.334 79.2113 136.334 78.0913C136.334 76.9713 136.118 75.9953 135.686 75.1633C135.27 74.3153 134.686 73.6673 133.934 73.2193C133.182 72.7713 132.31 72.5473 131.318 72.5473ZM146.469 75.8593C146.965 75.0113 147.621 74.3473 148.437 73.8673C149.253 73.3713 150.165 73.1233 151.173 73.1233V76.7473H150.189C147.709 76.7473 146.469 77.8993 146.469 80.2033V86.6113H143.085V73.3153H146.469V75.8593ZM159.004 73.1473C160.124 73.1473 161.076 73.4113 161.86 73.9393C162.66 74.4673 163.236 75.1793 163.588 76.0753V68.8513H166.948V86.6113H163.588V83.8273C163.236 84.7233 162.66 85.4433 161.86 85.9873C161.076 86.5153 160.124 86.7793 159.004 86.7793C157.884 86.7793 156.876 86.5073 155.98 85.9633C155.084 85.4193 154.38 84.6353 153.868 83.6113C153.372 82.5713 153.124 81.3553 153.124 79.9633C153.124 78.5713 153.372 77.3633 153.868 76.3393C154.38 75.2993 155.084 74.5073 155.98 73.9633C156.876 73.4193 157.884 73.1473 159.004 73.1473ZM160.06 76.0993C159.004 76.0993 158.156 76.4433 157.516 77.1313C156.876 77.8193 156.556 78.7633 156.556 79.9633C156.556 81.1633 156.876 82.1073 157.516 82.7953C158.156 83.4673 159.004 83.8033 160.06 83.8033C161.084 83.8033 161.924 83.4593 162.58 82.7713C163.252 82.0673 163.588 81.1313 163.588 79.9633C163.588 78.7793 163.252 77.8433 162.58 77.1553C161.924 76.4513 161.084 76.0993 160.06 76.0993ZM183.269 79.4593C183.269 79.7953 183.229 80.1793 183.149 80.6113H173.405C173.453 81.7953 173.773 82.6673 174.365 83.2273C174.957 83.7873 175.693 84.0673 176.573 84.0673C177.357 84.0673 178.005 83.8753 178.517 83.4913C179.045 83.1073 179.381 82.5873 179.525 81.9313H183.101C182.925 82.8593 182.549 83.6913 181.973 84.4273C181.397 85.1633 180.653 85.7393 179.741 86.1553C178.845 86.5713 177.845 86.7793 176.741 86.7793C175.445 86.7793 174.293 86.5073 173.285 85.9633C172.277 85.4033 171.493 84.6113 170.933 83.5873C170.373 82.5633 170.093 81.3553 170.093 79.9633C170.093 78.5713 170.373 77.3633 170.933 76.3393C171.493 75.2993 172.277 74.5073 173.285 73.9633C174.293 73.4193 175.445 73.1473 176.741 73.1473C178.053 73.1473 179.197 73.4193 180.173 73.9633C181.165 74.5073 181.925 75.2593 182.453 76.2193C182.997 77.1633 183.269 78.2433 183.269 79.4593ZM179.861 79.1233C179.909 78.0353 179.621 77.2113 178.997 76.6513C178.389 76.0913 177.637 75.8113 176.741 75.8113C175.829 75.8113 175.061 76.0913 174.437 76.6513C173.813 77.2113 173.469 78.0353 173.405 79.1233H179.861ZM189.805 75.8593C190.301 75.0113 190.957 74.3473 191.773 73.8673C192.589 73.3713 193.501 73.1233 194.509 73.1233V76.7473H193.525C191.045 76.7473 189.805 77.8993 189.805 80.2033V86.6113H186.421V73.3153H189.805V75.8593Z" fill="#404040"/>
    <path d="M120.893 30.6658C120.893 37.7484 122.322 43.3591 125.181 47.4978C128.039 51.6364 132.605 53.7058 138.877 53.7058C145.106 53.7058 149.65 51.6364 152.509 47.4978C155.41 43.3591 156.861 37.7484 156.861 30.6658C156.861 23.6258 155.41 18.0578 152.509 13.9618C149.65 9.82311 145.106 7.75377 138.877 7.75377C132.605 7.75377 128.039 9.82311 125.181 13.9618C122.322 18.0578 120.893 23.6258 120.893 30.6658ZM145.981 30.6658C145.981 34.7191 145.49 37.8551 144.509 40.0738C143.57 42.2498 141.693 43.3378 138.877 43.3378C136.018 43.3378 134.098 42.2498 133.117 40.0738C132.135 37.8551 131.645 34.7191 131.645 30.6658C131.645 26.6551 132.135 23.5618 133.117 21.3858C134.098 19.2098 136.018 18.1218 138.877 18.1218C141.693 18.1218 143.57 19.2098 144.509 21.3858C145.49 23.5191 145.981 26.6124 145.981 30.6658ZM161.096 18.7618V8.52177H179.4V53.7698H167.88V18.7618H161.096Z" fill="#141414"/>
    <path d="M80.8844 25.8871H34.4844C34.2723 25.8871 34.0688 25.9714 33.9188 26.1214C33.7687 26.2714 33.6844 26.4749 33.6844 26.6871V66.6871C33.6844 66.8993 33.7687 67.1027 33.9188 67.2528C34.0688 67.4028 34.2723 67.4871 34.4844 67.4871H62.0844L64.0844 70.1511V73.8871H65.6844V69.8871C65.6854 69.7138 65.6291 69.5451 65.5244 69.4071L63.2844 66.4231V60.6151L64.0844 59.8151V62.6871H65.6844V51.4871C65.6844 51.2749 65.7687 51.0714 65.9188 50.9214C66.0688 50.7714 66.2723 50.6871 66.4844 50.6871C66.6966 50.6871 66.9001 50.7714 67.0501 50.9214C67.2002 51.0714 67.2845 51.2749 67.2845 51.4871V62.6871H68.8844V57.0871C68.8844 56.8749 68.9687 56.6714 69.1188 56.5214C69.2688 56.3714 69.4723 56.2871 69.6844 56.2871C69.8966 56.2871 70.1001 56.3714 70.2501 56.5214C70.4002 56.6714 70.4844 56.8749 70.4844 57.0871V62.6871H72.0844V57.0871C72.0844 56.8749 72.1687 56.6714 72.3188 56.5214C72.4688 56.3714 72.6723 56.2871 72.8844 56.2871C73.0966 56.2871 73.3001 56.3714 73.4501 56.5214C73.6002 56.6714 73.6844 56.8749 73.6844 57.0871V62.6871H75.2845V57.8871C75.2845 57.6749 75.3687 57.4714 75.5188 57.3214C75.6688 57.1714 75.8723 57.0871 76.0844 57.0871C76.2966 57.0871 76.5001 57.1714 76.6501 57.3214C76.8002 57.4714 76.8844 57.6749 76.8844 57.8871V67.2231L74.6445 70.2071C74.5397 70.3451 74.4835 70.5138 74.4844 70.6871V73.8871H76.0844V70.9511L78.3244 67.9671C78.4291 67.8291 78.4854 67.6603 78.4844 67.4871H80.8844C81.0966 67.4871 81.3001 67.4028 81.4501 67.2528C81.6002 67.1027 81.6844 66.8993 81.6844 66.6871V26.6871C81.6844 26.4749 81.6002 26.2714 81.4501 26.1214C81.3001 25.9714 81.0966 25.8871 80.8844 25.8871ZM67.2845 49.0871H64.0844V47.4871H67.2845V49.0871ZM80.0844 65.8871H78.4844V57.8871C78.4825 57.2512 78.2291 56.6418 77.7794 56.1921C77.3297 55.7425 76.7204 55.489 76.0844 55.4871C75.6712 55.4886 75.2656 55.599 74.9084 55.8071C74.7237 55.5108 74.476 55.2589 74.183 55.0691C73.8899 54.8794 73.5587 54.7565 73.2128 54.7091C72.8669 54.6618 72.5148 54.6912 72.1815 54.7952C71.8483 54.8992 71.542 55.0754 71.2845 55.3111C70.8474 54.9111 70.2769 54.6886 69.6844 54.6871C69.4115 54.6892 69.141 54.7379 68.8844 54.8311V51.4871C68.8838 51.1293 68.8017 50.7764 68.6445 50.4551C68.72 50.381 68.7802 50.2926 68.8214 50.1951C68.8626 50.0976 68.884 49.9929 68.8844 49.8871V46.6871C68.8844 46.4749 68.8002 46.2714 68.6501 46.1214C68.5001 45.9714 68.2966 45.8871 68.0844 45.8871H63.2844C63.0723 45.8871 62.8688 45.9714 62.7188 46.1214C62.5687 46.2714 62.4844 46.4749 62.4844 46.6871V49.8871C62.4844 50.0993 62.5687 50.3027 62.7188 50.4528C62.8688 50.6028 63.0723 50.6871 63.2844 50.6871H64.2284C64.1353 50.9436 64.0866 51.2142 64.0844 51.4871V57.5591L61.9164 59.7191C61.7691 59.8716 61.686 60.075 61.6844 60.2871V65.8871H35.2844V33.8871H80.0844V65.8871ZM80.0844 32.2871H35.2844V27.4871H80.0844V32.2871Z" fill="#FCFFFF"/>
    <path d="M38.4845 29.087H36.8845V30.687H38.4845V29.087Z" fill="#FCFFFF"/>
    <path d="M41.6845 29.087H40.0845V30.687H41.6845V29.087Z" fill="#FCFFFF"/>
    <path d="M44.8844 29.087H43.2844V30.687H44.8844V29.087Z" fill="#FCFFFF"/>
    <path d="M60.8845 45.887V44.287C60.8815 42.3784 60.122 40.5488 58.7724 39.1991C57.4227 37.8495 55.5931 37.09 53.6845 37.087H44.0845C42.1758 37.09 40.3462 37.8495 38.9966 39.1991C37.6469 40.5488 36.8874 42.3784 36.8845 44.287V45.887C36.8845 46.0992 36.9687 46.3027 37.1188 46.4527C37.2688 46.6028 37.4723 46.687 37.6845 46.687H37.9645C37.7818 47.0608 37.6861 47.471 37.6845 47.887C37.6854 48.2601 37.761 48.6292 37.9066 48.9726C38.0522 49.3161 38.265 49.627 38.5325 49.887C38.265 50.1471 38.0522 50.458 37.9066 50.8014C37.761 51.1449 37.6854 51.514 37.6845 51.887C37.6861 52.303 37.7818 52.7133 37.9645 53.087H37.6845C37.4723 53.087 37.2688 53.1713 37.1188 53.3214C36.9687 53.4714 36.8845 53.6749 36.8845 53.887C36.8874 55.7957 37.6469 57.6253 38.9966 58.9749C40.3462 60.3246 42.1758 61.0841 44.0845 61.087H53.6845C55.5931 61.0841 57.4227 60.3246 58.7724 58.9749C60.122 57.6253 60.8815 55.7957 60.8845 53.887C60.8845 53.6749 60.8002 53.4714 60.6501 53.3214C60.5001 53.1713 60.2966 53.087 60.0845 53.087H59.8045C59.9871 52.7133 60.0829 52.303 60.0845 51.887C60.0835 51.514 60.0079 51.1449 59.8623 50.8014C59.7167 50.458 59.5039 50.1471 59.2365 49.887C59.5039 49.627 59.7167 49.3161 59.8623 48.9726C60.0079 48.6292 60.0835 48.2601 60.0845 47.887C60.0829 47.471 59.9871 47.0608 59.8045 46.687H60.0845C60.2966 46.687 60.5001 46.6028 60.6501 46.4527C60.8002 46.3027 60.8845 46.0992 60.8845 45.887ZM53.6845 59.487H44.0845C42.7382 59.4852 41.4375 58.9994 40.4197 58.1182C39.4019 57.237 38.7349 56.0192 38.5405 54.687H51.4285C51.5923 55.1547 51.8974 55.5599 52.3015 55.8465C52.7057 56.1332 53.189 56.2872 53.6845 56.2872C54.18 56.2872 54.6632 56.1332 55.0674 55.8465C55.4716 55.5599 55.7767 55.1547 55.9405 54.687H59.2285C59.034 56.0192 58.367 57.237 57.3492 58.1182C56.3314 58.9994 55.0307 59.4852 53.6845 59.487ZM57.2845 49.087H55.2845C55.0723 49.087 54.8688 49.1713 54.7188 49.3214C54.5687 49.4714 54.4845 49.6749 54.4845 49.887V53.887C54.4845 54.0992 54.4002 54.3027 54.2501 54.4527C54.1001 54.6028 53.8966 54.687 53.6845 54.687C53.4723 54.687 53.2688 54.6028 53.1188 54.4527C52.9687 54.3027 52.8845 54.0992 52.8845 53.887V49.887C52.8845 49.6749 52.8002 49.4714 52.6501 49.3214C52.5001 49.1713 52.2966 49.087 52.0845 49.087H49.6845C49.4723 49.087 49.2688 49.1713 49.1188 49.3214C48.9687 49.4714 48.8845 49.6749 48.8845 49.887C48.8845 50.0992 48.8002 50.3027 48.6501 50.4527C48.5001 50.6028 48.2966 50.687 48.0845 50.687C47.8723 50.687 47.6688 50.6028 47.5188 50.4527C47.3687 50.3027 47.2845 50.0992 47.2845 49.887C47.2845 49.6749 47.2002 49.4714 47.0501 49.3214C46.9001 49.1713 46.6966 49.087 46.4845 49.087H40.4845C40.1662 49.087 39.861 48.9606 39.6359 48.7356C39.4109 48.5105 39.2845 48.2053 39.2845 47.887C39.2845 47.5688 39.4109 47.2636 39.6359 47.0385C39.861 46.8135 40.1662 46.687 40.4845 46.687H57.2845C57.6027 46.687 57.9079 46.8135 58.133 47.0385C58.358 47.2636 58.4845 47.5688 58.4845 47.887C58.4845 48.2053 58.358 48.5105 58.133 48.7356C57.9079 48.9606 57.6027 49.087 57.2845 49.087ZM58.4845 51.887C58.4845 52.2053 58.358 52.5105 58.133 52.7356C57.9079 52.9606 57.6027 53.087 57.2845 53.087H56.0845V50.687H57.2845C57.6027 50.687 57.9079 50.8135 58.133 51.0385C58.358 51.2636 58.4845 51.5688 58.4845 51.887ZM40.4845 50.687H45.8205C45.9854 51.1558 46.2917 51.5619 46.6973 51.8491C47.1028 52.1363 47.5875 52.2906 48.0845 52.2906C48.5814 52.2906 49.0661 52.1363 49.4716 51.8491C49.8772 51.5619 50.1835 51.1558 50.3485 50.687H51.2845V53.087H40.4845C40.1662 53.087 39.861 52.9606 39.6359 52.7356C39.4109 52.5105 39.2845 52.2053 39.2845 51.887C39.2845 51.5688 39.4109 51.2636 39.6359 51.0385C39.861 50.8135 40.1662 50.687 40.4845 50.687ZM59.2845 45.087H38.4845V44.287C38.4862 42.8023 39.0767 41.3789 40.1265 40.3291C41.1764 39.2793 42.5998 38.6887 44.0845 38.687H53.6845C55.1692 38.6887 56.5926 39.2793 57.6424 40.3291C58.6922 41.3789 59.2828 42.8023 59.2845 44.287V45.087Z" fill="#FCFFFF"/>
    <path d="M44.0844 40.2871H42.4844V41.8871H44.0844V40.2871Z" fill="#FCFFFF"/>
    <path d="M46.4845 41.8871H44.8845V43.4871H46.4845V41.8871Z" fill="#FCFFFF"/>
    <path d="M76.8844 45.8871H72.0844C71.8723 45.8871 71.6688 45.9714 71.5187 46.1214C71.3687 46.2714 71.2844 46.4749 71.2844 46.6871V49.8871C71.2844 50.0993 71.3687 50.3027 71.5187 50.4528C71.6688 50.6028 71.8723 50.6871 72.0844 50.6871H76.8844C77.0966 50.6871 77.3001 50.6028 77.4501 50.4528C77.6001 50.3027 77.6844 50.0993 77.6844 49.8871V46.6871C77.6844 46.4749 77.6001 46.2714 77.4501 46.1214C77.3001 45.9714 77.0966 45.8871 76.8844 45.8871ZM76.0844 49.0871H72.8844V47.4871H76.0844V49.0871Z" fill="#FCFFFF"/>
    <path d="M64.0844 39.4871H62.4844V41.0871H64.0844V39.4871Z" fill="#FCFFFF"/>
    <path d="M68.8844 39.4871H65.6844V41.0871H68.8844V39.4871Z" fill="#FCFFFF"/>
    <path d="M68.8844 42.6871H62.4844V44.2871H68.8844V42.6871Z" fill="#FCFFFF"/>
    <path d="M72.8844 39.4871H71.2844V41.0871H72.8844V39.4871Z" fill="#FCFFFF"/>
    <path d="M77.6844 39.4871H74.4844V41.0871H77.6844V39.4871Z" fill="#FCFFFF"/>
    <path d="M77.6844 42.6871H71.2844V44.2871H77.6844V42.6871Z" fill="#FCFFFF"/>
    <path d="M49.6845 40.2871H48.0845V41.8871H49.6845V40.2871Z" fill="#FCFFFF"/>
    <path d="M52.0844 41.8871H50.4844V43.4871H52.0844V41.8871Z" fill="#FCFFFF"/>
    <path d="M55.2844 40.2871H53.6844V41.8871H55.2844V40.2871Z" fill="#FCFFFF"/>
    <defs>
    <filter id="filter0_dd" x="0.479614" y="0.682129" width="114.41" height="114.41" filterUnits="userSpaceOnUse" color-interpolation-filters="sRGB">
    <feFlood flood-opacity="0" result="BackgroundImageFix"/>
    <feColorMatrix in="SourceAlpha" type="matrix" values="0 0 0 0 0 0 0 0 0 0 0 0 0 0 0 0 0 0 127 0"/>
    <feOffset dy="8"/>
    <feGaussianBlur stdDeviation="8"/>
    <feColorMatrix type="matrix" values="0 0 0 0 0.0666667 0 0 0 0 0.0666667 0 0 0 0 0.0666667 0 0 0 0.04 0"/>
    <feBlend mode="normal" in2="BackgroundImageFix" result="effect1_dropShadow"/>
    <feColorMatrix in="SourceAlpha" type="matrix" values="0 0 0 0 0 0 0 0 0 0 0 0 0 0 0 0 0 0 127 0"/>
    <feOffset/>
    <feGaussianBlur stdDeviation="0.5"/>
    <feColorMatrix type="matrix" values="0 0 0 0 0 0 0 0 0 0 0 0 0 0 0 0 0 0 0.2 0"/>
    <feBlend mode="normal" in2="effect1_dropShadow" result="effect2_dropShadow"/>
    <feBlend mode="normal" in="SourceGraphic" in2="effect2_dropShadow" result="shape"/>
    </filter>
    </defs>
    </svg>
