<svg width="225" height="116" viewBox="0 0 225 116" fill="none" xmlns="http://www.w3.org/2000/svg">
    <g filter="url(#filter0_dd)">
    <path d="M16.4796 34.2821C16.4796 25.3213 16.4796 20.8409 18.2235 17.4183C19.7575 14.4077 22.2052 11.96 25.2158 10.426C28.6384 8.68213 33.1188 8.68213 42.0796 8.68213H73.2893C82.2501 8.68213 86.7306 8.68213 90.1531 10.426C93.1637 11.96 95.6114 14.4077 97.1454 17.4183C98.8893 20.8409 98.8893 25.3213 98.8893 34.2821V65.4918C98.8893 74.4526 98.8893 78.9331 97.1454 82.3557C95.6114 85.3662 93.1637 87.8139 90.1531 89.3479C86.7306 91.0918 82.2501 91.0918 73.2893 91.0918H42.0796C33.1188 91.0918 28.6384 91.0918 25.2158 89.3479C22.2052 87.8139 19.7575 85.3662 18.2235 82.3557C16.4796 78.9331 16.4796 74.4526 16.4796 65.4918V34.2821Z" fill="#288DFA"/>
    </g>
    <path d="M127.906 82.7245V89.0125H124.522V72.0685H130.69C132.69 72.0685 134.194 72.5485 135.202 73.5085C136.226 74.4685 136.738 75.7725 136.738 77.4205C136.738 79.0365 136.21 80.3245 135.154 81.2845C134.114 82.2445 132.626 82.7245 130.69 82.7245H127.906ZM130.33 80.0125C132.314 80.0125 133.306 79.1485 133.306 77.4205C133.306 76.5725 133.074 75.9245 132.61 75.4765C132.146 75.0285 131.386 74.8045 130.33 74.8045H127.906V80.0125H130.33ZM143.07 78.2605C143.566 77.4125 144.222 76.7485 145.038 76.2685C145.854 75.7725 146.766 75.5245 147.774 75.5245V79.1485H146.79C144.31 79.1485 143.07 80.3005 143.07 82.6045V89.0125H139.686V75.7165H143.07V78.2605ZM162.901 81.8605C162.901 82.1965 162.861 82.5805 162.781 83.0125H153.037C153.085 84.1965 153.405 85.0685 153.997 85.6285C154.589 86.1885 155.325 86.4685 156.205 86.4685C156.989 86.4685 157.637 86.2765 158.149 85.8925C158.677 85.5085 159.013 84.9885 159.157 84.3325H162.733C162.557 85.2605 162.181 86.0925 161.605 86.8285C161.029 87.5645 160.285 88.1405 159.373 88.5565C158.477 88.9725 157.477 89.1805 156.373 89.1805C155.077 89.1805 153.925 88.9085 152.917 88.3645C151.909 87.8045 151.125 87.0125 150.565 85.9885C150.005 84.9645 149.725 83.7565 149.725 82.3645C149.725 80.9725 150.005 79.7645 150.565 78.7405C151.125 77.7005 151.909 76.9085 152.917 76.3645C153.925 75.8205 155.077 75.5485 156.373 75.5485C157.685 75.5485 158.829 75.8205 159.805 76.3645C160.797 76.9085 161.557 77.6605 162.085 78.6205C162.629 79.5645 162.901 80.6445 162.901 81.8605ZM159.493 81.5245C159.541 80.4365 159.253 79.6125 158.629 79.0525C158.021 78.4925 157.269 78.2125 156.373 78.2125C155.461 78.2125 154.693 78.4925 154.069 79.0525C153.445 79.6125 153.101 80.4365 153.037 81.5245H159.493ZM173.997 75.5485C175.117 75.5485 176.125 75.8205 177.021 76.3645C177.917 76.9085 178.613 77.7005 179.109 78.7405C179.621 79.7645 179.877 80.9725 179.877 82.3645C179.877 83.7565 179.621 84.9725 179.109 86.0125C178.613 87.0365 177.917 87.8205 177.021 88.3645C176.125 88.9085 175.117 89.1805 173.997 89.1805C172.877 89.1805 171.917 88.9165 171.117 88.3885C170.333 87.8445 169.773 87.1245 169.437 86.2285V95.3485H166.053V75.7165H169.437V78.4765C169.773 77.5805 170.333 76.8685 171.117 76.3405C171.917 75.8125 172.877 75.5485 173.997 75.5485ZM172.941 78.5005C171.917 78.5005 171.069 78.8525 170.397 79.5565C169.741 80.2445 169.413 81.1805 169.413 82.3645C169.413 83.5325 169.741 84.4685 170.397 85.1725C171.069 85.8605 171.917 86.2045 172.941 86.2045C173.997 86.2045 174.845 85.8685 175.485 85.1965C176.125 84.5085 176.445 83.5645 176.445 82.3645C176.445 81.1645 176.125 80.2205 175.485 79.5325C174.845 78.8445 173.997 78.5005 172.941 78.5005ZM188.23 75.5485C189.35 75.5485 190.31 75.8125 191.11 76.3405C191.91 76.8685 192.478 77.5805 192.814 78.4765V75.7165H196.174V89.0125H192.814V86.2285C192.478 87.1245 191.91 87.8445 191.11 88.3885C190.31 88.9165 189.35 89.1805 188.23 89.1805C187.11 89.1805 186.102 88.9085 185.206 88.3645C184.31 87.8205 183.606 87.0365 183.094 86.0125C182.598 84.9725 182.35 83.7565 182.35 82.3645C182.35 80.9725 182.598 79.7645 183.094 78.7405C183.606 77.7005 184.31 76.9085 185.206 76.3645C186.102 75.8205 187.11 75.5485 188.23 75.5485ZM189.286 78.5005C188.23 78.5005 187.382 78.8445 186.742 79.5325C186.102 80.2205 185.782 81.1645 185.782 82.3645C185.782 83.5645 186.102 84.5085 186.742 85.1965C187.382 85.8685 188.23 86.2045 189.286 86.2045C190.31 86.2045 191.15 85.8605 191.806 85.1725C192.478 84.4685 192.814 83.5325 192.814 82.3645C192.814 81.1805 192.478 80.2445 191.806 79.5565C191.15 78.8525 190.31 78.5005 189.286 78.5005ZM203.374 78.2605C203.87 77.4125 204.526 76.7485 205.342 76.2685C206.158 75.7725 207.07 75.5245 208.078 75.5245V79.1485H207.094C204.614 79.1485 203.374 80.3005 203.374 82.6045V89.0125H199.99V75.7165H203.374V78.2605ZM223.205 81.8605C223.205 82.1965 223.165 82.5805 223.085 83.0125H213.341C213.389 84.1965 213.709 85.0685 214.301 85.6285C214.893 86.1885 215.629 86.4685 216.509 86.4685C217.293 86.4685 217.941 86.2765 218.453 85.8925C218.981 85.5085 219.317 84.9885 219.461 84.3325H223.037C222.861 85.2605 222.485 86.0925 221.909 86.8285C221.333 87.5645 220.589 88.1405 219.677 88.5565C218.781 88.9725 217.781 89.1805 216.677 89.1805C215.381 89.1805 214.229 88.9085 213.221 88.3645C212.213 87.8045 211.429 87.0125 210.869 85.9885C210.309 84.9645 210.029 83.7565 210.029 82.3645C210.029 80.9725 210.309 79.7645 210.869 78.7405C211.429 77.7005 212.213 76.9085 213.221 76.3645C214.229 75.8205 215.381 75.5485 216.677 75.5485C217.989 75.5485 219.133 75.8205 220.109 76.3645C221.101 76.9085 221.861 77.6605 222.389 78.6205C222.933 79.5645 223.205 80.6445 223.205 81.8605ZM219.797 81.5245C219.845 80.4365 219.557 79.6125 218.933 79.0525C218.325 78.4925 217.573 78.2125 216.677 78.2125C215.765 78.2125 214.997 78.4925 214.373 79.0525C213.749 79.6125 213.405 80.4365 213.341 81.5245H219.797Z" fill="#404040"/>
    <path d="M130.224 31.9999C130.224 45.8239 134.896 55.8079 148.208 55.8079C161.52 55.8079 166.192 45.8239 166.192 31.9999C166.192 18.3039 161.52 8.31993 148.208 8.31993C134.896 8.31993 130.224 18.3039 130.224 31.9999ZM155.44 31.9999C155.44 39.4239 154.672 45.5679 148.208 45.5679C141.744 45.5679 140.976 39.4239 140.976 31.9999C140.976 24.8319 141.744 18.5599 148.208 18.5599C154.672 18.5599 155.44 24.8319 155.44 31.9999ZM172.59 55.3599H204.718V46.4639H187.438C194.862 40.7679 204.014 32.5759 204.014 22.3359C204.014 14.4639 199.278 8.25594 188.654 8.25594C180.142 8.25594 172.782 13.1199 172.462 24.4479H183.022C183.022 20.0319 184.942 17.4719 188.206 17.4719C191.534 17.4719 193.07 19.6479 193.07 23.0399C193.07 30.9119 182.51 39.0399 172.59 47.2319V55.3599Z" fill="#141414"/>
    <path d="M78.6821 43.9651L76.9323 44.6184C77.3632 45.7764 77.6881 46.9712 77.9029 48.188L79.7404 47.8632C79.5063 46.5345 79.152 45.2298 78.6821 43.9651Z" fill="#FCFFFF"/>
    <path d="M68.397 32.0917L67.503 33.7296C70.8622 35.5657 73.6443 38.3003 75.5381 41.6275L77.16 40.7036C75.0944 37.0757 72.0603 34.0939 68.397 32.0917Z" fill="#FCFFFF"/>
    <path d="M41.6086 36.1718L42.9488 37.4783C43.9027 36.4944 44.9518 35.6076 46.0807 34.8307L45.0243 33.2928C43.7934 34.1373 42.6493 35.1017 41.6086 36.1718Z" fill="#FCFFFF"/>
    <path d="M35.6258 47.8624L37.4633 48.1853C37.8491 45.9972 38.5902 43.887 39.6573 41.9382L38.0186 41.0442C36.8544 43.1712 36.0461 45.4743 35.6258 47.8624Z" fill="#FCFFFF"/>
    <path d="M32.4873 56.4228H46.4857V76.9539C46.4857 77.2014 46.5841 77.4387 46.7591 77.6138C46.9341 77.7888 47.1715 77.8871 47.419 77.8871H56.7512C56.947 77.8869 57.1378 77.8252 57.2966 77.7107C57.4554 77.5961 57.5741 77.4345 57.6359 77.2488L60.3563 69.0905L74.8325 56.4228H82.8816C83.5432 56.4246 84.1838 56.1914 84.6894 55.7648C85.1951 55.3383 85.5328 54.746 85.6425 54.0937C85.7522 53.4413 85.6267 52.7712 85.2884 52.2027C84.9501 51.6342 84.421 51.2043 83.7953 50.9896C83.6023 44.6458 81.1099 38.5884 76.7822 33.9459C72.4546 29.3034 66.587 26.3924 60.2723 25.7551C60.4479 25.3298 60.5159 24.8677 60.4704 24.4099C60.4249 23.952 60.2673 23.5124 60.0114 23.13C59.7555 22.7475 59.4094 22.4341 59.0035 22.2173C58.5976 22.0005 58.1446 21.8871 57.6845 21.8871C57.2243 21.8871 56.7713 22.0005 56.3654 22.2173C55.9596 22.4341 55.6134 22.7475 55.3575 23.13C55.1017 23.5124 54.944 23.952 54.8985 24.4099C54.853 24.8677 54.921 25.3298 55.0966 25.7551C48.782 26.3924 42.9143 29.3034 38.5867 33.9459C34.2591 38.5884 31.7666 44.6458 31.5737 50.9896C30.948 51.2043 30.4188 51.6342 30.0805 52.2027C29.7422 52.7712 29.6167 53.4413 29.7264 54.0937C29.8361 54.746 30.1739 55.3383 30.6795 55.7648C31.1851 56.1914 31.8258 56.4246 32.4873 56.4228ZM58.9369 67.853C58.8114 67.9616 58.7178 68.1022 58.6662 68.2599L56.0784 76.0206H48.3522V56.4228C48.8472 56.4228 49.3219 56.6195 49.672 56.9695C50.022 57.3195 50.2186 57.7943 50.2186 58.2893V64.8219C50.2186 64.9557 50.2474 65.0879 50.3029 65.2095C50.3585 65.3312 50.4395 65.4395 50.5406 65.5272C50.6416 65.6148 50.7604 65.6796 50.8887 65.7174C51.017 65.7551 51.152 65.7648 51.2844 65.7458L57.817 64.8126C57.9595 64.7898 58.0948 64.7338 58.2117 64.6492V64.6558L70.1085 56.4228H71.9993L58.9369 67.853ZM57.1395 63.0236L57.0872 63.031L59.2896 56.4228H61.5406L57.1395 63.0236ZM63.7831 56.4228H66.8301L61.1738 60.3424L63.7831 56.4228ZM55.022 63.3287L52.0851 63.7459V58.2893C52.0812 57.6321 51.9021 56.9878 51.5662 56.4228H57.3233L55.022 63.3287ZM56.7512 24.6931C56.7512 24.5085 56.806 24.3281 56.9085 24.1746C57.0111 24.0211 57.1568 23.9015 57.3273 23.8309C57.4979 23.7603 57.6855 23.7418 57.8665 23.7778C58.0476 23.8138 58.2138 23.9027 58.3444 24.0332C58.4749 24.1637 58.5638 24.33 58.5998 24.511C58.6358 24.692 58.6173 24.8797 58.5467 25.0502C58.476 25.2207 58.3564 25.3665 58.2029 25.469C58.0495 25.5716 57.869 25.6263 57.6845 25.6263C57.437 25.6263 57.1996 25.528 57.0246 25.353C56.8496 25.178 56.7512 24.9406 56.7512 24.6931ZM57.6845 27.4928C63.9558 27.5003 69.9813 29.9328 74.5004 34.2812C79.0194 38.6296 81.6818 44.557 81.9307 50.8235H33.4383C33.6871 44.557 36.3496 38.6296 40.8686 34.2812C45.3876 29.9328 51.4131 27.5003 57.6845 27.4928ZM32.4873 52.6899H82.8816C83.1291 52.6899 83.3665 52.7882 83.5415 52.9633C83.7165 53.1383 83.8149 53.3756 83.8149 53.6232C83.8149 53.8707 83.7165 54.108 83.5415 54.283C83.3665 54.4581 83.1291 54.5564 82.8816 54.5564H32.4873C32.2398 54.5564 32.0024 54.4581 31.8274 54.283C31.6524 54.108 31.5541 53.8707 31.5541 53.6232C31.5541 53.3756 31.6524 53.1383 31.8274 52.9633C32.0024 52.7882 32.2398 52.6899 32.4873 52.6899Z" fill="#FCFFFF"/>
    <defs>
    <filter id="filter0_dd" x="0.479614" y="0.682129" width="114.41" height="114.41" filterUnits="userSpaceOnUse" color-interpolation-filters="sRGB">
    <feFlood flood-opacity="0" result="BackgroundImageFix"/>
    <feColorMatrix in="SourceAlpha" type="matrix" values="0 0 0 0 0 0 0 0 0 0 0 0 0 0 0 0 0 0 127 0"/>
    <feOffset dy="8"/>
    <feGaussianBlur stdDeviation="8"/>
    <feColorMatrix type="matrix" values="0 0 0 0 0.0666667 0 0 0 0 0.0666667 0 0 0 0 0.0666667 0 0 0 0.04 0"/>
    <feBlend mode="normal" in2="BackgroundImageFix" result="effect1_dropShadow"/>
    <feColorMatrix in="SourceAlpha" type="matrix" values="0 0 0 0 0 0 0 0 0 0 0 0 0 0 0 0 0 0 127 0"/>
    <feOffset/>
    <feGaussianBlur stdDeviation="0.5"/>
    <feColorMatrix type="matrix" values="0 0 0 0 0 0 0 0 0 0 0 0 0 0 0 0 0 0 0.2 0"/>
    <feBlend mode="normal" in2="effect1_dropShadow" result="effect2_dropShadow"/>
    <feBlend mode="normal" in="SourceGraphic" in2="effect2_dropShadow" result="shape"/>
    </filter>
    </defs>
    </svg>
