<svg width="221" height="66" viewBox="0 0 221 66" fill="none" xmlns="http://www.w3.org/2000/svg">
<g clip-path="url(#clip0)">
<path d="M202.999 0.147673H17.8091C17.134 0.147673 16.4671 0.147673 15.7938 0.150937C15.2302 0.1542 14.6712 0.16368 14.1022 0.17166C12.8661 0.184553 11.6328 0.280947 10.4133 0.460004C9.1954 0.642958 8.01569 0.98788 6.91402 1.4831C5.8137 1.98251 4.80831 2.63145 3.93432 3.40636C3.05574 4.1791 2.32337 5.07228 1.76539 6.05156C1.20586 7.02888 0.81788 8.07618 0.614851 9.15727C0.409891 10.237 0.299601 11.3292 0.284969 12.424C0.267886 12.9243 0.266082 13.4263 0.25708 13.9266V51.643C0.266082 52.1496 0.267886 52.6405 0.284969 53.1473C0.299605 54.2421 0.409896 55.3342 0.614851 56.4139C0.817319 57.4956 1.20532 58.5435 1.76539 59.5212C2.32312 60.4973 3.05559 61.3868 3.93432 62.1553C4.805 62.9336 5.81104 63.583 6.91402 64.0786C8.01568 64.5752 9.19527 64.9221 10.4133 65.1079C11.6331 65.2855 12.8661 65.382 14.1022 65.3964C14.6712 65.4075 15.2302 65.4139 15.7938 65.4139C16.4671 65.4171 17.1341 65.4171 17.8091 65.4171H202.999C203.661 65.4171 204.333 65.4171 204.995 65.4139C205.556 65.4139 206.131 65.4075 206.692 65.3964C207.926 65.3827 209.156 65.2863 210.374 65.1079C211.596 64.9208 212.779 64.5739 213.886 64.0786C214.988 63.5827 215.993 62.9334 216.863 62.1553C217.74 61.3838 218.474 60.4949 219.039 59.5212C219.594 58.5428 219.979 57.495 220.178 56.4139C220.384 55.334 220.498 54.2421 220.52 53.1473C220.527 52.6405 220.527 52.1496 220.527 51.643C220.541 51.0502 220.541 50.4606 220.541 49.8582V15.7081C220.541 15.1106 220.541 14.5178 220.527 13.9266C220.527 13.4263 220.527 12.9243 220.52 12.4239C220.498 11.329 220.384 10.2371 220.178 9.15721C219.978 8.07674 219.594 7.02953 219.039 6.05149C217.902 4.08864 216.1 2.49089 213.886 1.48296C212.779 0.988943 211.595 0.644113 210.374 0.459857C209.157 0.280011 207.926 0.183584 206.692 0.171431C206.131 0.163468 205.556 0.153906 204.995 0.150724C204.333 0.147461 203.661 0.147461 202.999 0.147461V0.147673Z" fill="#A6A6A6"/>
<path d="M15.6443 63.9943C15.0824 63.9943 14.5342 63.988 13.9767 63.9769C12.822 63.9636 11.6699 63.8746 10.53 63.7107C9.46705 63.5487 8.43736 63.2473 7.47488 62.8165C6.52122 62.3892 5.65141 61.829 4.89876 61.1573C4.13522 60.4935 3.49954 59.7236 3.0169 58.8781C2.52895 58.0271 2.19126 57.115 2.01559 56.1734C1.82589 55.1617 1.72325 54.1387 1.70856 53.1133C1.69687 52.7691 1.68156 51.623 1.68156 51.623V13.9211C1.68156 13.9211 1.69787 12.7927 1.70865 12.4612C1.72272 11.4373 1.82476 10.4159 2.0139 9.40581C2.18989 8.46169 2.52784 7.5469 3.01606 6.69313C3.49692 5.84823 4.12907 5.07775 4.88801 4.41157C5.6461 3.73906 6.5187 3.17596 7.47398 2.74282C8.43425 2.31339 9.46199 2.01414 10.5228 1.85507C11.6664 1.68952 12.8225 1.60002 13.9813 1.58731L15.6452 1.56738H205.154L206.838 1.58811C207.986 1.60019 209.132 1.68889 210.265 1.85347C211.336 2.01453 212.375 2.31588 213.346 2.7476C215.26 3.62051 216.817 5.00154 217.799 6.69712C218.28 7.54499 218.613 8.45231 218.786 9.38828C218.978 10.4067 219.085 11.4361 219.107 12.4684C219.112 12.9306 219.112 13.427 219.112 13.9211C219.127 14.5332 219.127 15.1157 219.127 15.703V49.8602C219.127 50.4532 219.127 51.0317 219.112 51.615C219.112 52.1458 219.112 52.632 219.105 53.1324C219.083 54.1462 218.978 55.1572 218.79 56.1574C218.618 57.1058 218.282 58.025 217.794 58.883C217.308 59.7193 216.676 60.4825 215.921 61.1446C215.168 61.8199 214.297 62.3834 213.341 62.8134C212.372 63.2475 211.335 63.55 210.265 63.7107C209.125 63.8755 207.973 63.9644 206.818 63.9769C206.278 63.988 205.712 63.9943 205.163 63.9943L203.164 63.9976L15.6443 63.9943Z" fill="black"/>
<path d="M53.7736 33.2728C53.7911 31.9109 54.1529 30.5755 54.8252 29.391C55.4975 28.2064 56.4586 27.2111 57.6189 26.4978C56.8818 25.4451 55.9093 24.5787 54.7788 23.9675C53.6483 23.3564 52.3909 23.0172 51.1064 22.977C48.3663 22.6894 45.7099 24.6166 44.3136 24.6166C42.8903 24.6166 40.7405 23.0056 38.4255 23.0532C36.9281 23.1016 35.4687 23.537 34.1897 24.3171C32.9106 25.0971 31.8554 26.1952 31.1269 27.5044C27.9711 32.9681 30.325 40.998 33.348 45.4144C34.8604 47.5771 36.6281 49.9928 38.941 49.9071C41.2043 49.8132 42.0496 48.4639 44.7816 48.4639C47.4883 48.4639 48.2813 49.9071 50.6412 49.8526C53.0698 49.8132 54.6 47.6804 56.0594 45.4973C57.1461 43.9563 57.9823 42.2533 58.537 40.4511C57.126 39.8544 55.922 38.8554 55.0749 37.5789C54.2278 36.3024 53.7752 34.8048 53.7736 33.2728Z" fill="white"/>
<path d="M49.3163 20.0722C50.6405 18.4826 51.2929 16.4394 51.1349 14.3765C49.1119 14.589 47.2431 15.5559 45.901 17.0845C45.2448 17.8313 44.7423 18.7001 44.422 19.6412C44.1018 20.5824 43.9702 21.5774 44.0348 22.5694C45.0467 22.5798 46.0478 22.3605 46.9626 21.928C47.8775 21.4954 48.6823 20.8609 49.3163 20.0722Z" fill="white"/>
<path d="M82.3835 44.4321H74.6598L72.805 49.9089H69.5335L76.8493 29.646H80.2482L87.5639 49.9089H84.2367L82.3835 44.4321ZM75.4597 41.9048H81.582L78.5639 33.0163H78.4795L75.4597 41.9048Z" fill="white"/>
<path d="M103.363 42.5233C103.363 47.1141 100.906 50.0637 97.1981 50.0637C96.2588 50.1128 95.3246 49.8964 94.5026 49.4393C93.6805 48.9822 93.0038 48.3028 92.5499 47.479H92.4797V54.7963H89.4473V35.1358H92.3826V37.593H92.4383C92.9131 36.7731 93.6013 36.0972 94.4296 35.6373C95.2579 35.1774 96.1954 34.9507 97.1423 34.9812C100.892 34.9813 103.363 37.9451 103.363 42.5233ZM100.246 42.5233C100.246 39.5323 98.7008 37.5659 96.3424 37.5659C94.0255 37.5659 92.467 39.5737 92.467 42.5233C92.467 45.4999 94.0255 47.4934 96.3424 47.4934C98.7008 47.4934 100.246 45.5413 100.246 42.5233Z" fill="white"/>
<path d="M119.623 42.5232C119.623 47.1141 117.166 50.0636 113.458 50.0636C112.519 50.1128 111.585 49.8964 110.763 49.4393C109.941 48.9822 109.264 48.3028 108.81 47.479H108.74V54.7963H105.707V35.1358H108.643V37.593H108.698C109.173 36.7731 109.861 36.0972 110.69 35.6373C111.518 35.1774 112.455 34.9507 113.402 34.9812C117.152 34.9812 119.623 37.9451 119.623 42.5232ZM116.506 42.5232C116.506 39.5323 114.961 37.5659 112.602 37.5659C110.285 37.5659 108.727 39.5737 108.727 42.5232C108.727 45.4999 110.285 47.4933 112.602 47.4933C114.961 47.4933 116.506 45.5413 116.506 42.5232H116.506Z" fill="white"/>
<path d="M130.37 44.2631C130.595 46.2725 132.547 47.5919 135.214 47.5919C137.77 47.5919 139.609 46.2725 139.609 44.4606C139.609 42.8879 138.5 41.9461 135.874 41.3007L133.248 40.6681C129.527 39.7694 127.8 38.0293 127.8 35.2056C127.8 31.7095 130.846 29.3081 135.173 29.3081C139.454 29.3081 142.39 31.7095 142.488 35.2056H139.427C139.244 33.1835 137.572 31.9629 135.13 31.9629C132.687 31.9629 131.015 33.1978 131.015 34.9953C131.015 36.4278 132.083 37.2708 134.695 37.9161L136.927 38.4643C141.084 39.4475 142.812 41.1175 142.812 44.0813C142.812 47.8722 139.792 50.2465 134.989 50.2465C130.496 50.2465 127.462 47.928 127.266 44.263L130.37 44.2631Z" fill="white"/>
<path d="M149.356 31.6392V35.1353H152.166V37.5367H149.356V45.681C149.356 46.9462 149.919 47.5358 151.154 47.5358C151.487 47.53 151.82 47.5066 152.151 47.4657V49.8527C151.596 49.9565 151.032 50.0035 150.467 49.993C147.476 49.993 146.31 48.8695 146.31 46.0044V37.5367H144.162V35.1353H146.31V31.6392H149.356Z" fill="white"/>
<path d="M153.793 42.5227C153.793 37.8745 156.53 34.9536 160.799 34.9536C165.083 34.9536 167.808 37.8744 167.808 42.5227C167.808 47.1837 165.097 50.0918 160.799 50.0918C156.503 50.0918 153.793 47.1837 153.793 42.5227ZM164.718 42.5227C164.718 39.3341 163.256 37.4522 160.799 37.4522C158.342 37.4522 156.883 39.3485 156.883 42.5227C156.883 45.724 158.342 47.5916 160.799 47.5916C163.256 47.5916 164.718 45.724 164.718 42.5227H164.718Z" fill="white"/>
<path d="M170.308 35.1357H173.2V37.6502H173.27C173.466 36.8648 173.926 36.1708 174.573 35.6848C175.22 35.1987 176.015 34.9502 176.823 34.9811C177.173 34.9799 177.521 35.0178 177.862 35.0942V37.9306C177.421 37.7958 176.961 37.7339 176.5 37.7474C176.059 37.7295 175.62 37.8072 175.213 37.9751C174.805 38.143 174.438 38.3971 174.138 38.72C173.838 39.0429 173.611 39.4269 173.473 39.8458C173.336 40.2646 173.29 40.7082 173.34 41.1463V49.9089H170.308L170.308 35.1357Z" fill="white"/>
<path d="M191.844 45.5695C191.436 48.2513 188.824 50.0918 185.482 50.0918C181.185 50.0918 178.517 47.2123 178.517 42.5928C178.517 37.9589 181.199 34.9536 185.355 34.9536C189.442 34.9536 192.013 37.7613 192.013 42.2407V43.2796H181.578V43.4629C181.53 44.0066 181.598 44.5543 181.778 45.0696C181.958 45.585 182.245 46.0562 182.621 46.452C182.997 46.8478 183.453 47.159 183.958 47.3651C184.464 47.5712 185.007 47.6674 185.553 47.6474C186.269 47.7145 186.988 47.5485 187.603 47.1742C188.218 46.7998 188.695 46.237 188.964 45.5694L191.844 45.5695ZM181.593 41.1603H188.979C189.006 40.6714 188.932 40.1822 188.761 39.7233C188.59 39.2645 188.326 38.8459 187.986 38.4938C187.646 38.1417 187.236 37.8638 186.784 37.6774C186.331 37.491 185.844 37.4003 185.355 37.4108C184.861 37.4078 184.372 37.5027 183.915 37.6899C183.458 37.8772 183.042 38.153 182.693 38.5016C182.343 38.8502 182.066 39.2646 181.877 39.721C181.688 40.1773 181.591 40.6665 181.593 41.1603V41.1603Z" fill="white"/>
<path d="M75.0797 14.3934C75.7154 14.3478 76.3534 14.4438 76.9475 14.6746C77.5417 14.9054 78.0772 15.2651 78.5154 15.7279C78.9537 16.1907 79.2838 16.745 79.4819 17.3508C79.68 17.9567 79.7411 18.5989 79.661 19.2312C79.661 22.3417 77.9799 24.1297 75.0797 24.1297H71.5629V14.3934H75.0797ZM73.0751 22.7528H74.9108C75.3651 22.7799 75.8197 22.7054 76.2416 22.5347C76.6634 22.364 77.0419 22.1014 77.3495 21.766C77.6571 21.4305 77.886 21.0307 78.0195 20.5957C78.1531 20.1606 78.188 19.7013 78.1217 19.2511C78.1832 18.8026 78.1448 18.3461 78.0091 17.9142C77.8735 17.4824 77.644 17.0858 77.3372 16.7531C77.0303 16.4203 76.6536 16.1596 76.2341 15.9895C75.8147 15.8194 75.3627 15.7442 74.9108 15.7693H73.0751V22.7528Z" fill="white"/>
<path d="M81.3692 20.453C81.323 19.9701 81.3782 19.4829 81.5313 19.0227C81.6845 18.5624 81.9321 18.1392 82.2583 17.7803C82.5846 17.4213 82.9823 17.1345 83.4259 16.9383C83.8695 16.742 84.3492 16.6406 84.8342 16.6406C85.3193 16.6406 85.799 16.742 86.2426 16.9383C86.6862 17.1345 87.0839 17.4213 87.4101 17.7803C87.7364 18.1392 87.984 18.5624 88.1371 19.0227C88.2902 19.4829 88.3455 19.9701 88.2993 20.453C88.3463 20.9363 88.2918 21.4242 88.139 21.8852C87.9863 22.3462 87.7388 22.7702 87.4125 23.1298C87.0862 23.4895 86.6882 23.7769 86.2442 23.9736C85.8001 24.1702 85.3199 24.2718 84.8342 24.2718C84.3486 24.2718 83.8683 24.1702 83.4243 23.9736C82.9802 23.7769 82.5823 23.4895 82.2559 23.1298C81.9296 22.7702 81.6821 22.3462 81.5294 21.8852C81.3767 21.4242 81.3221 20.9363 81.3692 20.453ZM86.8078 20.453C86.8078 18.8603 86.0923 17.9289 84.8366 17.9289C83.5762 17.9289 82.8671 18.8603 82.8671 20.453C82.8671 22.0584 83.5762 22.9827 84.8366 22.9827C86.0923 22.9826 86.8078 22.052 86.8078 20.453H86.8078Z" fill="white"/>
<path d="M97.5113 24.1298H96.007L94.4884 18.7183H94.3737L92.8615 24.1298H91.3716L89.3462 16.7822H90.817L92.1333 22.3889H92.2416L93.7523 16.7822H95.1434L96.654 22.3889H96.7687L98.0786 16.7822H99.5286L97.5113 24.1298Z" fill="white"/>
<path d="M101.232 16.7824H102.628V17.9496H102.736C102.92 17.5304 103.23 17.1789 103.623 16.9443C104.016 16.7096 104.473 16.6034 104.929 16.6405C105.287 16.6137 105.646 16.6676 105.979 16.7983C106.313 16.929 106.613 17.1331 106.858 17.3955C107.102 17.658 107.284 17.972 107.39 18.3144C107.497 18.6568 107.525 19.0187 107.472 19.3734V24.1299H106.022V19.7375C106.022 18.5567 105.509 17.9695 104.437 17.9695C104.194 17.9582 103.952 17.9995 103.726 18.0906C103.501 18.1817 103.298 18.3205 103.131 18.4973C102.965 18.6742 102.838 18.885 102.761 19.1153C102.683 19.3455 102.656 19.5899 102.682 19.8315V24.13H101.232L101.232 16.7824Z" fill="white"/>
<path d="M109.783 13.9141H111.233V24.1299H109.783V13.9141Z" fill="white"/>
<path d="M113.249 20.4531C113.202 19.9702 113.258 19.483 113.411 19.0227C113.564 18.5625 113.812 18.1393 114.138 17.7803C114.464 17.4213 114.862 17.1345 115.306 16.9383C115.749 16.742 116.229 16.6406 116.714 16.6406C117.199 16.6406 117.679 16.742 118.123 16.9383C118.566 17.1345 118.964 17.4213 119.29 17.7803C119.616 18.1393 119.864 18.5625 120.017 19.0227C120.17 19.483 120.226 19.9702 120.18 20.4531C120.227 20.9365 120.172 21.4244 120.019 21.8854C119.866 22.3464 119.619 22.7703 119.293 23.13C118.966 23.4896 118.568 23.777 118.124 23.9737C117.68 24.1703 117.2 24.2719 116.714 24.2719C116.228 24.2719 115.748 24.1703 115.304 23.9737C114.86 23.777 114.462 23.4896 114.136 23.13C113.809 22.7703 113.562 22.3464 113.409 21.8854C113.256 21.4244 113.202 20.9365 113.249 20.4531ZM118.687 20.4531C118.687 18.8604 117.972 17.929 116.716 17.929C115.456 17.929 114.747 18.8604 114.747 20.4531C114.747 22.0586 115.456 22.9828 116.716 22.9828C117.972 22.9828 118.687 22.0522 118.687 20.4531H118.687Z" fill="white"/>
<path d="M121.706 22.0521C121.706 20.7295 122.691 19.967 124.439 19.8587L126.429 19.7439V19.1097C126.429 18.3337 125.916 17.8955 124.925 17.8955C124.115 17.8955 123.555 18.1927 123.394 18.7122H121.99C122.138 17.4501 123.325 16.6406 124.992 16.6406C126.834 16.6406 127.873 17.5577 127.873 19.1097V24.13H126.477V23.0975H126.362C126.129 23.4678 125.802 23.7698 125.415 23.9725C125.027 24.1752 124.592 24.2713 124.155 24.2511C123.847 24.2832 123.535 24.2503 123.24 24.1545C122.945 24.0587 122.674 23.9022 122.443 23.695C122.212 23.4878 122.027 23.2346 121.9 22.9516C121.773 22.6686 121.707 22.3622 121.706 22.0521ZM126.429 21.4243V20.81L124.635 20.9247C123.623 20.9924 123.164 21.3366 123.164 21.9844C123.164 22.6457 123.738 23.0305 124.527 23.0305C124.758 23.0539 124.991 23.0306 125.213 22.9619C125.435 22.8932 125.641 22.7806 125.818 22.6307C125.996 22.4809 126.141 22.2968 126.246 22.0896C126.351 21.8823 126.413 21.656 126.429 21.4243Z" fill="white"/>
<path d="M129.779 20.453C129.779 18.1313 130.972 16.6605 132.829 16.6605C133.288 16.6393 133.744 16.7493 134.143 16.9776C134.542 17.2058 134.867 17.543 135.082 17.9495H135.19V13.9141H136.64V24.1299H135.251V22.9691H135.136C134.905 23.3729 134.568 23.7058 134.161 23.9318C133.754 24.1578 133.294 24.2682 132.829 24.251C130.96 24.2511 129.779 22.7803 129.779 20.453ZM131.277 20.453C131.277 22.0114 132.011 22.9492 133.24 22.9492C134.462 22.9492 135.217 21.9979 135.217 20.4594C135.217 18.928 134.454 17.9632 133.24 17.9632C132.019 17.9632 131.277 18.9073 131.277 20.453H131.277Z" fill="white"/>
<path d="M142.64 20.453C142.594 19.9701 142.649 19.4829 142.802 19.0227C142.955 18.5624 143.203 18.1392 143.529 17.7803C143.855 17.4213 144.253 17.1345 144.696 16.9383C145.14 16.742 145.62 16.6406 146.105 16.6406C146.59 16.6406 147.07 16.742 147.513 16.9383C147.957 17.1345 148.354 17.4213 148.681 17.7803C149.007 18.1392 149.255 18.5624 149.408 19.0227C149.561 19.4829 149.616 19.9701 149.57 20.453C149.617 20.9363 149.562 21.4242 149.41 21.8852C149.257 22.3462 149.009 22.7702 148.683 23.1298C148.357 23.4895 147.959 23.7769 147.515 23.9736C147.071 24.1702 146.59 24.2718 146.105 24.2718C145.619 24.2718 145.139 24.1702 144.695 23.9736C144.251 23.7769 143.853 23.4895 143.527 23.1298C143.2 22.7702 142.953 22.3462 142.8 21.8852C142.647 21.4242 142.593 20.9363 142.64 20.453ZM148.078 20.453C148.078 18.8603 147.363 17.9289 146.107 17.9289C144.847 17.9289 144.138 18.8603 144.138 20.453C144.138 22.0584 144.847 22.9827 146.107 22.9827C147.363 22.9826 148.078 22.052 148.078 20.453Z" fill="white"/>
<path d="M151.516 16.7824H152.911V17.9496H153.02C153.204 17.5304 153.514 17.1789 153.907 16.9443C154.3 16.7096 154.756 16.6034 155.212 16.6405C155.57 16.6137 155.929 16.6676 156.263 16.7983C156.597 16.929 156.897 17.1331 157.141 17.3955C157.385 17.658 157.567 17.972 157.674 18.3144C157.78 18.6568 157.808 19.0187 157.756 19.3734V24.1299H156.306V19.7375C156.306 18.5567 155.793 17.9695 154.72 17.9695C154.477 17.9582 154.235 17.9995 154.01 18.0906C153.784 18.1817 153.582 18.3205 153.415 18.4973C153.248 18.6742 153.122 18.885 153.044 19.1153C152.967 19.3455 152.94 19.5899 152.966 19.8315V24.13H151.516V16.7824Z" fill="white"/>
<path d="M165.949 14.9531V16.8159H167.541V18.0373H165.949V21.8155C165.949 22.5852 166.267 22.9222 166.988 22.9222C167.173 22.9216 167.358 22.9104 167.541 22.8887V24.0966C167.281 24.1432 167.017 24.1679 166.753 24.1707C165.14 24.1707 164.498 23.6034 164.498 22.1868V18.0373H163.331V16.8158H164.498V14.9531H165.949Z" fill="white"/>
<path d="M169.522 13.9141H170.959V17.9631H171.074C171.267 17.54 171.585 17.1866 171.986 16.951C172.387 16.7155 172.851 16.6093 173.314 16.6469C173.67 16.6276 174.026 16.6869 174.356 16.8208C174.686 16.9547 174.982 17.1597 175.224 17.4214C175.466 17.683 175.647 17.9947 175.754 18.3344C175.861 18.674 175.892 19.0331 175.845 19.3861V24.13H174.393V19.7438C174.393 18.5702 173.847 17.9759 172.822 17.9759C172.573 17.9554 172.322 17.9897 172.088 18.0763C171.853 18.1628 171.64 18.2996 171.464 18.477C171.288 18.6545 171.152 18.8683 171.068 19.1035C170.983 19.3387 170.95 19.5896 170.972 19.8387V24.1299H169.522L169.522 13.9141Z" fill="white"/>
<path d="M184.3 22.1463C184.103 22.8178 183.676 23.3987 183.094 23.7873C182.512 24.1758 181.812 24.3474 181.116 24.272C180.632 24.2847 180.151 24.192 179.706 24.0003C179.262 23.8085 178.864 23.5222 178.541 23.1614C178.218 22.8006 177.978 22.3738 177.836 21.9107C177.695 21.4475 177.656 20.9592 177.722 20.4795C177.658 19.9983 177.697 19.5089 177.838 19.0444C177.98 18.5799 178.219 18.1511 178.54 17.7871C178.861 17.4231 179.257 17.1324 179.7 16.9346C180.144 16.7368 180.624 16.6366 181.11 16.6407C183.154 16.6407 184.388 18.0375 184.388 20.3448V20.8508H179.199V20.932C179.177 21.2017 179.21 21.4731 179.299 21.7289C179.387 21.9846 179.528 22.2191 179.712 22.4173C179.896 22.6155 180.12 22.773 180.369 22.8797C180.617 22.9864 180.885 23.04 181.156 23.037C181.503 23.0786 181.854 23.0162 182.166 22.8575C182.477 22.6989 182.734 22.4513 182.904 22.1462L184.3 22.1463ZM179.199 19.7783H182.91C182.929 19.5317 182.895 19.284 182.812 19.0512C182.729 18.8183 182.598 18.6054 182.428 18.4261C182.257 18.2469 182.051 18.1052 181.823 18.0103C181.595 17.9154 181.349 17.8692 181.102 17.8749C180.851 17.8718 180.602 17.9188 180.37 18.0134C180.138 18.1079 179.927 18.248 179.749 18.4254C179.572 18.6028 179.432 18.8139 179.337 19.0463C179.243 19.2786 179.196 19.5275 179.199 19.7783H179.199Z" fill="white"/>
</g>
<defs>
<clipPath id="clip0">
<rect width="220.284" height="65.2694" fill="white" transform="translate(0.25708 0.147461)"/>
</clipPath>
</defs>
</svg>
