<svg width="535" height="350" viewBox="0 0 535 350" fill="none" xmlns="http://www.w3.org/2000/svg">
    <path d="M22.7473 177.873C3.71133 140.528 20.0886 82.7195 46.4093 50.1244C80.5553 7.90494 151.081 12.3006 191.377 42.8928C216.421 61.8934 233.738 90.8107 261.716 105.15C294.373 121.899 333.615 115.031 369.595 107.764C405.576 100.497 444.818 93.5845 477.484 110.352C505.063 124.478 523.15 155.434 521.795 186.389C520.908 206.382 512.596 225.445 501.58 242.159C487.241 263.907 467.744 282.704 444.047 293.56C413.968 307.234 379.725 307.287 346.731 308.067C293.363 309.299 239.543 312.994 186.919 304.026C116.022 291.956 44.1672 250.746 22.7473 177.882" fill="#EBEBEB"/>
    <path d="M444.419 327.457C429.194 312.649 428.928 289.74 432.898 269.853C433.554 266.53 433.784 262.95 435.831 260.273C437.879 257.597 441.937 256.197 444.694 258.093C446.989 259.671 447.6 262.737 448.602 265.351C449.94 268.837 452.234 271.875 455.222 274.116C457.172 275.56 459.653 276.668 461.984 275.888C465.121 274.763 466.114 270.837 466.636 267.514C467.599 261.31 468.568 255.107 469.543 248.903C470.066 245.58 470.616 242.177 472.158 239.155C473.7 236.133 476.473 233.616 479.779 233.244C483.085 232.871 486.7 235.335 486.869 238.694C486.931 240.094 486.426 241.459 486.293 242.85C486.16 244.241 486.55 245.881 487.799 246.475C489.049 247.069 490.547 246.36 491.699 245.544C495.678 242.744 498.709 238.8 501.589 234.856C504.469 230.913 507.296 226.88 511 223.699C514.705 220.517 519.49 218.382 524.294 218.851C529.097 219.321 533.697 223.123 534.14 227.997C534.583 232.871 531.073 237.187 527.475 240.493C522.147 245.404 516.135 249.518 509.627 252.705C508.457 253.281 507.19 253.901 506.587 255.062C505.506 257.163 507.252 259.706 509.317 260.787C511.665 262.019 514.395 262.196 516.938 262.932C519.482 263.667 522.096 265.254 522.681 267.868C523.487 271.484 520.067 274.586 516.885 276.464C510.524 280.224 503.563 282.859 496.307 284.254C493.719 284.751 490.99 285.14 488.765 286.514C486.541 287.888 484.83 290.706 485.646 293.24C486.461 295.775 489.386 297.025 492.027 296.971C494.667 296.918 497.184 295.89 499.772 295.367C504.629 294.393 510.478 295.669 512.755 300.091C514.262 302.998 513.836 306.64 512.356 309.582C510.876 312.525 508.475 314.855 505.984 316.973C497.264 324.373 486.762 329.762 475.561 331.702C464.359 333.643 454.38 333.049 444.481 327.484" fill="#FA1616"/>
    <path d="M441.76 342.257C444.203 333.122 447.518 324.243 451.659 315.742C456.759 305.379 462.452 295.318 468.71 285.61L473.584 277.936C475.188 275.419 476.783 272.928 478.494 270.589C481.779 266.095 485.311 261.787 489.075 257.685C492.62 253.742 496.165 250.135 499.497 246.785C502.829 243.435 505.993 240.386 508.998 237.719C513.708 233.487 518.745 229.635 524.063 226.198C525.951 224.984 527.44 224.089 528.494 223.539L529.655 222.866C529.785 222.786 529.921 222.718 530.063 222.662C529.944 222.758 529.82 222.847 529.691 222.928L528.556 223.646C527.564 224.266 526.093 225.197 524.232 226.437C518.969 229.933 513.974 233.816 509.29 238.056C506.312 240.714 503.175 243.807 499.869 247.166C496.564 250.525 493.054 254.141 489.51 258.084C485.768 262.172 482.253 266.462 478.981 270.934C477.289 273.265 475.711 275.747 474.098 278.263C472.485 280.78 470.881 283.341 469.233 285.912C462.992 295.607 457.297 305.643 452.173 315.972C448.025 324.434 444.681 333.267 442.185 342.355" fill="#263238"/>
    <path d="M478.68 270.58C478.595 270.095 478.563 269.602 478.582 269.109C478.582 268.161 478.582 266.796 478.582 265.095C478.644 261.709 478.901 257.039 479.203 251.89C479.504 246.741 479.699 242.071 479.717 238.694C479.717 237.001 479.717 235.637 479.717 234.688C479.678 234.198 479.695 233.704 479.77 233.217C479.886 233.696 479.949 234.187 479.956 234.68C480.045 235.619 480.116 236.993 480.16 238.685C480.257 242.071 480.16 246.759 479.832 251.916C479.504 257.074 479.238 261.603 479.025 265.112C478.937 266.699 478.866 268.037 478.813 269.118C478.819 269.609 478.775 270.099 478.68 270.58Z" fill="#263238"/>
    <path d="M522.725 269.561C522.133 269.59 521.54 269.564 520.952 269.482C519.836 269.402 518.223 269.278 516.238 269.189C512.25 268.968 506.738 268.87 500.649 269.021C494.561 269.172 489.058 269.561 485.078 269.951C483.093 270.129 481.534 270.324 480.381 270.448C479.796 270.548 479.203 270.593 478.609 270.581C479.163 270.399 479.732 270.271 480.311 270.2C481.409 270.005 482.969 269.748 484.999 269.508C488.978 269.003 494.49 268.551 500.605 268.392C505.816 268.244 511.03 268.362 516.229 268.746C518.223 268.897 519.836 269.083 520.944 269.242C521.547 269.286 522.144 269.393 522.725 269.561Z" fill="#263238"/>
    <path d="M452.324 315.041C452.324 315.041 452.226 314.855 452.111 314.474C451.996 314.093 451.828 313.473 451.633 312.808C451.225 311.364 450.684 309.263 450.055 306.605C448.788 301.376 447.272 294.091 445.704 286.036C444.135 277.98 442.691 270.686 441.539 265.431C440.971 262.879 440.502 260.778 440.147 259.227C440.005 258.545 439.881 257.987 439.784 257.535C439.729 257.339 439.699 257.136 439.695 256.932C439.695 256.932 439.793 257.118 439.908 257.499C440.023 257.88 440.191 258.501 440.386 259.165C440.794 260.61 441.335 262.71 441.964 265.369C443.222 270.598 444.747 277.882 446.315 285.947C447.884 294.012 449.328 301.287 450.481 306.543L451.863 312.746C452.014 313.42 452.138 313.987 452.235 314.439C452.291 314.635 452.321 314.838 452.324 315.041Z" fill="#263238"/>
    <path d="M512.099 305.993C511.905 306.066 511.703 306.113 511.497 306.135L509.724 306.419L503.317 307.394C497.911 308.227 490.458 309.458 482.225 310.823C473.992 312.188 466.574 313.384 461.124 314.076C458.412 314.439 456.214 314.705 454.69 314.855L452.918 315.024C452.715 315.057 452.509 315.057 452.306 315.024C452.5 314.95 452.702 314.902 452.909 314.882L454.681 314.598L461.08 313.624C466.486 312.791 473.948 311.559 482.181 310.194C490.414 308.829 497.884 307.659 503.317 306.942C506.029 306.578 508.226 306.312 509.751 306.162L511.523 305.993C511.714 305.969 511.908 305.969 512.099 305.993Z" fill="#263238"/>
    <path d="M35.5354 257.553C40.3299 256.268 45.5763 257.482 49.7947 260.087C53.9531 262.85 57.4216 266.531 59.933 270.846C65.0288 278.99 66.7746 289.9 66.943 299.506C56.3084 299.01 47.2335 290.582 42.9088 286.018C36.076 278.804 28.0912 261.621 35.5354 257.588" fill="#FA1616"/>
    <path d="M84.0559 305.976C79.6957 302.555 77.7726 296.528 78.7386 291.069C79.2905 288.345 80.3796 285.757 81.9422 283.458C83.5049 281.159 85.5098 279.194 87.8401 277.679C89.9581 276.234 92.5902 275.1 95.045 275.844C96.1775 276.261 97.1771 276.974 97.9394 277.91C98.7018 278.845 99.1989 279.968 99.3786 281.161C99.7168 283.561 99.4109 286.008 98.4924 288.251C95.754 296.006 91.6862 303.007 84.0559 306.046" fill="#FA1616"/>
    <path d="M93.7334 336.364C93.3005 335.844 92.9425 335.265 92.67 334.645C92.0585 333.511 91.19 331.845 90.1885 329.762C87.4632 324.336 85.4781 318.568 84.2863 312.614C83.0279 305.524 83.9496 298.913 85.722 294.579C86.378 292.85 87.2537 291.211 88.3275 289.705C88.6824 289.126 89.1283 288.609 89.6479 288.172C89.834 288.287 87.9376 290.52 86.431 294.845C84.5999 300.522 84.2281 306.569 85.3498 312.428C86.5375 318.292 88.393 324.001 90.8798 329.443C92.7143 333.679 93.8752 336.294 93.7334 336.364Z" fill="#263238"/>
    <path d="M42.767 270.102C43.6074 270.829 44.3815 271.63 45.08 272.494C46.5157 274.081 48.554 276.411 51.0442 279.318C56.0159 285.123 62.7601 293.267 69.9916 302.44C77.2231 311.612 83.5419 320.075 88.0261 326.279C90.2683 329.381 92.0584 331.906 93.2637 333.679C93.9338 334.56 94.5268 335.497 95.0361 336.479C94.2623 335.684 93.554 334.827 92.9181 333.918L87.4058 326.731C82.7709 320.651 76.3458 312.268 69.132 303.104C61.9181 293.941 55.2715 285.734 50.4505 279.806L44.7344 272.76C44.0072 271.929 43.3492 271.04 42.767 270.102Z" fill="#263238"/>
    <path d="M76.8598 317.815C72.2491 314.193 66.8416 311.721 61.0853 310.605C55.3291 309.49 49.3898 309.762 43.7596 311.399C40.9148 312.285 37.751 313.995 37.4674 316.955C37.1839 319.915 39.9577 322.273 42.6341 323.575C48.2582 326.245 54.5466 327.189 60.7067 326.29C66.8668 325.391 72.623 322.689 77.2498 318.524" fill="#FA1616"/>
    <path d="M50.8404 316.822C51.4276 316.548 52.0515 316.36 52.6926 316.264C53.4268 316.077 54.173 315.941 54.9259 315.856C55.9147 315.697 56.9118 315.593 57.9124 315.546C60.5258 315.397 63.1477 315.512 65.7377 315.892C72.1114 316.821 78.1803 319.224 83.4621 322.911C85.6076 324.409 87.5968 326.119 89.3997 328.015C90.1041 328.731 90.7641 329.488 91.376 330.284C91.8684 330.859 92.3186 331.469 92.7231 332.11C93.1232 332.616 93.4485 333.177 93.6891 333.776C93.5207 333.9 91.9964 331.604 88.8592 328.547C87.02 326.768 85.0271 325.154 82.9038 323.726C80.2827 322.009 77.5018 320.548 74.5999 319.366C71.6789 318.241 68.6541 317.407 65.5693 316.875C63.042 316.459 60.4824 316.269 57.9213 316.308C53.5965 316.397 50.8847 317.026 50.8404 316.822Z" fill="#263238"/>
    <path d="M196.623 29.0591L189.188 35.2627L185.572 33.6497L184.828 30.5834C184.828 30.5834 192.804 24.6901 192.511 24.3799C191.766 23.6642 190.801 23.2208 189.773 23.1215C187.857 22.8739 185.92 23.3931 184.385 24.566L182.984 25.6206C181.701 26.5631 180.704 27.8433 180.105 29.3188C179.505 30.7942 179.327 32.407 179.59 33.9776C179.603 34.0701 179.621 34.1618 179.643 34.2524L157.603 52.5705C156.118 52.0774 154.511 52.0898 153.033 52.6058C151.555 53.1218 150.289 54.1124 149.434 55.423C148.578 56.7336 148.18 58.2906 148.302 59.8512C148.423 61.4118 149.058 62.8881 150.107 64.05C151.156 65.2119 152.56 65.994 154.1 66.2744C155.64 66.5547 157.229 66.3176 158.621 65.5999C160.012 64.8822 161.126 63.7243 161.79 62.3068C162.454 60.8893 162.63 59.2919 162.291 57.7637L184.083 39.4722C184.949 40.226 186.064 40.6304 187.212 40.6066C188.307 40.6274 189.396 40.4261 190.412 40.0149C191.428 39.6037 192.35 38.991 193.123 38.2138L194.966 36.4413C195.881 35.4738 196.518 34.2773 196.81 32.978C197.101 31.6788 197.037 30.3249 196.623 29.0591ZM154.085 62.2657C153.497 62.004 152.999 61.5737 152.656 61.0292C152.313 60.4848 152.139 59.8506 152.156 59.2071C152.173 58.5636 152.381 57.9397 152.753 57.4144C153.125 56.8891 153.644 56.486 154.246 56.2561C154.847 56.0263 155.503 55.9801 156.131 56.1233C156.758 56.2665 157.329 56.5927 157.771 57.0607C158.213 57.5286 158.507 58.1172 158.614 58.752C158.721 59.3867 158.638 60.039 158.374 60.6262C158.2 61.0194 157.949 61.3741 157.637 61.6698C157.324 61.9655 156.956 62.1962 156.554 62.3487C156.152 62.5012 155.723 62.5724 155.293 62.5581C154.863 62.5439 154.441 62.4445 154.049 62.2657H154.085Z" fill="#FA1616"/>
    <path d="M229.954 71.3317L206.221 73.3168L206.301 73.2725C202.253 78.1178 197.211 82.0375 191.518 84.7666C185.824 87.4957 179.611 88.9706 173.298 89.0915C168.068 89.1636 162.865 88.3393 157.913 86.6544C152.559 84.8199 147.611 81.9637 143.344 78.2442C138.675 74.1912 134.906 69.2059 132.28 63.6091C129.653 58.0123 128.226 51.9277 128.092 45.7466C128.03 44.9384 128.03 44.1266 128.092 43.3184C128.092 42.5119 128.181 41.6966 128.216 40.8813C128.267 40.066 128.37 39.2548 128.526 38.453L128.925 35.9982C129.093 35.1917 129.324 34.3941 129.519 33.5965C129.714 32.799 129.9 31.9748 130.175 31.1949C130.449 30.415 130.742 29.6352 131.061 28.8553L131.486 27.6766C131.628 27.2867 131.841 26.9145 132.009 26.5334C134.655 20.7232 138.507 15.5423 143.308 11.3347C147.804 7.36406 153.067 4.35816 158.771 2.50303C164.475 0.647897 170.499 -0.0170041 176.471 0.549464C184.125 1.26079 191.464 3.94774 197.768 8.34723C204.072 12.7467 209.125 18.7079 212.433 25.6472C212.944 26.6182 213.382 27.6253 213.745 28.6603C214.108 29.6795 214.489 30.672 214.826 31.6735C215.399 33.6279 215.846 35.6171 216.164 37.6288C216.297 38.6037 216.483 39.5519 216.563 40.5002C216.643 41.4484 216.652 42.3878 216.696 43.3006C216.696 43.7615 216.696 44.1869 216.767 44.6654C216.838 45.144 216.723 45.5516 216.705 46.0036C216.705 46.8898 216.625 47.776 216.581 48.5914V48.5116C224.991 62.7974 229.52 70.4809 230.007 71.3229L216.359 48.6534C216.395 47.8144 216.43 46.9548 216.466 46.0745C216.466 45.6314 216.51 45.1883 216.519 44.7452C216.528 44.3021 216.475 43.859 216.448 43.3893C216.404 42.503 216.351 41.5548 216.306 40.6065C216.262 39.6583 216.023 38.7278 215.89 37.7529C215.571 35.7587 215.124 33.7872 214.551 31.8507C214.215 30.8581 213.834 29.8744 213.461 28.8641C213.098 27.8394 212.662 26.8414 212.159 25.8776C209.254 19.7449 204.966 14.3701 199.632 10.1763C194.297 5.98257 188.062 3.08433 181.417 1.70981C174.772 0.33528 167.899 0.521986 161.338 2.25522C154.777 3.98846 148.709 7.22091 143.61 11.6981C138.864 15.8736 135.058 21.0086 132.443 26.7638C132.266 27.1449 132.062 27.4994 131.921 27.8893L131.495 29.0591L130.609 31.3721C130.334 32.152 130.184 32.9585 129.962 33.7472C129.74 34.5359 129.537 35.3247 129.368 36.1223C129.2 36.9199 129.129 37.7352 129.005 38.5328C128.856 39.3295 128.755 40.1345 128.704 40.9433C128.659 41.7498 128.615 42.5474 128.579 43.3538C128.522 44.1533 128.522 44.9559 128.579 45.7555C128.781 54.7202 131.717 63.4093 136.995 70.6588C142.272 77.9083 149.639 83.3719 158.108 86.3177C163.014 87.9898 168.169 88.814 173.351 88.7548C179.613 88.6453 185.779 87.1967 191.435 84.5064C197.091 81.8161 202.105 77.9464 206.141 73.1573H206.194L229.954 71.3317Z" fill="#263238"/>
    <path d="M436.629 107.33H100.85C93.7185 107.33 87.9375 113.111 87.9375 120.242V333.546C87.9375 340.677 93.7185 346.458 100.85 346.458H436.629C443.76 346.458 449.541 340.677 449.541 333.546V120.242C449.541 113.111 443.76 107.33 436.629 107.33Z" fill="#455A64"/>
    <path d="M73.3237 328.77H465.094V333.918C465.094 338.102 463.432 342.115 460.474 345.073C457.516 348.031 453.503 349.693 449.32 349.693H89.0984C87.0269 349.693 84.9756 349.285 83.0617 348.492C81.1478 347.7 79.4088 346.538 77.944 345.073C76.4792 343.608 75.3173 341.869 74.5245 339.955C73.7318 338.041 73.3237 335.99 73.3237 333.918V328.77Z" fill="#455A64"/>
    <path d="M439.332 116.83H98.1555V318.764H439.332V116.83Z" fill="#F5F5F5"/>
    <path d="M233.596 328.769H235.121H239.552L256.08 328.698L311.353 328.583H311.761L311.557 328.937C310.866 330.125 310.112 331.401 309.368 332.695C308.624 333.989 307.791 335.354 307.046 336.665L306.975 336.781H306.842L238.435 336.656H238.373V336.603L234.828 330.781L233.942 329.301L233.65 328.813L233.995 329.327C234.217 329.682 234.536 330.169 234.952 330.807C235.785 332.11 237.017 334.016 238.603 336.497L238.515 336.444L306.922 336.32L306.718 336.435L309.04 332.456C309.793 331.171 310.538 329.886 311.238 328.698L311.433 329.053L256.39 328.929L239.702 328.822H235.174H233.995L233.596 328.769Z" fill="#263238"/>
    <path fill-rule="evenodd" clip-rule="evenodd" d="M222.997 154.397C223.619 153.568 224.35 152.826 225.168 152.19L224.654 149.363L229.023 147.493L230.707 149.824C231.734 149.686 232.774 149.686 233.8 149.824L235.431 147.466L239.862 149.239L239.41 152.075C240.237 152.699 240.979 153.429 241.617 154.246L244.444 153.732L246.314 158.101L243.983 159.785C244.12 160.811 244.12 161.851 243.983 162.878L246.34 164.517L244.568 168.948L241.741 168.496C241.116 169.326 240.386 170.071 239.569 170.712L240.083 173.53L235.714 175.4L234.031 173.069C233.001 173.207 231.958 173.207 230.929 173.069L229.298 175.435L224.867 173.663L225.319 170.827C224.487 170.205 223.742 169.475 223.103 168.656L220.285 169.17L218.433 164.765L220.764 163.081C220.622 162.055 220.622 161.015 220.764 159.989L218.433 158.349L220.206 153.918L223.041 154.37L222.997 154.397ZM227.73 159.306C227.348 160.239 227.251 161.263 227.452 162.25C227.653 163.238 228.141 164.143 228.856 164.853C229.571 165.562 230.481 166.044 231.47 166.237C232.458 166.43 233.482 166.326 234.412 165.937C235.341 165.549 236.134 164.893 236.691 164.054C237.249 163.215 237.544 162.229 237.542 161.221C237.539 160.214 237.237 159.23 236.676 158.394C236.114 157.558 235.317 156.907 234.385 156.523C233.765 156.268 233.102 156.138 232.432 156.14C231.761 156.142 231.098 156.276 230.48 156.534C229.862 156.793 229.301 157.171 228.829 157.646C228.357 158.122 227.983 158.686 227.73 159.306Z" fill="#E0E0E0"/>
    <path fill-rule="evenodd" clip-rule="evenodd" d="M205.282 246.032C207.085 243.627 209.198 241.469 211.565 239.616L210.067 231.427L222.731 226.03L227.614 232.774C230.589 232.34 233.608 232.304 236.592 232.668L241.315 225.826L254.095 230.966L252.774 239.173C255.182 240.974 257.339 243.087 259.19 245.456L267.379 243.967L272.776 256.667L266.032 261.541C266.468 264.515 266.501 267.535 266.129 270.518L272.98 275.251L267.84 288.021L259.633 286.701C257.832 289.108 255.719 291.266 253.35 293.117L254.839 301.305L242.175 306.711L237.301 299.967C234.326 300.399 231.307 300.432 228.323 300.065L223.6 306.906L210.82 301.775L212.141 293.56C209.731 291.761 207.573 289.648 205.725 287.277L197.536 288.774L192.13 276.11L198.874 271.227C198.443 268.255 198.41 265.239 198.777 262.259L191.935 257.553L197.066 244.773L205.282 246.094V246.032ZM218.983 260.265C217.892 262.976 217.631 265.949 218.231 268.809C218.831 271.669 220.265 274.287 222.353 276.331C224.441 278.376 227.088 279.755 229.96 280.295C232.832 280.835 235.799 280.511 238.487 279.364C241.175 278.217 243.462 276.299 245.059 273.852C246.657 271.406 247.493 268.54 247.462 265.618C247.431 262.696 246.534 259.849 244.884 257.437C243.235 255.025 240.907 253.156 238.196 252.067C236.395 251.345 234.469 250.984 232.529 251.006C230.589 251.028 228.672 251.432 226.887 252.195C225.103 252.958 223.487 254.064 222.13 255.452C220.774 256.84 219.704 258.481 218.983 260.282V260.265Z" fill="#F5F5F5"/>
    <path d="M148.865 270.979C149.062 270.343 149.361 269.745 149.751 269.206C150.816 267.668 152.382 266.546 154.182 266.034C155.526 265.644 156.947 265.602 158.311 265.912C159.675 266.222 160.938 266.874 161.981 267.806C162.593 268.336 163.119 268.958 163.541 269.649C163.988 270.364 164.32 271.144 164.524 271.962C164.978 273.693 164.863 275.523 164.196 277.183C163.529 278.843 162.345 280.244 160.82 281.179C159.412 282.057 157.773 282.493 156.114 282.429C154.614 282.375 153.156 281.916 151.896 281.099C150.564 280.235 149.509 279.006 148.857 277.559C148.205 276.112 147.983 274.507 148.218 272.937C148.31 272.265 148.51 271.613 148.812 271.005C148.639 271.65 148.5 272.304 148.395 272.964C148.187 274.77 148.586 276.594 149.53 278.148C150.22 279.289 151.185 280.239 152.336 280.911C153.488 281.583 154.79 281.956 156.123 281.994C157.687 282.039 159.229 281.62 160.554 280.789C162 279.908 163.125 278.586 163.763 277.018C164.401 275.45 164.519 273.718 164.099 272.078C163.716 270.544 162.886 269.159 161.715 268.098C160.654 267.148 159.361 266.494 157.966 266.202C156.748 265.953 155.489 265.993 154.289 266.317C152.522 266.78 150.961 267.822 149.858 269.277C149.157 270.314 148.918 271.005 148.865 270.979Z" fill="#263238"/>
    <path d="M141.332 263.109H141.049L140.162 262.994L136.759 262.489L136.839 262.436L134.039 269.526L133.994 269.384L137.796 271.98L137.858 272.034V272.113C137.666 273.752 137.69 275.408 137.929 277.041V277.129L137.849 277.191L134.127 279.894L134.18 279.699L137.193 286.692L136.99 286.585L141.518 285.752H141.633L141.704 285.85C142.727 287.146 143.919 288.3 145.249 289.279L145.356 289.35V289.474C145.134 290.883 144.886 292.434 144.638 294.021L144.505 293.79L151.595 296.626L151.338 296.706L153.952 292.913L154.023 292.806H154.156C155.788 293.002 157.439 292.981 159.065 292.744H159.198L159.278 292.851L161.981 296.582L161.706 296.511L168.716 293.515L168.574 293.772C168.309 292.337 168.034 290.795 167.75 289.244V289.102L167.857 289.013C169.151 288.005 170.305 286.828 171.286 285.513L171.375 285.398H171.517L176.063 286.133L175.806 286.275C176.763 283.912 177.711 281.549 178.651 279.185L178.731 279.46L174.946 276.801L174.831 276.722V276.589C175.03 274.957 175.012 273.306 174.778 271.679V271.546L174.893 271.466L178.624 268.808L178.544 269.074L175.567 262.064L175.806 262.196L171.269 263.012H171.145L171.065 262.905C170.041 261.607 168.849 260.451 167.52 259.467L167.422 259.396V259.272C167.679 257.712 167.919 256.206 168.158 254.726L168.282 254.938L161.192 252.085L161.405 252.023L158.746 255.798L158.684 255.887H158.587C156.952 255.668 155.295 255.668 153.659 255.887H153.571L153.518 255.816C152.543 254.46 151.657 253.237 150.859 252.076L151.018 252.12L143.991 255.124L144.053 255.009C144.372 256.782 144.638 258.306 144.85 259.547V259.591C143.867 260.356 142.956 261.21 142.13 262.143L141.536 262.852L141.332 263.083C141.381 262.992 141.437 262.906 141.501 262.826C141.625 262.657 141.811 262.409 142.068 262.09C142.862 261.13 143.753 260.254 144.726 259.476V259.547C144.487 258.315 144.212 256.826 143.84 255.018V254.938H143.92L150.912 251.916H151.018L151.081 252.005L153.792 255.727L153.642 255.665C155.3 255.418 156.984 255.394 158.649 255.594L158.498 255.665C159.322 254.46 160.182 253.201 161.104 251.872L161.183 251.757L161.316 251.81L168.406 254.637L168.557 254.69V254.841C168.317 256.321 168.078 257.827 167.83 259.387L167.75 259.192C169.1 260.211 170.31 261.402 171.348 262.737L171.145 262.666L175.673 261.833H175.841L175.912 261.993C176.875 264.273 177.874 266.607 178.908 268.994L178.979 269.162L178.828 269.269L175.106 271.927L175.195 271.714C175.438 273.379 175.456 275.07 175.248 276.739L175.15 276.527L178.943 279.141L179.094 279.247L179.023 279.416L176.187 286.505L176.116 286.674H175.93L171.384 285.947L171.614 285.85C170.594 287.196 169.403 288.402 168.069 289.439L168.149 289.208C168.433 290.768 168.716 292.31 168.982 293.737V293.923L168.805 293.888L161.795 296.874L161.627 296.945L161.52 296.803L158.862 293.063L159.074 293.161C157.408 293.397 155.719 293.412 154.049 293.205L154.262 293.117L151.603 296.901L151.506 297.043L151.346 296.981L144.257 294.127L144.097 294.065V293.897C144.354 292.319 144.611 290.768 144.833 289.359L144.912 289.554C143.58 288.534 142.388 287.342 141.368 286.009L141.554 286.08L137.025 286.895H136.883L136.821 286.762C135.776 284.299 134.786 281.959 133.852 279.744L133.799 279.628L133.906 279.549L137.645 276.89L137.583 277.041C137.348 275.381 137.333 273.697 137.539 272.034L137.601 272.166L133.826 269.508L133.746 269.455V269.366C134.925 266.495 135.891 264.12 136.626 262.276V262.223H136.679L140.047 262.799L140.933 262.959L141.332 263.109Z" fill="#263238"/>
    <path fill-rule="evenodd" clip-rule="evenodd" d="M123.98 169.587C125.422 165.693 127.384 162.011 129.811 158.642L124.609 148.406L139.223 136.283L148.324 143.284C152.084 141.54 156.06 140.309 160.147 139.624L163.691 128.714L182.594 130.487L184.083 141.866C187.964 143.305 191.636 145.254 195.002 147.662L205.237 142.468L217.352 157.082L210.36 166.175C212.09 169.931 213.315 173.901 214.002 177.979L224.903 181.524L223.13 200.427L211.751 201.907C210.342 205.801 208.416 209.488 206.026 212.87L211.219 223.105L196.606 235.229L187.504 228.237C183.737 229.967 179.755 231.183 175.664 231.852L172.119 242.762L153.216 240.989L151.727 229.619C147.834 228.2 144.148 226.269 140.765 223.876L130.538 229.07L118.415 214.456L125.38 205.363C123.643 201.602 122.412 197.626 121.72 193.541L110.82 189.996L112.592 171.093L123.962 169.604L123.98 169.587ZM147.686 183.004C147.309 187.02 148.131 191.057 150.049 194.605C151.967 198.154 154.894 201.053 158.461 202.937C162.027 204.82 166.072 205.603 170.084 205.187C174.096 204.771 177.894 203.173 180.998 200.597C184.101 198.021 186.371 194.582 187.519 190.716C188.668 186.849 188.643 182.729 187.449 178.877C186.254 175.024 183.944 171.613 180.809 169.074C177.675 166.535 173.858 164.984 169.842 164.615C164.467 164.122 159.115 165.781 154.962 169.229C150.808 172.676 148.192 177.63 147.686 183.004Z" fill="#E0E0E0"/>
    <path d="M449.541 328.769C449.541 328.893 368.585 328.991 268.753 328.991C168.92 328.991 87.9641 328.893 87.9641 328.769C87.9641 328.645 168.902 328.557 268.753 328.557C368.603 328.557 449.541 328.654 449.541 328.769Z" fill="#263238"/>
    <path d="M255.052 57.082C249.477 59.528 246.234 65.5454 245.02 71.5097C243.806 77.4739 244.196 83.642 243.673 89.7126C243.15 95.7832 241.484 102.12 237.053 106.294C232.923 110.193 226.852 111.779 223.334 116.237C222.022 117.897 221.152 119.863 220.807 121.95C220.462 124.038 220.653 126.179 221.361 128.172C222.07 130.166 223.273 131.947 224.858 133.349C226.443 134.751 228.358 135.727 230.424 136.186C227.641 140.617 229.032 146.741 232.595 150.543C236.158 154.344 241.377 156.161 246.526 156.941C255.583 158.324 265.243 156.799 272.891 151.757C280.539 146.714 285.892 137.958 285.874 128.804" fill="#263238"/>
    <path d="M230.902 147.104C230.473 146.5 230.141 145.833 229.919 145.127C229.293 143.199 229.171 141.143 229.564 139.154C229.823 137.78 230.251 136.443 230.84 135.175C231.55 133.742 232.408 132.387 233.402 131.134C235.765 128.366 238.327 125.775 241.067 123.38C243.728 120.923 246.218 118.287 248.52 115.492C250.405 113.214 252.009 110.718 253.297 108.057C254.154 106.261 254.803 104.373 255.229 102.429C255.397 101.747 255.442 101.198 255.522 100.834C255.54 100.644 255.582 100.456 255.646 100.276C255.665 100.464 255.665 100.655 255.646 100.843C255.592 101.215 255.575 101.774 255.433 102.465C255.068 104.443 254.455 106.366 253.607 108.19C252.351 110.895 250.762 113.431 248.875 115.74C246.581 118.573 244.087 121.239 241.413 123.716C238.681 126.095 236.122 128.666 233.756 131.409C232.767 132.627 231.914 133.949 231.213 135.352C230.615 136.583 230.178 137.884 229.91 139.225C229.494 141.171 229.567 143.19 230.123 145.101C230.343 145.783 230.603 146.452 230.902 147.104Z" fill="#455A64"/>
    <path d="M321.713 77.1011C321.713 85.2897 325.488 92.796 328.882 95.561C333.695 99.4604 340.749 101.348 345.393 102.651C352.163 104.538 357.8 110.467 358.686 117.451C359.572 124.434 354.964 131.887 348.158 133.642C352.438 138.011 351.162 145.526 347.644 150.48C340.97 159.954 327.651 163.596 316.626 160.087C305.602 156.577 297.129 146.793 293.815 135.689" fill="#263238"/>
    <path d="M338.551 157.765C339.487 157.562 340.374 157.174 341.157 156.622C342.06 155.961 342.805 155.107 343.337 154.123C344.06 152.831 344.461 151.384 344.507 149.904C344.497 148.113 344.023 146.354 343.133 144.8C342.108 143.009 340.759 141.425 339.154 140.129C335.795 137.302 331.231 135.539 326.818 133.04C324.643 131.816 322.67 130.265 320.969 128.44C320.161 127.559 319.472 126.576 318.921 125.516C318.399 124.498 318.011 123.417 317.769 122.299C317.375 120.231 317.28 118.118 317.486 116.024C317.636 114.066 317.885 112.267 318.053 110.609C318.436 108.02 318.394 105.386 317.929 102.811C317.814 102.367 317.707 101.978 317.61 101.623C317.512 101.269 317.371 101.012 317.291 100.781C317.192 100.553 317.106 100.319 317.034 100.081C317.168 100.291 317.281 100.513 317.371 100.746C317.468 100.976 317.619 101.242 317.734 101.579L318.097 102.775C318.636 105.364 318.725 108.026 318.363 110.645C318.212 112.302 317.982 114.11 317.849 116.051C317.659 118.123 317.766 120.212 318.168 122.254C318.655 124.478 319.733 126.529 321.288 128.192C322.963 129.981 324.902 131.503 327.039 132.703C331.408 135.211 335.999 137.001 339.446 139.899C341.083 141.232 342.454 142.861 343.487 144.702C344.403 146.323 344.874 148.158 344.852 150.019C344.793 151.546 344.358 153.035 343.585 154.353C343.016 155.352 342.232 156.212 341.29 156.87C340.691 157.272 340.029 157.572 339.331 157.756C339.072 157.785 338.811 157.788 338.551 157.765Z" fill="#455A64"/>
    <path d="M354.503 130.443C354.993 129.779 355.282 128.988 355.336 128.165C355.365 127.204 355.146 126.251 354.698 125.4C354.13 124.264 353.263 123.305 352.19 122.626C350.839 121.868 349.356 121.372 347.821 121.164C346.173 120.872 344.374 120.765 342.504 120.473C338.4 119.817 334.489 118.271 331.045 115.944C327.593 113.621 324.699 110.561 322.573 106.985C320.86 104.062 319.684 100.856 319.099 97.5198C318.687 95.2789 318.565 92.9945 318.735 90.7225C318.775 90.1078 318.846 89.4955 318.948 88.888C318.964 88.674 319.005 88.4628 319.072 88.2588C319.116 88.2588 318.966 89.145 318.904 90.7402C318.666 96.3624 320.06 101.933 322.918 106.781C325.034 110.288 327.889 113.291 331.284 115.581C334.681 117.867 338.527 119.399 342.566 120.074C344.427 120.375 346.235 120.499 347.883 120.801C349.447 121.033 350.952 121.565 352.314 122.369C353.429 123.083 354.32 124.097 354.884 125.294C355.331 126.185 355.533 127.179 355.469 128.174C355.417 128.803 355.216 129.41 354.884 129.946C354.769 130.115 354.654 130.239 354.583 130.328L354.503 130.443Z" fill="#455A64"/>
    <path d="M259.031 173.106C260.201 160.867 261.202 147.964 261.202 147.964C261.202 147.964 245.702 143.798 244.461 122.91C243.274 102.997 250.957 58.0301 250.957 58.0301C274.557 51.0113 300.825 59.8026 315.208 79.5564L304.095 178.813C302.81 190.334 291.874 198.398 279.547 196.918C267.104 195.421 257.923 184.768 259.031 173.106Z" fill="#B78876"/>
    <path d="M253.315 93.9754C253.244 94.6606 253.442 95.3466 253.866 95.8888C254.291 96.431 254.91 96.7872 255.592 96.8822C255.925 96.943 256.267 96.9362 256.597 96.8624C256.927 96.7886 257.239 96.6491 257.514 96.4524C257.79 96.2557 258.023 96.0056 258.199 95.7171C258.376 95.4287 258.493 95.1076 258.543 94.773C258.614 94.0879 258.416 93.4019 257.992 92.8597C257.567 92.3175 256.948 91.9613 256.266 91.8662C255.933 91.8055 255.591 91.8122 255.261 91.8861C254.931 91.9599 254.619 92.0993 254.344 92.2961C254.068 92.4928 253.836 92.7428 253.659 93.0313C253.482 93.3198 253.365 93.6409 253.315 93.9754Z" fill="#263238"/>
    <path d="M249.327 90.5985C249.619 90.9796 251.764 89.7123 254.6 89.9781C257.436 90.244 259.376 91.8924 259.722 91.5733C259.89 91.4315 259.616 90.7846 258.774 90.0313C257.629 89.0587 256.211 88.4643 254.715 88.3298C253.245 88.1764 251.764 88.4863 250.479 89.216C249.539 89.8363 249.185 90.4301 249.327 90.5985Z" fill="#263238"/>
    <path d="M282.312 97.3334C282.241 98.0199 282.44 98.7071 282.867 99.2495C283.293 99.792 283.914 100.147 284.598 100.24C284.931 100.301 285.273 100.294 285.603 100.22C285.933 100.147 286.245 100.007 286.52 99.8104C286.796 99.6136 287.028 99.3636 287.205 99.0751C287.382 98.7867 287.499 98.4656 287.549 98.131C287.62 97.4458 287.422 96.7599 286.998 96.2177C286.573 95.6755 285.954 95.3193 285.272 95.2242C284.938 95.1634 284.596 95.1701 284.265 95.2438C283.935 95.3176 283.622 95.4569 283.346 95.6535C283.07 95.8502 282.836 96.1002 282.659 96.3887C282.481 96.6772 282.363 96.9985 282.312 97.3334Z" fill="#263238"/>
    <path d="M278.838 94.5423C279.13 94.9234 281.275 93.6561 284.111 93.9308C286.947 94.2056 288.887 95.8362 289.233 95.5172C289.393 95.3842 289.127 94.7284 288.285 93.9752C287.139 93.0041 285.722 92.4099 284.226 92.2736C282.756 92.1203 281.275 92.4301 279.99 93.1598C279.05 93.7802 278.696 94.374 278.838 94.5423Z" fill="#263238"/>
    <path d="M266.466 114.58C266.466 114.42 264.765 113.942 261.938 113.295C261.22 113.144 260.555 112.931 260.475 112.409C260.492 111.654 260.736 110.922 261.175 110.308L263.834 104.991C267.583 97.4315 270.374 91.1837 270.038 91.033C269.701 90.8824 266.448 96.8998 262.7 104.459C261.814 106.329 260.927 108.102 260.094 109.777C259.556 110.605 259.325 111.596 259.438 112.577C259.515 112.845 259.653 113.092 259.842 113.297C260.032 113.502 260.267 113.659 260.529 113.756C260.919 113.905 261.327 114.003 261.743 114.048C264.658 114.553 266.44 114.739 266.466 114.58Z" fill="#263238"/>
    <path d="M261.202 147.964C270.87 149.068 280.655 147.463 289.464 143.329C289.464 143.329 281.355 156.799 260.972 152.847L261.202 147.964Z" fill="#AA6550"/>
    <path d="M266.998 121.536C267.604 120.909 268.36 120.447 269.194 120.193C270.028 119.938 270.913 119.9 271.766 120.083C272.386 120.203 272.976 120.447 273.501 120.798C274.026 121.15 274.475 121.602 274.823 122.13C275.156 122.642 275.324 123.243 275.303 123.854C275.282 124.464 275.075 125.053 274.708 125.542C274.203 126.007 273.569 126.31 272.89 126.411C272.21 126.512 271.516 126.407 270.897 126.109C269.604 125.505 268.444 124.649 267.485 123.592C267.191 123.343 266.945 123.043 266.759 122.706C266.669 122.539 266.632 122.35 266.651 122.162C266.67 121.974 266.744 121.796 266.865 121.651" fill="#AA6550"/>
    <path d="M274.628 117.362C274.167 117.291 273.857 120.366 271.004 122.298C268.15 124.23 264.906 123.566 264.844 123.991C264.782 124.177 265.518 124.664 266.9 124.877C268.701 125.081 270.515 124.642 272.023 123.636C273.475 122.675 274.493 121.183 274.859 119.48C275.151 118.16 274.841 117.362 274.628 117.362Z" fill="#263238"/>
    <path d="M305.424 101.499C307.673 101.244 309.949 101.615 312 102.571C313.023 103.052 313.942 103.73 314.702 104.566C315.463 105.403 316.05 106.381 316.431 107.446C317.079 109.632 316.87 111.983 315.846 114.021C314.818 116.04 313.352 117.805 311.557 119.188C310.337 120.264 308.879 121.035 307.303 121.439C306.514 121.636 305.688 121.632 304.901 121.43C304.113 121.227 303.388 120.831 302.792 120.278" fill="#B78876"/>
    <path d="M305.327 114.951C305.07 115.004 305.894 116.431 307.985 116.086C309.089 115.816 310.043 115.126 310.644 114.163C311.358 113.088 311.855 111.883 312.106 110.618C312.393 109.274 312.198 107.872 311.557 106.656C311.282 106.141 310.895 105.694 310.424 105.349C309.953 105.004 309.41 104.769 308.836 104.662C306.771 104.414 305.983 105.788 306.178 105.85C306.373 105.912 307.206 105.371 308.526 105.85C309.846 106.328 310.901 108.127 310.405 110.281C309.909 112.434 308.863 114.499 307.604 114.898C306.346 115.297 305.486 114.783 305.327 114.951Z" fill="#AA6550"/>
    <path d="M260.901 66.8216C259.351 70.342 257.016 73.4607 254.074 75.9386C251.132 78.4165 247.662 80.1877 243.93 81.1163C243.495 76.0383 243.194 70.8982 244.027 65.8645C244.86 60.8308 246.898 55.8768 250.567 52.3408C254.236 48.8048 259.669 46.8994 264.596 48.211" fill="#263238"/>
    <path d="M262.319 57.4983C261.034 60.7324 260.606 64.2432 261.075 67.6913C261.544 71.1394 262.895 74.4081 264.997 77.1812C267.099 79.9544 269.882 82.1382 273.075 83.5215C276.268 84.9048 279.764 85.4407 283.225 85.0774C284.572 84.9356 285.99 84.6698 287.248 85.1572C288.507 85.6446 289.49 86.9296 290.297 88.1526C293.576 93.0534 297.041 98.1492 302.207 100.985C307.374 103.821 314.765 103.537 318.221 98.7607C319.896 96.4388 320.393 93.4877 320.783 90.6518C322.094 81.1072 322.635 70.8536 318.08 62.3637C314.703 56.0449 308.765 51.3568 302.199 48.5121C295.632 45.6673 288.436 44.533 281.284 44.081C277.136 43.824 272.838 43.8151 268.983 45.3926C265.128 46.9701 261.805 50.4618 261.583 54.6181" fill="#263238"/>
    <path d="M319.87 93.3454C319.77 93.1182 319.688 92.8843 319.621 92.6453C319.48 92.1845 319.24 91.5021 318.93 90.6425C318.009 88.2021 316.836 85.8646 315.43 83.6679C313.338 80.4229 310.745 77.5304 307.746 75.0982C303.993 72.2152 299.848 69.8817 295.437 68.168C290.793 66.2183 286.247 64.6231 282.267 62.7532C278.712 61.1584 275.374 59.1186 272.333 56.6826C270.294 55.0262 268.519 53.0688 267.069 50.8778C266.678 50.2805 266.326 49.6589 266.014 49.0168C265.888 48.8037 265.784 48.578 265.704 48.3433C265.846 48.5481 265.977 48.7611 266.094 48.9813C266.436 49.5907 266.809 50.1823 267.211 50.7538C268.699 52.8894 270.49 54.797 272.528 56.4167C275.566 58.8019 278.892 60.7967 282.427 62.3544C286.388 64.1888 290.935 65.784 295.596 67.7337C300.046 69.4679 304.224 71.8316 308.003 74.7526C311.023 77.2265 313.621 80.1747 315.696 83.4818C317.085 85.7125 318.224 88.0903 319.09 90.5716C319.382 91.4578 319.595 92.1402 319.701 92.6187C319.778 92.8558 319.834 93.0989 319.87 93.3454Z" fill="#455A64"/>
    <path d="M313.48 92.2206C313.345 92.0378 313.23 91.8418 313.134 91.6357C312.904 91.2546 312.567 90.6874 312.071 90.005C310.653 88.0977 308.931 86.4361 306.975 85.0865C304.038 83.1217 300.901 81.4731 297.617 80.168C295.782 79.3793 293.841 78.5639 291.874 77.6246C289.907 76.6852 287.895 75.6394 285.91 74.4519C282.149 72.2381 278.683 69.5582 275.594 66.4759C273.075 63.9561 270.905 61.1096 269.143 58.0125C267.963 55.923 267.012 53.7124 266.307 51.4191C266.076 50.6038 265.908 49.9657 265.828 49.5314C265.765 49.3115 265.724 49.0859 265.704 48.8579C265.793 49.0662 265.862 49.2829 265.908 49.5048C266.023 49.9391 266.218 50.5594 266.475 51.3659C267.235 53.6218 268.221 55.7953 269.417 57.853C271.197 60.9031 273.369 63.7067 275.878 66.1923C278.961 69.2408 282.408 71.8986 286.14 74.1063C288.108 75.2849 290.102 76.3307 292.06 77.2789C294.019 78.2272 295.942 79.0514 297.776 79.8312C301.078 81.1581 304.222 82.8463 307.152 84.865C309.119 86.2531 310.831 87.9711 312.213 89.943C312.582 90.481 312.913 91.0436 313.205 91.6268C313.311 91.8177 313.403 92.0161 313.48 92.2206Z" fill="#455A64"/>
    <path d="M244.001 89.2778C243.922 89.1239 243.857 88.9639 243.806 88.7992C243.69 88.4891 243.513 88.0193 243.318 87.4079C242.824 85.6744 242.526 83.8907 242.432 82.0905C242.162 76.0426 244.046 70.0949 247.749 65.3056C248.791 63.9492 249.98 62.7127 251.294 61.6189C252.579 60.5732 253.9 59.687 255.158 58.8539C257.442 57.4811 259.585 55.8871 261.557 54.0949C262.865 52.8704 263.93 51.4089 264.694 49.7879C265.208 48.627 265.323 47.918 265.367 47.9268C265.365 48.1011 265.338 48.2741 265.288 48.4408C265.178 48.9207 265.033 49.3917 264.853 49.8499C264.129 51.5146 263.084 53.0204 261.778 54.281C259.821 56.1204 257.68 57.7537 255.388 59.1552C254.07 60.0124 252.795 60.9352 251.569 61.9202C250.278 62.9962 249.107 64.2085 248.077 65.536C246.08 68.1081 244.6 71.0422 243.717 74.1766C242.982 76.7327 242.65 79.3878 242.733 82.0462C242.803 83.8392 243.052 85.6206 243.478 87.3636C243.637 87.9544 243.77 88.4241 243.876 88.7726C243.939 88.9352 243.98 89.1049 244.001 89.2778Z" fill="#455A64"/>
    <path d="M294.79 130.283C289.957 130.335 285.273 128.617 281.62 125.453L282.188 124.824C285.313 127.64 289.299 129.318 293.498 129.585C297.696 129.852 301.862 128.692 305.319 126.294C308.776 123.896 311.322 120.4 312.542 116.374C313.763 112.348 313.588 108.027 312.044 104.113L312.833 103.803C314.323 107.907 314.442 112.384 313.174 116.562C311.905 120.74 309.317 124.394 305.797 126.977C302.547 129.168 298.709 130.32 294.79 130.283Z" fill="#FA1616"/>
    <path d="M283.854 130.762C286.11 130.762 287.939 128.933 287.939 126.677C287.939 124.42 286.11 122.591 283.854 122.591C281.597 122.591 279.768 124.42 279.768 126.677C279.768 128.933 281.597 130.762 283.854 130.762Z" fill="#FA1616"/>
    <path d="M328.705 108.098C329.908 100.642 324.84 93.6228 317.384 92.4192C309.929 91.2157 302.909 96.284 301.706 103.74C300.502 111.195 305.57 118.215 313.026 119.418C320.482 120.622 327.501 115.554 328.705 108.098Z" fill="#FA1616"/>
    <path d="M313.002 104.016C312.905 102.861 312.929 101.7 313.072 100.551L313.232 96.5006C313.232 94.9231 313.303 93.1241 313.232 91.139C313.232 90.1464 313.161 89.1095 313.108 88.0372C313.055 86.9649 312.939 85.8394 312.833 84.6784C312.727 83.5175 312.523 82.3388 312.372 81.1335C312.257 80.5309 312.142 79.9106 312.027 79.2902C311.911 78.6699 311.787 78.0318 311.619 77.4026C310.439 71.8911 307.987 66.7319 304.458 62.3369C300.796 58.0507 296.107 54.7636 290.828 52.7834C286.501 51.1479 281.998 50.0179 277.411 49.4158C273.476 48.8664 270.259 48.698 268.044 48.5296C266.885 48.553 265.727 48.4579 264.587 48.246C265.732 48.057 266.893 47.9827 268.053 48.0244C271.216 47.9968 274.379 48.1477 277.526 48.4764C282.222 48.9591 286.839 50.0249 291.271 51.6491C296.771 53.643 301.657 57.033 305.451 61.4861C309.109 66.0424 311.623 71.4092 312.78 77.1367C312.939 77.7836 313.064 78.4306 313.17 79.0775C313.276 79.7245 313.383 80.3448 313.489 80.9652C313.631 82.2236 313.826 83.4289 313.897 84.6075C313.967 85.7862 314.083 86.9294 314.092 88.0195C314.1 89.1095 314.162 90.1641 314.092 91.1655C314.092 93.1773 313.976 94.9852 313.888 96.5715C313.799 98.1578 313.64 99.5137 313.507 100.63C313.448 101.772 313.278 102.906 313.002 104.016Z" fill="#FA1616"/>
    <g opacity="0.4">
    <path opacity="0.4" d="M319.209 114.628C324.006 112.626 326.271 107.114 324.268 102.317C322.266 97.5204 316.754 95.2553 311.957 97.2579C307.161 99.2604 304.895 104.772 306.898 109.569C308.901 114.366 314.412 116.631 319.209 114.628Z" fill="black"/>
    </g>
    <path d="M312.488 97.1479C312.621 97.0608 312.763 96.9895 312.913 96.9352C313.332 96.759 313.769 96.6283 314.216 96.5453C315.891 96.2588 317.613 96.5527 319.099 97.3783C320.134 97.9442 321 98.7764 321.607 99.7888C322.291 100.956 322.637 102.291 322.608 103.644C322.586 104.823 322.27 105.978 321.689 107.004C321.108 108.03 320.281 108.895 319.281 109.521C318.281 110.147 317.141 110.513 315.965 110.587C314.788 110.661 313.611 110.44 312.541 109.945C311.186 109.283 310.085 108.197 309.403 106.852C308.771 105.652 308.491 104.297 308.597 102.944C308.719 101.774 309.117 100.65 309.758 99.6647C310.632 98.2019 312.024 97.1203 313.657 96.6339C314.098 96.5117 314.556 96.4579 315.013 96.4744C315.172 96.4793 315.33 96.5031 315.483 96.5453C314.884 96.5467 314.287 96.6302 313.71 96.7934C312.158 97.3304 310.852 98.4098 310.033 99.8331C309.374 100.841 309.002 102.009 308.955 103.213C308.908 104.416 309.189 105.609 309.767 106.666C310.418 107.922 311.455 108.935 312.727 109.555C314.116 110.168 315.669 110.305 317.144 109.947C318.62 109.588 319.936 108.752 320.889 107.57C321.731 106.429 322.196 105.053 322.218 103.635C322.266 102.357 321.959 101.09 321.332 99.9749C320.771 99.0049 319.96 98.2031 318.983 97.653C317.565 96.8278 315.913 96.4974 314.287 96.7136C313.678 96.8203 313.077 96.9653 312.488 97.1479Z" fill="#263238"/>
    <path d="M315.501 115.192C315.179 114.496 315.033 113.732 315.075 112.967C314.974 112.211 315.056 111.443 315.315 110.725C315.484 111.454 315.55 112.203 315.51 112.95C315.615 113.693 315.612 114.449 315.501 115.192Z" fill="#263238"/>
    <path d="M320.694 113.366C319.913 112.162 319.388 110.811 319.152 109.396C319.933 110.599 320.457 111.951 320.694 113.366Z" fill="#263238"/>
    <path d="M324.194 109.271C324.115 109.36 323.468 108.908 322.75 108.261C322.032 107.614 321.527 107.011 321.607 106.923C321.686 106.834 322.333 107.286 323.051 107.933C323.769 108.58 324.274 109.183 324.194 109.271Z" fill="#263238"/>
    <path d="M324.443 103.555C324.398 103.67 323.937 103.608 323.397 103.413C322.856 103.218 322.457 102.97 322.511 102.855C322.564 102.739 323.016 102.801 323.556 102.996C324.097 103.191 324.487 103.44 324.443 103.555Z" fill="#263238"/>
    <path d="M309.359 113.099C309.604 111.585 310.32 110.186 311.406 109.103C311.179 109.82 310.86 110.505 310.458 111.141C310.174 111.837 309.805 112.495 309.359 113.099Z" fill="#263238"/>
    <path d="M306.55 108.288C306.461 108.199 307.002 107.535 307.746 106.808C308.491 106.081 309.164 105.549 309.253 105.638C309.341 105.727 308.801 106.391 308.056 107.118C307.312 107.845 306.638 108.376 306.55 108.288Z" fill="#263238"/>
    <path d="M308.748 101.765C308.748 101.88 308.393 102.084 307.861 102.217C307.33 102.35 306.922 102.368 306.895 102.217C306.869 102.066 307.241 101.889 307.782 101.756C308.322 101.623 308.712 101.65 308.748 101.765Z" fill="#263238"/>
    <path d="M380.274 176.579C379.388 171.572 377.43 168.851 375.967 167.424C374.671 166.021 373.217 164.772 371.634 163.702C369.649 162.488 366.946 160.991 365.217 160.609C363.082 160.149 362.559 157.375 364.331 156.577C366.104 155.78 372.041 156.923 377.74 161.106C383.438 165.289 380.549 154.69 379.574 150.808C378.599 146.926 376.18 134.785 377.066 133.562C378.475 131.79 380.7 132.995 381.595 136.894C382.49 140.794 385.973 152.314 388.002 151.747C390.032 151.18 384.75 131.488 384.75 131.488C384.75 131.488 382.977 127.447 385.273 126.72C389.473 125.4 393.514 146.722 393.851 148.761C394.082 150.17 396.315 149.647 395.987 148.131C395.659 146.616 390.28 128.59 394.542 127.208C397.813 126.153 398.034 144.72 401.224 147.892C404.415 151.065 399.612 133.792 402.784 132.906C403.963 132.578 404.893 132.499 406.214 142.779C406.932 148.3 406.471 155.912 408.624 166.45" fill="#B78876"/>
    <path d="M369.649 216.212L389.021 244.012L379.725 172.317L407.419 161.39C407.419 161.39 442.372 295.386 395.5 297.265C395.5 297.265 363.055 296.379 338.844 240.228L369.649 216.212Z" fill="#B78876"/>
    <path d="M400.719 160.867C400.773 160.938 400.117 161.372 399.257 162.329C398.134 163.588 397.353 165.113 396.988 166.76L396.882 167.283L396.501 166.893C396.055 166.44 395.575 166.023 395.065 165.643C393.337 164.382 391.308 163.593 389.181 163.357C387.541 163.18 386.522 163.357 386.522 163.259C387.389 162.943 388.318 162.834 389.234 162.94C392.167 163.075 394.932 164.347 396.944 166.485L396.448 166.618C396.838 164.865 397.731 163.263 399.018 162.01C399.486 161.499 400.069 161.107 400.719 160.867Z" fill="#AA6550"/>
    <path d="M355.735 274.17L332.294 244.437L326.197 274.852C323.731 287.17 325.003 299.943 329.848 311.533L332.87 318.773H224.326L227.038 309.104C228.571 297.265 226.524 284.911 226.879 267.948L223.866 248.833L207.444 318.773H159.172C159.172 318.773 185.643 210.22 202.268 188.738C223.192 161.664 259.757 165.236 259.757 165.236L282.152 200.348L304.033 168.683C304.033 168.683 341.626 160.707 370.978 211.222L386.682 238.136L379.388 182.721L413.401 174.887C413.401 174.887 425.675 229.327 424.869 258.484C424.151 284.521 413.064 298.177 397.706 299.524C373.521 301.634 355.735 274.17 355.735 274.17Z" fill="#FA1616"/>
    <path d="M259.758 165.236L260.139 160.858C260.139 160.858 276.729 164.545 282.294 193.515C282.294 193.515 287.877 166.778 305.743 164.093L308.757 171.794L297.785 200.357L278.519 205.993L259.766 200.357L251.223 183.421L259.758 165.236Z" fill="#FA1616"/>
    <path d="M213.515 176.756C213.565 177.002 213.594 177.251 213.603 177.501C213.603 178.033 213.692 178.75 213.763 179.663C213.878 181.533 214.073 184.236 214.339 187.586C214.879 194.268 215.792 203.494 217.237 213.623C218.681 223.753 220.401 232.872 221.757 239.439C222.439 242.726 223.006 245.376 223.423 247.211C223.609 248.097 223.759 248.806 223.875 249.32C223.938 249.564 223.979 249.813 223.999 250.064C223.91 249.831 223.839 249.591 223.786 249.346C223.65 248.832 223.473 248.132 223.254 247.246C222.793 245.429 222.173 242.815 221.482 239.509C220.046 232.951 218.291 223.832 216.829 213.685C215.367 203.538 214.516 194.303 214.064 187.604C213.834 184.254 213.683 181.542 213.612 179.672C213.612 178.786 213.559 178.041 213.541 177.51C213.524 176.978 213.506 176.756 213.515 176.756Z" fill="#263238"/>
    <path d="M308.349 167.655C308.284 167.802 308.204 167.942 308.11 168.072L307.365 169.224L304.6 173.442C302.278 176.987 299.15 181.994 295.889 187.622C295.765 187.843 295.632 188.056 295.516 188.269L295.304 188.632L295.126 188.251C294.56 186.843 293.754 185.545 292.743 184.414C292.28 183.907 291.704 183.518 291.061 183.277C290.419 183.037 289.728 182.953 289.047 183.031C287.818 183.298 286.731 184.012 285.998 185.034C285.323 185.909 284.807 186.896 284.474 187.95C283.854 189.899 283.49 191.539 283.021 192.602C282.856 193.014 282.664 193.414 282.445 193.799C282.285 194.059 282.197 194.183 282.179 194.171C282.179 194.171 282.48 193.613 282.87 192.54C283.26 191.468 283.588 189.882 284.191 187.861C284.508 186.76 285.025 185.727 285.715 184.812C286.488 183.698 287.658 182.921 288.985 182.641C289.728 182.545 290.484 182.628 291.189 182.884C291.894 183.14 292.527 183.561 293.035 184.112C294.095 185.27 294.938 186.609 295.525 188.065H295.135L295.508 187.418C298.769 181.782 301.95 176.783 304.37 173.292C305.566 171.519 306.559 170.11 307.25 169.144C307.587 168.701 307.853 168.329 308.065 168.036C308.146 167.9 308.241 167.772 308.349 167.655Z" fill="#263238"/>
    <path d="M292.548 184.059C292.548 184.059 292.503 184.192 292.37 184.431L291.786 185.459L289.561 189.199L286.211 194.703L284.217 197.955C283.863 198.513 283.508 199.089 283.145 199.674C283.034 199.841 282.893 199.986 282.728 200.1C282.63 200.164 282.518 200.205 282.402 200.22C282.285 200.236 282.167 200.225 282.055 200.188C281.671 200.037 281.355 199.75 281.169 199.382C278.058 194.703 275.736 190.174 273.919 186.975C273.033 185.371 272.28 184.086 271.766 183.199C271.475 182.754 271.215 182.289 270.986 181.808C270.986 181.808 271.092 181.914 271.243 182.136C271.394 182.358 271.633 182.677 271.908 183.111C272.475 183.997 273.255 185.238 274.185 186.824C276.073 189.97 278.439 194.472 281.541 199.125C281.727 199.426 281.904 199.683 282.143 199.754C282.383 199.825 282.569 199.665 282.755 199.408L283.818 197.707L285.83 194.472L289.26 189.013L291.599 185.353C291.865 184.963 292.078 184.635 292.264 184.369C292.345 184.254 292.44 184.15 292.548 184.059Z" fill="#263238"/>
    <path d="M352.651 186.656C352.578 186.853 352.493 187.046 352.394 187.232C352.199 187.639 351.933 188.18 351.596 188.854C350.887 190.254 349.895 192.292 348.707 194.827C347.52 197.361 346.173 200.419 344.755 203.84C343.337 207.26 341.892 211.071 340.492 215.112C339.092 219.153 337.922 223.088 336.947 226.633C335.972 230.178 335.175 233.439 334.528 236.169C333.881 238.898 333.429 241.123 333.128 242.656C332.977 243.391 332.853 243.976 332.764 244.428C332.731 244.637 332.678 244.842 332.605 245.04C332.606 244.828 332.63 244.617 332.676 244.411C332.746 243.959 332.844 243.365 332.959 242.638C333.207 241.087 333.642 238.854 334.226 236.107C334.811 233.359 335.591 230.116 336.557 226.527C337.523 222.938 338.728 219.047 340.102 215.006C341.476 210.965 342.982 207.154 344.4 203.724C345.818 200.295 347.227 197.255 348.459 194.729C349.691 192.203 350.719 190.183 351.472 188.809L352.358 187.232C352.435 187.03 352.533 186.837 352.651 186.656Z" fill="#263238"/>
    <path d="M302.996 296.76C302.772 296.771 302.547 296.771 302.323 296.76L300.382 296.609C299.496 296.538 298.512 296.449 297.324 296.299C296.137 296.148 294.772 296.015 293.283 295.785C290.288 295.377 286.743 294.757 282.835 293.95C278.926 293.144 274.664 292.063 270.242 290.76C265.819 289.457 261.681 287.977 257.95 286.55C254.219 285.123 250.931 283.67 248.201 282.376C246.819 281.756 245.605 281.127 244.532 280.604C243.46 280.081 242.538 279.593 241.803 279.186L240.092 278.255C239.892 278.155 239.699 278.039 239.516 277.91C239.731 277.978 239.939 278.067 240.137 278.176L241.909 279.062C242.662 279.443 243.584 279.948 244.665 280.409C245.746 280.87 246.969 281.525 248.352 282.119C251.099 283.378 254.405 284.778 258.1 286.196C261.796 287.614 265.961 289.041 270.366 290.361C274.77 291.681 279.033 292.718 282.914 293.578C286.796 294.438 290.341 295.058 293.328 295.501C294.808 295.758 296.163 295.918 297.351 296.077C298.538 296.237 299.558 296.37 300.4 296.458L302.332 296.698C302.554 296.699 302.777 296.719 302.996 296.76Z" fill="#263238"/>
    <path d="M298.193 298.656C298.047 298.713 297.896 298.751 297.741 298.771L296.447 299.019C295.321 299.223 293.682 299.48 291.652 299.764C281.081 301.188 270.394 301.559 259.749 300.872C257.701 300.73 256.053 300.588 254.919 300.455L253.607 300.304C253.455 300.289 253.304 300.263 253.155 300.225C253.308 300.203 253.463 300.203 253.616 300.225L254.928 300.296C256.071 300.375 257.719 300.473 259.766 300.57C263.843 300.765 269.515 300.898 275.718 300.685C281.922 300.473 287.576 299.941 291.67 299.463C293.7 299.223 295.339 299.011 296.474 298.86L297.785 298.692C297.919 298.661 298.056 298.649 298.193 298.656Z" fill="#263238"/>
    <path d="M336.61 249.914C336.63 249.698 336.671 249.484 336.734 249.276L337.186 247.504L338.87 240.866C340.297 235.265 342.185 227.511 344.515 219.003C345.685 214.749 346.882 210.717 348.06 207.074C349.239 203.432 350.373 200.189 351.419 197.494C351.915 196.13 352.429 194.924 352.855 193.861C353.28 192.797 353.679 191.893 354.016 191.158L354.787 189.465C354.87 189.262 354.971 189.066 355.088 188.88C355.031 189.093 354.957 189.3 354.866 189.501C354.698 189.926 354.468 190.502 354.175 191.22C353.883 191.938 353.493 192.886 353.085 193.958C352.677 195.031 352.199 196.236 351.712 197.601C350.701 200.304 349.602 203.565 348.45 207.198C347.298 210.832 346.119 214.873 344.95 219.118C342.628 227.617 340.696 235.363 339.189 240.946C338.445 243.737 337.824 245.997 337.372 247.548L336.841 249.32C336.786 249.526 336.709 249.725 336.61 249.914Z" fill="#263238"/>
    <path d="M223.298 248.46C223.133 248.293 222.979 248.115 222.838 247.928C222.554 247.556 222.102 247.042 221.606 246.324C220.146 244.311 218.851 242.183 217.733 239.961C216.072 236.663 214.71 233.223 213.665 229.681C212.398 225.347 211.456 220.924 210.847 216.45C209.553 206.932 209.341 198.229 208.951 191.972C208.773 188.835 208.605 186.301 208.481 184.546C208.419 183.704 208.366 183.03 208.33 182.534C208.313 182.298 208.313 182.061 208.33 181.825C208.389 182.055 208.427 182.289 208.445 182.525C208.499 182.977 208.587 183.66 208.676 184.537C208.862 186.309 209.075 188.817 209.287 191.946C209.757 198.211 210.014 206.905 211.308 216.388C211.911 220.842 212.838 225.246 214.082 229.566C215.09 233.094 216.403 236.528 218.008 239.828C219.098 242.05 220.345 244.191 221.739 246.236C222.217 246.971 222.625 247.494 222.909 247.884C223.057 248.063 223.187 248.256 223.298 248.46Z" fill="#263238"/>
    <path d="M219.178 228.946C219.178 229.079 217.919 229.354 216.519 230.169C215.119 230.985 214.277 231.942 214.179 231.853C214.71 231.004 215.439 230.296 216.303 229.79C217.168 229.284 218.142 228.994 219.142 228.946H219.178Z" fill="#263238"/>
    <path d="M218.353 217.567C217.22 217.878 216.112 218.275 215.039 218.754C214.039 219.369 213.085 220.056 212.185 220.81C212.842 219.771 213.762 218.924 214.851 218.355C215.941 217.785 217.161 217.513 218.389 217.567H218.353Z" fill="#263238"/>
    <path d="M215.863 207.163C214.96 207.405 214.072 207.701 213.204 208.049C212.41 208.521 211.644 209.039 210.909 209.6C211.403 208.759 212.131 208.08 213.005 207.648C213.878 207.215 214.86 207.046 215.828 207.163H215.863Z" fill="#263238"/>
    <path d="M214.649 196.404C214.649 196.528 213.541 196.75 212.265 197.291C210.989 197.831 210.05 198.496 209.97 198.398C210.508 197.692 211.246 197.164 212.088 196.883C212.876 196.474 213.767 196.307 214.649 196.404Z" fill="#263238"/>
    <path d="M213.949 187.737C213.949 187.861 212.832 188.073 211.556 188.676C210.28 189.279 209.394 190.014 209.314 189.917C209.807 189.165 210.527 188.59 211.37 188.277C212.151 187.829 213.054 187.64 213.949 187.737Z" fill="#263238"/>
    <path d="M338.888 236.638C338.782 236.718 338.206 235.938 337.116 235.522C336.452 235.326 335.773 235.187 335.086 235.105C335.424 234.93 335.8 234.838 336.181 234.838C336.562 234.838 336.937 234.93 337.275 235.105C338.516 235.601 339.003 236.603 338.888 236.638Z" fill="#263238"/>
    <path d="M342.185 227.767C341.729 226.9 341.058 226.164 340.235 225.631C339.412 225.099 338.466 224.788 337.488 224.728C337.488 224.674 337.816 224.559 338.374 224.577C339.119 224.619 339.839 224.854 340.466 225.259C341.094 225.663 341.605 226.225 341.945 226.89C342.202 227.422 342.238 227.75 342.185 227.767Z" fill="#263238"/>
    <path d="M344.657 218.01C344.04 217.324 343.273 216.79 342.415 216.45C341.557 216.11 340.632 215.974 339.712 216.052C339.712 216.007 339.996 215.848 340.527 215.777C341.224 215.69 341.931 215.782 342.583 216.043C343.234 216.301 343.81 216.719 344.258 217.257C344.595 217.673 344.701 217.992 344.657 218.01Z" fill="#263238"/>
    <path d="M347.573 208.643C347.458 208.705 346.997 207.827 345.969 207.305C345.324 207.042 344.652 206.852 343.966 206.737C343.966 206.684 344.196 206.578 344.613 206.551C345.156 206.542 345.693 206.67 346.174 206.924C346.654 207.178 347.062 207.55 347.36 208.005C347.573 208.359 347.617 208.616 347.573 208.643Z" fill="#263238"/>
    <path d="M350.976 200.038C350.49 199.419 349.888 198.901 349.204 198.513C348.458 198.238 347.667 198.106 346.873 198.124C346.873 198.079 347.103 197.911 347.573 197.831C348.191 197.756 348.818 197.855 349.383 198.116C349.948 198.378 350.429 198.791 350.772 199.311C350.985 199.719 351.02 200.02 350.976 200.038Z" fill="#263238"/>
    <path d="M295.268 187.737C295.22 187.88 295.155 188.017 295.073 188.144L294.453 189.279C293.904 190.254 293.088 191.663 292.06 193.391C291.032 195.119 289.792 197.157 288.374 199.399C287.656 200.516 286.902 201.686 286.087 202.882C285.271 204.135 284.384 205.339 283.428 206.489C283.177 206.805 282.878 207.08 282.542 207.304C282.425 207.374 282.288 207.402 282.152 207.384C282.036 207.365 281.922 207.329 281.816 207.278C281.638 207.177 281.469 207.062 281.31 206.932C280.747 206.439 280.228 205.896 279.76 205.31C278.873 204.194 277.987 203.059 277.252 201.978C275.727 199.798 274.433 197.786 273.361 196.085C272.289 194.383 271.456 193.001 270.888 192.026L270.25 190.901C270.164 190.776 270.098 190.638 270.055 190.493C270.154 190.606 270.243 190.728 270.321 190.856L271.03 191.937C271.677 192.93 272.555 194.277 273.618 195.925C274.681 197.574 276.046 199.585 277.579 201.739C278.35 202.82 279.175 203.937 280.087 205.036C280.543 205.596 281.044 206.118 281.585 206.595C281.851 206.808 282.188 207.039 282.356 206.906C282.645 206.706 282.904 206.468 283.127 206.197C284.077 205.064 284.965 203.881 285.786 202.652C286.601 201.464 287.363 200.303 288.081 199.187C289.517 196.962 290.784 194.942 291.848 193.231C292.911 191.521 293.735 190.209 294.356 189.199L295.056 188.109C295.162 187.852 295.251 187.728 295.268 187.737Z" fill="#263238"/>
    <path d="M276.383 200.348C276.33 200.348 276.232 200.047 276.268 199.533C276.335 198.865 276.594 198.232 277.012 197.707C277.423 197.175 277.981 196.775 278.616 196.555C279.104 196.405 279.423 196.431 279.431 196.484C278.646 196.839 277.941 197.348 277.358 197.982C276.872 198.694 276.54 199.5 276.383 200.348Z" fill="#263238"/>
    <path d="M282.241 207.331C281.692 205.038 281.673 202.649 282.188 200.348C282.298 201.508 282.319 202.676 282.25 203.839C282.335 205.002 282.332 206.169 282.241 207.331Z" fill="#263238"/>
    <path d="M288.817 198.434C288.692 198.434 288.418 197.486 287.496 196.732C286.905 196.323 286.265 195.99 285.591 195.74C285.591 195.687 285.857 195.625 286.282 195.695C286.833 195.795 287.349 196.036 287.78 196.396C288.212 196.752 288.542 197.217 288.737 197.743C288.879 198.177 288.87 198.416 288.817 198.434Z" fill="#263238"/>
    <path d="M293.133 191.211C292.847 190.557 292.48 189.941 292.042 189.377C291.502 188.903 290.907 188.496 290.27 188.163C290.27 188.109 290.545 188.083 290.952 188.163C291.485 188.333 291.964 188.638 292.344 189.049C292.727 189.453 292.996 189.951 293.124 190.493C293.23 190.936 293.186 191.202 293.133 191.211Z" fill="#263238"/>
    <path d="M271.978 193.745C271.925 193.745 271.783 193.417 271.766 192.859C271.752 192.08 271.938 191.311 272.306 190.626C272.673 189.938 273.206 189.353 273.857 188.924C274.362 188.614 274.743 188.543 274.743 188.587C273.88 189.148 273.173 189.919 272.688 190.827C272.203 191.735 271.956 192.751 271.97 193.78L271.978 193.745Z" fill="#263238"/>
    <g opacity="0.4">
    <path opacity="0.4" d="M259.527 165.164C261.424 172.449 264.596 184.316 268.026 193.594C268.153 194.032 268.377 194.435 268.682 194.773C269.568 195.597 271.048 195.092 271.872 194.215C272.57 193.312 273.196 192.355 273.742 191.352C274.022 190.854 274.413 190.428 274.885 190.106C275.357 189.785 275.897 189.578 276.463 189.5C276.928 189.512 277.386 189.626 277.802 189.834C278.219 190.042 278.585 190.34 278.873 190.705C279.445 191.442 279.941 192.235 280.353 193.071C280.447 193.303 280.589 193.511 280.769 193.684C280.949 193.856 281.164 193.989 281.399 194.073C281.517 194.109 281.643 194.109 281.761 194.074C281.879 194.039 281.984 193.97 282.064 193.876C282.143 193.781 282.193 193.666 282.207 193.543C282.221 193.421 282.199 193.297 282.143 193.187L279.112 185.317C279.112 185.317 277.721 179.548 272.909 180.443C267.521 181.444 269.967 190.306 269.967 190.306C269.967 190.306 259.447 164.854 259.527 165.164Z" fill="black"/>
    </g>
    <path d="M282.294 193.515C282.185 193.356 282.099 193.184 282.037 193.001C281.878 192.656 281.656 192.115 281.381 191.486C280.841 190.103 280.079 188.189 279.148 185.841C278.909 185.247 278.652 184.627 278.377 183.989C278.118 183.336 277.743 182.735 277.269 182.216C276.726 181.664 276.068 181.238 275.342 180.967C274.617 180.696 273.841 180.587 273.069 180.647C272.248 180.75 271.476 181.096 270.853 181.64C270.278 182.3 269.868 183.086 269.657 183.935C269.411 184.799 269.348 185.704 269.471 186.594C269.579 187.543 269.748 188.484 269.976 189.412C270.055 189.758 270.144 190.103 270.224 190.422L269.798 190.547C268.558 187.002 267.14 183.669 265.828 180.683C264.517 177.696 263.32 175.002 262.381 172.707C261.441 170.412 260.75 168.559 260.334 167.248C260.112 166.601 259.979 166.087 259.882 165.732C259.819 165.561 259.777 165.382 259.758 165.201C259.839 165.363 259.907 165.532 259.961 165.706C260.085 166.051 260.245 166.592 260.493 167.195C260.954 168.48 261.69 170.332 262.664 172.583C263.639 174.834 264.853 177.51 266.209 180.497C267.565 183.483 268.983 186.798 270.233 190.387L269.816 190.52C269.736 190.192 269.648 189.846 269.559 189.501C269.33 188.552 269.161 187.59 269.054 186.621C268.92 185.659 268.993 184.68 269.267 183.749C269.502 182.835 269.952 181.991 270.578 181.286C271.269 180.679 272.129 180.299 273.042 180.195C273.874 180.129 274.711 180.25 275.491 180.547C276.271 180.844 276.976 181.311 277.553 181.915C278.047 182.476 278.437 183.122 278.705 183.82C278.98 184.467 279.219 185.096 279.458 185.69C280.344 188.056 281.045 189.988 281.559 191.388C281.798 192.027 281.984 192.541 282.135 192.93C282.206 193.12 282.259 193.316 282.294 193.515Z" fill="#263238"/>
    <g opacity="0.4">
    <path opacity="0.4" d="M282.719 193.302C282.542 193.426 282.675 193.754 282.888 193.799C282.999 193.81 283.111 193.796 283.217 193.76C283.323 193.723 283.419 193.664 283.499 193.586C284.525 192.6 285.386 191.458 286.052 190.201C286.849 189.013 288.01 187.879 289.437 187.879C290.864 187.879 292.175 189.137 292.92 190.458C293.664 191.778 294.178 193.267 295.259 194.33C300.696 186.361 305.022 177.688 308.118 168.55C306.346 169.782 305.167 171.705 304.06 173.557C301.182 178.361 298.305 183.161 295.428 187.958C294.889 186.525 294.06 185.218 292.991 184.121C292.454 183.575 291.794 183.167 291.065 182.933C290.336 182.698 289.562 182.644 288.808 182.774C287.133 183.173 285.963 184.688 285.148 186.213C283.939 188.439 283.155 190.87 282.835 193.382" fill="black"/>
    </g>
    <path d="M395.898 264.297C395.672 263.997 395.479 263.673 395.322 263.331C394.977 262.693 394.498 261.754 393.94 260.593C392.488 257.543 391.189 254.423 390.049 251.243C388.911 248.066 387.935 244.833 387.125 241.557C386.815 240.298 386.593 239.279 386.451 238.561C386.362 238.198 386.306 237.827 386.283 237.454C386.432 237.798 386.545 238.158 386.62 238.526C386.832 239.306 387.107 240.298 387.426 241.477C388.117 243.967 389.136 247.388 390.466 251.101C391.795 254.815 393.178 258.102 394.223 260.46C394.728 261.576 395.11 262.516 395.473 263.251C395.65 263.584 395.793 263.935 395.898 264.297Z" fill="#263238"/>
    <path d="M387.47 262.631C387.32 262.322 387.201 261.998 387.116 261.665C386.912 261.027 386.655 260.106 386.371 258.953C384.922 252.924 384.431 246.703 384.918 240.52C385.016 239.341 385.122 238.384 385.228 237.729C385.251 237.384 385.319 237.044 385.432 236.718C385.469 237.06 385.469 237.405 385.432 237.746C385.379 238.402 385.326 239.359 385.264 240.538C384.957 246.689 385.442 252.855 386.708 258.883C386.956 260.044 387.16 260.974 387.32 261.621C387.413 261.95 387.464 262.289 387.47 262.631Z" fill="#263238"/>
    <path d="M414.553 185.052C414.787 185.111 415.013 185.198 415.227 185.309L415.36 185.371L415.227 185.424C409.709 187.273 404.063 188.719 398.335 189.749C393.39 190.635 388.862 191.184 385.583 191.45C383.943 191.583 382.614 191.663 381.692 191.69C381.215 191.732 380.734 191.732 380.257 191.69C380.724 191.597 381.198 191.538 381.675 191.512L385.556 191.131C388.817 190.786 393.328 190.245 398.256 189.306C406.48 187.808 413.242 185.814 415.218 185.3V185.406C414.983 185.315 414.76 185.196 414.553 185.052Z" fill="#263238"/>
    <path d="M406.923 181.205C406.923 181.205 407.003 181.063 407.277 180.984C407.475 180.942 407.68 180.944 407.877 180.988C408.074 181.033 408.259 181.119 408.421 181.241C408.679 181.408 408.884 181.645 409.013 181.924C409.142 182.203 409.188 182.513 409.147 182.818C409.112 183.004 409.035 183.18 408.923 183.334C408.811 183.487 408.667 183.613 408.5 183.704C408.157 183.9 407.757 183.975 407.366 183.917C406.976 183.866 406.61 183.696 406.32 183.43C406.186 183.297 406.079 183.138 406.008 182.963C405.936 182.787 405.901 182.6 405.904 182.41C405.924 182.107 406.022 181.814 406.188 181.56C406.354 181.305 406.583 181.098 406.852 180.957C407.197 180.757 407.604 180.691 407.995 180.771C408.27 180.842 408.376 180.966 408.367 180.984C407.902 180.885 407.416 180.971 407.012 181.223C406.807 181.349 406.637 181.523 406.515 181.73C406.393 181.937 406.323 182.17 406.311 182.41C406.331 182.694 406.455 182.959 406.66 183.156C406.865 183.352 407.135 183.466 407.419 183.474C407.694 183.541 407.984 183.502 408.231 183.364C408.477 183.225 408.662 182.999 408.749 182.729C408.764 182.53 408.739 182.33 408.674 182.141C408.61 181.951 408.507 181.778 408.372 181.63C408.238 181.482 408.074 181.363 407.892 181.281C407.71 181.199 407.513 181.155 407.313 181.152C407.065 181.17 406.941 181.249 406.923 181.205Z" fill="#263238"/>
    <path d="M275.231 199.949C275.078 200.101 274.915 200.244 274.743 200.375C274.407 200.623 273.946 201.048 273.281 201.491C271.436 202.809 269.462 203.934 267.388 204.85C264.306 206.214 261.049 207.139 257.71 207.597C255.74 207.863 253.751 207.97 251.764 207.916C249.63 207.841 247.506 207.577 245.419 207.128C241.129 206.162 237.265 204.584 233.623 203.583C231.915 203.093 230.169 202.749 228.403 202.555C226.855 202.401 225.295 202.419 223.75 202.608C221.517 202.837 219.369 203.593 217.485 204.815C216.818 205.299 216.176 205.816 215.562 206.365C216.086 205.716 216.701 205.146 217.387 204.673C219.27 203.375 221.443 202.559 223.715 202.298C225.272 202.094 226.847 202.061 228.412 202.2C230.21 202.378 231.99 202.713 233.729 203.202C237.407 204.159 241.271 205.727 245.507 206.684C247.572 207.126 249.671 207.39 251.782 207.473C253.745 207.526 255.709 207.428 257.657 207.181C260.967 206.742 264.199 205.847 267.264 204.522C269.336 203.646 271.318 202.572 273.184 201.314C273.866 200.897 274.336 200.499 274.69 200.268C274.858 200.142 275.039 200.035 275.231 199.949Z" fill="#FAFAFA"/>
    <path d="M331.541 236.407C331.448 236.377 331.359 236.335 331.275 236.283L330.504 235.885C330.168 235.716 329.733 235.539 329.228 235.309C328.723 235.078 328.12 234.874 327.456 234.697C323.512 233.676 319.393 233.528 315.385 234.263C312.612 234.716 309.868 235.337 307.17 236.124C304.246 236.921 301.126 237.852 297.776 238.534C294.26 239.307 290.646 239.528 287.062 239.19C283.237 238.729 279.476 237.837 275.851 236.532C272.103 235.273 268.522 233.873 265.004 232.694C261.647 231.514 258.183 230.662 254.662 230.151C248.674 229.36 242.591 229.69 236.725 231.126C234.477 231.693 232.269 232.407 230.114 233.261C229.183 233.669 228.297 234.032 227.508 234.413C226.719 234.795 226.001 235.14 225.372 235.495L223.697 236.425L222.501 237.17L221.765 237.613C221.686 237.675 221.596 237.723 221.5 237.755L221.739 237.577L222.457 237.09C222.767 236.886 223.157 236.611 223.626 236.319L225.284 235.344C225.913 234.981 226.64 234.635 227.419 234.227C228.199 233.82 229.086 233.456 230.025 233.031C232.18 232.15 234.392 231.412 236.645 230.824C242.547 229.334 248.678 228.97 254.715 229.752C258.266 230.254 261.76 231.103 265.146 232.287C268.691 233.456 272.236 234.857 275.984 236.115C279.581 237.413 283.311 238.304 287.106 238.774C290.647 239.122 294.221 238.912 297.697 238.153C301.029 237.489 304.139 236.576 307.073 235.787C309.789 235.013 312.55 234.406 315.341 233.97C319.364 233.252 323.496 233.436 327.438 234.511C328.138 234.706 328.732 234.972 329.255 235.167C329.778 235.362 330.185 235.592 330.522 235.778L331.267 236.221C331.461 236.345 331.55 236.399 331.541 236.407Z" fill="#FAFAFA"/>
    <path d="M286.885 199.284C287.631 199.494 288.388 199.66 289.153 199.781C291.249 200.016 293.37 199.848 295.401 199.284C298.399 198.366 301.338 197.265 304.201 195.988C305.936 195.283 307.734 194.749 309.572 194.392C311.551 194.039 313.565 193.923 315.572 194.047C319.442 194.299 323.244 195.198 326.818 196.705C329.723 197.932 332.526 199.387 335.201 201.057C337.497 202.457 339.296 203.715 340.519 204.522C341.112 204.93 341.582 205.257 341.937 205.514C342.107 205.621 342.267 205.742 342.415 205.878C342.231 205.8 342.055 205.702 341.892 205.585L340.43 204.699C339.154 203.901 337.337 202.723 335.024 201.358C332.339 199.742 329.54 198.323 326.649 197.113C323.112 195.626 319.355 194.728 315.527 194.454C313.554 194.339 311.574 194.449 309.625 194.782C307.807 195.134 306.027 195.656 304.308 196.342C301.011 197.618 298.104 199.001 295.446 199.559C293.377 200.11 291.218 200.233 289.1 199.922C288.334 199.82 287.588 199.605 286.885 199.284Z" fill="#FAFAFA"/>
    <path d="M338.684 177.058C338.275 177.217 337.854 177.345 337.426 177.439C337.009 177.554 336.539 177.678 335.919 177.793C335.299 177.909 334.661 178.068 333.907 178.174C332.148 178.47 330.372 178.662 328.59 178.75C326.434 178.859 324.274 178.836 322.121 178.68C319.951 178.484 317.797 178.153 315.669 177.687C313.932 177.301 312.219 176.815 310.538 176.234C309.82 176.003 309.191 175.728 308.624 175.516C308.056 175.303 307.587 175.09 307.206 174.913C306.797 174.749 306.402 174.551 306.027 174.319C306.452 174.429 306.867 174.574 307.268 174.754C307.666 174.913 308.154 175.099 308.712 175.285C309.271 175.471 309.917 175.728 310.635 175.941C312.071 176.402 313.808 176.872 315.749 177.297C319.979 178.196 324.305 178.562 328.626 178.387C330.611 178.298 332.401 178.13 333.89 177.917C334.643 177.829 335.308 177.696 335.901 177.598C336.495 177.501 337 177.403 337.408 177.315C337.824 177.187 338.251 177.101 338.684 177.058Z" fill="#FAFAFA"/>
    <path d="M213.878 182.748C213.995 182.624 214.122 182.511 214.259 182.411C214.525 182.198 214.915 181.879 215.429 181.525C216.448 180.745 217.937 179.646 219.86 178.37C224.797 174.964 230.203 172.295 235.909 170.447C241.651 168.621 247.747 168.195 253.687 169.206C255.474 169.534 257.225 170.036 258.916 170.704C259.518 170.925 259.961 171.165 260.272 171.298C260.43 171.361 260.582 171.441 260.723 171.537C260.723 171.537 260.059 171.298 258.862 170.863C257.164 170.257 255.414 169.806 253.634 169.516C247.741 168.606 241.719 169.067 236.033 170.863C230.388 172.714 225.021 175.325 220.082 178.627C218.158 179.867 216.634 180.931 215.588 181.666L214.374 182.553C214.219 182.641 214.052 182.706 213.878 182.748Z" fill="#FAFAFA"/>
    <path d="M325.417 275.685C325.339 275.722 325.255 275.746 325.169 275.756L324.425 275.916C324.022 276.007 323.614 276.069 323.202 276.102L322.422 276.191H321.536C318.992 276.297 315.332 275.641 311.016 274.259C308.854 273.585 306.514 272.752 303.971 271.999C301.268 271.196 298.493 270.658 295.685 270.395C289.738 269.828 283.163 270.545 276.392 271.777C269.621 273.009 263.187 274.542 257.232 275.251C251.96 275.991 246.613 276.024 241.333 275.349C237.773 274.883 234.312 273.838 231.088 272.256L229.6 271.476L228.536 270.847L227.898 270.43L227.694 270.279C227.777 270.306 227.854 270.344 227.925 270.395L228.58 270.767L229.644 271.396L231.142 272.141C234.373 273.648 237.821 274.641 241.36 275.083C246.613 275.704 251.925 275.638 257.161 274.888C263.09 274.152 269.488 272.61 276.294 271.343C283.101 270.076 289.703 269.393 295.703 269.996C298.533 270.271 301.33 270.826 304.051 271.653C306.603 272.424 308.943 273.266 311.087 273.957C314.432 275.197 317.953 275.894 321.518 276.022H322.404L323.184 275.951C323.595 275.935 324.004 275.888 324.407 275.809L325.152 275.694L325.417 275.685Z" fill="#FAFAFA"/>
    <g opacity="0.3">
    <path opacity="0.3" d="M247.342 281.792C251.356 291.815 259.128 298.931 269.825 300.402C280.522 301.873 291.342 299.427 301.729 296.591C282.79 293.933 266.032 291.318 247.315 281.792" fill="black"/>
    </g>
    <path d="M328.129 309.353L327.872 309.256L327.119 308.937L324.256 307.661C321.757 306.57 318.186 304.887 313.728 302.955C311.303 301.895 308.792 301.044 306.222 300.411C303.274 299.707 300.219 299.566 297.218 299.995C295.597 300.234 293.997 300.598 292.432 301.085C290.805 301.594 289.205 302.186 287.638 302.857C284.439 304.257 281.257 305.994 277.978 307.749C274.806 309.51 271.513 311.044 268.123 312.34C264.953 313.558 261.601 314.238 258.207 314.351C255.124 314.388 252.067 313.784 249.229 312.579C246.79 311.529 244.422 310.321 242.139 308.963C240.021 307.749 238.116 306.65 236.388 305.808C234.913 305.066 233.381 304.444 231.806 303.947C231.225 303.757 230.633 303.6 230.034 303.478C229.609 303.366 229.176 303.283 228.74 303.229L227.933 303.097C227.84 303.091 227.748 303.073 227.659 303.043C227.75 303.029 227.842 303.029 227.933 303.043L228.749 303.132C229.19 303.171 229.629 303.242 230.06 303.345C230.659 303.451 231.251 303.593 231.833 303.77C233.423 304.234 234.973 304.827 236.468 305.542C238.24 306.367 240.146 307.457 242.264 308.644C244.547 309.979 246.916 311.163 249.353 312.189C252.16 313.355 255.177 313.931 258.216 313.882C261.554 313.751 264.848 313.068 267.964 311.861C271.316 310.566 274.573 309.038 277.712 307.288C280.982 305.516 284.173 303.797 287.399 302.396C288.981 301.703 290.599 301.094 292.246 300.571C293.836 300.09 295.459 299.729 297.103 299.49C300.15 299.065 303.25 299.221 306.24 299.95C308.83 300.612 311.357 301.502 313.79 302.609C318.221 304.585 321.766 306.305 324.265 307.448L327.092 308.795L327.828 309.158C328.049 309.3 328.138 309.344 328.129 309.353Z" fill="#FAFAFA"/>
    </svg>
