<svg width="414" height="368" viewBox="0 0 414 368" fill="none" xmlns="http://www.w3.org/2000/svg">
    <path d="M10.3753 136.439C10.7761 132.314 11.2328 128.189 11.7455 124.064C14.7862 99.6848 19.701 71.0272 37.2915 52.6057C54.8821 34.1843 80.2249 25.0796 105.568 24.62C141.447 23.9747 161.256 48.5926 173.808 69.0737C189.507 94.7877 184.027 131.206 205.003 152.828C217.21 165.406 235.526 169.623 252.895 171.868C270.265 174.113 288.359 175.068 303.934 183.094C333.105 198.121 345.604 236.449 335.995 267.785C326.387 299.121 298.357 322.59 267.136 332.552C235.915 342.514 177.857 354.651 145.902 347.261C129.867 343.522 114.708 342.081 99.3535 335.23C85.0668 328.918 71.9243 320.283 60.4598 309.675C37.2032 287.913 22.2468 258.3 14.9012 227.557C7.82956 197.838 7.43179 166.909 10.3753 136.439Z" fill="#EBEBEB"/>
    <path d="M245.134 59.2798C252.683 36.0674 269.222 18.1763 296.854 11.7146C324.663 3.50274 356.414 19.7674 370.098 43.4395C383.878 67.3061 379.618 99.5967 361.523 120.343C341.405 143.44 305.163 151.051 277.911 137.085C250.659 123.118 235.64 88.4059 245.134 59.2798Z" fill="#EBEBEB"/>
    <path d="M209.723 248.391C209.723 248.391 211.792 239.411 220.127 239.861C228.463 240.312 230.487 240.312 234.085 239.861C237.682 239.411 243.269 235.079 244.842 236.423C246.416 237.766 245.541 240.71 242.615 243.309C239.689 245.908 234.659 247.729 234.659 247.729L245.311 249.558C245.311 249.558 254.911 244.431 257.165 245.333C257.815 245.62 258.361 246.099 258.731 246.706C259.1 247.313 259.276 248.018 259.233 248.727C259.233 248.727 263.22 246.959 264.342 248.515C265.465 250.071 265.748 251.167 264.616 252.051C264.616 252.051 265.359 251.317 267.427 251.927C269.195 252.449 269.045 255.711 267.427 256.586L266.879 256.904C266.879 256.904 251.781 265.593 251.322 265.655C248.67 266.009 232.388 265.319 224.008 264.93C222.495 264.86 220.991 265.193 219.649 265.895C218.307 266.597 217.175 267.643 216.37 268.926L202.881 290.317L187.642 272.727L209.723 248.391Z" fill="#B78876"/>
    <path d="M237.09 253.307C237.898 253.55 238.722 253.733 239.557 253.855C241.121 254.146 243.313 254.535 245.877 254.968H245.939H246L249.413 253.404L257.554 249.656L260.011 248.489C260.325 248.361 260.622 248.195 260.895 247.994C260.568 248.064 260.25 248.174 259.949 248.321L257.43 249.355L253.726 250.955L249.227 253.006L245.824 254.588H245.956C243.393 254.182 241.183 253.855 239.61 253.634C238.78 253.458 237.937 253.349 237.09 253.307Z" fill="#AA6550"/>
    <path d="M240.829 257.31C243.304 258.257 245.427 259.942 246.911 262.137C246.42 260.863 245.597 259.744 244.527 258.895C243.458 258.047 242.181 257.5 240.829 257.31Z" fill="#AA6550"/>
    <path d="M223.548 244.723C223.495 244.723 223.451 245.271 223.159 246.155C222.755 247.367 222.05 248.456 221.108 249.32L220.799 249.594L221.206 249.673C222.622 249.943 224.008 250.355 225.343 250.902C227.451 251.77 229.411 252.963 231.15 254.438C232.485 255.578 233.192 256.418 233.254 256.365C233.316 256.312 233.121 256.117 232.812 255.728C232.364 255.189 231.883 254.678 231.371 254.199C229.661 252.609 227.679 251.34 225.519 250.451C224.154 249.892 222.731 249.486 221.276 249.24L221.382 249.594C222.359 248.673 223.057 247.497 223.398 246.199C223.552 245.723 223.603 245.22 223.548 244.723Z" fill="#AA6550"/>
    <path d="M233.528 247.268C235.394 248.02 237.344 248.546 239.335 248.833C240.971 249.134 242.465 249.346 243.543 249.452C244.126 249.554 244.721 249.578 245.311 249.523C245.311 249.381 242.659 248.992 239.424 248.382L235.269 247.56C234.702 247.397 234.118 247.299 233.528 247.268Z" fill="#AA6550"/>
    <path d="M247.706 259.061C248.566 258.773 249.407 258.434 250.226 258.044C251.773 257.408 253.938 256.585 256.351 255.728C258.765 254.871 260.939 254.049 262.486 253.386C263.341 253.074 264.162 252.674 264.935 252.192C264.061 252.43 263.205 252.725 262.371 253.076L256.183 255.286C253.77 256.17 251.613 257.054 250.093 257.743C249.25 258.09 248.449 258.532 247.706 259.061Z" fill="#AA6550"/>
    <path d="M243.87 258.698C245.906 259.633 248.196 259.86 250.376 259.344C250.376 259.211 248.891 259.291 247.114 259.105C245.337 258.919 243.905 258.566 243.87 258.698Z" fill="#AA6550"/>
    <path d="M159.869 207.058C159.869 207.058 173.349 214.81 176.169 238.5C177.636 250.875 183.019 273.814 183.019 273.814L194.095 261.385L210.828 280.532C210.828 280.532 192.751 319.116 182.542 329.635C172.332 340.154 152.081 343.398 152.081 343.398L148.006 278.914L159.869 207.058Z" fill="#FA1616"/>
    <path d="M57.6577 196.406L88.7991 190.953L128.497 192.924C128.497 192.924 161.557 206.572 159.869 207.067L166.312 270.87L150.348 301.702L154.317 367.388H44.7078L50.427 321.724L57.5958 266.698L43.9919 309.295L41.9322 367.388H11.4361C8.20964 342.09 7.20197 306.944 7.20197 306.944L32.0939 225.621C35.505 214.297 43.024 204.656 53.176 198.59C54.5951 197.718 56.0961 196.986 57.6577 196.406Z" fill="#FA1616"/>
    <path d="M160.222 239.251L160.151 239.578C160.107 239.817 160.045 240.135 159.975 240.542C159.824 241.426 159.603 242.646 159.329 244.237C158.79 247.446 158.012 252.095 157.128 257.85C156.244 263.604 155.201 270.472 154.317 278.11C153.433 285.747 152.47 294.18 151.957 303.055C151.913 303.886 151.869 304.708 151.825 305.468C152.284 322.696 152.815 338.174 153.301 349.347C153.548 354.925 153.769 359.433 153.964 362.544C154.064 364.082 154.143 365.261 154.202 366.08C154.202 366.469 154.255 366.778 154.273 367.008C154.266 367.114 154.266 367.221 154.273 367.326C154.283 367.221 154.283 367.114 154.273 367.008C154.273 366.77 154.273 366.469 154.273 366.071C154.273 365.232 154.185 364.029 154.114 362.536C153.999 359.397 153.822 354.898 153.601 349.329C153.204 338.156 152.717 322.678 152.267 305.459C152.267 304.699 152.355 303.877 152.399 303.046C152.912 294.206 153.805 285.765 154.724 278.127C155.643 270.49 156.616 263.622 157.464 257.867C158.313 252.113 159.038 247.472 159.524 244.228L160.081 240.515C160.134 240.109 160.178 239.791 160.213 239.552C160.226 239.452 160.229 239.352 160.222 239.251Z" fill="#263238"/>
    <path d="M64.6763 242.717C64.7309 242.588 64.7637 242.45 64.7735 242.31C64.8265 241.983 64.8972 241.594 64.9768 241.126C64.9768 240.861 65.0564 240.578 65.1006 240.242C65.1448 239.906 65.1536 239.588 65.1801 239.217C65.2538 238.382 65.2804 237.544 65.2597 236.706C65.2597 236.238 65.2597 235.751 65.2597 235.248C65.2597 234.744 65.1713 234.213 65.1182 233.665C65.0064 232.504 64.8293 231.35 64.5879 230.209C64.0159 227.593 63.1685 225.045 62.0598 222.607C60.8997 220.193 59.4926 217.907 57.861 215.783C57.1364 214.859 56.3633 213.974 55.5451 213.131C55.165 212.742 54.8114 212.353 54.4313 212.009L53.3264 211.045C52.6986 210.493 52.0405 209.977 51.3552 209.498C51.0546 209.277 50.7806 209.065 50.4712 208.897L49.7375 208.446L48.7033 207.836C48.5857 207.763 48.4614 207.701 48.3321 207.651C48.3321 207.651 48.4293 207.757 48.6591 207.916L49.6315 208.597L50.3475 209.074C50.6038 209.26 50.869 209.481 51.1519 209.701C51.8185 210.198 52.4588 210.729 53.07 211.293L54.1396 212.265C54.5109 212.61 54.8556 213.007 55.2268 213.396C56.0269 214.238 56.7794 215.123 57.4809 216.048C60.7429 220.249 63.0232 225.127 64.1547 230.324C64.4035 231.451 64.5923 232.589 64.7205 233.736C64.7823 234.275 64.8619 234.788 64.8884 235.292C64.9149 235.796 64.9326 236.273 64.9503 236.741C65.021 237.625 64.9503 238.509 64.9503 239.225C64.9503 239.597 64.9503 239.932 64.9503 240.251C64.9503 240.569 64.8884 240.843 64.8531 241.135C64.8089 241.603 64.7735 242.019 64.747 242.319C64.7064 242.448 64.6826 242.582 64.6763 242.717Z" fill="#263238"/>
    <path d="M44.0273 309.296C44.1165 309.128 44.1848 308.95 44.2306 308.765C44.3632 308.367 44.5311 307.881 44.7344 307.227C45.1676 305.839 45.7686 303.921 46.5023 301.57C47.9962 296.788 50.0381 290.176 52.4159 282.91C54.7937 275.644 56.9771 269.067 58.745 264.391C59.6289 262.066 60.5571 260.245 61.1051 258.955C61.3791 258.31 61.5913 257.806 61.7239 257.461C61.7959 257.286 61.855 257.106 61.9007 256.922C61.7945 257.08 61.7056 257.249 61.6355 257.426L60.946 258.884C60.3449 260.148 59.408 261.943 58.4445 264.267C56.5882 268.943 54.3518 275.493 51.9828 282.768C49.6138 290.043 47.6073 296.664 46.1841 301.473C45.477 303.877 44.9201 305.831 44.5488 307.183C44.3809 307.819 44.2394 308.332 44.1333 308.739C44.0774 308.92 44.0419 309.107 44.0273 309.296Z" fill="#263238"/>
    <path d="M21.0535 307.262C21.0535 307.342 22.238 307.006 24.1562 306.705C26.6519 306.327 29.1856 306.267 31.6963 306.528C34.2046 306.801 36.6674 307.395 39.0242 308.296C40.7921 309.003 41.8882 309.587 41.9324 309.516C41.7193 309.326 41.4815 309.165 41.2252 309.039C40.5544 308.65 39.8607 308.301 39.1479 307.996C36.7913 306.986 34.298 306.33 31.7493 306.051C29.1995 305.771 26.622 305.875 24.1032 306.36C23.3403 306.5 22.5874 306.689 21.8491 306.926C21.5696 307.001 21.3018 307.114 21.0535 307.262Z" fill="#263238"/>
    <path d="M158.932 302.763C159.232 302.372 159.507 301.962 159.754 301.535C160.293 300.748 161.088 299.625 162.158 298.308C164.271 295.656 167.373 292.121 170.821 288.205C174.268 284.289 177.388 280.779 179.589 278.172C180.686 276.872 181.569 275.812 182.162 275.06C182.488 274.69 182.784 274.294 183.046 273.876C182.675 274.2 182.334 274.558 182.029 274.945L179.377 277.96L170.538 287.895C167.09 291.793 164.023 295.373 161.964 298.105C161.138 299.174 160.371 300.286 159.665 301.437C159.418 301.844 159.259 302.18 159.144 302.41C159.029 302.64 158.914 302.754 158.932 302.763Z" fill="#263238"/>
    <g opacity="0.3">
    <path opacity="0.3" d="M152.841 343.398C152.346 325.542 151.418 309.083 153.036 291.457C153.76 307.103 159.453 325.41 165.19 339.986L152.841 343.398Z" fill="black"/>
    </g>
    <g opacity="0.3">
    <path opacity="0.3" d="M57.6311 266.698C57.6311 266.698 62.7138 255.33 62.3691 255.33C62.8729 276.598 58.5416 301.013 50.586 320.743L57.6311 266.698Z" fill="black"/>
    </g>
    <path d="M71.6064 326.983C71.8016 327.125 72.0053 327.255 72.2163 327.372L73.9842 328.406C75.5311 329.29 77.7675 330.634 80.4989 332.322C83.2303 334.011 86.4921 336 90.2223 338.094C94.2227 340.396 98.4027 342.371 102.721 343.999C107.055 345.661 111.634 346.593 116.272 346.757C118.306 346.763 120.329 346.465 122.274 345.873C123.973 345.353 125.559 344.52 126.95 343.416C129.002 341.841 130.481 339.636 131.158 337.14C131.325 336.465 131.417 335.775 131.432 335.08C131.436 334.841 131.421 334.601 131.388 334.364C131.347 335.286 131.211 336.202 130.981 337.096C130.251 339.516 128.771 341.642 126.756 343.168C125.38 344.224 123.822 345.018 122.159 345.511C120.247 346.062 118.263 346.327 116.272 346.298C111.688 346.104 107.166 345.17 102.88 343.531C98.5846 341.907 94.4206 339.953 90.4257 337.688C86.7308 335.619 83.4602 333.639 80.7022 332.004C77.9443 330.369 75.6814 329.078 74.108 328.212L72.2782 327.248C72.0635 327.138 71.8385 327.05 71.6064 326.983Z" fill="#263238"/>
    <path d="M71.7389 301.092C71.8135 301.613 71.9287 302.127 72.0837 302.63C72.2221 303.228 72.3933 303.819 72.5964 304.398C72.8262 305.079 73.056 305.874 73.4096 306.714C73.7632 307.554 74.1079 308.482 74.5764 309.445C75.0449 310.409 75.5664 311.425 76.1321 312.486C78.7089 317.038 82.0522 321.111 86.0147 324.526C86.8986 325.295 87.7826 326.037 88.6665 326.647C89.5505 327.257 90.3549 327.84 91.1239 328.327C91.8929 328.813 92.6001 329.211 93.2277 329.582C93.8553 329.953 94.4122 330.218 94.8718 330.466C95.3377 330.709 95.819 330.922 96.3127 331.102C95.8802 330.802 95.4251 330.536 94.9514 330.307C94.5094 330.068 93.9614 329.776 93.3603 329.423C92.7592 329.069 92.0344 328.654 91.3007 328.123C90.567 327.593 89.7273 327.071 88.8963 326.417C88.0654 325.763 87.1815 325.047 86.2445 324.278C82.377 320.833 79.0959 316.782 76.5299 312.283C75.9554 311.24 75.3896 310.259 74.9477 309.286C74.5057 308.314 74.0637 307.43 73.7367 306.635C73.4096 305.839 73.1179 305.035 72.8527 304.363C72.5875 303.691 72.4019 303.099 72.2605 302.595C72.1291 302.08 71.9547 301.578 71.7389 301.092Z" fill="#263238"/>
    <path d="M158.658 260.325C158.658 260.449 163.289 259.538 168.938 258.292C174.586 257.046 179.156 255.941 179.121 255.817C179.086 255.693 174.498 256.595 168.841 257.841C163.183 259.088 158.631 260.201 158.658 260.325Z" fill="#FAFAFA"/>
    <path d="M158.658 255.145C159.635 255.121 160.608 255.012 161.566 254.818C163.334 254.544 165.809 254.102 168.522 253.589L175.444 252.237C176.409 252.083 177.363 251.864 178.299 251.582C177.322 251.606 176.349 251.715 175.391 251.909C173.623 252.183 171.139 252.625 168.434 253.138L161.513 254.499C160.547 254.648 159.593 254.864 158.658 255.145Z" fill="#FAFAFA"/>
    <path d="M64.5083 255.843C64.5083 255.967 84.406 255.923 108.953 255.737C133.5 255.551 153.389 255.295 153.389 255.171C153.389 255.047 133.492 255.092 108.944 255.277C84.3972 255.463 64.5083 255.684 64.5083 255.843Z" fill="#FAFAFA"/>
    <path d="M63.041 260.325C63.041 260.449 83.5132 260.555 108.768 260.555C134.022 260.555 154.494 260.449 154.494 260.325C154.494 260.201 134.022 260.095 108.768 260.095C83.5132 260.095 63.041 260.192 63.041 260.325Z" fill="#FAFAFA"/>
    <path d="M25.7737 249.823C25.7737 249.823 25.7737 249.823 25.6677 249.823C25.5616 249.823 25.7472 249.823 25.8003 249.876H25.8798V249.788H25.4909L25.7649 249.885C27.3914 250.486 34.2331 252.802 42.3036 255.878L54.2015 260.448L57.808 261.827C58.2425 262.017 58.6919 262.171 59.1516 262.287C58.7479 262.041 58.3217 261.834 57.8787 261.668C57.039 261.297 55.828 260.784 54.3429 260.148C51.3287 258.893 47.1476 257.204 42.4892 255.445C34.4011 252.369 27.4621 250.195 25.8091 249.788V249.885H25.9152V249.797H25.8356C25.7826 249.797 25.7384 249.797 25.703 249.868L25.7737 249.823Z" fill="#FAFAFA"/>
    <path d="M26.4985 244.113C26.4985 244.237 34.2154 246.951 43.8327 250.177C53.4501 253.403 61.273 255.932 61.3084 255.817C61.3437 255.702 53.5915 252.979 43.9742 249.744C34.3568 246.509 26.5427 243.989 26.4985 244.113Z" fill="#FAFAFA"/>
    <path d="M85.6259 191.616C85.5763 191.851 85.5496 192.091 85.5463 192.332C85.4869 193.013 85.4692 193.698 85.4933 194.382C85.5879 196.92 86.1171 199.422 87.0579 201.781C88.4598 205.298 90.7136 208.411 93.6167 210.841C97.2455 213.751 101.686 215.465 106.329 215.748C110.971 216.032 115.587 214.87 119.543 212.424C122.722 210.368 125.338 207.552 127.154 204.23C128.376 202.004 129.207 199.585 129.611 197.078C129.719 196.4 129.784 195.715 129.806 195.028C129.831 194.79 129.831 194.55 129.806 194.312C129.749 194.546 129.717 194.786 129.708 195.028C129.708 195.496 129.576 196.177 129.425 197.052C128.955 199.514 128.09 201.885 126.862 204.07C125.031 207.297 122.439 210.028 119.313 212.026C115.424 214.404 110.898 215.53 106.348 215.252C101.798 214.974 97.4434 213.304 93.8731 210.47C91.4769 208.483 89.5123 206.027 88.1001 203.253C86.688 200.479 85.858 197.445 85.6612 194.338C85.6612 193.454 85.6082 192.765 85.6612 192.296C85.6687 192.069 85.6568 191.841 85.6259 191.616Z" fill="#FAFAFA"/>
    <path d="M193.317 263.215C193.434 263.529 193.591 263.826 193.786 264.099C194.104 264.63 194.599 265.39 195.226 266.318C196.49 268.156 198.329 270.64 200.53 273.248C202.412 275.47 204.407 277.594 206.506 279.612C207.31 280.39 207.973 281 208.45 281.38C208.678 281.612 208.937 281.811 209.219 281.973C209.028 281.71 208.812 281.468 208.574 281.248L206.735 279.356C205.18 277.756 203.076 275.511 200.884 272.921C198.691 270.331 196.817 267.891 195.492 266.097L193.936 263.975C193.761 263.698 193.553 263.442 193.317 263.215Z" fill="#FAFAFA"/>
    <g opacity="0.3">
    <path opacity="0.3" d="M93.4576 329.476C97.9215 332.013 103.941 332.419 109.316 332.561C110.329 332.652 111.349 332.516 112.303 332.163C112.777 331.978 113.184 331.655 113.471 331.236C113.758 330.816 113.911 330.32 113.912 329.812C113.797 328.592 112.586 327.814 111.464 327.346C107.123 325.578 102.253 325.648 97.6917 324.508C89.9307 322.555 82.0017 317.012 75.9555 311.762C80.1069 319.111 86.1501 325.215 93.4576 329.441" fill="black"/>
    </g>
    <path d="M110.173 212.53C115.202 212.13 119.892 209.837 123.298 206.115C126.703 202.393 128.571 197.518 128.524 192.473C128.524 187.505 128.435 183.527 128.435 183.527C128.435 183.527 144.435 181.044 144.629 165.044C144.824 149.045 142.057 112.299 142.057 112.299C132.96 108.388 122.984 106.978 113.16 108.213C103.335 109.448 94.019 113.285 86.1738 119.326L83.8048 121.147L88.6842 193.967C88.8585 196.603 89.5549 199.178 90.7329 201.543C91.9109 203.908 93.5471 206.015 95.5464 207.742C97.5458 209.469 99.8683 210.782 102.379 211.604C104.89 212.426 107.539 212.74 110.173 212.53Z" fill="#B78876"/>
    <path d="M128.462 183.28C121.075 183.419 113.813 181.357 107.601 177.357C107.601 177.357 112.524 188.849 128.497 187.425L128.462 183.28Z" fill="#AA6550"/>
    <path d="M85.7761 137.704C85.5021 137.589 74.7798 134.451 75.1687 145.394C75.5577 156.337 86.4302 153.721 86.4391 153.411C86.4479 153.102 85.7761 137.704 85.7761 137.704Z" fill="#B78876"/>
    <path d="M82.9297 149.372C82.8766 149.372 82.7441 149.513 82.4258 149.672C81.9779 149.877 81.4687 149.902 81.0027 149.743C79.8359 149.354 78.8016 147.551 78.6867 145.579C78.6271 144.645 78.7781 143.708 79.1287 142.839C79.2212 142.494 79.3957 142.177 79.6374 141.913C79.879 141.65 80.1806 141.449 80.5165 141.328C80.7334 141.263 80.966 141.277 81.1742 141.366C81.3823 141.454 81.553 141.613 81.6568 141.814C81.8159 142.114 81.754 142.335 81.8071 142.353C81.8601 142.371 82.0369 142.167 81.9396 141.717C81.8683 141.449 81.7096 141.212 81.4888 141.045C81.177 140.829 80.7943 140.74 80.4193 140.797C79.971 140.899 79.557 141.115 79.2176 141.425C78.8782 141.735 78.6252 142.128 78.4834 142.565C78.0492 143.527 77.8579 144.58 77.9265 145.633C78.0591 147.842 79.2613 149.867 80.8524 150.273C81.1538 150.355 81.4699 150.366 81.7764 150.306C82.0829 150.247 82.3716 150.117 82.6203 149.929C82.9208 149.637 82.965 149.389 82.9297 149.372Z" fill="#AA6550"/>
    <path d="M136.249 137.933C136.257 138.529 136.031 139.104 135.619 139.535C135.208 139.967 134.644 140.22 134.048 140.24C133.757 140.264 133.464 140.23 133.187 140.139C132.909 140.047 132.653 139.901 132.433 139.709C132.213 139.517 132.034 139.283 131.906 139.021C131.778 138.758 131.704 138.472 131.688 138.181C131.683 137.586 131.91 137.012 132.321 136.581C132.732 136.15 133.295 135.897 133.889 135.874C134.18 135.85 134.473 135.884 134.751 135.975C135.028 136.067 135.285 136.212 135.505 136.405C135.725 136.597 135.904 136.831 136.032 137.093C136.16 137.356 136.234 137.642 136.249 137.933Z" fill="#263238"/>
    <path d="M139.025 134.787C138.742 135.087 137.018 133.805 134.552 133.814C132.086 133.823 130.292 135.052 130.026 134.751C129.894 134.619 130.186 134.079 130.972 133.505C132.037 132.769 133.302 132.38 134.596 132.391C135.867 132.39 137.105 132.793 138.132 133.54C138.91 134.115 139.166 134.654 139.025 134.787Z" fill="#263238"/>
    <path d="M112.639 138.473C112.644 139.068 112.417 139.642 112.006 140.072C111.596 140.503 111.033 140.757 110.438 140.78C110.147 140.803 109.855 140.767 109.578 140.675C109.301 140.584 109.045 140.438 108.825 140.246C108.605 140.054 108.426 139.82 108.298 139.558C108.17 139.296 108.095 139.011 108.078 138.72C108.071 138.124 108.297 137.549 108.708 137.118C109.12 136.687 109.684 136.434 110.279 136.413C110.57 136.389 110.863 136.424 111.141 136.515C111.418 136.606 111.674 136.752 111.895 136.944C112.115 137.136 112.294 137.37 112.422 137.633C112.55 137.895 112.624 138.181 112.639 138.473Z" fill="#263238"/>
    <path d="M114.858 135.246C114.575 135.547 112.842 134.265 110.385 134.274C107.928 134.283 106.125 135.511 105.859 135.211C105.727 135.078 106.01 134.539 106.796 133.964C107.861 133.229 109.127 132.841 110.42 132.851C111.691 132.848 112.93 133.251 113.956 134C114.743 134.574 114.999 135.114 114.858 135.246Z" fill="#263238"/>
    <path d="M123.786 153.482C123.786 153.34 125.297 153.084 127.772 152.766C128.4 152.695 129.001 152.571 129.107 152.147C129.156 151.497 129.008 150.847 128.683 150.282C128.091 148.762 127.481 147.171 126.827 145.5C124.245 138.693 122.407 133.125 122.654 133.001C122.902 132.877 125.244 138.305 127.825 145.137L129.593 149.946C129.988 150.705 130.103 151.577 129.92 152.412C129.826 152.628 129.683 152.82 129.504 152.973C129.325 153.126 129.114 153.236 128.886 153.296C128.541 153.392 128.184 153.443 127.825 153.447C125.342 153.615 123.795 153.623 123.786 153.482Z" fill="#263238"/>
    <path d="M115.494 125.611C115.247 126.283 112.798 125.965 109.908 126.31C107.017 126.654 104.692 127.45 104.312 126.849C104.136 126.557 104.542 125.965 105.488 125.284C106.744 124.492 108.164 123.996 109.641 123.834C111.117 123.671 112.611 123.847 114.009 124.347C115.061 124.771 115.6 125.293 115.494 125.611Z" fill="#263238"/>
    <path d="M138.123 127.671C137.69 128.236 136.002 127.671 133.96 127.627C131.918 127.582 130.203 127.998 129.805 127.414C129.629 127.132 129.903 126.53 130.689 126.044C131.698 125.403 132.882 125.093 134.075 125.16C135.272 125.181 136.434 125.573 137.399 126.283C138.079 126.787 138.318 127.406 138.123 127.671Z" fill="#263238"/>
    <path d="M149.853 102.178C149.969 101.181 149.83 100.171 149.448 99.2433C149.066 98.3155 148.454 97.5001 147.67 96.8739C146.865 96.2844 145.876 96.0014 144.881 96.076C143.886 96.1505 142.951 96.5776 142.243 97.2805C142.394 96.6121 142.402 95.9194 142.268 95.2474C142.134 94.5754 141.86 93.9391 141.464 93.3798C141.068 92.8205 140.559 92.3507 139.97 92.0009C139.381 91.6511 138.725 91.4291 138.044 91.3492C135.392 91.1901 133.209 93.1613 130.681 93.8508C128.153 94.5403 125.58 93.9392 123.211 92.9668C120.842 91.9945 118.632 90.6951 116.237 89.82C111.17 87.9724 105.579 88.1986 100.678 90.4496C95.7776 92.7005 91.963 96.7943 90.0633 101.842C86.5275 100.746 82.5851 102.522 80.4282 105.484C78.2714 108.445 77.7145 112.343 78.1476 115.985C78.4822 118.468 79.096 120.905 79.9774 123.251C79.9774 123.454 79.9774 123.657 79.9774 123.87C80.1454 132.665 81.1354 142.998 84.8922 143.051C91.4334 143.157 89.8776 130.826 89.8776 130.826C97.9039 127.724 94.9161 115.693 96.9492 113.872C98.9823 112.051 103.137 107.808 119.932 116.4C126.455 119.733 135.136 119.627 139.874 118.557L140.298 118.469H140.395C140.438 118.447 140.482 118.43 140.528 118.416C142.051 118.031 143.506 117.413 144.841 116.586C146.409 115.677 147.647 114.293 148.377 112.635C148.732 111.804 148.837 110.887 148.68 109.997C148.523 109.107 148.111 108.282 147.493 107.623C148.8 106.081 149.622 104.186 149.853 102.178Z" fill="#263238"/>
    <path d="M125.872 161.049C125.529 162.043 125.047 162.983 124.44 163.842C124.132 164.272 123.737 164.632 123.28 164.897C122.822 165.162 122.314 165.327 121.788 165.38C121.227 165.382 120.674 165.242 120.181 164.973C119.688 164.704 119.271 164.315 118.968 163.842C118.371 162.883 118.095 161.759 118.182 160.633C118.226 159.626 118.694 158.423 119.693 158.3C120.116 158.285 120.537 158.379 120.913 158.574L126.217 160.713" fill="#AA6550"/>
    <path d="M123.759 165.389C122.809 165.456 121.854 165.339 120.948 165.044C120.025 164.682 119.266 163.993 118.818 163.108C118.566 162.57 118.429 161.986 118.417 161.392C118.405 160.798 118.517 160.208 118.747 159.661C118.869 159.378 119.023 159.111 119.207 158.865C119.419 158.653 119.384 158.662 119.605 158.688C119.826 158.715 120.17 158.918 120.489 159.024L121.373 159.378C122.504 159.838 123.529 160.262 124.387 160.554C126.155 161.199 127.216 161.544 127.26 161.437C127.304 161.331 126.314 160.766 124.652 159.961C123.821 159.563 122.822 159.077 121.717 158.6L120.833 158.211C120.519 158.062 120.198 157.929 119.87 157.813C119.614 157.73 119.339 157.73 119.083 157.813C118.854 157.916 118.653 158.074 118.5 158.273C117.932 159.01 117.59 159.895 117.515 160.822C117.44 161.749 117.634 162.678 118.076 163.497C118.638 164.541 119.592 165.32 120.727 165.663C121.465 165.899 122.254 165.93 123.008 165.751C123.538 165.619 123.786 165.442 123.759 165.389Z" fill="#263238"/>
    <path d="M96.3745 112.334C96.308 111.691 96.308 111.042 96.3745 110.398C96.6538 108.654 97.5396 107.064 98.8761 105.908C100.879 104.212 103.461 103.36 106.08 103.53C109.041 103.53 112.188 104.52 115.441 105.616C117.031 106.165 118.648 106.634 120.285 107.022C121.823 107.359 123.388 107.552 124.961 107.596C127.628 107.663 130.289 107.311 132.846 106.553C134.562 106.042 136.217 105.342 137.779 104.467C138.205 104.233 138.618 103.977 139.016 103.698C139.161 103.612 139.298 103.511 139.423 103.397C139.423 103.397 138.813 103.733 137.655 104.281C136.075 105.084 134.42 105.73 132.714 106.208C128.68 107.344 124.428 107.459 120.338 106.544C118.774 106.191 117.174 105.66 115.538 105.148C112.294 104.052 109.086 103.07 106.036 103.062C103.323 102.93 100.665 103.863 98.6286 105.66C97.2675 106.886 96.3948 108.563 96.1712 110.381C96.0931 111.039 96.1625 111.706 96.3745 112.334Z" fill="#455A64"/>
    <path d="M83.9287 139.374C83.9287 139.374 84.0171 139.268 84.1408 139.038C84.3264 138.71 84.4917 138.371 84.6358 138.022C85.1979 136.743 85.6274 135.41 85.9176 134.044C86.3465 132.011 86.4835 129.928 86.3242 127.857C86.0238 125.348 85.5483 122.864 84.901 120.423C84.2684 118.012 84.2684 115.479 84.901 113.068C85.2063 112.04 85.731 111.09 86.4391 110.284C87.0667 109.596 87.8569 109.076 88.7373 108.772C90.0163 108.299 91.4281 108.337 92.6797 108.878C93.1205 109.127 93.5326 109.423 93.9084 109.762C93.6237 109.327 93.2307 108.974 92.7681 108.737C92.1305 108.42 91.4356 108.235 90.7249 108.192C90.0141 108.15 89.3021 108.251 88.6313 108.489C87.6839 108.787 86.8287 109.323 86.1474 110.045C85.3889 110.886 84.8219 111.881 84.4856 112.962C83.8213 115.446 83.8213 118.062 84.4856 120.546C85.1282 122.97 85.6125 125.432 85.9352 127.918C86.1111 129.953 86.0099 132.002 85.6347 134.009C85.3757 135.362 85.0001 136.69 84.5121 137.978C84.1231 138.871 83.8933 139.357 83.9287 139.374Z" fill="#455A64"/>
    <path d="M94.8365 111.044C94.8561 110.829 94.8561 110.613 94.8365 110.398C94.8365 109.93 94.8365 109.329 94.7746 108.569C94.6662 106.328 94.9138 104.084 95.5083 101.921C95.951 100.448 96.6777 99.0757 97.6474 97.8816C98.7406 96.5082 100.242 95.5177 101.935 95.053C103.83 94.6145 105.808 94.6938 107.663 95.2828C109.669 95.9179 111.591 96.7904 113.391 97.8816C115.214 98.9807 117.11 99.9552 119.065 100.799C120.933 101.528 122.913 101.926 124.917 101.974C126.728 102.018 128.535 101.798 130.283 101.32C131.791 100.896 133.247 100.303 134.623 99.5522C136.609 98.4239 138.359 96.9233 139.776 95.1325C140.162 94.6527 140.51 94.1444 140.819 93.6121C140.936 93.4313 141.04 93.2422 141.129 93.0464C140.98 93.2019 140.85 93.3739 140.74 93.5591C140.401 94.0667 140.032 94.5537 139.635 95.0176C138.182 96.7262 136.43 98.1552 134.464 99.234C133.101 99.9574 131.664 100.529 130.177 100.94C128.468 101.393 126.702 101.596 124.935 101.541C122.984 101.484 121.058 101.089 119.242 100.374C117.306 99.5297 115.428 98.5582 113.62 97.4661C111.791 96.3487 109.831 95.4582 107.786 94.8143C105.856 94.2083 103.797 94.135 101.828 94.6021C100.052 95.099 98.481 96.1523 97.3469 97.6076C96.3582 98.848 95.6251 100.272 95.19 101.797C94.6162 103.997 94.4131 106.276 94.589 108.542C94.6332 109.346 94.695 109.965 94.7481 110.381C94.7519 110.604 94.7816 110.827 94.8365 111.044Z" fill="#455A64"/>
    <path d="M0.430817 367.388C0.430817 367.512 90.2664 367.618 201.087 367.618C311.907 367.618 401.743 367.512 401.743 367.388C401.743 367.265 311.925 367.159 201.087 367.159C90.2487 367.159 0.430817 367.22 0.430817 367.388Z" fill="#263238"/>
    <path d="M248.228 331.094C246.522 333.507 243.234 332.685 241.722 331.2C240.211 329.715 239.565 327.576 238.991 325.534C237.683 320.858 236.339 315.96 237.382 311.223C237.627 309.783 238.267 308.44 239.229 307.342C239.715 306.802 240.334 306.399 241.024 306.174C241.715 305.949 242.453 305.91 243.163 306.06C244.825 306.511 245.815 308.138 246.584 309.684C248.754 314.262 249.874 319.266 249.863 324.331C249.863 326.692 249.572 329.158 248.228 331.094Z" fill="#FA1616"/>
    <g opacity="0.2">
    <path opacity="0.2" d="M248.228 331.094C246.522 333.507 243.234 332.685 241.722 331.2C240.211 329.715 239.565 327.576 238.991 325.534C237.683 320.858 236.339 315.96 237.382 311.223C237.627 309.783 238.267 308.44 239.229 307.342C239.715 306.802 240.334 306.399 241.024 306.174C241.715 305.949 242.453 305.91 243.163 306.06C244.825 306.511 245.815 308.138 246.584 309.684C248.754 314.262 249.874 319.266 249.863 324.331C249.863 326.692 249.572 329.158 248.228 331.094Z" fill="black"/>
    </g>
    <path d="M241.828 343.354C238.999 342.001 235.81 341.595 232.732 342.196C231.051 342.334 229.464 343.031 228.224 344.176C227.093 345.414 226.872 347.588 228.154 348.667C228.982 349.233 229.983 349.492 230.982 349.4C233.395 349.4 236.065 348.976 237.983 350.434C239.07 351.265 239.795 352.644 241.103 353.086C241.759 353.242 242.447 353.181 243.064 352.911C243.681 352.642 244.193 352.179 244.524 351.592C245.157 350.388 245.303 348.986 244.931 347.677C244.784 346.765 244.427 345.9 243.889 345.15C243.351 344.4 242.645 343.785 241.828 343.354Z" fill="#FA1616"/>
    <path d="M252.86 334.594C251.999 333.451 251.429 332.117 251.198 330.705C250.967 329.293 251.082 327.846 251.534 326.488C252.479 323.778 254.152 321.381 256.369 319.558C258.89 317.342 261.817 315.637 264.988 314.537C266.218 314.054 267.539 313.84 268.859 313.91C269.518 313.95 270.157 314.152 270.719 314.498C271.282 314.843 271.751 315.321 272.086 315.89C272.97 317.614 272.086 319.7 271.202 321.406C269.527 324.4 267.624 327.261 265.509 329.962C263.803 332.128 261.858 334.267 259.277 335.266C256.696 336.265 254.018 336.106 252.656 334.311" fill="#FA1616"/>
    <path d="M248.131 367.574C248.047 367.214 248 366.847 247.989 366.478C247.919 365.682 247.821 364.71 247.715 363.481C247.575 361.997 247.357 360.522 247.061 359.061C246.681 357.287 246.158 355.545 245.497 353.855C244.839 352.167 243.946 350.581 242.845 349.144C241.954 347.975 240.816 347.018 239.512 346.341C238.625 345.9 237.673 345.602 236.692 345.457C236.323 345.441 235.956 345.387 235.596 345.298C235.966 345.256 236.34 345.256 236.71 345.298C237.73 345.382 238.727 345.649 239.654 346.085C241.034 346.744 242.244 347.712 243.189 348.914C244.326 350.374 245.24 351.995 245.903 353.722C246.578 355.441 247.101 357.216 247.468 359.026C247.737 360.488 247.923 361.963 248.025 363.446C248.113 364.728 248.14 365.753 248.157 366.469C248.192 366.837 248.183 367.208 248.131 367.574Z" fill="#263238"/>
    <path d="M247.945 365.267C247.922 365.1 247.922 364.93 247.945 364.763C247.945 364.374 247.945 363.879 247.945 363.305C247.945 362.032 247.945 360.202 247.945 357.939C247.857 353.422 247.503 347.173 246.796 340.304C246.089 333.436 245.108 327.257 244.215 322.829C244.003 321.715 243.791 320.716 243.596 319.832C243.402 318.948 243.242 318.206 243.083 317.587C242.924 316.968 242.836 316.544 242.747 316.173C242.697 316.009 242.671 315.84 242.668 315.669C242.74 315.822 242.796 315.982 242.836 316.146C242.951 316.509 243.083 316.977 243.251 317.543C243.419 318.109 243.623 318.904 243.844 319.779C244.065 320.654 244.303 321.653 244.533 322.758C245.747 328.54 246.653 334.382 247.247 340.26C247.963 347.137 248.263 353.405 248.263 357.939C248.263 360.202 248.219 362.041 248.157 363.305C248.157 363.897 248.087 364.383 248.06 364.763C248.037 364.934 247.999 365.103 247.945 365.267Z" fill="#263238"/>
    <path d="M248.016 353.192C247.971 352.686 247.971 352.178 248.016 351.672C248.11 350.288 248.276 348.911 248.511 347.544C249.285 343.035 250.603 338.636 252.436 334.444C254.201 330.193 256.726 326.299 259.887 322.952C260.441 322.379 261.032 321.841 261.655 321.344C261.92 321.123 262.159 320.902 262.398 320.725L263.078 320.265C263.481 319.958 263.91 319.686 264.36 319.452C262.874 320.601 261.463 321.844 260.135 323.173C257.086 326.54 254.629 330.399 252.869 334.585C251.858 336.883 251.001 339.245 250.305 341.657C249.633 343.867 249.183 345.891 248.838 347.606C248.493 349.321 248.325 350.717 248.21 351.69C248.18 352.194 248.115 352.696 248.016 353.192Z" fill="#263238"/>
    <path d="M231.106 229.74L268.612 228.14V190.643H231.106V229.74Z" fill="#FA1616"/>
    <path d="M216.238 179.912H253.744V217.418H216.238V179.912Z" fill="#FA1616"/>
    <path d="M231.106 228.14L216.238 217.418V179.912L231.106 190.643V228.14Z" fill="#FA1616"/>
    <path d="M268.612 190.643L253.744 179.912H216.238L231.106 190.643H268.612Z" fill="#FA1616"/>
    <path d="M231.106 229.74L216.238 217.418V179.912L231.106 190.643V229.74Z" fill="#FA1616"/>
    <path opacity="0.3" d="M268.612 190.643L253.744 179.912H216.238L231.106 190.643H268.612Z" fill="white"/>
    <path opacity="0.4" d="M231.106 229.74L216.238 217.418V179.912L231.106 190.643V229.74Z" fill="black"/>
    <path d="M210.996 218.85C210.772 219.563 210.694 220.315 210.766 221.06C210.952 221.431 210.819 221.166 210.855 221.245H210.908L210.996 221.307L211.173 221.44L211.509 221.678C211.73 221.829 211.924 221.961 212.101 222.058C212.446 222.271 212.676 222.377 212.711 222.324C212.746 222.271 212.587 222.076 212.295 221.802L211.765 221.342L211.447 221.077L211.27 220.945L211.182 220.874C211.182 220.962 211.084 220.697 211.27 221.06C211.328 220.312 211.235 219.56 210.996 218.85Z" fill="#FA1616"/>
    <path d="M210.996 209.374C210.69 210.938 210.69 212.547 210.996 214.112C211.303 212.547 211.303 210.938 210.996 209.374Z" fill="#FA1616"/>
    <path d="M210.996 199.898C210.69 201.463 210.69 203.072 210.996 204.636C211.303 203.072 211.303 201.463 210.996 199.898Z" fill="#FA1616"/>
    <path d="M210.996 190.431C210.69 191.996 210.69 193.605 210.996 195.169C211.303 193.605 211.303 191.996 210.996 190.431Z" fill="#FA1616"/>
    <path d="M210.996 180.946C210.69 182.511 210.69 184.12 210.996 185.684C211.303 184.12 211.303 182.511 210.996 180.946Z" fill="#FA1616"/>
    <path d="M213.206 173.999C212.493 173.77 211.741 173.691 210.996 173.769L210.766 173.999V174.432V174.847C210.766 175.112 210.766 175.351 210.819 175.554C210.819 175.952 210.916 176.2 210.978 176.2C211.04 176.2 211.102 175.952 211.137 175.554C211.137 175.351 211.137 175.112 211.19 174.847V173.963L210.961 174.193C211.714 174.282 212.478 174.216 213.206 173.999Z" fill="#FA1616"/>
    <path d="M221.683 173.998C220.285 173.692 218.838 173.692 217.44 173.998C218.838 174.305 220.285 174.305 221.683 173.998Z" fill="#FA1616"/>
    <path d="M230.16 173.999C228.765 173.692 227.321 173.692 225.926 173.999C227.321 174.305 228.765 174.305 230.16 173.999Z" fill="#FA1616"/>
    <path d="M238.637 173.999C237.242 173.692 235.798 173.692 234.403 173.999C235.798 174.305 237.242 174.305 238.637 173.999Z" fill="#FA1616"/>
    <path d="M247.132 173.999C245.737 173.692 244.292 173.692 242.898 173.999C244.292 174.305 245.737 174.305 247.132 173.999Z" fill="#FA1616"/>
    <path d="M255.414 174.52C255.414 174.458 255.273 174.219 254.937 173.883H254.857C254.495 173.883 254.027 173.83 253.505 173.83C252.792 173.753 252.072 173.832 251.392 174.06C252.073 174.284 252.792 174.362 253.505 174.29C254.027 174.29 254.495 174.29 254.857 174.237L254.743 174.193C255.087 174.405 255.37 174.52 255.414 174.52Z" fill="#FA1616"/>
    <path d="M261.938 179.903C262.017 179.806 261.354 179.117 260.453 178.374C259.551 177.632 258.756 177.101 258.685 177.198C258.614 177.296 259.268 177.976 260.17 178.728C261.072 179.479 261.858 180.001 261.938 179.903Z" fill="#FA1616"/>
    <path d="M268.461 185.313C268.541 185.216 267.878 184.535 266.976 183.784C266.075 183.033 265.279 182.511 265.209 182.608C265.138 182.705 265.792 183.395 266.694 184.137C267.595 184.88 268.347 185.419 268.461 185.313Z" fill="#FA1616"/>
    <path d="M273.447 191.642C273.665 190.927 273.737 190.176 273.659 189.432L273.571 189.255H273.526L273.438 189.185L273.27 189.052L272.943 188.796L272.368 188.38C272.033 188.159 271.812 188.044 271.767 188.097C271.723 188.15 271.882 188.345 272.165 188.637C272.307 188.778 272.475 188.946 272.669 189.123L272.978 189.397L273.146 189.538L273.235 189.609H273.279C273.279 189.538 273.358 189.786 273.191 189.441C273.129 190.184 273.216 190.933 273.447 191.642Z" fill="#FA1616"/>
    <path d="M273.535 200.411C273.753 199.702 273.822 198.955 273.739 198.218C273.805 197.478 273.721 196.733 273.491 196.026C273.188 197.486 273.203 198.993 273.535 200.446V200.411Z" fill="#FA1616"/>
    <path d="M273.65 209.18C273.874 208.472 273.946 207.725 273.862 206.987C273.929 206.248 273.845 205.502 273.615 204.795C273.392 205.503 273.319 206.25 273.403 206.987C273.336 207.727 273.42 208.473 273.65 209.18Z" fill="#FA1616"/>
    <path d="M273.703 217.948C273.921 217.24 273.993 216.494 273.915 215.756C273.982 215.016 273.895 214.269 273.659 213.564C273.441 214.273 273.372 215.019 273.456 215.756C273.389 216.496 273.473 217.242 273.703 217.948Z" fill="#FA1616"/>
    <path d="M273.792 226.717C274.009 226.008 274.078 225.262 273.995 224.525C274.062 223.785 273.977 223.039 273.747 222.333C273.53 223.042 273.457 223.787 273.535 224.525C273.469 225.265 273.556 226.012 273.792 226.717Z" fill="#FA1616"/>
    <path d="M271.644 233.347C272.363 233.559 273.117 233.625 273.862 233.541C274.313 233.073 273.986 233.409 274.083 233.303V232.861V232.445C274.083 232.18 274.083 231.941 274.03 231.747C273.986 231.349 273.924 231.102 273.862 231.102C273.8 231.102 273.739 231.349 273.703 231.747C273.703 231.95 273.703 232.189 273.659 232.454C273.615 232.719 273.659 232.737 273.659 232.87V233.285L273.889 233.055C273.128 232.998 272.364 233.097 271.644 233.347Z" fill="#FA1616"/>
    <path d="M263.273 233.479C263.947 233.701 264.663 233.771 265.368 233.683C266.074 233.74 266.784 233.649 267.454 233.417C266.779 233.195 266.063 233.129 265.359 233.223C264.653 233.161 263.942 233.249 263.273 233.479Z" fill="#FA1616"/>
    <path d="M254.902 233.621C255.579 233.832 256.292 233.899 256.997 233.815C257.703 233.882 258.415 233.791 259.083 233.55C258.406 233.339 257.692 233.272 256.988 233.356C256.281 233.293 255.57 233.383 254.902 233.621Z" fill="#FA1616"/>
    <path d="M246.522 233.745C247.907 234.028 249.337 234.003 250.712 233.674C249.327 233.391 247.897 233.415 246.522 233.745Z" fill="#FA1616"/>
    <path d="M238.151 233.895C239.536 234.178 240.966 234.153 242.341 233.824C241.661 233.614 240.944 233.547 240.237 233.629C239.531 233.569 238.82 233.659 238.151 233.895Z" fill="#FA1616"/>
    <path d="M229.78 234.036C230.457 234.248 231.171 234.314 231.875 234.231C232.581 234.293 233.293 234.203 233.961 233.966C233.284 233.754 232.57 233.688 231.866 233.771C231.16 233.703 230.447 233.794 229.78 234.036Z" fill="#FA1616"/>
    <path d="M222.77 229.979C222.699 230.076 223.38 230.721 224.308 231.42C224.816 231.9 225.418 232.27 226.076 232.507C226.156 232.401 225.466 231.756 224.547 231.057C223.628 230.359 222.85 229.873 222.77 229.979Z" fill="#FA1616"/>
    <path d="M216.096 224.905C216.017 225.002 216.706 225.656 217.625 226.355C218.135 226.831 218.737 227.198 219.393 227.433C219.464 227.327 218.783 226.682 217.864 225.984C216.945 225.285 216.194 224.817 216.096 224.905Z" fill="#FA1616"/>
    <path d="M221.179 170.984C221.055 170.984 221.055 171.524 221.179 172.116C221.303 172.708 221.524 173.168 221.648 173.141C221.771 173.115 221.763 172.611 221.648 172.019C221.533 171.426 221.303 170.914 221.179 170.984Z" fill="#FA1616"/>
    <path d="M219.146 161.959C219.088 162.736 219.184 163.517 219.429 164.257C219.529 165.028 219.778 165.773 220.163 166.449C220.128 164.899 219.782 163.372 219.146 161.959Z" fill="#FA1616"/>
    <path d="M217.078 152.969C217.115 154.518 217.457 156.044 218.085 157.46C218.048 155.911 217.706 154.385 217.078 152.969Z" fill="#FA1616"/>
    <path d="M215.089 143.979C215.124 145.532 215.47 147.062 216.105 148.479C216.163 147.701 216.067 146.92 215.822 146.18C215.723 145.406 215.474 144.659 215.089 143.979Z" fill="#FA1616"/>
    <path d="M213.064 134.99C213.006 135.767 213.102 136.548 213.347 137.288C213.442 138.064 213.691 138.812 214.081 139.489C214.045 137.937 213.7 136.407 213.064 134.99Z" fill="#FA1616"/>
    <path d="M211.031 126.009C210.979 126.786 211.075 127.566 211.314 128.307C211.415 129.078 211.664 129.823 212.048 130.499C212.106 129.722 212.01 128.941 211.765 128.201C211.669 127.429 211.42 126.683 211.031 126.009Z" fill="#FA1616"/>
    <path d="M209.537 119.362C209.414 119.362 209.423 119.892 209.537 120.484C209.652 121.076 209.882 121.545 210.006 121.51C210.13 121.474 210.121 120.979 210.006 120.387C209.891 119.795 209.661 119.326 209.537 119.362Z" fill="#FA1616"/>
    <path d="M255.812 172.019C255.697 171.966 255.388 172.363 255.114 172.902C254.84 173.442 254.707 173.937 254.822 173.999C254.937 174.06 255.246 173.654 255.52 173.115C255.795 172.575 255.927 172.08 255.812 172.019Z" fill="#FA1616"/>
    <path d="M259.693 164.328C259.578 164.266 259.047 165.088 258.517 166.149C258.126 166.765 257.865 167.453 257.748 168.173C257.863 168.235 258.393 167.413 258.924 166.352C259.314 165.737 259.576 165.048 259.693 164.328Z" fill="#FA1616"/>
    <path d="M263.564 156.629C263.053 157.149 262.652 157.769 262.389 158.45C261.998 159.068 261.739 159.76 261.629 160.483C262.14 159.962 262.54 159.342 262.804 158.662C263.197 158.045 263.456 157.352 263.564 156.629Z" fill="#FA1616"/>
    <path d="M267.463 148.938C267.348 148.877 266.826 149.699 266.287 150.759C265.897 151.375 265.639 152.064 265.527 152.784C265.642 152.846 266.163 152.023 266.702 150.963C267.092 150.347 267.351 149.658 267.463 148.938Z" fill="#FA1616"/>
    <path d="M271.317 141.239C270.802 141.757 270.401 142.378 270.141 143.06C269.747 143.678 269.485 144.37 269.372 145.093C269.887 144.575 270.288 143.955 270.548 143.272C270.939 142.654 271.201 141.962 271.317 141.239Z" fill="#FA1616"/>
    <path d="M275.188 133.549C275.074 133.487 274.552 134.309 274.013 135.37C273.623 135.985 273.364 136.674 273.253 137.394C273.764 136.873 274.165 136.254 274.428 135.573C274.818 134.958 275.077 134.269 275.188 133.549Z" fill="#FA1616"/>
    <path d="M279.06 125.85C278.548 126.37 278.148 126.99 277.884 127.671C277.495 128.286 277.236 128.975 277.124 129.695C277.239 129.757 277.761 128.944 278.3 127.927C278.696 127.296 278.955 126.588 279.06 125.85Z" fill="#FA1616"/>
    <path d="M282.94 118.16C282.826 118.098 282.295 118.911 281.765 119.98C281.372 120.595 281.11 121.284 280.996 122.005C281.511 121.487 281.911 120.866 282.171 120.184C282.562 119.568 282.824 118.879 282.94 118.16Z" fill="#FA1616"/>
    <path d="M285.866 112.334C285.751 112.281 285.442 112.67 285.168 113.218C284.894 113.766 284.761 114.252 284.876 114.305C284.991 114.358 285.301 113.969 285.575 113.421C285.849 112.873 285.981 112.396 285.866 112.334Z" fill="#FA1616"/>
    <path d="M325.034 185.393C325.034 185.517 325.547 185.587 326.157 185.534C326.767 185.481 327.253 185.349 327.244 185.225C327.235 185.101 326.731 185.03 326.121 185.075C325.511 185.119 325.025 185.269 325.034 185.393Z" fill="#FA1616"/>
    <path d="M316.08 186.1C316.823 186.266 317.592 186.284 318.343 186.153C319.105 186.167 319.862 186.028 320.57 185.746C319.827 185.579 319.058 185.561 318.307 185.693C317.545 185.675 316.787 185.814 316.08 186.1Z" fill="#FA1616"/>
    <path d="M307.072 186.798C308.578 186.988 310.106 186.868 311.563 186.445C310.057 186.255 308.529 186.375 307.072 186.798Z" fill="#FA1616"/>
    <path d="M298.091 187.505C299.597 187.695 301.125 187.574 302.582 187.152C301.838 186.985 301.069 186.967 300.319 187.099C299.556 187.078 298.798 187.216 298.091 187.505Z" fill="#FA1616"/>
    <path d="M289.102 188.204C289.844 188.375 290.614 188.393 291.364 188.257C292.126 188.272 292.883 188.137 293.592 187.859C292.851 187.678 292.081 187.65 291.329 187.779C290.566 187.775 289.81 187.919 289.102 188.204Z" fill="#FA1616"/>
    <path d="M280.121 188.911C280.864 189.077 281.633 189.095 282.384 188.964C283.146 188.981 283.904 188.843 284.611 188.557C283.106 188.367 281.578 188.488 280.121 188.911Z" fill="#FA1616"/>
    <path d="M273.429 189.432C273.429 189.565 273.933 189.627 274.543 189.583C275.153 189.538 275.639 189.388 275.63 189.264C275.621 189.141 275.118 189.07 274.508 189.123C273.898 189.176 273.412 189.309 273.429 189.432Z" fill="#FA1616"/>
    <path d="M266.247 88.1825C261.401 67.2409 274.449 46.3357 295.391 41.4894C316.332 36.6431 337.237 49.6909 342.084 70.6324C346.93 91.574 333.882 112.479 312.941 117.326C291.999 122.172 271.094 109.124 266.247 88.1825Z" fill="white"/>
    <path d="M265.244 79.416C265.244 79.416 265.244 79.2038 265.297 78.7796C265.35 78.3553 265.368 77.7365 265.421 76.9321C265.421 76.5255 265.447 76.0747 265.5 75.5797C265.544 75.0758 265.651 74.5366 265.739 73.9532C265.827 73.3698 265.933 72.7334 266.039 72.0527C266.172 71.3369 266.343 70.6287 266.552 69.9312C267.455 66.2912 268.906 62.8098 270.857 59.6067C273.406 55.3401 276.756 51.6063 280.722 48.6104L282.401 47.3552C282.994 46.9751 283.612 46.6215 284.222 46.2414C284.832 45.8613 285.442 45.4547 286.114 45.1453L288.12 44.1819L289.137 43.6957L290.215 43.3067L292.39 42.5112C293.132 42.2637 293.91 42.1134 294.671 41.9013C295.442 41.6746 296.228 41.4975 297.022 41.3709C298.636 41.0695 300.27 40.8805 301.91 40.8052C302.75 40.8052 303.59 40.6903 304.438 40.7079L307.002 40.8405C307.426 40.8405 307.886 40.8405 308.292 40.9201L309.583 41.1234C310.467 41.2648 311.351 41.3621 312.19 41.5477C313.943 41.9345 315.668 42.4395 317.353 43.0592C319.083 43.6845 320.769 44.4257 322.4 45.2779C323.213 45.7199 324 46.2326 324.813 46.7188C325.202 46.9663 325.626 47.1873 326.006 47.4701L327.147 48.3541C328.701 49.4981 330.178 50.7442 331.566 52.0843L333.538 54.25L334.033 54.7981L334.475 55.3815L335.359 56.5659L336.243 57.7593L337.02 59.0322L337.798 60.3139L338.187 60.9592L338.523 61.631L339.831 64.3624L340.83 67.1998C343.488 75.1241 343.488 83.699 340.83 91.6233C340.477 92.578 340.123 93.5326 339.778 94.4873C339.434 95.442 338.894 96.3082 338.461 97.2187L338.134 97.8905L337.745 98.5358L336.959 99.8175L336.181 101.09L335.297 102.284L334.413 103.468L333.971 104.06L333.476 104.6L331.513 106.765C330.124 108.108 328.648 109.357 327.094 110.504L325.953 111.388C325.573 111.68 325.149 111.892 324.76 112.149C323.947 112.626 323.16 113.139 322.347 113.589C320.716 114.442 319.03 115.183 317.3 115.808C315.612 116.42 313.888 116.925 312.137 117.32C311.253 117.496 310.369 117.603 309.53 117.744L308.239 117.938C307.806 118 307.355 117.991 306.949 118.027L304.385 118.159C303.501 118.159 302.697 118.089 301.857 118.062C300.213 117.984 298.577 117.792 296.96 117.488C296.169 117.36 295.386 117.183 294.617 116.957C293.848 116.754 293.079 116.595 292.337 116.347L290.154 115.552L289.084 115.163L288.059 114.677L286.052 113.713C285.403 113.381 284.772 113.015 284.16 112.617C283.542 112.246 282.923 111.892 282.339 111.503L280.66 110.257C276.701 107.256 273.355 103.523 270.804 99.2606C268.879 96.0379 267.455 92.5419 266.579 88.8919C266.37 88.1944 266.199 87.4862 266.066 86.7704C265.96 86.0986 265.863 85.4622 265.765 84.8788C265.668 84.2954 265.571 83.7473 265.527 83.2523C265.483 82.7573 265.465 82.2977 265.447 81.8911C265.394 81.0867 265.35 80.4767 265.323 80.0436C265.297 79.6105 265.27 79.416 265.27 79.416C265.27 79.416 265.27 79.6281 265.27 80.0436C265.27 80.459 265.315 81.0955 265.341 81.8999C265.341 82.3065 265.341 82.7838 265.403 83.2612C265.465 83.7385 265.544 84.3042 265.624 84.8965C265.704 85.4887 265.801 86.1251 265.907 86.7969C266.029 87.5184 266.192 88.2326 266.393 88.9361C267.264 92.6155 268.695 96.1393 270.636 99.3844C273.179 103.699 276.535 107.478 280.519 110.513L282.198 111.777C282.79 112.166 283.418 112.529 284.037 112.909C284.655 113.289 285.265 113.713 285.937 114.023L287.961 115.004L288.996 115.499L290.083 115.896L292.275 116.701C293.026 116.948 293.804 117.116 294.582 117.328C295.358 117.554 296.146 117.734 296.942 117.868C298.578 118.171 300.231 118.366 301.892 118.451C302.776 118.451 303.581 118.566 304.438 118.557L307.028 118.425C307.461 118.425 307.912 118.425 308.336 118.345L309.645 118.151C310.529 118.009 311.412 117.903 312.296 117.726C315.885 116.924 319.355 115.661 322.621 113.969C323.452 113.519 324.239 112.997 325.061 112.511C325.458 112.255 325.892 112.042 326.272 111.751L327.43 110.867C328.983 109.706 330.46 108.445 331.849 107.092L333.847 104.9L334.342 104.352L334.793 103.76L335.677 102.558L336.561 101.356L337.347 100.065L338.178 98.7568L338.576 98.1115L338.912 97.422C339.354 96.5145 339.796 95.5952 340.238 94.6641C340.592 93.7006 340.945 92.7371 341.308 91.7647C344.001 83.7494 344.001 75.0737 341.308 67.0584L340.247 64.1591C339.805 63.2309 339.363 62.3116 338.912 61.3923L338.585 60.7117L338.187 60.0664L337.401 58.767L336.605 57.4764L335.721 56.2743L334.837 55.0721L334.386 54.4798L333.882 53.9318L331.894 51.7396C330.506 50.3871 329.029 49.1291 327.474 47.974L326.325 47.09C325.945 46.8072 325.511 46.5862 325.114 46.3298C324.292 45.8437 323.505 45.3221 322.674 44.8802C319.408 43.1888 315.938 41.9261 312.349 41.1234C311.466 40.9378 310.582 40.8405 309.698 40.6991L308.389 40.5046C307.956 40.4427 307.505 40.4516 307.081 40.4162L304.491 40.2925C303.607 40.2925 302.785 40.3632 301.945 40.3897C300.287 40.4727 298.636 40.6706 297.004 40.982C296.204 41.1105 295.412 41.2906 294.635 41.5212C293.857 41.7333 293.079 41.8924 292.337 42.1399L290.136 42.9532L289.049 43.3509L288.023 43.8459L285.99 44.8271C285.318 45.1365 284.717 45.5696 284.09 45.9321C283.462 46.2945 282.852 46.6746 282.26 47.0635L280.572 48.3276C276.59 51.3645 273.234 55.1437 270.689 59.4565C268.747 62.6902 267.31 66.2017 266.428 69.8694C266.228 70.5731 266.066 71.2872 265.942 72.0085C265.836 72.6892 265.748 73.3256 265.659 73.909C265.571 74.4924 265.483 75.0493 265.438 75.5443C265.394 76.0393 265.394 76.5078 265.376 76.9144C265.376 77.7188 265.323 78.3376 265.306 78.7619C265.288 79.1862 265.244 79.416 265.244 79.416Z" fill="#FA1616"/>
    <path d="M302.326 65.1403C302.326 65.1403 302.211 65.0961 301.972 65.0608C301.623 65.0183 301.269 65.0183 300.92 65.0608C299.59 65.1613 298.338 65.7278 297.384 66.6607C296.823 67.2076 296.377 67.8612 296.073 68.5831C295.768 69.3049 295.612 70.0805 295.612 70.8639C295.612 71.6474 295.768 72.4229 296.073 73.1447C296.377 73.8666 296.823 74.5202 297.384 75.0671C298.288 75.9487 299.452 76.5159 300.703 76.6847C301.955 76.8535 303.227 76.6148 304.332 76.0041C305.019 75.6293 305.625 75.1206 306.112 74.5081C306.6 73.8955 306.96 73.1915 307.171 72.4376C307.381 71.6837 307.439 70.8951 307.34 70.1185C307.241 69.3419 306.988 68.593 306.595 67.9159C305.936 66.7736 304.897 65.898 303.66 65.4409C303.33 65.3133 302.986 65.2243 302.635 65.1757C302.512 65.1546 302.386 65.1546 302.264 65.1757C302.264 65.1757 302.767 65.2729 303.59 65.6177C304.745 66.1203 305.702 66.9903 306.312 68.0927C306.755 68.9066 306.986 69.8182 306.986 70.7446C306.986 71.6709 306.755 72.5826 306.312 73.3964C305.804 74.3565 305.023 75.1441 304.067 75.6593C303.042 76.2091 301.87 76.4225 300.717 76.2692C299.604 76.1132 298.566 75.6219 297.74 74.8606C296.914 74.0994 296.34 73.1046 296.094 72.0086C295.897 71.109 295.926 70.1746 296.179 69.2891C296.432 68.4036 296.901 67.5947 297.543 66.9348C298.426 66.0343 299.583 65.4528 300.832 65.2818C301.822 65.0961 302.326 65.1845 302.326 65.1403Z" fill="#263238"/>
    <path d="M300.169 57.839L300.248 57.6534L300.478 57.0965L301.362 54.8513H301.282L306.586 55.6115L306.489 55.5054C306.568 56.4777 306.657 57.5561 306.745 58.7053V58.7848H306.825C307.884 59.2384 308.877 59.8331 309.777 60.5527L309.848 60.6058H309.927L312.862 59.2887L312.659 59.2356L315.868 63.4698V63.2488L313.799 65.7061L313.728 65.7945V65.9006C314.167 66.9559 314.464 68.0646 314.612 69.1977V69.3303H314.727L317.733 70.4618L317.6 70.2408C317.37 71.8938 317.132 73.6793 316.875 75.5445L317.07 75.3677L313.87 75.6417H313.737V75.7655C313.278 76.8191 312.684 77.8086 311.969 78.709L311.89 78.8151L311.943 78.9388L313.278 81.8559L313.339 81.5907L309.114 84.7994H309.397L306.931 82.7398L306.825 82.6514L306.701 82.7044C305.648 83.1417 304.543 83.4389 303.413 83.5884L303.218 83.7387V83.7829V83.8801L303.148 84.0657L303.006 84.4458L302.732 85.1972C302.538 85.701 302.352 86.2049 302.166 86.6999L302.414 86.5496L297.11 85.8425L297.305 86.0458C297.216 84.9674 297.119 83.8978 297.022 82.8459V82.7133L296.898 82.6602C295.844 82.224 294.854 81.6471 293.954 80.9454L293.848 80.8658L293.725 80.9189L290.799 82.2536L291.064 82.3243C289.968 80.8747 288.892 79.4662 287.838 78.0991V78.3643C288.536 77.4803 289.217 76.7024 289.897 75.898L289.977 75.8008L289.924 75.6859C289.486 74.6301 289.189 73.5217 289.04 72.3888V72.265L288.934 72.2208L285.919 71.107L286.043 71.3104C286.291 69.4629 286.52 67.7127 286.741 66.0067L286.582 66.157L289.782 65.8652H289.879V65.7769C290.318 64.7183 290.894 63.7225 291.594 62.8156L291.647 62.7361V62.6565L290.304 59.7395L290.26 59.9074L294.467 56.6545H294.343L296.818 58.6964H296.863C297.664 58.3597 298.496 58.0992 299.347 57.9186L299.974 57.7948L300.169 57.839C300.096 57.8257 300.021 57.8257 299.948 57.839C299.734 57.856 299.521 57.8855 299.311 57.9274C298.448 58.0728 297.603 58.313 296.792 58.6434H296.863L294.423 56.5573L294.361 56.5042L294.29 56.5573L290.047 59.7483L289.959 59.8102L290.003 59.9163L291.329 62.851V62.7007C290.609 63.6224 290.014 64.6361 289.561 65.715L289.694 65.6177L286.494 65.8918H286.361V66.0332L285.637 71.2927V71.4518L285.778 71.5048L288.783 72.6363L288.651 72.4683C288.794 73.6368 289.091 74.7811 289.535 75.8715V75.6682C288.854 76.4726 288.165 77.2858 287.466 78.1256L287.36 78.2493L287.457 78.3908L290.675 82.6249L290.781 82.7575L290.94 82.6868L293.866 81.3608H293.636C294.566 82.0833 295.589 82.6779 296.677 83.1287L296.536 82.9431C296.633 83.995 296.721 85.0646 296.818 86.1342V86.3198H296.995L302.299 87.0358H302.485L302.546 86.859L303.103 85.3563L303.386 84.6049L303.528 84.2248L303.598 84.0392V83.942V83.8978L303.413 84.048C304.584 83.9033 305.731 83.6061 306.825 83.1641H306.586L309.052 85.2237L309.194 85.3386L309.335 85.2325L313.56 82.0061L313.702 81.9001L313.631 81.7321L312.296 78.8151V79.0449C313.02 78.1126 313.615 77.0868 314.064 75.9953L313.887 76.1279L317.079 75.845H317.255V75.6771C317.503 73.8473 317.742 72.0617 317.962 70.3734V70.2143L317.803 70.1524L314.798 69.0386L314.922 69.1977C314.777 68.0295 314.48 66.8853 314.038 65.7945V65.989C314.763 65.1051 315.461 64.2918 316.097 63.5228L316.186 63.4167L316.106 63.3018L312.871 59.0765L312.791 58.9793L312.668 59.0323L309.751 60.3759H309.91C308.984 59.652 307.964 59.0572 306.878 58.608L306.957 58.723C306.851 57.565 306.745 56.4954 306.657 55.5231V55.4258H306.568L301.265 54.754H301.203V54.8071C300.867 55.7706 300.602 56.5219 300.407 57.0523C300.328 57.291 300.257 57.4854 300.213 57.6357C300.189 57.7012 300.174 57.7696 300.169 57.839Z" fill="#263238"/>
    <path fill-rule="evenodd" clip-rule="evenodd" d="M309.494 89.0953C308.86 89.1746 308.238 89.3381 307.647 89.5815L306.286 88.45L303.952 90.2179L304.686 91.8267C304.292 92.3321 303.968 92.8881 303.722 93.4797L301.954 93.6388L301.565 96.547L303.218 97.1657C303.302 97.8006 303.468 98.4217 303.713 99.0132L302.573 100.374L304.341 102.708L305.95 101.974C306.459 102.36 307.014 102.681 307.603 102.929L307.762 104.697L310.67 105.095L311.289 103.433C311.923 103.354 312.545 103.19 313.136 102.947L314.497 104.087L316.831 102.319L316.097 100.702C316.493 100.197 316.817 99.6411 317.061 99.0485L318.829 98.8983L319.227 95.9901L317.565 95.3713C317.484 94.734 317.321 94.1099 317.079 93.515L318.219 92.1626L316.451 89.829L314.833 90.5627C314.329 90.1672 313.773 89.8429 313.18 89.5991L313.03 87.8312L310.122 87.4335L309.503 89.0953H309.494ZM310.688 93.1349C311.306 93.219 311.886 93.4851 312.353 93.8994C312.82 94.3137 313.153 94.8576 313.31 95.4617C313.467 96.0659 313.44 96.7031 313.234 97.2923C313.028 97.8815 312.651 98.3961 312.152 98.7706C311.653 99.1452 311.053 99.3627 310.43 99.3956C309.806 99.4285 309.187 99.2753 308.651 98.9554C308.115 98.6355 307.687 98.1635 307.42 97.5992C307.152 97.035 307.059 96.4041 307.152 95.7868C307.274 94.9688 307.714 94.2319 308.376 93.7357C309.038 93.2394 309.868 93.0236 310.688 93.1349Z" fill="#FA1616"/>
    <path d="M170.26 110.793C155.061 95.5942 155.061 70.9513 170.26 55.752C185.46 40.5527 210.103 40.5527 225.302 55.752C240.501 70.9513 240.501 95.5942 225.302 110.793C210.103 125.993 185.46 125.993 170.26 110.793Z" fill="white"/>
    <path d="M158.861 83.2701C158.861 83.2701 158.861 83.058 158.914 82.6425C158.967 82.2271 158.985 81.5906 159.029 80.7951C159.029 80.3885 159.082 79.9111 159.108 79.4338C159.135 78.9565 159.267 78.3908 159.356 77.8073C159.444 77.2239 159.55 76.5875 159.656 75.9069C159.762 75.2262 159.992 74.5367 160.16 73.7854C161.07 70.1464 162.525 66.6657 164.474 63.4609C167.023 59.1969 170.369 55.4636 174.33 52.4646L176.009 51.2094C176.593 50.8293 177.212 50.4757 177.83 50.0956C178.449 49.7155 179.05 49.3089 179.713 48.9995L181.72 48.036L182.745 47.5498L183.815 47.1609L185.998 46.3653C186.741 46.1267 187.51 45.9676 188.279 45.7554C189.049 45.5339 189.831 45.3568 190.621 45.2251C192.238 44.9231 193.875 44.7341 195.518 44.6593C196.358 44.6593 197.198 44.5533 198.046 44.5621L200.61 44.6947C201.034 44.6947 201.494 44.6947 201.9 44.7742L203.191 44.9775C204.075 45.119 204.959 45.225 205.798 45.4018C209.347 46.2032 212.778 47.4569 216.008 49.1321C216.821 49.5741 217.608 50.0956 218.412 50.5729C218.81 50.8293 219.234 51.0414 219.615 51.3243L220.746 52.2082C222.3 53.3524 223.777 54.5986 225.166 55.9385L227.137 58.1042L227.632 58.6522L228.074 59.2356L228.958 60.4201L229.842 61.6134L230.62 62.8863L231.398 64.168L231.786 64.8133L232.114 65.4851L233.431 68.2165L234.474 71.0982C237.138 79.0214 237.138 87.5984 234.474 95.5217L233.422 98.3856L232.114 101.117L231.778 101.789L231.389 102.434L230.611 103.716L229.833 104.989L228.949 106.182L228.065 107.367L227.623 107.959L227.128 108.498L225.157 110.673C223.768 112.013 222.292 113.259 220.737 114.403L219.597 115.287C219.217 115.578 218.792 115.791 218.395 116.047C217.59 116.524 216.804 117.046 215.99 117.488C214.357 118.342 212.668 119.083 210.934 119.706C209.248 120.32 207.523 120.825 205.772 121.218C204.888 121.395 204.004 121.501 203.173 121.642L201.883 121.837C201.449 121.899 200.999 121.89 200.583 121.925L198.02 122.058C197.136 122.058 196.331 121.987 195.5 121.961C193.857 121.881 192.221 121.692 190.603 121.395C189.814 121.26 189.032 121.083 188.261 120.864C187.492 120.652 186.714 120.493 185.98 120.246L183.797 119.459L182.719 119.061L181.702 118.575L179.687 117.611C179.015 117.311 178.423 116.878 177.795 116.524C177.167 116.171 176.566 115.791 175.974 115.402L174.303 114.155C170.34 111.159 166.994 107.425 164.447 103.159C162.499 99.9504 161.045 96.4669 160.134 92.8256C159.966 92.0743 159.709 91.3848 159.63 90.7041C159.55 90.0235 159.427 89.3959 159.329 88.8125C159.232 88.2291 159.135 87.681 159.082 87.186C159.029 86.691 159.029 86.2314 159.002 85.8248C158.958 85.0204 158.914 84.4104 158.887 83.9773C158.861 83.5442 158.834 83.3497 158.834 83.3497C158.834 83.3497 158.834 83.5619 158.834 83.9773C158.834 84.3928 158.834 85.0292 158.905 85.8336C158.905 86.2402 158.905 86.7175 158.958 87.1949C159.011 87.6722 159.108 88.2379 159.188 88.8302C159.267 89.4224 159.365 90.0589 159.462 90.7395C159.559 91.4201 159.789 92.1185 159.957 92.8698C160.83 96.5429 162.268 100.058 164.218 103.292C166.759 107.601 170.113 111.378 174.091 114.412L175.78 115.676C176.372 116.073 176.999 116.427 177.609 116.816C178.219 117.205 178.838 117.612 179.519 117.921L181.578 118.831L182.612 119.326L183.691 119.724L185.892 120.529C186.634 120.776 187.421 120.944 188.19 121.156C188.969 121.381 189.76 121.561 190.559 121.695C192.19 122.007 193.842 122.202 195.5 122.279C196.384 122.279 197.198 122.394 198.055 122.385L200.645 122.252C201.078 122.252 201.529 122.252 201.953 122.173L203.253 121.978C204.137 121.837 205.021 121.731 205.905 121.554C207.677 121.161 209.422 120.653 211.129 120.034C212.88 119.404 214.587 118.657 216.238 117.797C217.06 117.346 217.855 116.825 218.678 116.339C219.075 116.091 219.5 115.87 219.889 115.578L221.038 114.694C222.591 113.534 224.068 112.273 225.457 110.92L227.446 108.728L227.95 108.18L228.401 107.588L229.285 106.385L230.169 105.183L230.964 103.893L231.751 102.602L232.149 101.948L232.476 101.267C232.918 100.383 233.36 99.4287 233.811 98.5006L234.871 95.6012C237.57 87.5869 237.57 78.9092 234.871 70.8949L233.811 67.9955L232.476 65.2376L232.14 64.5481L231.751 63.9029L230.956 62.6035L230.169 61.3129L229.285 60.1107L228.401 58.9174L227.95 58.3163L227.446 57.7683C226.783 57.0346 226.112 56.3098 225.457 55.5761C224.068 54.2261 222.591 52.9682 221.038 51.8105L219.889 50.9265C219.5 50.6348 219.075 50.4138 218.678 50.1575C217.855 49.6713 217.06 49.1586 216.238 48.7078C214.589 47.8443 212.882 47.097 211.129 46.4714C209.422 45.8516 207.677 45.3437 205.905 44.951C205.021 44.7742 204.137 44.6682 203.253 44.5267L201.953 44.3323C201.52 44.2704 201.069 44.2792 200.645 44.2439L198.055 44.1201C197.171 44.1201 196.349 44.1908 195.509 44.2262C193.847 44.3024 192.193 44.4974 190.559 44.8096C189.762 44.9391 188.974 45.1192 188.199 45.3488C187.421 45.561 186.643 45.7201 185.892 45.9764L183.7 46.7808L182.604 47.2316L181.569 47.7266L179.545 48.7078C178.873 49.0172 178.272 49.4503 177.645 49.8127C177.017 50.1752 176.398 50.5552 175.806 50.9442L174.127 52.2082C170.145 55.2451 166.789 59.0243 164.244 63.3371C162.298 66.5677 160.863 70.0803 159.992 73.75C159.824 74.5102 159.577 75.2085 159.497 75.8892C159.418 76.5698 159.312 77.2063 159.223 77.7985C159.135 78.3908 159.038 78.93 158.993 79.425C158.949 79.92 158.993 80.3885 158.94 80.7951C158.94 81.5995 158.887 82.2183 158.87 82.6514C158.852 83.0845 158.861 83.2701 158.861 83.2701Z" fill="#FA1616"/>
    <path d="M181.064 91.5624C176.605 81.7056 180.981 70.1006 190.838 65.6419C200.695 61.1831 212.3 65.559 216.758 75.4158C221.217 85.2725 216.841 96.8775 206.984 101.336C197.128 105.795 185.523 101.419 181.064 91.5624Z" fill="#F5F5F5"/>
    <path d="M218.465 82.1916C218.458 82.2976 218.458 82.4039 218.465 82.5098C218.465 82.7397 218.465 83.0491 218.465 83.438V84.1275C218.465 84.375 218.465 84.649 218.395 84.9495C218.346 85.6328 218.252 86.312 218.112 86.9826C217.764 88.8316 217.144 90.6189 216.273 92.2863C214.203 96.2991 210.802 99.4666 206.652 101.246C202.502 103.025 197.863 103.304 193.529 102.036C192.646 101.779 191.781 101.463 190.939 101.09C190.085 100.694 189.261 100.236 188.473 99.7203C187.663 99.2012 186.89 98.6283 186.157 98.0054C185.432 97.3423 184.75 96.6337 184.115 95.884C182.811 94.3488 181.76 92.615 181.004 90.7482C180.242 88.8189 179.772 86.7873 179.607 84.7197C179.495 82.6387 179.698 80.5527 180.208 78.5321C180.707 76.5786 181.519 74.7188 182.612 73.0251C183.151 72.199 183.742 71.4077 184.38 70.6561C185.023 69.9408 185.714 69.2704 186.449 68.6495C187.165 68.0364 187.924 67.4751 188.721 66.97C192.959 64.3382 198.046 63.4356 202.931 64.4491C207.815 65.4626 212.124 68.3145 214.965 72.4152C216.05 73.9528 216.896 75.6455 217.475 77.436C217.705 78.0819 217.889 78.7437 218.023 79.416C218.085 79.7077 218.156 79.9729 218.2 80.2204C218.244 80.4679 218.271 80.6977 218.297 80.9011C218.35 81.29 218.395 81.5905 218.421 81.785C218.432 81.8927 218.453 81.9992 218.483 82.1032C218.497 81.9976 218.497 81.8906 218.483 81.785C218.483 81.5463 218.43 81.2458 218.395 80.8569C218.395 80.6447 218.35 80.4149 218.324 80.1674C218.297 79.9199 218.227 79.6458 218.165 79.3541C218.043 78.6708 217.871 77.9973 217.652 77.3387C217.095 75.5198 216.264 73.7968 215.186 72.2295C213.633 69.9389 211.614 68.0025 209.26 66.5474C206.906 65.0923 204.272 64.1515 201.529 63.7867C198.786 63.4219 195.996 63.6414 193.344 64.4307C190.692 65.2201 188.237 66.5614 186.139 68.3667C185.385 68.9998 184.676 69.6851 184.018 70.4174C183.377 71.1827 182.786 71.9888 182.25 72.8306C181.128 74.5648 180.296 76.4694 179.784 78.4702C179.262 80.528 179.053 82.6527 179.165 84.7727C179.334 86.8948 179.816 88.98 180.597 90.9604C181.371 92.8873 182.448 94.6779 183.788 96.2641C184.439 97.0308 185.138 97.7542 185.883 98.4297C186.633 99.0705 187.424 99.6611 188.252 100.198C189.061 100.721 189.906 101.188 190.78 101.594C194.892 103.374 199.479 103.735 203.818 102.62C206.529 101.912 209.058 100.636 211.238 98.8759C213.417 97.1155 215.197 94.9114 216.459 92.4101C217.318 90.7126 217.914 88.8945 218.227 87.018C218.354 86.3377 218.433 85.6496 218.465 84.9584C218.465 84.6578 218.518 84.3838 218.518 84.1275C218.518 83.8711 218.518 83.6501 218.518 83.438C218.518 83.0491 218.518 82.7397 218.474 82.5098C218.483 82.4038 218.48 82.2971 218.465 82.1916Z" fill="#263238"/>
    <path d="M190.029 84.0745C190.261 84.0987 190.495 84.0987 190.727 84.0745L192.628 84.1187C194.245 84.1187 196.49 84.1187 199.036 84.1187H199.16V82.722C199.16 79.8846 199.16 77.3211 199.16 75.4648C199.16 74.5809 199.16 73.8207 199.116 73.2638C199.125 72.9919 199.11 72.7198 199.072 72.4506C199.032 72.7198 199.014 72.9917 199.018 73.2638C199.018 73.8207 199.018 74.5632 199.018 75.4648C199.018 77.3211 198.974 79.8846 198.974 82.722V83.9949L199.107 83.8712C196.561 83.8712 194.316 83.8712 192.698 83.9154H190.798C190.536 83.9382 190.278 83.9916 190.029 84.0745Z" fill="#263238"/>
    <path d="M198.974 67.1025C198.809 68.1924 198.809 69.3009 198.974 70.3908C199.139 69.3009 199.139 68.1924 198.974 67.1025Z" fill="#263238"/>
    <path d="M190.046 69.7456C190.69 70.6252 191.465 71.4004 192.345 72.0439C192.058 71.5784 191.7 71.1608 191.284 70.8063C190.93 70.3895 190.513 70.0314 190.046 69.7456Z" fill="#263238"/>
    <path d="M184.831 75.4469C185.247 75.7918 185.701 76.0883 186.184 76.3308C186.622 76.646 187.097 76.9071 187.598 77.1087C187.238 76.6969 186.803 76.3579 186.316 76.1099C185.867 75.7989 185.363 75.5741 184.831 75.4469Z" fill="#263238"/>
    <path d="M181.773 83.9065C183.265 84.0715 184.771 84.0715 186.263 83.9065C184.771 83.7415 183.265 83.7415 181.773 83.9065Z" fill="#263238"/>
    <path d="M212.879 83.6061C214.288 83.7711 215.712 83.7711 217.122 83.6061C215.712 83.441 214.288 83.441 212.879 83.6061Z" fill="#263238"/>
    <path d="M210.687 89.8997C211.156 90.4513 211.694 90.9413 212.287 91.3582C212.824 91.8449 213.418 92.2662 214.055 92.6134C213.577 92.0696 213.04 91.5805 212.455 91.1549C211.914 90.6719 211.321 90.2508 210.687 89.8997Z" fill="#263238"/>
    <path d="M205.25 94.7703C205.569 95.4268 205.935 96.059 206.346 96.6619C206.681 97.3083 207.069 97.9261 207.504 98.5094C207.291 97.8053 206.972 97.1377 206.559 96.5293C206.217 95.8785 205.775 95.285 205.25 94.7703Z" fill="#263238"/>
    <path d="M198.974 101.055C199.139 99.5629 199.139 98.057 198.974 96.5647C198.809 98.057 198.809 99.5629 198.974 101.055Z" fill="#263238"/>
    <path d="M189.304 98.0673C189.985 97.7511 190.61 97.324 191.151 96.8033C191.742 96.335 192.253 95.7737 192.663 95.1415C192.074 95.5959 191.513 96.0859 190.983 96.6088C190.396 97.0623 189.835 97.5493 189.304 98.0673Z" fill="#263238"/>
    <path d="M184.761 93.1966C185.308 92.824 185.807 92.3846 186.246 91.8884C186.747 91.4554 187.188 90.9557 187.554 90.4033C187.006 90.7759 186.507 91.2154 186.069 91.7116C185.573 92.1502 185.133 92.6491 184.761 93.1966Z" fill="#263238"/>
    <path d="M210.89 77.5773C211.375 77.2614 211.816 76.8807 212.198 76.4459C212.637 76.0643 213.019 75.6206 213.33 75.1288C212.844 75.4447 212.404 75.8254 212.021 76.2602C211.582 76.6418 211.201 77.0855 210.89 77.5773Z" fill="#263238"/>
    <path d="M205.286 71.6727C205.771 71.3738 206.206 71.001 206.576 70.5677C207.008 70.1976 207.384 69.7657 207.69 69.286C207.205 69.5849 206.769 69.9577 206.399 70.3909C205.967 70.7611 205.592 71.193 205.286 71.6727Z" fill="#263238"/>
    <path d="M180.113 76.617C174.865 74.4617 172.359 68.4606 174.514 63.2132C176.669 57.9658 182.67 55.4592 187.918 57.6145C193.165 59.7698 195.672 65.7709 193.517 71.0183C191.361 76.2657 185.36 78.7723 180.113 76.617Z" fill="#FA1616"/>
    <path d="M179.068 63.9028C179.433 64.4922 179.856 65.0431 180.332 65.547C181.145 66.5193 182.303 67.8541 183.602 69.3038C183.965 69.7015 184.318 70.0816 184.654 70.4617L184.805 70.6208L184.964 70.4794C186.139 69.4275 187.147 68.4905 187.854 67.8276C188.259 67.4954 188.618 67.1121 188.924 66.6873C188.464 66.9411 188.04 67.2531 187.66 67.6154C186.9 68.2342 185.892 69.127 184.672 70.1612H184.981C184.651 69.784 184.307 69.3951 183.947 68.9944C182.648 67.5447 181.454 66.2541 180.571 65.326C180.127 64.7944 179.623 64.3167 179.068 63.9028Z" fill="#FAFAFA"/>
    <path d="M277.142 236.264C277.221 236.175 276.558 235.433 275.648 234.62C274.737 233.806 273.942 233.214 273.88 233.311C273.818 233.409 274.463 234.142 275.374 234.955C276.284 235.769 277.053 236.396 277.142 236.264Z" fill="#FA1616"/>
    <path d="M283.71 242.177C283.798 242.08 283.135 241.346 282.224 240.524C281.314 239.702 280.51 239.128 280.457 239.225C280.404 239.322 281.031 240.056 281.942 240.869C282.852 241.682 283.63 242.275 283.71 242.177Z" fill="#FA1616"/>
    <path d="M290.286 248.091C290.375 247.994 289.703 247.207 288.792 246.438C288.295 245.889 287.694 245.445 287.024 245.13C286.945 245.227 287.608 245.961 288.518 246.783C289.015 247.331 289.616 247.776 290.286 248.091Z" fill="#FA1616"/>
    <path d="M296.854 253.996C296.942 253.907 296.279 253.165 295.369 252.352C294.458 251.538 293.654 250.946 293.601 251.043C293.548 251.141 294.175 251.874 295.086 252.696C295.996 253.518 296.774 254.075 296.854 253.996Z" fill="#FA1616"/>
    <path d="M303.43 259.909C303.519 259.812 302.847 259.078 301.937 258.265C301.026 257.452 300.23 256.86 300.169 256.957C300.107 257.054 300.752 257.788 301.662 258.601C302.573 259.414 303.342 260.006 303.43 259.909Z" fill="#FA1616"/>
    <path d="M289.372 300.415C284.42 279.498 297.362 258.527 318.278 253.575C339.195 248.623 360.166 261.565 365.118 282.482C370.07 303.398 357.129 324.369 336.212 329.322C315.295 334.274 294.324 321.332 289.372 300.415Z" fill="white"/>
    <path d="M288.324 291.457C288.324 291.457 288.324 291.245 288.377 290.83C288.43 290.414 288.439 289.787 288.492 288.982C288.492 288.576 288.545 288.098 288.571 287.621C288.598 287.144 288.73 286.578 288.819 285.995C288.907 285.411 289.013 284.775 289.119 284.103C289.248 283.387 289.416 282.679 289.623 281.982C290.531 278.339 291.986 274.855 293.937 271.648C296.486 267.384 299.832 263.651 303.793 260.652L305.472 259.379C306.065 258.99 306.683 258.637 307.302 258.256C307.921 257.876 308.513 257.47 309.185 257.169L311.2 256.206L312.226 255.719L313.295 255.322L315.479 254.535C316.221 254.287 316.99 254.128 317.759 253.916C318.53 253.699 319.312 253.522 320.102 253.386C321.72 253.088 323.356 252.899 324.999 252.82C325.83 252.82 326.678 252.714 327.527 252.723L330.081 252.855C330.515 252.855 330.965 252.855 331.381 252.944L332.671 253.138C333.555 253.28 334.439 253.386 335.27 253.563C337.022 253.955 338.746 254.46 340.432 255.074C342.164 255.696 343.851 256.437 345.48 257.293C346.302 257.735 347.089 258.256 347.893 258.734C348.291 258.99 348.715 259.202 349.086 259.494L350.227 260.378C351.781 261.522 353.257 262.768 354.646 264.108L356.609 266.274L357.104 266.822L357.555 267.414L358.438 268.599L359.322 269.783L360.1 271.056L360.878 272.338L361.267 272.983L361.594 273.664C362.036 274.548 362.478 275.476 362.911 276.386C363.344 277.297 363.61 278.295 363.963 279.259C366.627 287.179 366.627 295.753 363.963 303.674C363.61 304.628 363.265 305.592 362.911 306.538C362.558 307.483 362.027 308.367 361.603 309.269L361.267 309.95L360.878 310.586L360.1 311.868L359.322 313.15L358.438 314.334L357.555 315.519L357.113 316.111L356.618 316.659L354.646 318.824C353.257 320.164 351.781 321.411 350.227 322.555L349.095 323.439C348.715 323.722 348.291 323.934 347.893 324.19C347.089 324.667 346.302 325.189 345.489 325.631C343.856 326.485 342.166 327.226 340.432 327.85C338.749 328.472 337.024 328.977 335.27 329.361C334.386 329.547 333.502 329.644 332.671 329.785L331.381 329.989C330.948 330.042 330.497 330.042 330.081 330.068L327.518 330.201C326.634 330.201 325.83 330.13 324.999 330.104C323.355 330.029 321.719 329.84 320.102 329.538C319.31 329.412 318.528 329.235 317.759 329.008C316.99 328.795 316.212 328.636 315.479 328.398L313.295 327.602L312.217 327.213L311.2 326.727L309.185 325.755C308.513 325.454 307.921 325.021 307.293 324.667C306.666 324.314 306.065 323.934 305.472 323.545L303.802 322.298C299.836 319.302 296.487 315.568 293.937 311.302C291.986 308.079 290.531 304.581 289.623 300.925C289.417 300.227 289.249 299.519 289.119 298.803C289.013 298.122 288.907 297.495 288.819 296.903C288.73 296.31 288.624 295.78 288.571 295.276C288.518 294.772 288.518 294.321 288.492 293.915C288.439 293.119 288.403 292.501 288.377 292.067C288.35 291.634 288.324 291.44 288.324 291.44C288.324 291.44 288.324 291.652 288.324 292.076C288.324 292.501 288.324 293.119 288.394 293.924C288.394 294.33 288.394 294.808 288.448 295.294C288.501 295.78 288.589 296.337 288.677 296.92C288.766 297.504 288.854 298.149 288.951 298.83C289.079 299.551 289.244 300.265 289.446 300.969C290.322 304.637 291.756 308.149 293.698 311.382C296.246 315.69 299.602 319.465 303.581 322.502L305.269 323.775C305.861 324.164 306.489 324.517 307.099 324.906C307.709 325.295 308.327 325.702 309.008 326.011L311.032 326.992L312.067 327.487L313.145 327.885L315.346 328.689C316.089 328.946 316.875 329.105 317.644 329.317C318.422 329.546 319.213 329.726 320.013 329.856C321.644 330.168 323.296 330.363 324.955 330.44C325.838 330.44 326.652 330.554 327.509 330.546L330.099 330.422C330.532 330.422 330.983 330.422 331.399 330.333L332.707 330.139C333.591 329.998 334.475 329.9 335.359 329.715C337.132 329.326 338.878 328.818 340.583 328.194C342.334 327.565 344.041 326.818 345.692 325.958C346.514 325.516 347.31 324.994 348.132 324.508C348.529 324.252 348.954 324.031 349.343 323.739L350.492 322.855C352.048 321.697 353.524 320.436 354.912 319.081L356.9 316.897L357.404 316.341L357.855 315.748L358.739 314.546L359.623 313.344L360.419 312.062L361.205 310.763L361.594 310.109L361.93 309.428L363.265 306.661L364.326 303.762C367.024 295.748 367.024 287.07 364.326 279.056L363.265 276.156C362.814 275.272 362.381 274.318 361.93 273.398L361.594 272.709L361.196 272.064L360.41 270.764L359.623 269.483L358.739 268.272L357.855 267.078L357.404 266.486L356.9 265.929L354.929 263.799C353.54 262.446 352.063 261.185 350.509 260.024L349.351 259.14C348.971 258.849 348.547 258.628 348.14 258.371C347.327 257.894 346.532 257.372 345.71 256.922C344.057 256.065 342.351 255.318 340.6 254.685C338.885 254.073 337.131 253.574 335.35 253.191C334.466 253.015 333.582 252.909 332.698 252.767L331.399 252.573C330.957 252.52 330.515 252.52 330.09 252.493L327.5 252.36C326.616 252.36 325.794 252.431 324.946 252.467C323.287 252.543 321.636 252.738 320.004 253.05C319.208 253.184 318.42 253.364 317.644 253.589C316.866 253.801 316.089 253.969 315.337 254.217L313.136 255.021L312.058 255.419L311.024 255.914L308.999 256.895C308.319 257.205 307.726 257.638 307.099 258C306.471 258.362 305.852 258.743 305.26 259.14L303.581 260.404C299.599 263.438 296.243 267.214 293.698 271.524C291.748 274.758 290.311 278.273 289.438 281.946C289.234 282.647 289.069 283.358 288.943 284.077C288.845 284.757 288.748 285.394 288.668 285.986C288.589 286.578 288.483 287.117 288.439 287.621C288.394 288.125 288.439 288.576 288.386 288.982C288.386 289.787 288.324 290.406 288.315 290.839C288.306 291.272 288.324 291.457 288.324 291.457Z" fill="#FA1616"/>
    <path d="M307.718 308.88C307.967 308.914 308.218 308.929 308.469 308.924L310.617 308.969L318.572 309.048L344.693 309.128H346.77V308.88C346.77 299.157 346.717 290.37 346.7 283.997C346.7 280.877 346.638 278.34 346.62 276.528C346.62 275.644 346.62 275.007 346.576 274.503C346.589 274.268 346.589 274.032 346.576 273.796C346.535 274.03 346.517 274.267 346.523 274.503C346.523 275.007 346.523 275.679 346.523 276.528C346.523 278.34 346.523 280.877 346.443 283.997C346.443 290.37 346.443 299.121 346.373 308.88L346.62 308.633H344.755L318.634 308.703L310.679 308.783L308.531 308.827C308.259 308.818 307.986 308.836 307.718 308.88Z" fill="#263238"/>
    <path d="M312.031 282.308C312.385 282.709 312.773 283.079 313.189 283.413L316.46 286.286C319.244 288.699 323.107 292.005 327.385 295.63L328.039 296.186L328.207 296.328L328.367 296.178L333.228 291.661H332.875L340.017 297.548L342.085 299.201C342.325 299.413 342.585 299.599 342.863 299.758C342.661 299.51 342.433 299.285 342.183 299.086L340.194 297.318L333.175 291.298L333.016 291.166L332.866 291.307L327.986 295.798H328.313L327.668 295.249C323.381 291.616 319.483 288.355 316.645 286.012L313.269 283.254C312.88 282.909 312.466 282.593 312.031 282.308Z" fill="#263238"/>
    <path d="M312.031 290.432C312.164 289.635 312.22 288.827 312.199 288.019C312.199 286.516 312.27 284.43 312.27 282.114L312.031 282.362H312.447C314.86 282.362 317.043 282.362 318.634 282.291C319.493 282.318 320.351 282.258 321.198 282.114C320.35 281.981 319.492 281.922 318.634 281.937C317.052 281.937 314.869 281.867 312.447 281.867H311.784V282.114C311.784 284.43 311.784 286.534 311.854 288.019C311.827 288.827 311.887 289.636 312.031 290.432Z" fill="#263238"/>
    <path d="M328.372 191.794C323.22 170.926 335.96 149.832 356.828 144.679C377.696 139.526 398.79 152.266 403.943 173.134C409.096 194.003 396.356 215.097 375.488 220.25C354.619 225.402 333.525 212.662 328.372 191.794Z" fill="white"/>
    <path d="M327.244 182.475C327.244 182.475 327.244 182.254 327.297 181.839C327.35 181.424 327.359 180.796 327.412 179.992C327.412 179.585 327.465 179.108 327.491 178.63C327.518 178.153 327.651 177.596 327.739 177.004C327.827 176.412 327.933 175.784 328.039 175.112C328.146 174.44 328.375 173.742 328.543 172.991C329.457 169.345 330.918 165.858 332.875 162.648C335.423 158.382 338.77 154.645 342.731 151.643L344.366 150.397C344.958 150.017 345.577 149.663 346.196 149.283C346.815 148.903 347.407 148.496 348.079 148.187L350.094 147.224L351.119 146.737L352.189 146.348L354.372 145.553C355.115 145.305 355.884 145.146 356.653 144.943C357.422 144.717 358.204 144.54 358.995 144.413C360.613 144.111 362.249 143.922 363.892 143.847C364.723 143.847 365.572 143.732 366.42 143.75L368.975 143.882C369.408 143.882 369.859 143.882 370.274 143.962L371.565 144.165C372.449 144.307 373.333 144.404 374.164 144.581C375.916 144.972 377.641 145.48 379.326 146.101C381.058 146.723 382.744 147.464 384.373 148.32C385.196 148.762 385.982 149.274 386.787 149.761C387.184 150.008 387.609 150.229 387.98 150.512L389.12 151.396C390.674 152.54 392.151 153.786 393.54 155.126L395.502 157.292L395.997 157.831L396.448 158.423L397.332 159.608L398.216 160.801L398.994 162.074L399.772 163.356L400.161 163.992L400.488 164.673L401.823 167.378L402.874 170.242C405.538 178.162 405.538 186.736 402.874 194.656C402.521 195.62 402.176 196.574 401.823 197.529C401.469 198.484 400.939 199.35 400.514 200.252L400.178 200.932L399.789 201.578L399.012 202.859L398.234 204.132L397.35 205.325L396.466 206.51L396.024 207.093L395.529 207.641L393.558 209.807C392.169 211.147 390.692 212.393 389.138 213.537L388.006 214.421C387.626 214.704 387.202 214.925 386.804 215.173C386 215.659 385.213 216.171 384.4 216.613C381.166 218.288 377.733 219.545 374.182 220.353C373.298 220.529 372.414 220.627 371.583 220.777L370.292 220.971C369.859 221.024 369.408 221.024 368.993 221.051L366.429 221.183C365.545 221.183 364.741 221.122 363.91 221.086C362.267 221.011 360.63 220.822 359.013 220.521C358.221 220.395 357.439 220.218 356.671 219.99C355.902 219.787 355.124 219.628 354.39 219.38L352.207 218.585L351.128 218.196L350.112 217.71L348.096 216.746C347.424 216.437 346.832 216.004 346.205 215.65C345.577 215.296 344.976 214.925 344.384 214.536L342.713 213.29C338.754 210.28 335.414 206.534 332.875 202.258C330.931 199.051 329.48 195.571 328.57 191.934C328.364 191.236 328.196 190.528 328.066 189.812C327.96 189.14 327.854 188.504 327.765 187.921C327.677 187.337 327.571 186.789 327.518 186.294C327.465 185.799 327.465 185.339 327.438 184.933C327.385 184.128 327.35 183.518 327.323 183.085C327.297 182.652 327.27 182.458 327.27 182.458C327.27 182.458 327.27 182.67 327.27 183.085C327.27 183.501 327.27 184.137 327.341 184.933C327.341 185.348 327.341 185.817 327.394 186.303C327.447 186.789 327.536 187.346 327.624 187.938C327.712 188.53 327.801 189.158 327.898 189.839C328.025 190.56 328.19 191.274 328.393 191.978C329.267 195.647 330.701 199.159 332.645 202.391C335.187 206.7 338.536 210.479 342.51 213.52L344.198 214.784C344.79 215.173 345.418 215.535 346.028 215.915C346.638 216.295 347.256 216.72 347.937 217.029L349.961 218.01L350.996 218.496L352.074 218.894L354.275 219.707C355.018 219.955 355.804 220.114 356.573 220.326C357.351 220.558 358.142 220.741 358.942 220.874C360.575 221.177 362.225 221.372 363.884 221.458C364.767 221.458 365.581 221.572 366.438 221.564L369.028 221.431C369.461 221.431 369.912 221.431 370.328 221.351L371.636 221.148C372.52 221.007 373.404 220.909 374.288 220.733C376.06 220.337 377.805 219.826 379.512 219.203C381.258 218.568 382.959 217.815 384.603 216.949C385.425 216.507 386.221 215.986 387.043 215.5C387.441 215.243 387.865 215.031 388.254 214.74L389.403 213.856C390.959 212.7 392.435 211.442 393.823 210.09L395.812 207.898L396.316 207.35L396.766 206.757L397.65 205.555L398.534 204.353L399.33 203.063L400.117 201.763L400.505 201.118L400.841 200.428C401.283 199.544 401.725 198.59 402.176 197.67L403.29 194.851C405.989 186.836 405.989 178.159 403.29 170.144L402.229 167.245L400.894 164.478L400.559 163.798L400.161 163.143L399.374 161.853L398.587 160.562L397.703 159.36L396.819 158.158L396.369 157.566L395.865 157.018L393.867 154.781C392.48 153.429 391.003 152.171 389.447 151.016L388.289 150.132C387.909 149.849 387.485 149.628 387.078 149.372C386.265 148.885 385.47 148.364 384.647 147.922C382.997 147.062 381.29 146.314 379.538 145.686C377.833 145.062 376.088 144.554 374.314 144.165C373.43 143.98 372.546 143.882 371.662 143.741L370.363 143.538C369.921 143.484 369.479 143.484 369.055 143.458L366.465 143.334C365.581 143.334 364.759 143.405 363.91 143.431C362.252 143.517 360.601 143.712 358.969 144.015C358.171 144.147 357.383 144.33 356.609 144.563C355.831 144.775 355.053 144.934 354.302 145.182L352.101 145.995L351.022 146.393L349.988 146.879L347.902 147.878C347.221 148.187 346.629 148.629 346.001 148.991C345.374 149.354 344.755 149.734 344.163 150.123L342.483 151.387C338.501 154.424 335.146 158.203 332.601 162.516C330.651 165.746 329.214 169.259 328.34 172.929C328.172 173.689 327.925 174.378 327.845 175.068C327.765 175.757 327.651 176.376 327.571 176.968C327.491 177.561 327.385 178.1 327.341 178.604C327.297 179.108 327.341 179.558 327.288 179.974C327.288 180.778 327.235 181.388 327.217 181.821C327.2 182.254 327.244 182.475 327.244 182.475Z" fill="#FA1616"/>
    <path d="M365.156 165.53L360.94 174.078C360.859 174.236 360.741 174.372 360.596 174.475C360.452 174.578 360.285 174.645 360.109 174.67L350.677 176.04C350.475 176.07 350.284 176.156 350.128 176.288C349.972 176.421 349.855 176.595 349.793 176.79C349.73 176.985 349.724 177.194 349.774 177.393C349.824 177.591 349.929 177.772 350.076 177.914L356.9 184.561C357.026 184.687 357.12 184.84 357.174 185.01C357.228 185.179 357.24 185.359 357.21 185.534L355.601 194.921C355.566 195.123 355.588 195.331 355.665 195.521C355.741 195.711 355.87 195.875 356.036 195.996C356.201 196.117 356.398 196.188 356.602 196.203C356.806 196.218 357.011 196.175 357.192 196.079L365.625 191.66C365.782 191.577 365.956 191.533 366.133 191.533C366.31 191.533 366.485 191.577 366.641 191.66L375.083 196.079C375.264 196.176 375.468 196.22 375.673 196.205C375.877 196.191 376.073 196.119 376.239 195.998C376.404 195.877 376.532 195.712 376.607 195.521C376.683 195.331 376.703 195.123 376.665 194.921L375.057 185.534C375.028 185.358 375.042 185.178 375.097 185.009C375.153 184.84 375.248 184.686 375.375 184.561L382.199 177.914C382.343 177.77 382.445 177.589 382.493 177.39C382.541 177.192 382.532 176.984 382.469 176.79C382.406 176.596 382.29 176.423 382.135 176.291C381.98 176.158 381.791 176.072 381.589 176.04L372.157 174.67C371.983 174.644 371.817 174.577 371.674 174.474C371.531 174.371 371.415 174.235 371.335 174.078L367.119 165.53C367.028 165.348 366.888 165.194 366.715 165.087C366.541 164.979 366.341 164.922 366.138 164.922C365.934 164.922 365.734 164.979 365.561 165.087C365.387 165.194 365.247 165.348 365.156 165.53Z" fill="#FAFAFA"/>
    <path d="M365.156 165.53C365.156 165.53 365.156 165.442 365.333 165.301C365.457 165.171 365.612 165.074 365.783 165.02C365.954 164.966 366.135 164.955 366.311 164.989C366.488 165.024 366.652 165.102 366.79 165.216C366.928 165.331 367.035 165.478 367.101 165.645L367.923 167.36C368.542 168.651 369.302 170.215 370.186 172.036L370.876 173.45C370.99 173.698 371.114 173.946 371.238 174.193C371.396 174.478 371.659 174.691 371.972 174.785C373.147 174.98 374.323 175.139 375.587 175.333L379.547 175.926L381.642 176.244C381.794 176.274 381.936 176.343 382.053 176.445C382.17 176.547 382.258 176.679 382.308 176.826C382.359 176.973 382.369 177.13 382.339 177.282C382.309 177.435 382.239 177.577 382.137 177.693L375.304 184.358C375.118 184.521 374.981 184.731 374.908 184.967C374.834 185.203 374.828 185.454 374.889 185.693L375.101 186.966C375.251 187.85 375.393 188.681 375.543 189.547C375.835 191.315 376.144 193.083 376.427 194.851C376.474 195.033 376.462 195.226 376.392 195.401C376.322 195.576 376.198 195.724 376.038 195.823C375.884 195.926 375.699 195.97 375.516 195.947C375.316 195.922 375.125 195.849 374.959 195.735L372.458 194.427L367.357 191.775L366.703 191.43C366.428 191.3 366.117 191.266 365.819 191.333C365.569 191.409 365.328 191.516 365.103 191.651L364.467 191.987L361.93 193.322L356.989 195.92C356.863 195.972 356.728 195.993 356.592 195.984C356.457 195.974 356.326 195.934 356.209 195.865C356.092 195.797 355.992 195.703 355.917 195.59C355.843 195.477 355.795 195.348 355.778 195.213C355.778 195.008 355.802 194.803 355.848 194.603C355.999 193.719 356.149 192.835 356.299 191.952C356.591 190.184 356.883 188.513 357.183 186.842L357.395 185.605C357.439 185.367 357.417 185.121 357.333 184.894C357.249 184.667 357.106 184.467 356.918 184.314C356.335 183.74 355.751 183.183 355.15 182.626C354.001 181.512 352.89 180.431 351.818 179.382L350.227 177.844C350.102 177.755 350.002 177.636 349.938 177.498C349.873 177.36 349.845 177.208 349.856 177.055C349.868 176.903 349.918 176.757 350.004 176.63C350.089 176.503 350.205 176.401 350.341 176.332C350.645 176.217 350.964 176.148 351.287 176.129L352.322 175.979L354.257 175.687L357.855 175.148L359.517 174.9C359.791 174.847 360.03 174.838 360.321 174.759C360.599 174.668 360.835 174.48 360.984 174.228L363.265 169.543L364.697 166.565L365.05 165.796C365.13 165.619 365.165 165.521 365.165 165.521C365.105 165.597 365.054 165.68 365.015 165.769C364.909 165.963 364.776 166.211 364.617 166.529C364.255 167.228 363.733 168.209 363.123 169.455L360.781 174.087C360.67 174.286 360.491 174.44 360.277 174.52C360.065 174.582 359.764 174.6 359.508 174.644L357.855 174.874L354.249 175.386L352.313 175.66L351.305 175.802C350.941 175.82 350.583 175.898 350.244 176.032C350.065 176.134 349.914 176.278 349.802 176.451C349.69 176.624 349.621 176.821 349.602 177.027C349.582 177.232 349.611 177.439 349.688 177.63C349.764 177.821 349.885 177.992 350.041 178.127L351.614 179.673L354.938 182.926L356.706 184.632C356.841 184.732 356.946 184.868 357.007 185.024C357.068 185.181 357.083 185.352 357.051 185.516L356.838 186.754C356.55 188.416 356.255 190.119 355.955 191.863C355.804 192.747 355.654 193.631 355.495 194.515C355.442 194.756 355.418 195.002 355.424 195.249C355.447 195.526 355.562 195.787 355.751 195.991C355.934 196.199 356.179 196.342 356.449 196.401C356.719 196.46 357.001 196.431 357.254 196.318L362.231 193.719L364.697 192.385L365.333 192.049C365.522 191.935 365.724 191.843 365.934 191.775C366.122 191.734 366.317 191.756 366.491 191.837L367.136 192.173L372.237 194.824L374.738 196.141C374.962 196.28 375.212 196.37 375.472 196.407C375.755 196.429 376.038 196.358 376.276 196.203C376.51 196.055 376.692 195.837 376.797 195.58C376.901 195.324 376.923 195.041 376.86 194.771C376.548 192.968 376.253 191.2 375.976 189.468C375.826 188.584 375.675 187.7 375.525 186.886L375.313 185.614C375.257 185.443 375.254 185.26 375.304 185.088C375.355 184.916 375.457 184.763 375.596 184.65L382.455 177.923C382.59 177.752 382.679 177.55 382.715 177.335C382.751 177.12 382.731 176.9 382.659 176.695C382.591 176.495 382.475 176.316 382.32 176.172C382.166 176.029 381.979 175.926 381.775 175.873L379.653 175.563L375.693 175.006L372.104 174.494C371.867 174.423 371.665 174.265 371.539 174.052L371.176 173.318L370.469 171.912L368.135 167.272C367.808 166.635 367.525 166.07 367.251 165.575C367.155 165.35 366.99 165.161 366.781 165.034C366.572 164.908 366.328 164.849 366.085 164.867C365.937 164.878 365.794 164.918 365.663 164.987C365.532 165.055 365.417 165.15 365.324 165.265C365.247 165.338 365.189 165.429 365.156 165.53Z" fill="#263238"/>
    <path d="M328.372 191.794C323.22 170.926 335.96 149.832 356.828 144.679C377.696 139.526 398.79 152.266 403.943 173.134C409.096 194.003 396.356 215.097 375.488 220.25C354.619 225.402 333.525 212.662 328.372 191.794Z" fill="white"/>
    <path d="M327.244 182.475C327.244 182.475 327.244 182.254 327.297 181.839C327.35 181.424 327.359 180.796 327.412 179.992C327.412 179.585 327.465 179.108 327.491 178.63C327.518 178.153 327.651 177.596 327.739 177.004C327.827 176.412 327.933 175.784 328.039 175.112C328.146 174.44 328.375 173.742 328.543 172.991C329.457 169.345 330.918 165.858 332.875 162.648C335.423 158.382 338.77 154.645 342.731 151.643L344.366 150.397C344.958 150.017 345.577 149.663 346.196 149.283C346.815 148.903 347.407 148.496 348.079 148.187L350.094 147.224L351.119 146.737L352.189 146.348L354.372 145.553C355.115 145.305 355.884 145.146 356.653 144.943C357.422 144.717 358.204 144.54 358.995 144.413C360.613 144.111 362.249 143.922 363.892 143.847C364.723 143.847 365.572 143.732 366.42 143.75L368.975 143.882C369.408 143.882 369.859 143.882 370.274 143.962L371.565 144.165C372.449 144.307 373.333 144.404 374.164 144.581C375.916 144.972 377.641 145.48 379.326 146.101C381.058 146.723 382.744 147.464 384.373 148.32C385.196 148.762 385.982 149.274 386.787 149.761C387.184 150.008 387.609 150.229 387.98 150.512L389.12 151.396C390.674 152.54 392.151 153.786 393.54 155.126L395.502 157.292L395.997 157.831L396.448 158.423L397.332 159.608L398.216 160.801L398.994 162.074L399.772 163.356L400.161 163.992L400.488 164.673L401.823 167.378L402.874 170.242C405.538 178.162 405.538 186.736 402.874 194.656C402.521 195.62 402.176 196.574 401.823 197.529C401.469 198.484 400.939 199.35 400.514 200.252L400.178 200.932L399.789 201.578L399.012 202.859L398.234 204.132L397.35 205.325L396.466 206.51L396.024 207.093L395.529 207.641L393.558 209.807C392.169 211.147 390.692 212.393 389.138 213.537L388.006 214.421C387.626 214.704 387.202 214.925 386.804 215.173C386 215.659 385.213 216.171 384.4 216.613C381.166 218.288 377.733 219.545 374.182 220.353C373.298 220.529 372.414 220.627 371.583 220.777L370.292 220.971C369.859 221.024 369.408 221.024 368.993 221.051L366.429 221.183C365.545 221.183 364.741 221.122 363.91 221.086C362.267 221.011 360.63 220.822 359.013 220.521C358.221 220.395 357.439 220.218 356.671 219.99C355.902 219.787 355.124 219.628 354.39 219.38L352.207 218.585L351.128 218.196L350.112 217.71L348.096 216.746C347.424 216.437 346.832 216.004 346.205 215.65C345.577 215.296 344.976 214.925 344.384 214.536L342.713 213.29C338.754 210.28 335.414 206.534 332.875 202.258C330.931 199.051 329.48 195.571 328.57 191.934C328.364 191.236 328.196 190.528 328.066 189.812C327.96 189.14 327.854 188.504 327.765 187.921C327.677 187.337 327.571 186.789 327.518 186.294C327.465 185.799 327.465 185.339 327.438 184.933C327.385 184.128 327.35 183.518 327.323 183.085C327.297 182.652 327.27 182.458 327.27 182.458C327.27 182.458 327.27 182.67 327.27 183.085C327.27 183.501 327.27 184.137 327.341 184.933C327.341 185.348 327.341 185.817 327.394 186.303C327.447 186.789 327.536 187.346 327.624 187.938C327.712 188.53 327.801 189.158 327.898 189.839C328.025 190.56 328.19 191.274 328.393 191.978C329.267 195.647 330.701 199.159 332.645 202.391C335.187 206.7 338.536 210.479 342.51 213.52L344.198 214.784C344.79 215.173 345.418 215.535 346.028 215.915C346.638 216.295 347.256 216.72 347.937 217.029L349.961 218.01L350.996 218.496L352.074 218.894L354.275 219.707C355.018 219.955 355.804 220.114 356.573 220.326C357.351 220.558 358.142 220.741 358.942 220.874C360.575 221.177 362.225 221.372 363.884 221.458C364.767 221.458 365.581 221.572 366.438 221.564L369.028 221.431C369.461 221.431 369.912 221.431 370.328 221.351L371.636 221.148C372.52 221.007 373.404 220.909 374.288 220.733C376.06 220.337 377.805 219.826 379.512 219.203C381.258 218.568 382.959 217.815 384.603 216.949C385.425 216.507 386.221 215.986 387.043 215.5C387.441 215.243 387.865 215.031 388.254 214.74L389.403 213.856C390.959 212.7 392.435 211.442 393.823 210.09L395.812 207.898L396.316 207.35L396.766 206.757L397.65 205.555L398.534 204.353L399.33 203.063L400.117 201.763L400.505 201.118L400.841 200.428C401.283 199.544 401.725 198.59 402.176 197.67L403.29 194.851C405.989 186.836 405.989 178.159 403.29 170.144L402.229 167.245L400.894 164.478L400.559 163.798L400.161 163.143L399.374 161.853L398.587 160.562L397.703 159.36L396.819 158.158L396.369 157.566L395.865 157.018L393.867 154.781C392.48 153.429 391.003 152.171 389.447 151.016L388.289 150.132C387.909 149.849 387.485 149.628 387.078 149.372C386.265 148.885 385.47 148.364 384.647 147.922C382.997 147.062 381.29 146.314 379.538 145.686C377.833 145.062 376.088 144.554 374.314 144.165C373.43 143.98 372.546 143.882 371.662 143.741L370.363 143.538C369.921 143.484 369.479 143.484 369.055 143.458L366.465 143.334C365.581 143.334 364.759 143.405 363.91 143.431C362.252 143.517 360.601 143.712 358.969 144.015C358.171 144.147 357.383 144.33 356.609 144.563C355.831 144.775 355.053 144.934 354.302 145.182L352.101 145.995L351.022 146.393L349.988 146.879L347.902 147.878C347.221 148.187 346.629 148.629 346.001 148.991C345.374 149.354 344.755 149.734 344.163 150.123L342.483 151.387C338.501 154.424 335.146 158.203 332.601 162.516C330.651 165.746 329.214 169.259 328.34 172.929C328.172 173.689 327.925 174.378 327.845 175.068C327.765 175.757 327.651 176.376 327.571 176.968C327.491 177.561 327.385 178.1 327.341 178.604C327.297 179.108 327.341 179.558 327.288 179.974C327.288 180.778 327.235 181.388 327.217 181.821C327.2 182.254 327.244 182.475 327.244 182.475Z" fill="#FA1616"/>
    <path d="M365.156 165.53L360.94 174.078C360.859 174.236 360.741 174.372 360.596 174.475C360.452 174.578 360.285 174.645 360.109 174.67L350.677 176.04C350.475 176.07 350.284 176.156 350.128 176.288C349.972 176.421 349.855 176.595 349.793 176.79C349.73 176.985 349.724 177.194 349.774 177.393C349.824 177.591 349.929 177.772 350.076 177.914L356.9 184.561C357.026 184.687 357.12 184.84 357.174 185.01C357.228 185.179 357.24 185.359 357.21 185.534L355.601 194.921C355.566 195.123 355.588 195.331 355.665 195.521C355.741 195.711 355.87 195.875 356.036 195.996C356.201 196.117 356.398 196.188 356.602 196.203C356.806 196.218 357.011 196.175 357.192 196.079L365.625 191.66C365.782 191.577 365.956 191.533 366.133 191.533C366.31 191.533 366.485 191.577 366.641 191.66L375.083 196.079C375.264 196.176 375.468 196.22 375.673 196.205C375.877 196.191 376.073 196.119 376.239 195.998C376.404 195.877 376.532 195.712 376.607 195.521C376.683 195.331 376.703 195.123 376.665 194.921L375.057 185.534C375.028 185.358 375.042 185.178 375.097 185.009C375.153 184.84 375.248 184.686 375.375 184.561L382.199 177.914C382.343 177.77 382.445 177.589 382.493 177.39C382.541 177.192 382.532 176.984 382.469 176.79C382.406 176.596 382.29 176.423 382.135 176.291C381.98 176.158 381.791 176.072 381.589 176.04L372.157 174.67C371.983 174.644 371.817 174.577 371.674 174.474C371.531 174.371 371.415 174.235 371.335 174.078L367.119 165.53C367.028 165.348 366.888 165.194 366.715 165.087C366.541 164.979 366.341 164.922 366.138 164.922C365.934 164.922 365.734 164.979 365.561 165.087C365.387 165.194 365.247 165.348 365.156 165.53Z" fill="#FAFAFA"/>
    <path d="M365.156 165.53C365.156 165.53 365.156 165.442 365.333 165.301C365.457 165.171 365.612 165.074 365.783 165.02C365.954 164.966 366.135 164.955 366.311 164.989C366.488 165.024 366.652 165.102 366.79 165.216C366.928 165.331 367.035 165.478 367.101 165.645L367.923 167.36C368.542 168.651 369.302 170.215 370.186 172.036L370.876 173.45C370.99 173.698 371.114 173.946 371.238 174.193C371.396 174.478 371.659 174.691 371.972 174.785C373.147 174.98 374.323 175.139 375.587 175.333L379.547 175.926L381.642 176.244C381.794 176.274 381.936 176.343 382.053 176.445C382.17 176.547 382.258 176.679 382.308 176.826C382.359 176.973 382.369 177.13 382.339 177.282C382.309 177.435 382.239 177.577 382.137 177.693L375.304 184.358C375.118 184.521 374.981 184.731 374.908 184.967C374.834 185.203 374.828 185.454 374.889 185.693L375.101 186.966C375.251 187.85 375.393 188.681 375.543 189.547C375.835 191.315 376.144 193.083 376.427 194.851C376.474 195.033 376.462 195.226 376.392 195.401C376.322 195.576 376.198 195.724 376.038 195.823C375.884 195.926 375.699 195.97 375.516 195.947C375.316 195.922 375.125 195.849 374.959 195.735L372.458 194.427L367.357 191.775L366.703 191.43C366.428 191.3 366.117 191.266 365.819 191.333C365.569 191.409 365.328 191.516 365.103 191.651L364.467 191.987L361.93 193.322L356.989 195.92C356.863 195.972 356.728 195.993 356.592 195.984C356.457 195.974 356.326 195.934 356.209 195.865C356.092 195.797 355.992 195.703 355.917 195.59C355.843 195.477 355.795 195.348 355.778 195.213C355.778 195.008 355.802 194.803 355.848 194.603C355.999 193.719 356.149 192.835 356.299 191.952C356.591 190.184 356.883 188.513 357.183 186.842L357.395 185.605C357.439 185.367 357.417 185.121 357.333 184.894C357.249 184.667 357.106 184.467 356.918 184.314C356.335 183.74 355.751 183.183 355.15 182.626C354.001 181.512 352.89 180.431 351.818 179.382L350.227 177.844C350.102 177.755 350.002 177.636 349.938 177.498C349.873 177.36 349.845 177.208 349.856 177.055C349.868 176.903 349.918 176.757 350.004 176.63C350.089 176.503 350.205 176.401 350.341 176.332C350.645 176.217 350.964 176.148 351.287 176.129L352.322 175.979L354.257 175.687L357.855 175.148L359.517 174.9C359.791 174.847 360.03 174.838 360.321 174.759C360.599 174.668 360.835 174.48 360.984 174.228L363.265 169.543L364.697 166.565L365.05 165.796C365.13 165.619 365.165 165.521 365.165 165.521C365.105 165.597 365.054 165.68 365.015 165.769C364.909 165.963 364.776 166.211 364.617 166.529C364.255 167.228 363.733 168.209 363.123 169.455L360.781 174.087C360.67 174.286 360.491 174.44 360.277 174.52C360.065 174.582 359.764 174.6 359.508 174.644L357.855 174.874L354.249 175.386L352.313 175.66L351.305 175.802C350.941 175.82 350.583 175.898 350.244 176.032C350.065 176.134 349.914 176.278 349.802 176.451C349.69 176.624 349.621 176.821 349.602 177.027C349.582 177.232 349.611 177.439 349.688 177.63C349.764 177.821 349.885 177.992 350.041 178.127L351.614 179.673L354.938 182.926L356.706 184.632C356.841 184.732 356.946 184.868 357.007 185.024C357.068 185.181 357.083 185.352 357.051 185.516L356.838 186.754C356.55 188.416 356.255 190.119 355.955 191.863C355.804 192.747 355.654 193.631 355.495 194.515C355.442 194.756 355.418 195.002 355.424 195.249C355.447 195.526 355.562 195.787 355.751 195.991C355.934 196.199 356.179 196.342 356.449 196.401C356.719 196.46 357.001 196.431 357.254 196.318L362.231 193.719L364.697 192.385L365.333 192.049C365.522 191.935 365.724 191.843 365.934 191.775C366.122 191.734 366.317 191.756 366.491 191.837L367.136 192.173L372.237 194.824L374.738 196.141C374.962 196.28 375.212 196.37 375.472 196.407C375.755 196.429 376.038 196.358 376.276 196.203C376.51 196.055 376.692 195.837 376.797 195.58C376.901 195.324 376.923 195.041 376.86 194.771C376.548 192.968 376.253 191.2 375.976 189.468C375.826 188.584 375.675 187.7 375.525 186.886L375.313 185.614C375.257 185.443 375.254 185.26 375.304 185.088C375.355 184.916 375.457 184.763 375.596 184.65L382.455 177.923C382.59 177.752 382.679 177.55 382.715 177.335C382.751 177.12 382.731 176.9 382.659 176.695C382.591 176.495 382.475 176.316 382.32 176.172C382.166 176.029 381.979 175.926 381.775 175.873L379.653 175.563L375.693 175.006L372.104 174.494C371.867 174.423 371.665 174.265 371.539 174.052L371.176 173.318L370.469 171.912L368.135 167.272C367.808 166.635 367.525 166.07 367.251 165.575C367.155 165.35 366.99 165.161 366.781 165.034C366.572 164.908 366.328 164.849 366.085 164.867C365.937 164.878 365.794 164.918 365.663 164.987C365.532 165.055 365.417 165.15 365.324 165.265C365.247 165.338 365.189 165.429 365.156 165.53Z" fill="#263238"/>
    </svg>
