<svg width="135" height="64" viewBox="0 0 135 64" fill="none" xmlns="http://www.w3.org/2000/svg">
<g clip-path="url(#clip0)">
<path d="M52.447 28.868V17.3946C52.447 17.1505 52.6906 16.9064 52.9342 16.9064H57.3197C61.2179 16.9064 63.8979 19.3475 63.8979 23.0906C63.8979 26.8337 61.2179 29.2749 57.3197 29.2749H52.9342C52.6906 29.2749 52.447 29.1121 52.447 28.868ZM61.2179 23.0906C61.2179 20.8936 59.9185 19.1848 57.3197 19.1848H55.0457V26.9151H57.3197C59.7561 26.9965 61.2179 25.2063 61.2179 23.0906Z" fill="white"/>
<path d="M65.1161 24.7994C65.1161 22.1955 67.0652 20.0798 69.7452 20.0798C72.4252 20.0798 74.2118 22.1141 74.2118 25.0435V25.5317H68.1209C67.7961 25.5317 67.5525 25.8572 67.7149 26.1013C68.0397 26.9151 68.9331 27.566 70.1512 27.566C70.8009 27.566 71.6131 27.3219 72.1815 26.9151C72.4252 26.7523 72.6688 26.8337 72.8312 27.0778L73.3997 27.8915C73.5622 28.0543 73.4809 28.3797 73.3185 28.5425C72.4252 29.1935 71.207 29.5189 69.9888 29.5189C67.2276 29.5189 65.1161 27.6474 65.1161 24.7994ZM69.7452 21.9514C68.6082 21.9514 67.9585 22.6024 67.7149 23.3347C67.5525 23.6602 67.7961 23.9857 68.1209 23.9857H71.3694C71.6943 23.9857 71.9379 23.6602 71.7755 23.3347C71.6131 22.6024 70.9634 21.9514 69.7452 21.9514Z" fill="white"/>
<path d="M75.9985 28.868V17.3946C75.9985 17.1505 76.2422 16.9064 76.4858 16.9064H77.9476C78.1913 16.9064 78.4349 17.1505 78.4349 17.3946V28.868C78.4349 29.1121 78.1913 29.3562 77.9476 29.3562H76.4858C76.161 29.2749 75.9985 29.1121 75.9985 28.868Z" fill="white"/>
<path d="M80.3839 17.9642C80.3839 17.1505 81.0336 16.5809 81.7645 16.5809C82.5766 16.5809 83.1451 17.2318 83.1451 17.9642C83.1451 18.7779 82.4954 19.3475 81.7645 19.3475C81.0336 19.3475 80.3839 18.6965 80.3839 17.9642ZM80.6275 28.868V20.8122C80.6275 20.5681 80.8712 20.324 81.1148 20.324H82.5766C82.8203 20.324 83.0639 20.5681 83.0639 20.8122V28.868C83.0639 29.1121 82.8203 29.3562 82.5766 29.3562H81.1148C80.8712 29.2749 80.6275 29.1121 80.6275 28.868Z" fill="white"/>
<path d="M87.5307 29.0307L84.2822 20.9749C84.201 20.6495 84.3634 20.324 84.6882 20.324H86.2313C86.3937 20.324 86.5561 20.4053 86.6373 20.6495L88.8301 26.5896L91.0228 20.6495C91.104 20.4867 91.2664 20.324 91.4288 20.324H92.9719C93.2967 20.324 93.5404 20.6495 93.3779 20.9749L90.1294 29.0307C90.0482 29.1935 89.8858 29.3562 89.7234 29.3562H87.7743C87.7743 29.2749 87.6119 29.1935 87.5307 29.0307Z" fill="white"/>
<path d="M94.2712 24.7994C94.2712 22.1955 96.2203 20.0798 98.9003 20.0798C101.58 20.0798 103.367 22.1141 103.367 25.0435V25.5317H97.2761C96.9512 25.5317 96.7076 25.8572 96.87 26.1013C97.1949 26.9151 98.0882 27.566 99.3064 27.566C99.9561 27.566 100.768 27.3219 101.337 26.9151C101.58 26.7523 101.824 26.8337 101.986 27.0778L102.555 27.8915C102.717 28.0543 102.636 28.3797 102.474 28.5425C101.58 29.1935 100.362 29.5189 99.144 29.5189C96.3828 29.5189 94.2712 27.6474 94.2712 24.7994ZM98.9003 21.9514C97.7634 21.9514 97.1137 22.6024 96.87 23.3347C96.7076 23.6602 96.9512 23.9857 97.2761 23.9857H100.525C100.849 23.9857 101.093 23.6602 100.931 23.3347C100.768 22.6024 100.119 21.9514 98.9003 21.9514Z" fill="white"/>
<path d="M104.748 28.868V20.8122C104.748 20.5681 104.991 20.324 105.235 20.324H106.697C106.94 20.324 107.184 20.5681 107.184 20.8122V21.5445C107.752 20.8936 108.565 20.324 109.539 20.1612C109.783 20.0798 110.108 20.324 110.108 20.6494V22.4396C109.945 22.4396 109.702 22.3583 109.458 22.3583C108.727 22.3583 107.834 22.7651 107.346 23.2533C107.265 23.3347 107.265 23.4161 107.265 23.5788V28.868C107.265 29.1121 107.022 29.3562 106.778 29.3562H105.316C104.91 29.2748 104.748 29.1121 104.748 28.868Z" fill="white"/>
<path d="M111.813 30.6582C112.057 30.7395 112.3 30.8209 112.544 30.8209C113.194 30.8209 113.6 30.6582 113.762 30.1699L114.087 29.4376L110.676 20.9749C110.595 20.6495 110.757 20.324 111.082 20.324H112.625C112.788 20.324 112.95 20.4053 113.031 20.6495L115.224 26.5896L117.417 20.6495C117.498 20.4867 117.66 20.324 117.823 20.324H119.366C119.691 20.324 119.934 20.6495 119.772 20.9749L115.792 30.8209C115.143 32.5297 113.925 32.9366 112.382 33.018C112.138 33.018 111.488 32.9366 111.245 32.8552L111.813 30.6582Z" fill="white"/>
<path d="M51.8785 45.061L52.9342 43.5963C53.0967 43.3522 53.4215 43.3522 53.5839 43.5149C54.5585 44.3286 55.9391 45.061 57.5633 45.061C59.1876 45.061 59.9185 44.3286 59.9185 43.5149C59.9185 41.0738 52.0409 42.7826 52.0409 37.5748C52.0409 35.2964 53.99 33.4248 57.2385 33.4248C59.2688 33.4248 60.9742 33.9944 62.2736 35.0523C62.4361 35.215 62.5173 35.4591 62.3548 35.7032L61.2991 37.0866C61.1367 37.3307 60.8118 37.3307 60.6494 37.1679C59.5936 36.3542 58.2942 35.9474 56.9948 35.9474C55.7767 35.9474 55.0457 36.517 55.0457 37.3307C55.0457 39.5277 62.9233 38.063 62.9233 43.1894C62.9233 45.712 61.1367 47.5835 57.4009 47.5835C54.9645 47.5835 53.1779 46.8512 51.8785 45.712C51.7973 45.4678 51.7973 45.2237 51.8785 45.061Z" fill="white"/>
<path d="M64.6288 48.8855C64.8725 48.9669 65.1973 49.0482 65.441 49.0482C66.0907 49.0482 66.5779 48.8855 66.8216 48.3159L67.1464 47.6649C67.2276 47.5835 67.2276 47.4208 67.1464 47.3394L63.4106 38.0631C63.3294 37.7376 63.4919 37.4121 63.8167 37.4121H65.6034C65.7658 37.4121 65.9282 37.4934 66.0094 37.7376L68.0397 43.2708C68.2022 43.6777 68.7707 43.6777 68.9331 43.2708L70.9634 37.7376C71.0446 37.5748 71.207 37.4121 71.3694 37.4121H73.2373C73.5622 37.4121 73.8058 37.7376 73.6434 38.0631L69.2579 49.0482C68.527 50.9198 67.2276 51.408 65.5222 51.4894C65.3597 51.4894 65.0349 51.4894 64.71 51.408C64.4664 51.408 64.304 51.1639 64.304 50.8384L64.6288 48.8855Z" fill="white"/>
<path d="M74.5367 45.712L75.1864 44.6541C75.3488 44.41 75.5925 44.41 75.8361 44.4914C76.6482 45.061 77.8664 45.5492 78.9222 45.5492C80.0591 45.5492 80.6276 45.061 80.6276 44.4914C80.6276 42.864 74.6991 44.1659 74.6991 40.2601C74.6991 38.5513 76.1609 37.0866 78.7597 37.0866C80.3028 37.0866 81.5209 37.5748 82.4143 38.2258C82.5767 38.3885 82.6579 38.6326 82.5767 38.7954L82.0082 39.7718C81.8458 40.016 81.5209 40.0973 81.3585 39.9346C80.7088 39.4464 79.8155 39.1209 78.8409 39.1209C77.8664 39.1209 77.2979 39.5277 77.2979 40.0973C77.2979 41.562 83.2264 40.3414 83.2264 44.3287C83.2264 46.1188 81.6834 47.5021 78.9222 47.5021C77.3791 47.5021 75.8361 47.0139 74.7803 46.2002C74.4555 46.1188 74.4555 45.8747 74.5367 45.712Z" fill="white"/>
<path d="M85.5003 44.8169V39.6091H84.2821C84.0385 39.6091 83.7949 39.365 83.7949 39.1209V37.7375C83.7949 37.4934 84.0385 37.2493 84.2821 37.2493H85.5003V34.9709C85.5003 34.7268 85.744 34.4827 85.9876 34.4827H87.693C87.9367 34.4827 88.1803 34.7268 88.1803 34.9709V37.2493H89.7233C89.967 37.2493 90.2106 37.4934 90.2106 37.7375V39.1209C90.2106 39.365 89.967 39.6091 89.7233 39.6091H88.1803V44.1659C88.1803 44.8169 88.5052 45.2237 89.0736 45.2237C89.4797 45.2237 89.8045 45.061 89.967 44.8982L90.4542 46.607C90.5355 46.7698 90.4543 47.0139 90.2918 47.0953C89.8858 47.3394 89.2361 47.5021 88.4239 47.5021C86.5561 47.5835 85.5003 46.607 85.5003 44.8169Z" fill="white"/>
<path d="M91.3475 42.2944C91.3475 39.365 93.4591 37.0866 96.4639 37.0866C99.4687 37.0866 101.418 39.2836 101.418 42.5385V43.1081H94.6772C94.3524 43.1081 94.1088 43.4336 94.2712 43.7591C94.6772 44.7355 95.5706 45.4679 96.9512 45.4679C97.6821 45.4679 98.5754 45.2237 99.2251 44.7355C99.4688 44.5728 99.7124 44.6542 99.8748 44.8983L100.525 45.8747C100.687 46.0375 100.606 46.363 100.443 46.5257C99.4688 47.258 98.0881 47.6649 96.7075 47.6649C93.6215 47.5835 91.3475 45.5492 91.3475 42.2944ZM96.4639 39.2022C95.1645 39.2022 94.4336 40.016 94.19 40.8297C94.1087 41.1552 94.3524 41.3993 94.596 41.3993H98.413C98.7378 41.3993 98.9815 41.1552 98.8191 40.8297C98.5754 40.016 97.9257 39.2022 96.4639 39.2022Z" fill="white"/>
<path d="M116.199 47.3394C115.955 47.3394 115.711 47.0953 115.711 46.8512V40.9924C115.711 40.0973 115.305 39.365 114.249 39.365C114.168 39.365 114.006 39.365 113.925 39.365C112.869 39.5277 112.138 40.5042 112.138 41.562V46.7698C112.138 47.0139 111.894 47.258 111.651 47.258H109.945C109.702 47.258 109.458 47.0139 109.458 46.7698V40.911C109.458 40.016 109.052 39.2836 107.996 39.2836C107.915 39.2836 107.834 39.2836 107.671 39.2836C106.616 39.4464 105.885 40.4228 105.885 41.4806V46.6884C105.885 46.9325 105.641 47.1767 105.397 47.1767H103.692C103.448 47.1767 103.205 46.9325 103.205 46.6884V37.8189C103.205 37.5748 103.448 37.3307 103.692 37.3307H105.397C105.641 37.3307 105.885 37.5748 105.885 37.8189V38.6326C106.291 38.063 107.59 37.0866 109.133 37.0866C110.27 37.0866 111.163 37.4934 111.569 38.3072C111.732 38.5513 112.057 38.6326 112.3 38.3885C112.95 37.6562 114.087 37.0866 115.305 37.0866C117.173 37.0866 118.229 38.063 118.229 40.0973V46.8512C118.229 47.0953 117.985 47.3394 117.742 47.3394H116.199Z" fill="white"/>
<path d="M33.8301 64H1.47956C0.712116 64 0.0627441 63.3494 0.0627441 62.5804V1.41959C0.0627441 0.650647 0.712116 0 1.47956 0H33.8301C38.6708 0 42.5671 3.90388 42.5671 8.75416V55.305C42.5671 60.0961 38.6708 64 33.8301 64Z" fill="white"/>
<path d="M18.8946 48.4436C18.8946 50.8096 18.7765 52.6432 18.5994 54.0628C18.4223 55.4824 18.0091 56.5471 17.4778 57.3161C16.9465 58.085 16.179 58.5582 15.2345 58.7948C14.29 59.0314 13.0502 59.1497 11.5744 59.1497H4.25421V6.86136H11.5154C13.0502 6.86136 14.2309 6.97966 15.1755 7.21626C16.12 7.45286 16.8874 7.9852 17.4187 8.695C17.95 9.46395 18.3633 10.5286 18.5404 11.8891C18.7175 13.3087 18.8356 15.1423 18.8356 17.5083V48.4436H18.8946ZM13.7587 17.5083C13.7587 16.6802 13.6996 15.9704 13.6406 15.4381C13.5815 14.9057 13.4635 14.4917 13.3454 14.1959C13.1683 13.9002 12.9912 13.6636 12.696 13.6044C12.4009 13.5453 12.0467 13.4861 11.5744 13.4861H9.39015V52.6432H11.5744C12.0467 52.6432 12.4009 52.5841 12.696 52.4658C12.9912 52.3475 13.1683 52.17 13.3454 51.8743C13.5225 51.5785 13.5815 51.1645 13.6406 50.6322C13.6996 50.0998 13.7587 49.39 13.7587 48.5028V17.5083Z" fill="#7D0B0B"/>
<path d="M20.0752 47.2606C20.0752 49.6266 19.9571 51.4603 19.78 52.8799C19.6029 54.2995 19.1897 55.3641 18.6584 56.1331C18.1271 56.902 17.3596 57.3752 16.4151 57.6118C15.4706 57.8484 14.2308 57.9667 12.755 57.9667H5.43481V5.67838H12.696C14.2308 5.67838 15.4115 5.79667 16.3561 6.03327C17.3006 6.26987 18.068 6.80222 18.5993 7.51202C19.1306 8.28096 19.5439 9.34566 19.721 10.7061C19.8981 12.1257 20.0162 13.9593 20.0162 16.3253V47.2606H20.0752ZM14.9393 16.3253C14.9393 15.4972 14.8802 14.7874 14.8212 14.2551C14.7622 13.7227 14.6441 13.3087 14.526 13.0129C14.3489 12.7172 14.1718 12.4806 13.8766 12.4214C13.5815 12.3623 13.2273 12.3031 12.755 12.3031H10.5708V51.4603H12.755C13.2273 51.4603 13.5815 51.4011 13.8766 51.2828C14.1718 51.1645 14.3489 50.9871 14.526 50.6913C14.7031 50.3956 14.7622 49.9815 14.8212 49.4492C14.8802 48.9168 14.9393 48.207 14.9393 47.3198V16.3253Z" fill="#FA1616"/>
<path d="M33.1217 23.8373C32.1772 23.8373 31.4097 23.0684 31.4097 22.122V17.3309C31.4097 16.3845 31.4097 15.6747 31.3507 15.0832C31.2916 14.4917 31.2326 14.0776 31.0555 13.7819C30.8784 13.4861 30.7013 13.3087 30.4061 13.1904C30.111 13.0721 29.6977 13.0129 29.2255 13.0129C28.6942 13.0129 28.34 13.0721 28.0448 13.1904C27.7496 13.3087 27.5725 13.4861 27.3954 13.7819C27.2183 14.0776 27.1593 14.4917 27.1002 15.0832C27.0412 15.6747 27.0412 16.3845 27.0412 17.3309V22.4769C27.0412 23.5416 27.1002 24.3105 27.2773 24.8429C27.4544 25.3752 27.8087 25.8484 28.399 26.3808C28.9303 26.854 29.5797 27.4455 30.4061 28.037C31.2326 28.6285 32.1772 29.4566 33.1807 30.3438C33.9482 31.0536 34.5385 31.7043 34.9517 32.2366C35.424 32.8281 35.7782 33.4787 35.9553 34.1294C36.1914 34.8392 36.3095 35.6673 36.4276 36.6728C36.4866 37.6192 36.5457 38.8614 36.5457 40.3401V48.7394C36.5457 51.1645 36.4276 53.1165 36.2505 54.5952C36.0734 56.0739 35.7192 57.1978 35.1879 57.9667C34.6566 58.7357 33.8891 59.268 32.9446 59.5046C32.0001 59.7412 30.7603 59.8595 29.2845 59.8595C27.8087 59.8595 26.628 59.7412 25.7425 59.5046C24.7979 59.268 24.0895 58.7948 23.5582 58.0259C23.0269 57.2569 22.6727 56.1922 22.4366 54.7135C22.2004 53.2348 22.1414 51.2828 22.1414 48.7985V40.1035C22.1414 39.1571 22.9088 38.3882 23.8534 38.3882H25.3883C26.3328 38.3882 27.1002 39.1571 27.1002 40.1035V48.7985C27.1002 49.7449 27.1002 50.4547 27.1593 51.0462C27.2183 51.5786 27.2773 52.0518 27.4545 52.3475C27.6316 52.6433 27.8087 52.8799 28.1038 52.9982C28.399 53.1165 28.7532 53.1756 29.2255 53.1756C30.17 53.1756 30.7603 52.939 30.9965 52.4067C31.2326 51.8743 31.3507 50.6913 31.3507 48.9168V40.9316C31.3507 39.512 31.2916 38.5065 31.1736 37.8558C31.0555 37.2643 30.7603 36.6728 30.17 36.0813C29.8748 35.7856 29.5206 35.4307 29.0484 35.0758C28.5761 34.7209 28.1038 34.3068 27.6316 33.8928C27.1002 33.4787 26.628 33.0647 26.0967 32.5915C25.5654 32.1775 25.0931 31.7043 24.6799 31.3494C24.0305 30.7579 23.5582 30.1664 23.204 29.5749C22.8498 29.0425 22.5546 28.3919 22.3775 27.7412C22.2004 27.0906 22.0824 26.3216 22.0233 25.4935C21.9643 24.6654 21.9053 23.6007 21.9053 22.3586V17.3309C21.9053 14.9057 22.0233 12.9538 22.2004 11.475C22.3775 9.99631 22.7317 8.87246 23.2631 8.10351C23.7944 7.33457 24.5028 6.80222 25.4473 6.56562C26.3918 6.32902 27.6316 6.21072 29.1074 6.21072C30.5832 6.21072 31.823 6.32902 32.7675 6.56562C33.712 6.80222 34.4204 7.33457 34.9517 8.10351C35.483 8.87246 35.8372 9.99631 36.0143 11.475C36.1915 12.9538 36.3095 14.9057 36.3095 17.3309V22.122C36.3095 23.0684 35.5421 23.8373 34.5975 23.8373H33.1217Z" fill="#7D0B0B"/>
<path d="M34.3024 22.6544C33.3578 22.6544 32.5904 21.8854 32.5904 20.939V16.1479C32.5904 15.2015 32.5904 14.4917 32.5313 13.9002C32.4723 13.3087 32.4133 12.8947 32.2362 12.5989C32.0591 12.3032 31.882 12.1257 31.5868 12.0074C31.2916 11.8891 30.8784 11.83 30.4061 11.83C29.8748 11.83 29.5206 11.8891 29.2255 12.0074C28.9303 12.1257 28.7532 12.3032 28.5761 12.5989C28.399 12.8947 28.3399 13.3087 28.2809 13.9002C28.2219 14.4917 28.2219 15.2015 28.2219 16.1479V21.2939C28.2219 22.3586 28.2809 23.1276 28.458 23.6599C28.6351 24.1923 28.9893 24.6654 29.5797 25.1978C30.111 25.671 30.7603 26.2625 31.5868 26.854C32.4133 27.4455 33.3578 28.2736 34.3614 29.1608C35.1288 29.8706 35.7192 30.5213 36.1324 31.0536C36.6047 31.6451 36.9589 32.2958 37.136 32.9464C37.3721 33.6562 37.4902 34.4843 37.6083 35.4898C37.6673 36.4362 37.7263 37.6784 37.7263 39.1571V47.5564C37.7263 49.9815 37.6083 51.9335 37.4312 53.4122C37.2541 54.891 36.8998 56.0148 36.3685 56.7837C35.8372 57.5527 35.0698 58.085 34.1253 58.3216C33.1807 58.5582 31.941 58.6765 30.4652 58.6765C28.9893 58.6765 27.8086 58.5582 26.9231 58.3216C25.9786 58.085 25.2702 57.6118 24.7389 56.8429C24.2076 56.074 23.8534 55.0093 23.6172 53.5305C23.3811 52.0518 23.3221 50.0998 23.3221 47.6155V38.9205C23.3221 37.9741 24.0895 37.2052 25.0341 37.2052H26.5689C27.5135 37.2052 28.2809 37.9741 28.2809 38.9205V47.6155C28.2809 48.5619 28.2809 49.2717 28.3399 49.8632C28.399 50.3956 28.458 50.8688 28.6351 51.1645C28.8122 51.4603 28.9893 51.6969 29.2845 51.8152C29.5797 51.9335 29.9339 51.9926 30.4061 51.9926C31.3507 51.9926 31.941 51.756 32.1771 51.2237C32.4133 50.6913 32.5313 49.5083 32.5313 47.7338V39.7486C32.5313 38.329 32.4723 37.3235 32.3542 36.6728C32.2362 36.0813 31.941 35.4898 31.3507 34.8984C31.0555 34.6026 30.7013 34.2477 30.229 33.8928C29.7568 33.5379 29.2845 33.1239 28.8122 32.7098C28.2809 32.2958 27.8086 31.8817 27.2773 31.4085C26.746 30.9945 26.2738 30.5213 25.8605 30.1664C25.2112 29.5749 24.7389 28.9834 24.3847 28.3919C24.0305 27.8595 23.7353 27.2089 23.5582 26.5582C23.3811 25.9076 23.263 25.1386 23.204 24.3105C23.145 23.4825 23.0859 22.4178 23.0859 21.1756V16.1479C23.0859 13.7227 23.204 11.7708 23.3811 10.2921C23.5582 8.81332 23.9124 7.68948 24.4437 6.92053C24.975 6.15159 25.6834 5.61924 26.628 5.38264C27.5725 5.14604 28.8122 5.02774 30.2881 5.02774C31.7639 5.02774 33.0036 5.14604 33.9482 5.38264C34.8927 5.61924 35.6011 6.15159 36.1324 6.92053C36.6637 7.68948 37.0179 8.81332 37.195 10.2921C37.3721 11.7708 37.4902 13.7227 37.4902 16.1479V20.939C37.4902 21.8854 36.7227 22.6544 35.7782 22.6544H34.3024Z" fill="#FA1616"/>
</g>
<defs>
<clipPath id="clip0">
<rect width="134" height="64" fill="white" transform="translate(0.0627441)"/>
</clipPath>
</defs>
</svg>
