<svg width="134" height="64" viewBox="0 0 134 64" fill="none" xmlns="http://www.w3.org/2000/svg">
    <path d="M52.3842 28.868V17.3946C52.3842 17.1505 52.6279 16.9064 52.8715 16.9064H57.2569C61.1551 16.9064 63.8351 19.3475 63.8351 23.0906C63.8351 26.8337 61.1551 29.2749 57.2569 29.2749H52.8715C52.6279 29.2749 52.3842 29.1121 52.3842 28.868ZM61.1551 23.0906C61.1551 20.8936 59.8557 19.1848 57.2569 19.1848H54.983V26.9151H57.2569C59.6933 26.9965 61.1551 25.2063 61.1551 23.0906Z" fill="#141414"/>
    <path d="M65.0533 24.7994C65.0533 22.1955 67.0024 20.0798 69.6824 20.0798C72.3624 20.0798 74.1491 22.1141 74.1491 25.0435V25.5317H68.0582C67.7333 25.5317 67.4897 25.8572 67.6521 26.1013C67.977 26.9151 68.8703 27.566 70.0885 27.566C70.7382 27.566 71.5503 27.3219 72.1188 26.9151C72.3624 26.7523 72.6061 26.8337 72.7685 27.0778L73.337 27.8915C73.4994 28.0543 73.4182 28.3797 73.2558 28.5425C72.3624 29.1935 71.1443 29.5189 69.9261 29.5189C67.1649 29.5189 65.0533 27.6474 65.0533 24.7994ZM69.6824 21.9514C68.5455 21.9514 67.8958 22.6024 67.6521 23.3347C67.4897 23.6602 67.7333 23.9857 68.0582 23.9857H71.3067C71.6315 23.9857 71.8752 23.6602 71.7127 23.3347C71.5503 22.6024 70.9006 21.9514 69.6824 21.9514Z" fill="#141414"/>
    <path d="M75.9358 28.868V17.3946C75.9358 17.1505 76.1794 16.9064 76.4231 16.9064H77.8849C78.1285 16.9064 78.3722 17.1505 78.3722 17.3946V28.868C78.3722 29.1121 78.1285 29.3562 77.8849 29.3562H76.4231C76.0982 29.2749 75.9358 29.1121 75.9358 28.868Z" fill="#141414"/>
    <path d="M80.3212 17.9642C80.3212 17.1505 80.9709 16.5809 81.7018 16.5809C82.5139 16.5809 83.0824 17.2318 83.0824 17.9642C83.0824 18.7779 82.4327 19.3475 81.7018 19.3475C80.9709 19.3475 80.3212 18.6965 80.3212 17.9642ZM80.5648 28.868V20.8122C80.5648 20.5681 80.8084 20.324 81.0521 20.324H82.5139C82.7575 20.324 83.0012 20.5681 83.0012 20.8122V28.868C83.0012 29.1121 82.7575 29.3562 82.5139 29.3562H81.0521C80.8084 29.2749 80.5648 29.1121 80.5648 28.868Z" fill="#141414"/>
    <path d="M87.4679 29.0307L84.2194 20.9749C84.1382 20.6495 84.3006 20.324 84.6255 20.324H86.1685C86.3309 20.324 86.4934 20.4053 86.5746 20.6495L88.7673 26.5896L90.96 20.6495C91.0413 20.4867 91.2037 20.324 91.3661 20.324H92.9091C93.234 20.324 93.4776 20.6495 93.3152 20.9749L90.0667 29.0307C89.9855 29.1935 89.8231 29.3562 89.6607 29.3562H87.7116C87.7116 29.2749 87.5491 29.1935 87.4679 29.0307Z" fill="#141414"/>
    <path d="M94.2085 24.7994C94.2085 22.1955 96.1576 20.0798 98.8376 20.0798C101.518 20.0798 103.304 22.1141 103.304 25.0435V25.5317H97.2133C96.8885 25.5317 96.6449 25.8572 96.8073 26.1013C97.1321 26.9151 98.0255 27.566 99.2437 27.566C99.8934 27.566 100.705 27.3219 101.274 26.9151C101.518 26.7523 101.761 26.8337 101.924 27.0778L102.492 27.8915C102.655 28.0543 102.573 28.3797 102.411 28.5425C101.518 29.1935 100.299 29.5189 99.0812 29.5189C96.32 29.5189 94.2085 27.6474 94.2085 24.7994ZM98.8376 21.9514C97.7006 21.9514 97.0509 22.6024 96.8073 23.3347C96.6449 23.6602 96.8885 23.9857 97.2133 23.9857H100.462C100.787 23.9857 101.03 23.6602 100.868 23.3347C100.705 22.6024 100.056 21.9514 98.8376 21.9514Z" fill="#141414"/>
    <path d="M104.685 28.868V20.8122C104.685 20.5681 104.929 20.324 105.172 20.324H106.634C106.878 20.324 107.121 20.5681 107.121 20.8122V21.5445C107.69 20.8936 108.502 20.324 109.476 20.1612C109.72 20.0798 110.045 20.324 110.045 20.6494V22.4396C109.882 22.4396 109.639 22.3583 109.395 22.3583C108.664 22.3583 107.771 22.7651 107.284 23.2533C107.202 23.3347 107.202 23.4161 107.202 23.5788V28.868C107.202 29.1121 106.959 29.3562 106.715 29.3562H105.253C104.847 29.2748 104.685 29.1121 104.685 28.868Z" fill="#141414"/>
    <path d="M111.75 30.6582C111.994 30.7395 112.238 30.8209 112.481 30.8209C113.131 30.8209 113.537 30.6582 113.699 30.1699L114.024 29.4376L110.613 20.9749C110.532 20.6495 110.695 20.324 111.019 20.324H112.562C112.725 20.324 112.887 20.4053 112.969 20.6495L115.161 26.5896L117.354 20.6495C117.435 20.4867 117.598 20.324 117.76 20.324H119.303C119.628 20.324 119.872 20.6495 119.709 20.9749L115.73 30.8209C115.08 32.5297 113.862 32.9366 112.319 33.018C112.075 33.018 111.425 32.9366 111.182 32.8552L111.75 30.6582Z" fill="#141414"/>
    <path d="M51.8157 45.061L52.8715 43.5963C53.0339 43.3522 53.3588 43.3522 53.5212 43.5149C54.4957 44.3286 55.8763 45.061 57.5006 45.061C59.1248 45.061 59.8557 44.3286 59.8557 43.5149C59.8557 41.0738 51.9782 42.7826 51.9782 37.5748C51.9782 35.2964 53.9272 33.4248 57.1757 33.4248C59.206 33.4248 60.9115 33.9944 62.2109 35.0523C62.3733 35.215 62.4545 35.4591 62.2921 35.7032L61.2363 37.0866C61.0739 37.3307 60.7491 37.3307 60.5866 37.1679C59.5309 36.3542 58.2315 35.9474 56.9321 35.9474C55.7139 35.9474 54.983 36.517 54.983 37.3307C54.983 39.5277 62.8606 38.063 62.8606 43.1894C62.8606 45.712 61.0739 47.5835 57.3382 47.5835C54.9018 47.5835 53.1151 46.8512 51.8157 45.712C51.7345 45.4678 51.7345 45.2237 51.8157 45.061Z" fill="#141414"/>
    <path d="M64.5661 48.8855C64.8097 48.9669 65.1346 49.0482 65.3782 49.0482C66.0279 49.0482 66.5152 48.8855 66.7588 48.3159L67.0837 47.6649C67.1649 47.5835 67.1649 47.4208 67.0837 47.3394L63.3479 38.0631C63.2667 37.7376 63.4291 37.4121 63.754 37.4121H65.5406C65.7031 37.4121 65.8655 37.4934 65.9467 37.7376L67.977 43.2708C68.1394 43.6777 68.7079 43.6777 68.8703 43.2708L70.9006 37.7376C70.9818 37.5748 71.1443 37.4121 71.3067 37.4121H73.1746C73.4994 37.4121 73.7431 37.7376 73.5806 38.0631L69.1952 49.0482C68.4643 50.9198 67.1649 51.408 65.4594 51.4894C65.297 51.4894 64.9721 51.4894 64.6473 51.408C64.4037 51.408 64.2412 51.1639 64.2412 50.8384L64.5661 48.8855Z" fill="#141414"/>
    <path d="M74.474 45.712L75.1237 44.6541C75.2861 44.41 75.5297 44.41 75.7734 44.4914C76.5855 45.061 77.8037 45.5492 78.8594 45.5492C79.9964 45.5492 80.5649 45.061 80.5649 44.4914C80.5649 42.864 74.6364 44.1659 74.6364 40.2601C74.6364 38.5513 76.0982 37.0866 78.697 37.0866C80.24 37.0866 81.4582 37.5748 82.3515 38.2258C82.514 38.3885 82.5952 38.6326 82.514 38.7954L81.9455 39.7718C81.7831 40.016 81.4582 40.0973 81.2958 39.9346C80.6461 39.4464 79.7527 39.1209 78.7782 39.1209C77.8037 39.1209 77.2352 39.5277 77.2352 40.0973C77.2352 41.562 83.1637 40.3414 83.1637 44.3287C83.1637 46.1188 81.6206 47.5021 78.8594 47.5021C77.3164 47.5021 75.7733 47.0139 74.7176 46.2002C74.3927 46.1188 74.3927 45.8747 74.474 45.712Z" fill="#141414"/>
    <path d="M85.4376 44.8169V39.6091H84.2194C83.9758 39.6091 83.7321 39.365 83.7321 39.1209V37.7375C83.7321 37.4934 83.9758 37.2493 84.2194 37.2493H85.4376V34.9709C85.4376 34.7268 85.6812 34.4827 85.9248 34.4827H87.6303C87.8739 34.4827 88.1176 34.7268 88.1176 34.9709V37.2493H89.6606C89.9042 37.2493 90.1479 37.4934 90.1479 37.7375V39.1209C90.1479 39.365 89.9042 39.6091 89.6606 39.6091H88.1176V44.1659C88.1176 44.8169 88.4424 45.2237 89.0109 45.2237C89.417 45.2237 89.7418 45.061 89.9042 44.8982L90.3915 46.607C90.4727 46.7698 90.3915 47.0139 90.2291 47.0953C89.823 47.3394 89.1733 47.5021 88.3612 47.5021C86.4933 47.5835 85.4376 46.607 85.4376 44.8169Z" fill="#141414"/>
    <path d="M91.2848 42.2944C91.2848 39.365 93.3963 37.0866 96.4012 37.0866C99.406 37.0866 101.355 39.2836 101.355 42.5385V43.1081H94.6145C94.2896 43.1081 94.046 43.4336 94.2084 43.7591C94.6145 44.7355 95.5078 45.4679 96.8884 45.4679C97.6193 45.4679 98.5127 45.2237 99.1624 44.7355C99.406 44.5728 99.6496 44.6542 99.8121 44.8983L100.462 45.8747C100.624 46.0375 100.543 46.363 100.381 46.5257C99.406 47.258 98.0254 47.6649 96.6448 47.6649C93.5587 47.5835 91.2848 45.5492 91.2848 42.2944ZM96.4012 39.2022C95.1018 39.2022 94.3709 40.016 94.1272 40.8297C94.046 41.1552 94.2896 41.3993 94.5333 41.3993H98.3503C98.6751 41.3993 98.9187 41.1552 98.7563 40.8297C98.5127 40.016 97.863 39.2022 96.4012 39.2022Z" fill="#141414"/>
    <path d="M116.136 47.3394C115.892 47.3394 115.649 47.0953 115.649 46.8512V40.9924C115.649 40.0973 115.242 39.365 114.187 39.365C114.105 39.365 113.943 39.365 113.862 39.365C112.806 39.5277 112.075 40.5042 112.075 41.562V46.7698C112.075 47.0139 111.832 47.258 111.588 47.258H109.882C109.639 47.258 109.395 47.0139 109.395 46.7698V40.911C109.395 40.016 108.989 39.2836 107.933 39.2836C107.852 39.2836 107.771 39.2836 107.609 39.2836C106.553 39.4464 105.822 40.4228 105.822 41.4806V46.6884C105.822 46.9325 105.578 47.1767 105.335 47.1767H103.629C103.385 47.1767 103.142 46.9325 103.142 46.6884V37.8189C103.142 37.5748 103.385 37.3307 103.629 37.3307H105.335C105.578 37.3307 105.822 37.5748 105.822 37.8189V38.6326C106.228 38.063 107.527 37.0866 109.07 37.0866C110.207 37.0866 111.101 37.4934 111.507 38.3072C111.669 38.5513 111.994 38.6326 112.238 38.3885C112.887 37.6562 114.024 37.0866 115.242 37.0866C117.11 37.0866 118.166 38.063 118.166 40.0973V46.8512C118.166 47.0953 117.922 47.3394 117.679 47.3394H116.136Z" fill="#141414"/>
    <path d="M33.7673 64H1.41681C0.649372 64 0 63.3494 0 62.5804V1.41959C0 0.650647 0.649372 0 1.41681 0H33.7673C38.6081 0 42.5043 3.90388 42.5043 8.75416V55.305C42.5043 60.0961 38.6081 64 33.7673 64Z" fill="#141414"/>
    <path d="M18.8318 48.4436C18.8318 50.8096 18.7138 52.6432 18.5367 54.0628C18.3596 55.4824 17.9463 56.5471 17.415 57.3161C16.8837 58.085 16.1163 58.5582 15.1718 58.7948C14.2272 59.0314 12.9875 59.1497 11.5117 59.1497H4.19147V6.86136H11.4526C12.9875 6.86136 14.1682 6.97966 15.1127 7.21626C16.0573 7.45286 16.8247 7.9852 17.356 8.695C17.8873 9.46395 18.3005 10.5286 18.4776 11.8891C18.6547 13.3087 18.7728 15.1423 18.7728 17.5083V48.4436H18.8318ZM13.6959 17.5083C13.6959 16.6802 13.6369 15.9704 13.5778 15.4381C13.5188 14.9057 13.4007 14.4917 13.2827 14.1959C13.1056 13.9002 12.9285 13.6636 12.6333 13.6044C12.3381 13.5453 11.9839 13.4861 11.5117 13.4861H9.32741V52.6432H11.5117C11.9839 52.6432 12.3381 52.5841 12.6333 52.4658C12.9285 52.3475 13.1056 52.17 13.2827 51.8743C13.4598 51.5785 13.5188 51.1645 13.5778 50.6322C13.6369 50.0998 13.6959 49.39 13.6959 48.5028V17.5083Z" fill="#404040"/>
    <path d="M20.0124 47.2606C20.0124 49.6266 19.8944 51.4603 19.7173 52.8799C19.5402 54.2994 19.1269 55.3641 18.5956 56.1331C18.0643 56.902 17.2969 57.3752 16.3524 57.6118C15.4078 57.8484 14.1681 57.9667 12.6923 57.9667H5.37207V5.67838H12.6332C14.1681 5.67838 15.3488 5.79667 16.2933 6.03327C17.2379 6.26987 18.0053 6.80222 18.5366 7.51202C19.0679 8.28096 19.4811 9.34566 19.6582 10.7061C19.8353 12.1257 19.9534 13.9593 19.9534 16.3253V47.2606H20.0124ZM14.8765 16.3253C14.8765 15.4972 14.8175 14.7874 14.7584 14.2551C14.6994 13.7227 14.5813 13.3087 14.4633 13.0129C14.2862 12.7172 14.1091 12.4806 13.8139 12.4214C13.5187 12.3623 13.1645 12.3031 12.6923 12.3031H10.508V51.4603H12.6923C13.1645 51.4603 13.5187 51.4011 13.8139 51.2828C14.1091 51.1645 14.2862 50.9871 14.4633 50.6913C14.6404 50.3956 14.6994 49.9815 14.7584 49.4492C14.8175 48.9168 14.8765 48.207 14.8765 47.3198V16.3253Z" fill="#FCFFFF"/>
    <path d="M33.0589 23.8373C32.1144 23.8373 31.347 23.0684 31.347 22.122V17.3309C31.347 16.3845 31.347 15.6747 31.2879 15.0832C31.2289 14.4917 31.1699 14.0776 30.9928 13.7819C30.8157 13.4861 30.6386 13.3087 30.3434 13.1904C30.0482 13.0721 29.635 13.0129 29.1627 13.0129C28.6314 13.0129 28.2772 13.0721 27.982 13.1904C27.6869 13.3087 27.5098 13.4861 27.3327 13.7819C27.1556 14.0776 27.0965 14.4917 27.0375 15.0832C26.9785 15.6747 26.9785 16.3845 26.9785 17.3309V22.4769C26.9785 23.5416 27.0375 24.3105 27.2146 24.8429C27.3917 25.3752 27.7459 25.8484 28.3362 26.3808C28.8675 26.854 29.5169 27.4455 30.3434 28.037C31.1699 28.6285 32.1144 29.4566 33.118 30.3438C33.8854 31.0536 34.4758 31.7043 34.889 32.2366C35.3613 32.8281 35.7155 33.4787 35.8926 34.1294C36.1287 34.8392 36.2468 35.6673 36.3648 36.6728C36.4239 37.6192 36.4829 38.8614 36.4829 40.3401V48.7394C36.4829 51.1645 36.3648 53.1165 36.1877 54.5952C36.0106 56.0739 35.6564 57.1978 35.1251 57.9667C34.5938 58.7357 33.8264 59.268 32.8818 59.5046C31.9373 59.7412 30.6976 59.8595 29.2218 59.8595C27.7459 59.8595 26.5652 59.7412 25.6797 59.5046C24.7352 59.268 24.0268 58.7948 23.4955 58.0259C22.9642 57.2569 22.61 56.1922 22.3738 54.7135C22.1377 53.2348 22.0787 51.2828 22.0787 48.7985V40.1035C22.0787 39.1571 22.8461 38.3882 23.7906 38.3882H25.3255C26.2701 38.3882 27.0375 39.1571 27.0375 40.1035V48.7985C27.0375 49.7449 27.0375 50.4547 27.0965 51.0462C27.1556 51.5786 27.2146 52.0518 27.3917 52.3475C27.5688 52.6433 27.7459 52.8799 28.0411 52.9982C28.3362 53.1165 28.6904 53.1756 29.1627 53.1756C30.1073 53.1756 30.6976 52.939 30.9337 52.4067C31.1699 51.8743 31.2879 50.6913 31.2879 48.9168V40.9316C31.2879 39.512 31.2289 38.5065 31.1108 37.8558C30.9928 37.2643 30.6976 36.6728 30.1073 36.0813C29.8121 35.7856 29.4579 35.4307 28.9856 35.0758C28.5133 34.7209 28.0411 34.3068 27.5688 33.8928C27.0375 33.4787 26.5652 33.0647 26.0339 32.5915C25.5026 32.1775 25.0304 31.7043 24.6171 31.3494C23.9677 30.7579 23.4955 30.1664 23.1413 29.5749C22.7871 29.0425 22.4919 28.3919 22.3148 27.7412C22.1377 27.0906 22.0196 26.3216 21.9606 25.4935C21.9016 24.6654 21.8425 23.6007 21.8425 22.3586V17.3309C21.8425 14.9057 21.9606 12.9538 22.1377 11.475C22.3148 9.99631 22.669 8.87246 23.2003 8.10351C23.7316 7.33457 24.44 6.80222 25.3846 6.56562C26.3291 6.32902 27.5688 6.21072 29.0447 6.21072C30.5205 6.21072 31.7602 6.32902 32.7047 6.56562C33.6493 6.80222 34.3577 7.33457 34.889 8.10351C35.4203 8.87246 35.7745 9.99631 35.9516 11.475C36.1287 12.9538 36.2468 14.9057 36.2468 17.3309V22.122C36.2468 23.0684 35.4793 23.8373 34.5348 23.8373H33.0589Z" fill="#404040"/>
    <path d="M34.2396 22.6544C33.2951 22.6544 32.5276 21.8854 32.5276 20.939V16.1479C32.5276 15.2015 32.5276 14.4917 32.4686 13.9002C32.4096 13.3087 32.3505 12.8947 32.1734 12.5989C31.9963 12.3032 31.8192 12.1257 31.5241 12.0074C31.2289 11.8891 30.8157 11.83 30.3434 11.83C29.8121 11.83 29.4579 11.8891 29.1627 12.0074C28.8675 12.1257 28.6904 12.3032 28.5133 12.5989C28.3362 12.8947 28.2772 13.3087 28.2182 13.9002C28.1591 14.4917 28.1591 15.2015 28.1591 16.1479V21.2939C28.1591 22.3586 28.2182 23.1276 28.3953 23.6599C28.5724 24.1923 28.9266 24.6654 29.5169 25.1978C30.0482 25.671 30.6976 26.2625 31.5241 26.854C32.3505 27.4455 33.2951 28.2736 34.2986 29.1608C35.0661 29.8706 35.6564 30.5213 36.0697 31.0536C36.5419 31.6451 36.8961 32.2958 37.0732 32.9464C37.3094 33.6562 37.4274 34.4843 37.5455 35.4898C37.6045 36.4362 37.6636 37.6784 37.6636 39.1571V47.5564C37.6636 49.9815 37.5455 51.9335 37.3684 53.4122C37.1913 54.891 36.8371 56.0148 36.3058 56.7837C35.7745 57.5527 35.0071 58.085 34.0625 58.3216C33.118 58.5582 31.8783 58.6765 30.4024 58.6765C28.9266 58.6765 27.7459 58.5582 26.8604 58.3216C25.9158 58.085 25.2074 57.6118 24.6761 56.8429C24.1448 56.074 23.7906 55.0093 23.5545 53.5305C23.3184 52.0518 23.2593 50.0998 23.2593 47.6155V38.9205C23.2593 37.9741 24.0268 37.2052 24.9713 37.2052H26.5062C27.4507 37.2052 28.2182 37.9741 28.2182 38.9205V47.6155C28.2182 48.5619 28.2182 49.2717 28.2772 49.8632C28.3362 50.3956 28.3953 50.8688 28.5724 51.1645C28.7495 51.4603 28.9266 51.6969 29.2217 51.8152C29.5169 51.9335 29.8711 51.9926 30.3434 51.9926C31.2879 51.9926 31.8783 51.756 32.1144 51.2237C32.3505 50.6913 32.4686 49.5083 32.4686 47.7338V39.7486C32.4686 38.329 32.4096 37.3235 32.2915 36.6728C32.1734 36.0813 31.8783 35.4898 31.2879 34.8984C30.9928 34.6026 30.6386 34.2477 30.1663 33.8928C29.694 33.5379 29.2217 33.1239 28.7495 32.7098C28.2182 32.2958 27.7459 31.8817 27.2146 31.4085C26.6833 30.9945 26.211 30.5213 25.7978 30.1664C25.1484 29.5749 24.6761 28.9834 24.3219 28.3919C23.9677 27.8595 23.6726 27.2089 23.4955 26.5582C23.3184 25.9076 23.2003 25.1386 23.1413 24.3105C23.0822 23.4825 23.0232 22.4178 23.0232 21.1756V16.1479C23.0232 13.7227 23.1413 11.7708 23.3184 10.2921C23.4955 8.81332 23.8497 7.68948 24.381 6.92053C24.9123 6.15159 25.6207 5.61924 26.5652 5.38264C27.5098 5.14604 28.7495 5.02774 30.2253 5.02774C31.7012 5.02774 32.9409 5.14604 33.8854 5.38264C34.83 5.61924 35.5384 6.15159 36.0697 6.92053C36.601 7.68948 36.9552 8.81332 37.1323 10.2921C37.3094 11.7708 37.4274 13.7227 37.4274 16.1479V20.939C37.4274 21.8854 36.66 22.6544 35.7155 22.6544H34.2396Z" fill="#FCFFFF"/>
    </svg>
