<svg width="221" height="66" viewBox="0 0 221 66" fill="none" xmlns="http://www.w3.org/2000/svg">
<g clip-path="url(#clip0)">
<path d="M212.383 0.147461H8.41576C3.90985 0.147461 0.25708 3.80023 0.25708 8.30614V57.2582C0.25708 61.7641 3.90985 65.4169 8.41576 65.4169H212.383C216.889 65.4169 220.541 61.7641 220.541 57.2582V8.30614C220.541 3.80023 216.889 0.147461 212.383 0.147461Z" fill="black"/>
<path d="M212.383 1.45252C214.2 1.45462 215.942 2.17739 217.227 3.46225C218.511 4.74711 219.234 6.48914 219.236 8.30614V57.2582C219.234 59.0752 218.511 60.8172 217.227 62.1021C215.942 63.3869 214.2 64.1097 212.383 64.1119H8.41576C6.59874 64.1098 4.85675 63.387 3.57195 62.1021C2.28715 60.8173 1.56448 59.0752 1.56247 57.2582V8.30614C1.56445 6.48911 2.28711 4.74707 3.57192 3.4622C4.85672 2.17734 6.59873 1.45459 8.41576 1.45252H212.383ZM212.383 0.147461H8.41576C6.25389 0.153789 4.18237 1.01539 2.65369 2.54407C1.12501 4.07275 0.263408 6.14427 0.25708 8.30614L0.25708 57.2582C0.263408 59.4201 1.12501 61.4916 2.65369 63.0203C4.18237 64.549 6.25389 65.4106 8.41576 65.4169H212.383C214.545 65.4106 216.616 64.549 218.145 63.0203C219.674 61.4916 220.535 59.4201 220.541 57.2582V8.30614C220.535 6.14427 219.674 4.07275 218.145 2.54407C216.616 1.01539 214.545 0.153789 212.383 0.147461Z" fill="#A6A6A6"/>
<path d="M77.6314 16.862C77.6611 17.4607 77.5685 18.0593 77.3595 18.6211C77.1505 19.183 76.8292 19.6964 76.4154 20.1302C75.9517 20.6111 75.3916 20.9888 74.7718 21.2384C74.1521 21.488 73.4866 21.604 72.8189 21.5787C72.147 21.5847 71.4807 21.4563 70.8591 21.2011C70.2375 20.9459 69.6731 20.5691 69.1993 20.0927C68.7254 19.6163 68.3516 19.0499 68.0997 18.427C67.8478 17.804 67.723 17.137 67.7326 16.4651C67.7231 15.7932 67.848 15.1262 68.0998 14.5032C68.3517 13.8803 68.7256 13.3139 69.1994 12.8375C69.6732 12.361 70.2375 11.9841 70.8591 11.7288C71.4807 11.4735 72.147 11.3449 72.8189 11.3508C73.5098 11.3487 74.1937 11.4884 74.8284 11.7612C75.4179 12.0001 75.9426 12.3749 76.3598 12.8551L75.4992 13.7163C75.1713 13.3303 74.759 13.0248 74.2943 12.8234C73.8296 12.622 73.3248 12.5301 72.8189 12.5547C72.3097 12.552 71.8052 12.6522 71.3356 12.8492C70.866 13.0461 70.4409 13.3359 70.0859 13.701C69.731 14.0661 69.4533 14.4991 69.2696 14.9741C69.086 15.449 69 15.9562 69.017 16.4651C69.0048 17.2275 69.2194 17.9762 69.6333 18.6165C70.0473 19.2568 70.6421 19.7597 71.3422 20.0615C72.0424 20.3633 72.8164 20.4503 73.5661 20.3117C74.3159 20.173 75.0075 19.8148 75.5534 19.2825C76.0558 18.7411 76.347 18.0373 76.374 17.2993H72.8189V16.1233H77.5629C77.6077 16.367 77.6307 16.6142 77.6314 16.862Z" fill="white" stroke="white" stroke-width="0.326347" stroke-miterlimit="10"/>
<path d="M85.1525 12.7729H80.694V15.877H84.7144V17.0531H80.694V20.1572H85.1525V21.3602H79.4367V11.5698H85.1525V12.7729Z" fill="white" stroke="white" stroke-width="0.326347" stroke-miterlimit="10"/>
<path d="M90.4574 21.3602H89.1985V12.7729H86.464V11.5698H93.1918V12.7729H90.4574V21.3602Z" fill="white" stroke="white" stroke-width="0.326347" stroke-miterlimit="10"/>
<path d="M98.06 21.3602V11.5698H99.3172V21.3602H98.06Z" fill="white" stroke="white" stroke-width="0.326347" stroke-miterlimit="10"/>
<path d="M104.898 21.3602H103.639V12.7729H100.904V11.5698H107.632V12.7729H104.898V21.3602Z" fill="white" stroke="white" stroke-width="0.326347" stroke-miterlimit="10"/>
<path d="M120.368 20.0949C119.415 21.045 118.124 21.5785 116.779 21.5785C115.433 21.5785 114.142 21.045 113.189 20.0949C112.718 19.6174 112.347 19.05 112.1 18.4264C111.852 17.8028 111.732 17.1358 111.747 16.4649C111.732 15.7941 111.852 15.1271 112.1 14.5035C112.347 13.8799 112.718 13.3125 113.189 12.835C113.66 12.3638 114.22 11.9902 114.835 11.7355C115.451 11.4808 116.111 11.35 116.777 11.3506C117.443 11.3512 118.103 11.4832 118.718 11.739C119.333 11.9948 119.892 12.3694 120.362 12.8413C120.833 13.3176 121.205 13.8837 121.454 14.5062C121.702 15.1286 121.824 15.7947 121.81 16.4649C121.825 17.1357 121.705 17.8026 121.457 18.4262C121.21 19.0497 120.839 19.6172 120.368 20.0949ZM114.118 19.2751C114.824 19.9797 115.781 20.3754 116.778 20.3754C117.775 20.3754 118.732 19.9797 119.437 19.2751C119.799 18.9046 120.082 18.4645 120.27 17.9815C120.457 17.4985 120.544 16.9826 120.526 16.4649C120.544 15.9473 120.457 15.4314 120.27 14.9484C120.082 14.4654 119.799 14.0253 119.437 13.6548C118.732 12.9502 117.775 12.5545 116.778 12.5545C115.781 12.5545 114.824 12.9502 114.118 13.6548C113.757 14.0256 113.474 14.4657 113.288 14.9487C113.101 15.4317 113.014 15.9474 113.032 16.4649C113.014 16.9824 113.101 17.4982 113.288 17.9812C113.474 18.4641 113.757 18.9043 114.118 19.2751Z" fill="white" stroke="white" stroke-width="0.326347" stroke-miterlimit="10"/>
<path d="M123.576 21.3602V11.5698H125.107L129.865 19.186H129.919L129.865 17.2992V11.5698H131.124V21.3602H129.811L124.833 13.3752H124.779L124.833 15.262V21.3602H123.576Z" fill="white" stroke="white" stroke-width="0.326347" stroke-miterlimit="10"/>
<path d="M111.437 35.6403C110.065 35.6455 108.726 36.057 107.588 36.8227C106.45 37.5885 105.565 38.6742 105.044 39.9428C104.522 41.2113 104.389 42.6059 104.66 43.9504C104.93 45.2949 105.593 46.5291 106.565 47.497C107.537 48.465 108.773 49.1233 110.119 49.389C111.464 49.6546 112.858 49.5157 114.125 48.9896C115.392 48.4635 116.474 47.574 117.235 46.4333C117.997 45.2925 118.403 43.9518 118.403 42.5803C118.417 41.6629 118.245 40.7523 117.9 39.9025C117.554 39.0526 117.041 38.281 116.391 37.6335C115.741 36.9861 114.968 36.4759 114.116 36.1335C113.265 35.7911 112.354 35.6234 111.437 35.6403ZM111.437 46.7864C110.592 46.8466 109.749 46.6512 109.017 46.2255C108.285 45.7998 107.698 45.1635 107.333 44.3996C106.967 43.6357 106.841 42.7795 106.969 41.9425C107.097 41.1055 107.474 40.3264 108.051 39.7067C108.628 39.087 109.378 38.6554 110.204 38.4681C111.03 38.2808 111.893 38.3464 112.681 38.6565C113.469 38.9666 114.145 39.5067 114.622 40.2065C115.099 40.9063 115.354 41.7335 115.354 42.5803C115.379 43.1152 115.298 43.6499 115.113 44.1528C114.929 44.6557 114.646 45.1167 114.281 45.5087C113.916 45.9006 113.477 46.2156 112.988 46.435C112.5 46.6544 111.972 46.7739 111.437 46.7864ZM96.2397 35.6403C94.8682 35.6455 93.529 36.0569 92.3912 36.8226C91.2533 37.5884 90.3679 38.6741 89.8466 39.9426C89.3253 41.2112 89.1916 42.6058 89.4624 43.9503C89.7331 45.2949 90.3962 46.529 91.3678 47.497C92.3394 48.465 93.5761 49.1233 94.9216 49.389C96.2671 49.6546 97.6612 49.5157 98.9278 48.9896C100.194 48.4636 101.277 47.574 102.038 46.4333C102.8 45.2925 103.206 43.9518 103.206 42.5803C103.219 41.663 103.048 40.7523 102.703 39.9025C102.357 39.0527 101.844 38.2811 101.194 37.6336C100.544 36.9861 99.7705 36.476 98.9194 36.1336C98.0683 35.7911 97.157 35.6234 96.2397 35.6403ZM96.2397 46.7864C95.3951 46.8466 94.5519 46.6512 93.8199 46.2255C93.088 45.7998 92.5011 45.1635 92.1358 44.3996C91.7704 43.6357 91.6436 42.7795 91.7716 41.9425C91.8997 41.1055 92.2769 40.3264 92.8539 39.7067C93.431 39.087 94.1813 38.6554 95.0071 38.4681C95.8328 38.2808 96.6959 38.3464 97.4839 38.6565C98.2718 38.9666 98.9482 39.5067 99.4249 40.2065C99.9016 40.9063 100.157 41.7335 100.157 42.5803C100.182 43.1152 100.101 43.6499 99.9164 44.1528C99.7323 44.6557 99.4494 45.1167 99.0845 45.5087C98.7195 45.9006 98.2798 46.2156 97.7912 46.435C97.3027 46.6544 96.7752 46.7739 96.2397 46.7864ZM78.1621 37.7697V40.7139H85.2074C85.1057 42.0948 84.5407 43.401 83.6037 44.4205C82.8977 45.1402 82.0487 45.7038 81.1114 46.0751C80.1741 46.4464 79.1694 46.617 78.1621 46.5761C76.1028 46.5482 74.1373 45.7106 72.6909 44.2445C71.2445 42.7784 70.4336 40.8017 70.4336 38.7423C70.4336 36.6828 71.2445 34.7061 72.6909 33.24C74.1373 31.774 76.1028 30.9363 78.1621 30.9085C80.1401 30.8826 82.0484 31.6383 83.4724 33.0114L85.5491 30.9347C84.5775 29.9728 83.4236 29.2146 82.1551 28.7045C80.8867 28.1944 79.5291 27.9427 78.1621 27.9642C76.7334 27.9434 75.315 28.2068 73.9891 28.7391C72.6632 29.2714 71.4563 30.062 70.4387 31.0649C69.4211 32.0678 68.6131 33.263 68.0615 34.581C67.5099 35.899 67.2259 37.3135 67.2259 38.7423C67.2259 40.171 67.5099 41.5855 68.0615 42.9035C68.6131 44.2215 69.4211 45.4167 70.4387 46.4196C71.4563 47.4225 72.6632 48.2131 73.9891 48.7454C75.315 49.2778 76.7334 49.5412 78.1621 49.5204C79.5579 49.5783 80.9502 49.3387 82.2464 48.8174C83.5426 48.2962 84.7132 47.5054 85.6804 46.4973C87.3977 44.6228 88.313 42.1507 88.2305 39.6099C88.2373 38.9928 88.1844 38.3766 88.0726 37.7697H78.1621ZM152.093 40.0566C151.676 38.7996 150.882 37.7014 149.819 36.9113C148.756 36.1212 147.476 35.6774 146.152 35.6403C145.26 35.6459 144.379 35.8322 143.561 36.1879C142.744 36.5437 142.007 37.0616 141.395 37.7103C140.783 38.359 140.309 39.125 140.002 39.9621C139.694 40.7991 139.56 41.6898 139.607 42.5803C139.586 43.4927 139.75 44.3998 140.089 45.2475C140.427 46.0951 140.933 46.8658 141.576 47.5136C142.219 48.1614 142.985 48.673 143.831 49.0178C144.676 49.3626 145.581 49.5335 146.494 49.5204C147.637 49.5267 148.764 49.249 149.774 48.7121C150.783 48.1753 151.643 47.3962 152.277 46.4447L149.911 44.8675C149.557 45.4561 149.055 45.9425 148.456 46.2789C147.857 46.6153 147.181 46.7902 146.494 46.7864C145.787 46.8134 145.088 46.6274 144.488 46.2524C143.888 45.8774 143.415 45.3308 143.129 44.6834L152.409 40.8454L152.093 40.0566ZM142.63 42.3701C142.597 41.865 142.665 41.3584 142.831 40.8801C142.996 40.4017 143.255 39.9611 143.593 39.5842C143.931 39.2072 144.341 38.9014 144.798 38.6846C145.255 38.4678 145.752 38.3445 146.257 38.3218C146.784 38.2871 147.309 38.4082 147.767 38.67C148.225 38.9318 148.596 39.3227 148.834 39.7939L142.63 42.3701ZM135.085 49.0997H138.134V28.7004H135.085V49.0997ZM130.09 37.1913H129.985C129.521 36.6876 128.956 36.2887 128.325 36.0212C127.695 35.7537 127.015 35.6239 126.331 35.6403C124.541 35.7165 122.85 36.481 121.611 37.7741C120.372 39.0673 119.68 40.7892 119.68 42.5804C119.68 44.3715 120.372 46.0934 121.611 47.3866C122.85 48.6797 124.541 49.4442 126.331 49.5204C127.018 49.5387 127.701 49.407 128.332 49.1346C128.963 48.8623 129.527 48.4557 129.985 47.9431H130.09V48.9421C130.09 51.5972 128.671 53.0167 126.383 53.0167C125.621 52.9984 124.882 52.7537 124.259 52.3136C123.636 51.8735 123.159 51.258 122.887 50.5456L120.232 51.6498C120.733 52.8682 121.585 53.9094 122.681 54.64C123.777 55.3706 125.066 55.7573 126.383 55.7507C129.959 55.7507 132.982 53.6477 132.982 48.5214V36.0608H130.09V37.1913ZM126.594 46.7864C125.54 46.697 124.558 46.2152 123.842 45.4363C123.127 44.6574 122.729 43.6381 122.729 42.5804C122.729 41.5226 123.127 40.5033 123.842 39.7244C124.558 38.9455 125.54 38.4637 126.594 38.3743C127.118 38.3999 127.632 38.5308 128.105 38.7593C128.578 38.9877 128.999 39.3089 129.345 39.7039C129.691 40.0988 129.954 40.5594 130.118 41.0581C130.282 41.5568 130.344 42.0834 130.3 42.6065C130.341 43.1265 130.277 43.6493 130.111 44.1438C129.946 44.6383 129.682 45.0943 129.336 45.4845C128.99 45.8748 128.569 46.1912 128.098 46.4149C127.626 46.6385 127.115 46.7649 126.594 46.7864ZM166.377 28.7007H159.081V49.0997H162.126V41.3712H166.377C167.238 41.4184 168.1 41.2895 168.91 40.9925C169.72 40.6954 170.46 40.2364 171.087 39.6435C171.713 39.0506 172.212 38.3362 172.553 37.544C172.894 36.7518 173.069 35.8984 173.069 35.0359C173.069 34.1735 172.894 33.3201 172.553 32.5279C172.212 31.7357 171.713 31.0213 171.087 30.4284C170.46 29.8355 169.72 29.3765 168.91 29.0794C168.1 28.7824 167.238 28.6535 166.377 28.7007ZM166.456 38.5323H162.126V31.5398H166.456C166.921 31.5301 167.384 31.6134 167.816 31.7848C168.249 31.9562 168.643 32.2122 168.975 32.5378C169.308 32.8634 169.572 33.2521 169.752 33.6811C169.933 34.11 170.025 34.5707 170.025 35.036C170.025 35.5013 169.933 35.962 169.752 36.391C169.572 36.82 169.308 37.2086 168.975 37.5342C168.643 37.8599 168.249 38.1158 167.816 38.2872C167.384 38.4586 166.921 38.5419 166.456 38.5323ZM185.273 35.6028C184.161 35.5379 183.055 35.7989 182.09 36.3536C181.125 36.9084 180.343 37.7329 179.84 38.7258L182.543 39.8543C182.811 39.3615 183.217 38.9575 183.711 38.6918C184.205 38.4261 184.766 38.3102 185.325 38.3583C186.097 38.2829 186.868 38.5168 187.468 39.0087C188.068 39.5007 188.449 40.2105 188.527 40.9826V41.1926C187.549 40.6732 186.458 40.4028 185.351 40.4053C182.438 40.4053 179.473 42.0062 179.473 44.998C179.501 45.6285 179.656 46.2469 179.928 46.8165C180.199 47.3861 180.583 47.8953 181.055 48.3139C181.528 48.7324 182.079 49.0518 182.678 49.2531C183.276 49.4544 183.908 49.5335 184.538 49.4856C185.304 49.5307 186.069 49.3695 186.752 49.0187C187.435 48.668 188.012 48.1404 188.422 47.4911H188.527V49.0658H191.466V41.2452C191.466 37.6235 188.763 35.6028 185.273 35.6028ZM184.905 46.7825C183.908 46.7825 182.517 46.284 182.517 45.0504C182.517 43.4759 184.249 42.8722 185.745 42.8722C186.717 42.8463 187.677 43.082 188.527 43.5546C188.415 44.4394 187.987 45.2538 187.321 45.8471C186.655 46.4405 185.797 46.7728 184.905 46.7825ZM202.174 36.0489L198.683 44.8929H198.578L194.957 36.0489H191.676L197.108 48.4096L194.012 55.2855H197.187L205.559 36.0489H202.174ZM174.749 49.0997H177.793V28.7007H174.749V49.0997Z" fill="white"/>
<path d="M17.2847 12.4476C16.7497 13.0873 16.4795 13.9075 16.5296 14.74V50.8276C16.4794 51.6602 16.7496 52.4804 17.2847 53.1201L17.4055 53.2377L37.6211 33.0223V32.5453L17.4055 12.3291L17.2847 12.4476Z" fill="url(#paint0_linear)"/>
<path d="M44.3592 39.7637L37.6211 33.0223V32.5454L44.3608 25.8057L44.5127 25.8923L52.4965 30.4287C54.777 31.7243 54.777 33.8443 52.4965 35.1407L44.5127 39.6771L44.3592 39.7637Z" fill="url(#paint1_linear)"/>
<path d="M44.5127 39.676L37.6211 32.7837L17.2847 53.1199C17.7494 53.5297 18.3428 53.764 18.9621 53.7823C19.5814 53.8006 20.1876 53.6017 20.6757 53.22L44.5127 39.676Z" fill="url(#paint2_linear)"/>
<path d="M44.5127 25.8917L20.6757 12.3476C20.1876 11.966 19.5814 11.767 18.9621 11.7853C18.3428 11.8036 17.7494 12.038 17.2847 12.4478L37.6211 32.7842L44.5127 25.8917Z" fill="url(#paint3_linear)"/>
<path opacity="0.2" d="M44.3608 39.5244L20.6757 52.9818C20.2064 53.3391 19.6337 53.534 19.0439 53.5371C18.4541 53.5403 17.8794 53.3515 17.4063 52.9993L17.2847 53.1209L17.4055 53.2385L17.4063 53.2377C17.8793 53.5901 18.4541 53.779 19.0439 53.7758C19.6337 53.7727 20.2065 53.5777 20.6757 53.2202L44.5127 39.6762L44.3608 39.5244Z" fill="black"/>
<path opacity="0.12" d="M17.2847 52.8828C16.7497 52.243 16.4795 51.4228 16.5295 50.5903V50.8287C16.4795 51.6612 16.7497 52.4814 17.2847 53.1212L17.4063 52.9996L17.2847 52.8828Z" fill="black"/>
<path opacity="0.12" d="M52.4964 34.9015L44.3608 39.5246L44.5127 39.6763L52.4964 35.1399C52.9661 34.9361 53.3725 34.6101 53.6733 34.1959C53.9742 33.7816 54.1585 33.2943 54.207 32.7847C54.106 33.2462 53.8989 33.6778 53.6019 34.0453C53.305 34.4128 52.9265 34.7059 52.4964 34.9015Z" fill="black"/>
<path opacity="0.25" d="M20.6756 12.587L52.4964 30.6666C52.9266 30.8622 53.3053 31.1554 53.6022 31.5231C53.8992 31.8907 54.1063 32.3226 54.207 32.7843C54.1588 32.2744 53.9746 31.7869 53.6737 31.3724C53.3729 30.958 52.9663 30.6319 52.4964 30.4282L20.6756 12.3486C18.3951 11.0528 16.5295 12.1291 16.5295 14.7412V14.9796C16.5295 12.3677 18.3951 11.2914 20.6756 12.587Z" fill="white"/>
</g>
<defs>
<linearGradient id="paint0_linear" x1="35.8284" y1="14.3595" x2="8.44389" y2="41.744" gradientUnits="userSpaceOnUse">
<stop stop-color="#00A0FF"/>
<stop offset="0.00657" stop-color="#00A1FF"/>
<stop offset="0.2601" stop-color="#00BEFF"/>
<stop offset="0.5122" stop-color="#00D2FF"/>
<stop offset="0.7604" stop-color="#00DFFF"/>
<stop offset="1" stop-color="#00E3FF"/>
</linearGradient>
<linearGradient id="paint1_linear" x1="55.4657" y1="32.7847" x2="15.9828" y2="32.7847" gradientUnits="userSpaceOnUse">
<stop stop-color="#FFE000"/>
<stop offset="0.4087" stop-color="#FFBD00"/>
<stop offset="0.7754" stop-color="#FFA500"/>
<stop offset="1" stop-color="#FF9C00"/>
</linearGradient>
<linearGradient id="paint2_linear" x1="40.768" y1="36.5287" x2="3.63245" y2="73.6642" gradientUnits="userSpaceOnUse">
<stop stop-color="#FF3A44"/>
<stop offset="1" stop-color="#C31162"/>
</linearGradient>
<linearGradient id="paint3_linear" x1="12.1642" y1="0.435273" x2="28.7468" y2="17.0178" gradientUnits="userSpaceOnUse">
<stop stop-color="#32A071"/>
<stop offset="0.0685" stop-color="#2DA771"/>
<stop offset="0.4762" stop-color="#15CF74"/>
<stop offset="0.8009" stop-color="#06E775"/>
<stop offset="1" stop-color="#00F076"/>
</linearGradient>
<clipPath id="clip0">
<rect width="220.284" height="65.2698" fill="white" transform="translate(0.25708 0.147461)"/>
</clipPath>
</defs>
</svg>
