<svg width="176" height="152" viewBox="0 0 176 152" fill="none" xmlns="http://www.w3.org/2000/svg">
    <path d="M9.21642 151.5C3.31506 125.435 0.36438 102.814 0.36438 83.6341C0.36438 56.0944 6.75752 35.4396 19.5438 21.6698C32.3301 7.40815 51.0177 0.277344 75.6068 0.277344V29.7842C62.8205 29.7842 53.4766 33.2266 47.5753 40.1116C42.1657 46.9965 39.4609 57.3239 39.4609 71.0937V88.0601H76.3444V151.5H9.21642ZM108.802 151.5C102.901 125.435 99.9499 102.814 99.9499 83.6341C99.9499 56.0944 106.343 35.4396 119.129 21.6698C131.916 7.40815 150.603 0.277344 175.192 0.277344V29.7842C162.406 29.7842 153.062 33.2266 147.161 40.1116C141.751 46.9965 139.046 57.3239 139.046 71.0937V88.0601H175.93V151.5H108.802Z" fill="#FFE8E8"/>
    </svg>
